<svg xmlns="http://www.w3.org/2000/svg" xmlns:xlink="http://www.w3.org/1999/xlink" width="386" height="16" viewBox="0 0 386 16">
  <defs>
    <clipPath id="clip-path">
      <rect width="386" height="16" fill="none"/>
    </clipPath>
  </defs>
  <g id="h2" transform="translate(-365 -1093)">
    <g id="Repeat_Grid_1" data-name="Repeat Grid 1" transform="translate(365 1093)" clip-path="url(#clip-path)">
      <g transform="translate(-392 -1089)">
        <circle id="Ellipse_3" data-name="Ellipse 3" cx="1.5" cy="1.5" r="1.5" transform="translate(392 1089)" fill="#a074c4"/>
      </g>
      <g transform="translate(-386 -1089)">
        <circle id="Ellipse_3-2" data-name="Ellipse 3" cx="1.5" cy="1.5" r="1.5" transform="translate(392 1089)" fill="#a074c4"/>
      </g>
      <g transform="translate(-380 -1089)">
        <circle id="Ellipse_3-3" data-name="Ellipse 3" cx="1.5" cy="1.5" r="1.5" transform="translate(392 1089)" fill="#a074c4"/>
      </g>
      <g transform="translate(-374 -1089)">
        <circle id="Ellipse_3-4" data-name="Ellipse 3" cx="1.5" cy="1.5" r="1.5" transform="translate(392 1089)" fill="#a074c4"/>
      </g>
      <g transform="translate(-368 -1089)">
        <circle id="Ellipse_3-5" data-name="Ellipse 3" cx="1.5" cy="1.5" r="1.5" transform="translate(392 1089)" fill="#a074c4"/>
      </g>
      <g transform="translate(-362 -1089)">
        <circle id="Ellipse_3-6" data-name="Ellipse 3" cx="1.5" cy="1.5" r="1.5" transform="translate(392 1089)" fill="#a074c4"/>
      </g>
      <g transform="translate(-356 -1089)">
        <circle id="Ellipse_3-7" data-name="Ellipse 3" cx="1.5" cy="1.5" r="1.5" transform="translate(392 1089)" fill="#a074c4"/>
      </g>
      <g transform="translate(-350 -1089)">
        <circle id="Ellipse_3-8" data-name="Ellipse 3" cx="1.5" cy="1.5" r="1.5" transform="translate(392 1089)" fill="#a074c4"/>
      </g>
      <g transform="translate(-344 -1089)">
        <circle id="Ellipse_3-9" data-name="Ellipse 3" cx="1.5" cy="1.5" r="1.5" transform="translate(392 1089)" fill="#a074c4"/>
      </g>
      <g transform="translate(-338 -1089)">
        <circle id="Ellipse_3-10" data-name="Ellipse 3" cx="1.5" cy="1.5" r="1.5" transform="translate(392 1089)" fill="#a074c4"/>
      </g>
      <g transform="translate(-332 -1089)">
        <circle id="Ellipse_3-11" data-name="Ellipse 3" cx="1.5" cy="1.5" r="1.5" transform="translate(392 1089)" fill="#a074c4"/>
      </g>
      <g transform="translate(-326 -1089)">
        <circle id="Ellipse_3-12" data-name="Ellipse 3" cx="1.5" cy="1.5" r="1.5" transform="translate(392 1089)" fill="#a074c4"/>
      </g>
      <g transform="translate(-320 -1089)">
        <circle id="Ellipse_3-13" data-name="Ellipse 3" cx="1.5" cy="1.5" r="1.5" transform="translate(392 1089)" fill="#a074c4"/>
      </g>
      <g transform="translate(-314 -1089)">
        <circle id="Ellipse_3-14" data-name="Ellipse 3" cx="1.5" cy="1.5" r="1.5" transform="translate(392 1089)" fill="#a074c4"/>
      </g>
      <g transform="translate(-308 -1089)">
        <circle id="Ellipse_3-15" data-name="Ellipse 3" cx="1.5" cy="1.5" r="1.5" transform="translate(392 1089)" fill="#a074c4"/>
      </g>
      <g transform="translate(-302 -1089)">
        <circle id="Ellipse_3-16" data-name="Ellipse 3" cx="1.5" cy="1.5" r="1.5" transform="translate(392 1089)" fill="#a074c4"/>
      </g>
      <g transform="translate(-296 -1089)">
        <circle id="Ellipse_3-17" data-name="Ellipse 3" cx="1.5" cy="1.5" r="1.5" transform="translate(392 1089)" fill="#a074c4"/>
      </g>
      <g transform="translate(-290 -1089)">
        <circle id="Ellipse_3-18" data-name="Ellipse 3" cx="1.5" cy="1.5" r="1.5" transform="translate(392 1089)" fill="#a074c4"/>
      </g>
      <g transform="translate(-284 -1089)">
        <circle id="Ellipse_3-19" data-name="Ellipse 3" cx="1.5" cy="1.5" r="1.5" transform="translate(392 1089)" fill="#a074c4"/>
      </g>
      <g transform="translate(-278 -1089)">
        <circle id="Ellipse_3-20" data-name="Ellipse 3" cx="1.5" cy="1.5" r="1.5" transform="translate(392 1089)" fill="#a074c4"/>
      </g>
      <g transform="translate(-272 -1089)">
        <circle id="Ellipse_3-21" data-name="Ellipse 3" cx="1.5" cy="1.5" r="1.5" transform="translate(392 1089)" fill="#a074c4"/>
      </g>
      <g transform="translate(-266 -1089)">
        <circle id="Ellipse_3-22" data-name="Ellipse 3" cx="1.5" cy="1.5" r="1.5" transform="translate(392 1089)" fill="#a074c4"/>
      </g>
      <g transform="translate(-260 -1089)">
        <circle id="Ellipse_3-23" data-name="Ellipse 3" cx="1.5" cy="1.5" r="1.5" transform="translate(392 1089)" fill="#a074c4"/>
      </g>
      <g transform="translate(-254 -1089)">
        <circle id="Ellipse_3-24" data-name="Ellipse 3" cx="1.5" cy="1.5" r="1.5" transform="translate(392 1089)" fill="#a074c4"/>
      </g>
      <g transform="translate(-248 -1089)">
        <circle id="Ellipse_3-25" data-name="Ellipse 3" cx="1.5" cy="1.5" r="1.5" transform="translate(392 1089)" fill="#a074c4"/>
      </g>
      <g transform="translate(-242 -1089)">
        <circle id="Ellipse_3-26" data-name="Ellipse 3" cx="1.5" cy="1.5" r="1.5" transform="translate(392 1089)" fill="#a074c4"/>
      </g>
      <g transform="translate(-236 -1089)">
        <circle id="Ellipse_3-27" data-name="Ellipse 3" cx="1.5" cy="1.5" r="1.5" transform="translate(392 1089)" fill="#a074c4"/>
      </g>
      <g transform="translate(-230 -1089)">
        <circle id="Ellipse_3-28" data-name="Ellipse 3" cx="1.5" cy="1.5" r="1.5" transform="translate(392 1089)" fill="#a074c4"/>
      </g>
      <g transform="translate(-224 -1089)">
        <circle id="Ellipse_3-29" data-name="Ellipse 3" cx="1.5" cy="1.5" r="1.5" transform="translate(392 1089)" fill="#a074c4"/>
      </g>
      <g transform="translate(-218 -1089)">
        <circle id="Ellipse_3-30" data-name="Ellipse 3" cx="1.5" cy="1.5" r="1.5" transform="translate(392 1089)" fill="#a074c4"/>
      </g>
      <g transform="translate(-212 -1089)">
        <circle id="Ellipse_3-31" data-name="Ellipse 3" cx="1.5" cy="1.5" r="1.5" transform="translate(392 1089)" fill="#a074c4"/>
      </g>
      <g transform="translate(-206 -1089)">
        <circle id="Ellipse_3-32" data-name="Ellipse 3" cx="1.5" cy="1.5" r="1.5" transform="translate(392 1089)" fill="#a074c4"/>
      </g>
      <g transform="translate(-200 -1089)">
        <circle id="Ellipse_3-33" data-name="Ellipse 3" cx="1.5" cy="1.5" r="1.5" transform="translate(392 1089)" fill="#a074c4"/>
      </g>
      <g transform="translate(-194 -1089)">
        <circle id="Ellipse_3-34" data-name="Ellipse 3" cx="1.5" cy="1.5" r="1.5" transform="translate(392 1089)" fill="#a074c4"/>
      </g>
      <g transform="translate(-188 -1089)">
        <circle id="Ellipse_3-35" data-name="Ellipse 3" cx="1.5" cy="1.5" r="1.5" transform="translate(392 1089)" fill="#a074c4"/>
      </g>
      <g transform="translate(-182 -1089)">
        <circle id="Ellipse_3-36" data-name="Ellipse 3" cx="1.5" cy="1.5" r="1.5" transform="translate(392 1089)" fill="#a074c4"/>
      </g>
      <g transform="translate(-176 -1089)">
        <circle id="Ellipse_3-37" data-name="Ellipse 3" cx="1.5" cy="1.5" r="1.5" transform="translate(392 1089)" fill="#a074c4"/>
      </g>
      <g transform="translate(-170 -1089)">
        <circle id="Ellipse_3-38" data-name="Ellipse 3" cx="1.5" cy="1.5" r="1.5" transform="translate(392 1089)" fill="#a074c4"/>
      </g>
      <g transform="translate(-164 -1089)">
        <circle id="Ellipse_3-39" data-name="Ellipse 3" cx="1.5" cy="1.5" r="1.5" transform="translate(392 1089)" fill="#a074c4"/>
      </g>
      <g transform="translate(-158 -1089)">
        <circle id="Ellipse_3-40" data-name="Ellipse 3" cx="1.5" cy="1.5" r="1.5" transform="translate(392 1089)" fill="#a074c4"/>
      </g>
      <g transform="translate(-152 -1089)">
        <circle id="Ellipse_3-41" data-name="Ellipse 3" cx="1.5" cy="1.5" r="1.5" transform="translate(392 1089)" fill="#a074c4"/>
      </g>
      <g transform="translate(-146 -1089)">
        <circle id="Ellipse_3-42" data-name="Ellipse 3" cx="1.5" cy="1.5" r="1.5" transform="translate(392 1089)" fill="#a074c4"/>
      </g>
      <g transform="translate(-140 -1089)">
        <circle id="Ellipse_3-43" data-name="Ellipse 3" cx="1.5" cy="1.5" r="1.5" transform="translate(392 1089)" fill="#a074c4"/>
      </g>
      <g transform="translate(-134 -1089)">
        <circle id="Ellipse_3-44" data-name="Ellipse 3" cx="1.5" cy="1.5" r="1.5" transform="translate(392 1089)" fill="#a074c4"/>
      </g>
      <g transform="translate(-128 -1089)">
        <circle id="Ellipse_3-45" data-name="Ellipse 3" cx="1.5" cy="1.5" r="1.5" transform="translate(392 1089)" fill="#a074c4"/>
      </g>
      <g transform="translate(-122 -1089)">
        <circle id="Ellipse_3-46" data-name="Ellipse 3" cx="1.5" cy="1.5" r="1.5" transform="translate(392 1089)" fill="#a074c4"/>
      </g>
      <g transform="translate(-116 -1089)">
        <circle id="Ellipse_3-47" data-name="Ellipse 3" cx="1.5" cy="1.5" r="1.5" transform="translate(392 1089)" fill="#a074c4"/>
      </g>
      <g transform="translate(-110 -1089)">
        <circle id="Ellipse_3-48" data-name="Ellipse 3" cx="1.5" cy="1.5" r="1.5" transform="translate(392 1089)" fill="#a074c4"/>
      </g>
      <g transform="translate(-104 -1089)">
        <circle id="Ellipse_3-49" data-name="Ellipse 3" cx="1.5" cy="1.5" r="1.5" transform="translate(392 1089)" fill="#a074c4"/>
      </g>
      <g transform="translate(-98 -1089)">
        <circle id="Ellipse_3-50" data-name="Ellipse 3" cx="1.5" cy="1.5" r="1.5" transform="translate(392 1089)" fill="#a074c4"/>
      </g>
      <g transform="translate(-92 -1089)">
        <circle id="Ellipse_3-51" data-name="Ellipse 3" cx="1.5" cy="1.5" r="1.5" transform="translate(392 1089)" fill="#a074c4"/>
      </g>
      <g transform="translate(-86 -1089)">
        <circle id="Ellipse_3-52" data-name="Ellipse 3" cx="1.5" cy="1.5" r="1.5" transform="translate(392 1089)" fill="#a074c4"/>
      </g>
      <g transform="translate(-80 -1089)">
        <circle id="Ellipse_3-53" data-name="Ellipse 3" cx="1.5" cy="1.5" r="1.5" transform="translate(392 1089)" fill="#a074c4"/>
      </g>
      <g transform="translate(-74 -1089)">
        <circle id="Ellipse_3-54" data-name="Ellipse 3" cx="1.5" cy="1.5" r="1.5" transform="translate(392 1089)" fill="#a074c4"/>
      </g>
      <g transform="translate(-68 -1089)">
        <circle id="Ellipse_3-55" data-name="Ellipse 3" cx="1.5" cy="1.5" r="1.5" transform="translate(392 1089)" fill="#a074c4"/>
      </g>
      <g transform="translate(-62 -1089)">
        <circle id="Ellipse_3-56" data-name="Ellipse 3" cx="1.5" cy="1.5" r="1.5" transform="translate(392 1089)" fill="#a074c4"/>
      </g>
      <g transform="translate(-56 -1089)">
        <circle id="Ellipse_3-57" data-name="Ellipse 3" cx="1.5" cy="1.5" r="1.5" transform="translate(392 1089)" fill="#a074c4"/>
      </g>
      <g transform="translate(-50 -1089)">
        <circle id="Ellipse_3-58" data-name="Ellipse 3" cx="1.5" cy="1.5" r="1.5" transform="translate(392 1089)" fill="#a074c4"/>
      </g>
      <g transform="translate(-44 -1089)">
        <circle id="Ellipse_3-59" data-name="Ellipse 3" cx="1.5" cy="1.5" r="1.5" transform="translate(392 1089)" fill="#a074c4"/>
      </g>
      <g transform="translate(-38 -1089)">
        <circle id="Ellipse_3-60" data-name="Ellipse 3" cx="1.5" cy="1.5" r="1.5" transform="translate(392 1089)" fill="#a074c4"/>
      </g>
      <g transform="translate(-32 -1089)">
        <circle id="Ellipse_3-61" data-name="Ellipse 3" cx="1.5" cy="1.5" r="1.5" transform="translate(392 1089)" fill="#a074c4"/>
      </g>
      <g transform="translate(-26 -1089)">
        <circle id="Ellipse_3-62" data-name="Ellipse 3" cx="1.5" cy="1.5" r="1.5" transform="translate(392 1089)" fill="#a074c4"/>
      </g>
      <g transform="translate(-20 -1089)">
        <circle id="Ellipse_3-63" data-name="Ellipse 3" cx="1.5" cy="1.5" r="1.5" transform="translate(392 1089)" fill="#a074c4"/>
      </g>
      <g transform="translate(-14 -1089)">
        <circle id="Ellipse_3-64" data-name="Ellipse 3" cx="1.5" cy="1.5" r="1.5" transform="translate(392 1089)" fill="#a074c4"/>
      </g>
      <g transform="translate(-8 -1089)">
        <circle id="Ellipse_3-65" data-name="Ellipse 3" cx="1.5" cy="1.5" r="1.5" transform="translate(392 1089)" fill="#a074c4"/>
      </g>
      <g transform="translate(-392 -1083)">
        <circle id="Ellipse_3-66" data-name="Ellipse 3" cx="1.5" cy="1.5" r="1.5" transform="translate(392 1089)" fill="#a074c4"/>
      </g>
      <g transform="translate(-386 -1083)">
        <circle id="Ellipse_3-67" data-name="Ellipse 3" cx="1.5" cy="1.5" r="1.5" transform="translate(392 1089)" fill="#a074c4"/>
      </g>
      <g transform="translate(-380 -1083)">
        <circle id="Ellipse_3-68" data-name="Ellipse 3" cx="1.5" cy="1.5" r="1.5" transform="translate(392 1089)" fill="#a074c4"/>
      </g>
      <g transform="translate(-374 -1083)">
        <circle id="Ellipse_3-69" data-name="Ellipse 3" cx="1.5" cy="1.5" r="1.5" transform="translate(392 1089)" fill="#a074c4"/>
      </g>
      <g transform="translate(-368 -1083)">
        <circle id="Ellipse_3-70" data-name="Ellipse 3" cx="1.5" cy="1.5" r="1.5" transform="translate(392 1089)" fill="#a074c4"/>
      </g>
      <g transform="translate(-362 -1083)">
        <circle id="Ellipse_3-71" data-name="Ellipse 3" cx="1.5" cy="1.5" r="1.5" transform="translate(392 1089)" fill="#a074c4"/>
      </g>
      <g transform="translate(-356 -1083)">
        <circle id="Ellipse_3-72" data-name="Ellipse 3" cx="1.5" cy="1.5" r="1.5" transform="translate(392 1089)" fill="#a074c4"/>
      </g>
      <g transform="translate(-350 -1083)">
        <circle id="Ellipse_3-73" data-name="Ellipse 3" cx="1.5" cy="1.5" r="1.5" transform="translate(392 1089)" fill="#a074c4"/>
      </g>
      <g transform="translate(-344 -1083)">
        <circle id="Ellipse_3-74" data-name="Ellipse 3" cx="1.5" cy="1.5" r="1.5" transform="translate(392 1089)" fill="#a074c4"/>
      </g>
      <g transform="translate(-338 -1083)">
        <circle id="Ellipse_3-75" data-name="Ellipse 3" cx="1.5" cy="1.5" r="1.5" transform="translate(392 1089)" fill="#a074c4"/>
      </g>
      <g transform="translate(-332 -1083)">
        <circle id="Ellipse_3-76" data-name="Ellipse 3" cx="1.5" cy="1.5" r="1.5" transform="translate(392 1089)" fill="#a074c4"/>
      </g>
      <g transform="translate(-326 -1083)">
        <circle id="Ellipse_3-77" data-name="Ellipse 3" cx="1.5" cy="1.5" r="1.5" transform="translate(392 1089)" fill="#a074c4"/>
      </g>
      <g transform="translate(-320 -1083)">
        <circle id="Ellipse_3-78" data-name="Ellipse 3" cx="1.5" cy="1.5" r="1.5" transform="translate(392 1089)" fill="#a074c4"/>
      </g>
      <g transform="translate(-314 -1083)">
        <circle id="Ellipse_3-79" data-name="Ellipse 3" cx="1.5" cy="1.5" r="1.5" transform="translate(392 1089)" fill="#a074c4"/>
      </g>
      <g transform="translate(-308 -1083)">
        <circle id="Ellipse_3-80" data-name="Ellipse 3" cx="1.5" cy="1.5" r="1.5" transform="translate(392 1089)" fill="#a074c4"/>
      </g>
      <g transform="translate(-302 -1083)">
        <circle id="Ellipse_3-81" data-name="Ellipse 3" cx="1.5" cy="1.5" r="1.5" transform="translate(392 1089)" fill="#a074c4"/>
      </g>
      <g transform="translate(-296 -1083)">
        <circle id="Ellipse_3-82" data-name="Ellipse 3" cx="1.5" cy="1.5" r="1.5" transform="translate(392 1089)" fill="#a074c4"/>
      </g>
      <g transform="translate(-290 -1083)">
        <circle id="Ellipse_3-83" data-name="Ellipse 3" cx="1.5" cy="1.5" r="1.5" transform="translate(392 1089)" fill="#a074c4"/>
      </g>
      <g transform="translate(-284 -1083)">
        <circle id="Ellipse_3-84" data-name="Ellipse 3" cx="1.5" cy="1.5" r="1.5" transform="translate(392 1089)" fill="#a074c4"/>
      </g>
      <g transform="translate(-278 -1083)">
        <circle id="Ellipse_3-85" data-name="Ellipse 3" cx="1.5" cy="1.5" r="1.5" transform="translate(392 1089)" fill="#a074c4"/>
      </g>
      <g transform="translate(-272 -1083)">
        <circle id="Ellipse_3-86" data-name="Ellipse 3" cx="1.5" cy="1.5" r="1.5" transform="translate(392 1089)" fill="#a074c4"/>
      </g>
      <g transform="translate(-266 -1083)">
        <circle id="Ellipse_3-87" data-name="Ellipse 3" cx="1.5" cy="1.5" r="1.5" transform="translate(392 1089)" fill="#a074c4"/>
      </g>
      <g transform="translate(-260 -1083)">
        <circle id="Ellipse_3-88" data-name="Ellipse 3" cx="1.5" cy="1.5" r="1.5" transform="translate(392 1089)" fill="#a074c4"/>
      </g>
      <g transform="translate(-254 -1083)">
        <circle id="Ellipse_3-89" data-name="Ellipse 3" cx="1.5" cy="1.5" r="1.5" transform="translate(392 1089)" fill="#a074c4"/>
      </g>
      <g transform="translate(-248 -1083)">
        <circle id="Ellipse_3-90" data-name="Ellipse 3" cx="1.5" cy="1.5" r="1.5" transform="translate(392 1089)" fill="#a074c4"/>
      </g>
      <g transform="translate(-242 -1083)">
        <circle id="Ellipse_3-91" data-name="Ellipse 3" cx="1.5" cy="1.5" r="1.5" transform="translate(392 1089)" fill="#a074c4"/>
      </g>
      <g transform="translate(-236 -1083)">
        <circle id="Ellipse_3-92" data-name="Ellipse 3" cx="1.5" cy="1.5" r="1.5" transform="translate(392 1089)" fill="#a074c4"/>
      </g>
      <g transform="translate(-230 -1083)">
        <circle id="Ellipse_3-93" data-name="Ellipse 3" cx="1.5" cy="1.5" r="1.5" transform="translate(392 1089)" fill="#a074c4"/>
      </g>
      <g transform="translate(-224 -1083)">
        <circle id="Ellipse_3-94" data-name="Ellipse 3" cx="1.5" cy="1.5" r="1.5" transform="translate(392 1089)" fill="#a074c4"/>
      </g>
      <g transform="translate(-218 -1083)">
        <circle id="Ellipse_3-95" data-name="Ellipse 3" cx="1.5" cy="1.5" r="1.5" transform="translate(392 1089)" fill="#a074c4"/>
      </g>
      <g transform="translate(-212 -1083)">
        <circle id="Ellipse_3-96" data-name="Ellipse 3" cx="1.5" cy="1.5" r="1.5" transform="translate(392 1089)" fill="#a074c4"/>
      </g>
      <g transform="translate(-206 -1083)">
        <circle id="Ellipse_3-97" data-name="Ellipse 3" cx="1.5" cy="1.5" r="1.5" transform="translate(392 1089)" fill="#a074c4"/>
      </g>
      <g transform="translate(-200 -1083)">
        <circle id="Ellipse_3-98" data-name="Ellipse 3" cx="1.5" cy="1.5" r="1.5" transform="translate(392 1089)" fill="#a074c4"/>
      </g>
      <g transform="translate(-194 -1083)">
        <circle id="Ellipse_3-99" data-name="Ellipse 3" cx="1.5" cy="1.5" r="1.5" transform="translate(392 1089)" fill="#a074c4"/>
      </g>
      <g transform="translate(-188 -1083)">
        <circle id="Ellipse_3-100" data-name="Ellipse 3" cx="1.5" cy="1.5" r="1.5" transform="translate(392 1089)" fill="#a074c4"/>
      </g>
      <g transform="translate(-182 -1083)">
        <circle id="Ellipse_3-101" data-name="Ellipse 3" cx="1.5" cy="1.5" r="1.5" transform="translate(392 1089)" fill="#a074c4"/>
      </g>
      <g transform="translate(-176 -1083)">
        <circle id="Ellipse_3-102" data-name="Ellipse 3" cx="1.5" cy="1.5" r="1.5" transform="translate(392 1089)" fill="#a074c4"/>
      </g>
      <g transform="translate(-170 -1083)">
        <circle id="Ellipse_3-103" data-name="Ellipse 3" cx="1.5" cy="1.5" r="1.5" transform="translate(392 1089)" fill="#a074c4"/>
      </g>
      <g transform="translate(-164 -1083)">
        <circle id="Ellipse_3-104" data-name="Ellipse 3" cx="1.5" cy="1.5" r="1.5" transform="translate(392 1089)" fill="#a074c4"/>
      </g>
      <g transform="translate(-158 -1083)">
        <circle id="Ellipse_3-105" data-name="Ellipse 3" cx="1.5" cy="1.5" r="1.5" transform="translate(392 1089)" fill="#a074c4"/>
      </g>
      <g transform="translate(-152 -1083)">
        <circle id="Ellipse_3-106" data-name="Ellipse 3" cx="1.5" cy="1.5" r="1.5" transform="translate(392 1089)" fill="#a074c4"/>
      </g>
      <g transform="translate(-146 -1083)">
        <circle id="Ellipse_3-107" data-name="Ellipse 3" cx="1.5" cy="1.5" r="1.5" transform="translate(392 1089)" fill="#a074c4"/>
      </g>
      <g transform="translate(-140 -1083)">
        <circle id="Ellipse_3-108" data-name="Ellipse 3" cx="1.5" cy="1.5" r="1.5" transform="translate(392 1089)" fill="#a074c4"/>
      </g>
      <g transform="translate(-134 -1083)">
        <circle id="Ellipse_3-109" data-name="Ellipse 3" cx="1.5" cy="1.5" r="1.5" transform="translate(392 1089)" fill="#a074c4"/>
      </g>
      <g transform="translate(-128 -1083)">
        <circle id="Ellipse_3-110" data-name="Ellipse 3" cx="1.5" cy="1.5" r="1.5" transform="translate(392 1089)" fill="#a074c4"/>
      </g>
      <g transform="translate(-122 -1083)">
        <circle id="Ellipse_3-111" data-name="Ellipse 3" cx="1.5" cy="1.5" r="1.5" transform="translate(392 1089)" fill="#a074c4"/>
      </g>
      <g transform="translate(-116 -1083)">
        <circle id="Ellipse_3-112" data-name="Ellipse 3" cx="1.5" cy="1.5" r="1.5" transform="translate(392 1089)" fill="#a074c4"/>
      </g>
      <g transform="translate(-110 -1083)">
        <circle id="Ellipse_3-113" data-name="Ellipse 3" cx="1.5" cy="1.5" r="1.5" transform="translate(392 1089)" fill="#a074c4"/>
      </g>
      <g transform="translate(-104 -1083)">
        <circle id="Ellipse_3-114" data-name="Ellipse 3" cx="1.5" cy="1.5" r="1.5" transform="translate(392 1089)" fill="#a074c4"/>
      </g>
      <g transform="translate(-98 -1083)">
        <circle id="Ellipse_3-115" data-name="Ellipse 3" cx="1.5" cy="1.5" r="1.5" transform="translate(392 1089)" fill="#a074c4"/>
      </g>
      <g transform="translate(-92 -1083)">
        <circle id="Ellipse_3-116" data-name="Ellipse 3" cx="1.5" cy="1.5" r="1.5" transform="translate(392 1089)" fill="#a074c4"/>
      </g>
      <g transform="translate(-86 -1083)">
        <circle id="Ellipse_3-117" data-name="Ellipse 3" cx="1.5" cy="1.5" r="1.5" transform="translate(392 1089)" fill="#a074c4"/>
      </g>
      <g transform="translate(-80 -1083)">
        <circle id="Ellipse_3-118" data-name="Ellipse 3" cx="1.5" cy="1.5" r="1.5" transform="translate(392 1089)" fill="#a074c4"/>
      </g>
      <g transform="translate(-74 -1083)">
        <circle id="Ellipse_3-119" data-name="Ellipse 3" cx="1.5" cy="1.5" r="1.5" transform="translate(392 1089)" fill="#a074c4"/>
      </g>
      <g transform="translate(-68 -1083)">
        <circle id="Ellipse_3-120" data-name="Ellipse 3" cx="1.5" cy="1.5" r="1.5" transform="translate(392 1089)" fill="#a074c4"/>
      </g>
      <g transform="translate(-62 -1083)">
        <circle id="Ellipse_3-121" data-name="Ellipse 3" cx="1.5" cy="1.5" r="1.5" transform="translate(392 1089)" fill="#a074c4"/>
      </g>
      <g transform="translate(-56 -1083)">
        <circle id="Ellipse_3-122" data-name="Ellipse 3" cx="1.5" cy="1.5" r="1.5" transform="translate(392 1089)" fill="#a074c4"/>
      </g>
      <g transform="translate(-50 -1083)">
        <circle id="Ellipse_3-123" data-name="Ellipse 3" cx="1.5" cy="1.5" r="1.5" transform="translate(392 1089)" fill="#a074c4"/>
      </g>
      <g transform="translate(-44 -1083)">
        <circle id="Ellipse_3-124" data-name="Ellipse 3" cx="1.5" cy="1.5" r="1.5" transform="translate(392 1089)" fill="#a074c4"/>
      </g>
      <g transform="translate(-38 -1083)">
        <circle id="Ellipse_3-125" data-name="Ellipse 3" cx="1.5" cy="1.5" r="1.5" transform="translate(392 1089)" fill="#a074c4"/>
      </g>
      <g transform="translate(-32 -1083)">
        <circle id="Ellipse_3-126" data-name="Ellipse 3" cx="1.5" cy="1.5" r="1.5" transform="translate(392 1089)" fill="#a074c4"/>
      </g>
      <g transform="translate(-26 -1083)">
        <circle id="Ellipse_3-127" data-name="Ellipse 3" cx="1.5" cy="1.5" r="1.5" transform="translate(392 1089)" fill="#a074c4"/>
      </g>
      <g transform="translate(-20 -1083)">
        <circle id="Ellipse_3-128" data-name="Ellipse 3" cx="1.5" cy="1.5" r="1.5" transform="translate(392 1089)" fill="#a074c4"/>
      </g>
      <g transform="translate(-14 -1083)">
        <circle id="Ellipse_3-129" data-name="Ellipse 3" cx="1.5" cy="1.5" r="1.5" transform="translate(392 1089)" fill="#a074c4"/>
      </g>
      <g transform="translate(-8 -1083)">
        <circle id="Ellipse_3-130" data-name="Ellipse 3" cx="1.5" cy="1.5" r="1.5" transform="translate(392 1089)" fill="#a074c4"/>
      </g>
      <g transform="translate(-392 -1077)">
        <circle id="Ellipse_3-131" data-name="Ellipse 3" cx="1.5" cy="1.5" r="1.5" transform="translate(392 1089)" fill="#a074c4"/>
      </g>
      <g transform="translate(-386 -1077)">
        <circle id="Ellipse_3-132" data-name="Ellipse 3" cx="1.5" cy="1.5" r="1.5" transform="translate(392 1089)" fill="#a074c4"/>
      </g>
      <g transform="translate(-380 -1077)">
        <circle id="Ellipse_3-133" data-name="Ellipse 3" cx="1.5" cy="1.5" r="1.5" transform="translate(392 1089)" fill="#a074c4"/>
      </g>
      <g transform="translate(-374 -1077)">
        <circle id="Ellipse_3-134" data-name="Ellipse 3" cx="1.5" cy="1.5" r="1.5" transform="translate(392 1089)" fill="#a074c4"/>
      </g>
      <g transform="translate(-368 -1077)">
        <circle id="Ellipse_3-135" data-name="Ellipse 3" cx="1.5" cy="1.5" r="1.5" transform="translate(392 1089)" fill="#a074c4"/>
      </g>
      <g transform="translate(-362 -1077)">
        <circle id="Ellipse_3-136" data-name="Ellipse 3" cx="1.5" cy="1.5" r="1.5" transform="translate(392 1089)" fill="#a074c4"/>
      </g>
      <g transform="translate(-356 -1077)">
        <circle id="Ellipse_3-137" data-name="Ellipse 3" cx="1.5" cy="1.5" r="1.5" transform="translate(392 1089)" fill="#a074c4"/>
      </g>
      <g transform="translate(-350 -1077)">
        <circle id="Ellipse_3-138" data-name="Ellipse 3" cx="1.5" cy="1.5" r="1.5" transform="translate(392 1089)" fill="#a074c4"/>
      </g>
      <g transform="translate(-344 -1077)">
        <circle id="Ellipse_3-139" data-name="Ellipse 3" cx="1.5" cy="1.5" r="1.5" transform="translate(392 1089)" fill="#a074c4"/>
      </g>
      <g transform="translate(-338 -1077)">
        <circle id="Ellipse_3-140" data-name="Ellipse 3" cx="1.5" cy="1.5" r="1.5" transform="translate(392 1089)" fill="#a074c4"/>
      </g>
      <g transform="translate(-332 -1077)">
        <circle id="Ellipse_3-141" data-name="Ellipse 3" cx="1.5" cy="1.5" r="1.5" transform="translate(392 1089)" fill="#a074c4"/>
      </g>
      <g transform="translate(-326 -1077)">
        <circle id="Ellipse_3-142" data-name="Ellipse 3" cx="1.5" cy="1.5" r="1.5" transform="translate(392 1089)" fill="#a074c4"/>
      </g>
      <g transform="translate(-320 -1077)">
        <circle id="Ellipse_3-143" data-name="Ellipse 3" cx="1.5" cy="1.5" r="1.5" transform="translate(392 1089)" fill="#a074c4"/>
      </g>
      <g transform="translate(-314 -1077)">
        <circle id="Ellipse_3-144" data-name="Ellipse 3" cx="1.5" cy="1.5" r="1.5" transform="translate(392 1089)" fill="#a074c4"/>
      </g>
      <g transform="translate(-308 -1077)">
        <circle id="Ellipse_3-145" data-name="Ellipse 3" cx="1.5" cy="1.5" r="1.5" transform="translate(392 1089)" fill="#a074c4"/>
      </g>
      <g transform="translate(-302 -1077)">
        <circle id="Ellipse_3-146" data-name="Ellipse 3" cx="1.5" cy="1.5" r="1.5" transform="translate(392 1089)" fill="#a074c4"/>
      </g>
      <g transform="translate(-296 -1077)">
        <circle id="Ellipse_3-147" data-name="Ellipse 3" cx="1.5" cy="1.5" r="1.5" transform="translate(392 1089)" fill="#a074c4"/>
      </g>
      <g transform="translate(-290 -1077)">
        <circle id="Ellipse_3-148" data-name="Ellipse 3" cx="1.5" cy="1.5" r="1.5" transform="translate(392 1089)" fill="#a074c4"/>
      </g>
      <g transform="translate(-284 -1077)">
        <circle id="Ellipse_3-149" data-name="Ellipse 3" cx="1.5" cy="1.5" r="1.5" transform="translate(392 1089)" fill="#a074c4"/>
      </g>
      <g transform="translate(-278 -1077)">
        <circle id="Ellipse_3-150" data-name="Ellipse 3" cx="1.5" cy="1.5" r="1.5" transform="translate(392 1089)" fill="#a074c4"/>
      </g>
      <g transform="translate(-272 -1077)">
        <circle id="Ellipse_3-151" data-name="Ellipse 3" cx="1.5" cy="1.5" r="1.5" transform="translate(392 1089)" fill="#a074c4"/>
      </g>
      <g transform="translate(-266 -1077)">
        <circle id="Ellipse_3-152" data-name="Ellipse 3" cx="1.5" cy="1.5" r="1.5" transform="translate(392 1089)" fill="#a074c4"/>
      </g>
      <g transform="translate(-260 -1077)">
        <circle id="Ellipse_3-153" data-name="Ellipse 3" cx="1.5" cy="1.5" r="1.5" transform="translate(392 1089)" fill="#a074c4"/>
      </g>
      <g transform="translate(-254 -1077)">
        <circle id="Ellipse_3-154" data-name="Ellipse 3" cx="1.5" cy="1.5" r="1.5" transform="translate(392 1089)" fill="#a074c4"/>
      </g>
      <g transform="translate(-248 -1077)">
        <circle id="Ellipse_3-155" data-name="Ellipse 3" cx="1.5" cy="1.5" r="1.5" transform="translate(392 1089)" fill="#a074c4"/>
      </g>
      <g transform="translate(-242 -1077)">
        <circle id="Ellipse_3-156" data-name="Ellipse 3" cx="1.5" cy="1.5" r="1.5" transform="translate(392 1089)" fill="#a074c4"/>
      </g>
      <g transform="translate(-236 -1077)">
        <circle id="Ellipse_3-157" data-name="Ellipse 3" cx="1.5" cy="1.5" r="1.5" transform="translate(392 1089)" fill="#a074c4"/>
      </g>
      <g transform="translate(-230 -1077)">
        <circle id="Ellipse_3-158" data-name="Ellipse 3" cx="1.5" cy="1.5" r="1.5" transform="translate(392 1089)" fill="#a074c4"/>
      </g>
      <g transform="translate(-224 -1077)">
        <circle id="Ellipse_3-159" data-name="Ellipse 3" cx="1.5" cy="1.5" r="1.5" transform="translate(392 1089)" fill="#a074c4"/>
      </g>
      <g transform="translate(-218 -1077)">
        <circle id="Ellipse_3-160" data-name="Ellipse 3" cx="1.5" cy="1.5" r="1.5" transform="translate(392 1089)" fill="#a074c4"/>
      </g>
      <g transform="translate(-212 -1077)">
        <circle id="Ellipse_3-161" data-name="Ellipse 3" cx="1.5" cy="1.5" r="1.5" transform="translate(392 1089)" fill="#a074c4"/>
      </g>
      <g transform="translate(-206 -1077)">
        <circle id="Ellipse_3-162" data-name="Ellipse 3" cx="1.5" cy="1.5" r="1.5" transform="translate(392 1089)" fill="#a074c4"/>
      </g>
      <g transform="translate(-200 -1077)">
        <circle id="Ellipse_3-163" data-name="Ellipse 3" cx="1.5" cy="1.5" r="1.5" transform="translate(392 1089)" fill="#a074c4"/>
      </g>
      <g transform="translate(-194 -1077)">
        <circle id="Ellipse_3-164" data-name="Ellipse 3" cx="1.5" cy="1.5" r="1.5" transform="translate(392 1089)" fill="#a074c4"/>
      </g>
      <g transform="translate(-188 -1077)">
        <circle id="Ellipse_3-165" data-name="Ellipse 3" cx="1.5" cy="1.5" r="1.5" transform="translate(392 1089)" fill="#a074c4"/>
      </g>
      <g transform="translate(-182 -1077)">
        <circle id="Ellipse_3-166" data-name="Ellipse 3" cx="1.5" cy="1.5" r="1.5" transform="translate(392 1089)" fill="#a074c4"/>
      </g>
      <g transform="translate(-176 -1077)">
        <circle id="Ellipse_3-167" data-name="Ellipse 3" cx="1.5" cy="1.5" r="1.5" transform="translate(392 1089)" fill="#a074c4"/>
      </g>
      <g transform="translate(-170 -1077)">
        <circle id="Ellipse_3-168" data-name="Ellipse 3" cx="1.5" cy="1.5" r="1.5" transform="translate(392 1089)" fill="#a074c4"/>
      </g>
      <g transform="translate(-164 -1077)">
        <circle id="Ellipse_3-169" data-name="Ellipse 3" cx="1.5" cy="1.5" r="1.5" transform="translate(392 1089)" fill="#a074c4"/>
      </g>
      <g transform="translate(-158 -1077)">
        <circle id="Ellipse_3-170" data-name="Ellipse 3" cx="1.5" cy="1.5" r="1.5" transform="translate(392 1089)" fill="#a074c4"/>
      </g>
      <g transform="translate(-152 -1077)">
        <circle id="Ellipse_3-171" data-name="Ellipse 3" cx="1.5" cy="1.5" r="1.5" transform="translate(392 1089)" fill="#a074c4"/>
      </g>
      <g transform="translate(-146 -1077)">
        <circle id="Ellipse_3-172" data-name="Ellipse 3" cx="1.5" cy="1.5" r="1.5" transform="translate(392 1089)" fill="#a074c4"/>
      </g>
      <g transform="translate(-140 -1077)">
        <circle id="Ellipse_3-173" data-name="Ellipse 3" cx="1.5" cy="1.5" r="1.5" transform="translate(392 1089)" fill="#a074c4"/>
      </g>
      <g transform="translate(-134 -1077)">
        <circle id="Ellipse_3-174" data-name="Ellipse 3" cx="1.5" cy="1.5" r="1.5" transform="translate(392 1089)" fill="#a074c4"/>
      </g>
      <g transform="translate(-128 -1077)">
        <circle id="Ellipse_3-175" data-name="Ellipse 3" cx="1.5" cy="1.5" r="1.5" transform="translate(392 1089)" fill="#a074c4"/>
      </g>
      <g transform="translate(-122 -1077)">
        <circle id="Ellipse_3-176" data-name="Ellipse 3" cx="1.5" cy="1.5" r="1.5" transform="translate(392 1089)" fill="#a074c4"/>
      </g>
      <g transform="translate(-116 -1077)">
        <circle id="Ellipse_3-177" data-name="Ellipse 3" cx="1.5" cy="1.5" r="1.5" transform="translate(392 1089)" fill="#a074c4"/>
      </g>
      <g transform="translate(-110 -1077)">
        <circle id="Ellipse_3-178" data-name="Ellipse 3" cx="1.5" cy="1.5" r="1.5" transform="translate(392 1089)" fill="#a074c4"/>
      </g>
      <g transform="translate(-104 -1077)">
        <circle id="Ellipse_3-179" data-name="Ellipse 3" cx="1.5" cy="1.5" r="1.5" transform="translate(392 1089)" fill="#a074c4"/>
      </g>
      <g transform="translate(-98 -1077)">
        <circle id="Ellipse_3-180" data-name="Ellipse 3" cx="1.5" cy="1.5" r="1.5" transform="translate(392 1089)" fill="#a074c4"/>
      </g>
      <g transform="translate(-92 -1077)">
        <circle id="Ellipse_3-181" data-name="Ellipse 3" cx="1.5" cy="1.5" r="1.5" transform="translate(392 1089)" fill="#a074c4"/>
      </g>
      <g transform="translate(-86 -1077)">
        <circle id="Ellipse_3-182" data-name="Ellipse 3" cx="1.5" cy="1.5" r="1.5" transform="translate(392 1089)" fill="#a074c4"/>
      </g>
      <g transform="translate(-80 -1077)">
        <circle id="Ellipse_3-183" data-name="Ellipse 3" cx="1.5" cy="1.5" r="1.5" transform="translate(392 1089)" fill="#a074c4"/>
      </g>
      <g transform="translate(-74 -1077)">
        <circle id="Ellipse_3-184" data-name="Ellipse 3" cx="1.5" cy="1.5" r="1.5" transform="translate(392 1089)" fill="#a074c4"/>
      </g>
      <g transform="translate(-68 -1077)">
        <circle id="Ellipse_3-185" data-name="Ellipse 3" cx="1.5" cy="1.5" r="1.5" transform="translate(392 1089)" fill="#a074c4"/>
      </g>
      <g transform="translate(-62 -1077)">
        <circle id="Ellipse_3-186" data-name="Ellipse 3" cx="1.5" cy="1.5" r="1.5" transform="translate(392 1089)" fill="#a074c4"/>
      </g>
      <g transform="translate(-56 -1077)">
        <circle id="Ellipse_3-187" data-name="Ellipse 3" cx="1.5" cy="1.5" r="1.5" transform="translate(392 1089)" fill="#a074c4"/>
      </g>
      <g transform="translate(-50 -1077)">
        <circle id="Ellipse_3-188" data-name="Ellipse 3" cx="1.5" cy="1.5" r="1.5" transform="translate(392 1089)" fill="#a074c4"/>
      </g>
      <g transform="translate(-44 -1077)">
        <circle id="Ellipse_3-189" data-name="Ellipse 3" cx="1.5" cy="1.5" r="1.5" transform="translate(392 1089)" fill="#a074c4"/>
      </g>
      <g transform="translate(-38 -1077)">
        <circle id="Ellipse_3-190" data-name="Ellipse 3" cx="1.5" cy="1.5" r="1.5" transform="translate(392 1089)" fill="#a074c4"/>
      </g>
      <g transform="translate(-32 -1077)">
        <circle id="Ellipse_3-191" data-name="Ellipse 3" cx="1.5" cy="1.5" r="1.5" transform="translate(392 1089)" fill="#a074c4"/>
      </g>
      <g transform="translate(-26 -1077)">
        <circle id="Ellipse_3-192" data-name="Ellipse 3" cx="1.5" cy="1.5" r="1.5" transform="translate(392 1089)" fill="#a074c4"/>
      </g>
      <g transform="translate(-20 -1077)">
        <circle id="Ellipse_3-193" data-name="Ellipse 3" cx="1.5" cy="1.5" r="1.5" transform="translate(392 1089)" fill="#a074c4"/>
      </g>
      <g transform="translate(-14 -1077)">
        <circle id="Ellipse_3-194" data-name="Ellipse 3" cx="1.5" cy="1.5" r="1.5" transform="translate(392 1089)" fill="#a074c4"/>
      </g>
      <g transform="translate(-8 -1077)">
        <circle id="Ellipse_3-195" data-name="Ellipse 3" cx="1.5" cy="1.5" r="1.5" transform="translate(392 1089)" fill="#a074c4"/>
      </g>
    </g>
  </g>
</svg>
