<svg id="rogo" xmlns="http://www.w3.org/2000/svg" width="301.391" height="73" viewBox="0 0 301.391 73">
  <g id="Group_1" data-name="Group 1">
    <path id="Path_1" data-name="Path 1" d="M10.9,34.374A24,24,0,0,0,26.828,56.944V54.019A21.164,21.164,0,0,1,28.389,14.3V57.041h3V13.558c.515-.089,1.035-.154,1.563-.207V10.473A24.035,24.035,0,0,0,10.9,34.374" transform="translate(-0.001 -0.051)" fill="#4f157f"/>
    <path id="Path_2" data-name="Path 2" d="M37.062,10.475v2.874q.791.079,1.563.212V57.043h3V14.3a21.165,21.165,0,0,1,1.561,39.721v2.927a23.97,23.97,0,0,0-6.126-46.471" transform="translate(-0.004 -0.051)" fill="#4f157f"/>
    <path id="Path_3" data-name="Path 3" d="M27.6,69l1.152-.559h.115v3.978a2.011,2.011,0,0,0,.034.493.248.248,0,0,0,.136.15,1.24,1.24,0,0,0,.427.059v.129H27.681v-.129a1.31,1.31,0,0,0,.434-.057.281.281,0,0,0,.136-.135,1.856,1.856,0,0,0,.038-.51V69.872a3.943,3.943,0,0,0-.034-.66.281.281,0,0,0-.089-.163A.236.236,0,0,0,28.009,69a.943.943,0,0,0-.359.108Z" transform="translate(-0.003 -0.335)" fill="#4f157f"/>
    <path id="Path_4" data-name="Path 4" d="M32.206,70.873a3.358,3.358,0,0,1-.723-.739,1.1,1.1,0,0,1-.162-.576,1.047,1.047,0,0,1,.355-.791,1.325,1.325,0,0,1,.946-.33,1.34,1.34,0,0,1,.923.309.924.924,0,0,1,.347.707.946.946,0,0,1-.187.537,2.726,2.726,0,0,1-.787.648,4.456,4.456,0,0,1,.814.741,1.236,1.236,0,0,1,.266.749,1.1,1.1,0,0,1-.381.846,1.416,1.416,0,0,1-1,.353,1.346,1.346,0,0,1-1.05-.417,1.038,1.038,0,0,1-.091-1.359,3.07,3.07,0,0,1,.729-.679m.166.131a1.645,1.645,0,0,0-.43.529,1.4,1.4,0,0,0-.14.62,1,1,0,0,0,.247.717.8.8,0,0,0,.625.271.843.843,0,0,0,.6-.212.676.676,0,0,0,.23-.514.8.8,0,0,0-.134-.449,5.071,5.071,0,0,0-1-.963m.383-.5a2.553,2.553,0,0,0,.532-.59,1.081,1.081,0,0,0,.111-.5.768.768,0,0,0-.2-.569.753.753,0,0,0-.561-.207.817.817,0,0,0-.583.205.626.626,0,0,0-.223.478.791.791,0,0,0,.094.362,1.16,1.16,0,0,0,.264.343Z" transform="translate(-0.004 -0.335)" fill="#4f157f"/>
    <path id="Path_5" data-name="Path 5" d="M35.328,69.43a1.849,1.849,0,0,1,.51-.734,1.155,1.155,0,0,1,.77-.258,1.064,1.064,0,0,1,.874.368.892.892,0,0,1,.23.584,1.491,1.491,0,0,1-.649,1.067,1.411,1.411,0,0,1,.659.485,1.258,1.258,0,0,1,.223.743,1.547,1.547,0,0,1-.391,1.06,1.845,1.845,0,0,1-1.476.586,1.249,1.249,0,0,1-.651-.118.32.32,0,0,1-.174-.254.229.229,0,0,1,.081-.176.275.275,0,0,1,.2-.078.653.653,0,0,1,.179.028,2.087,2.087,0,0,1,.27.127,1.766,1.766,0,0,0,.289.131.98.98,0,0,0,.276.038.834.834,0,0,0,.621-.275.913.913,0,0,0,.262-.65,1.267,1.267,0,0,0-.121-.535.983.983,0,0,0-.2-.294,1.412,1.412,0,0,0-.415-.252,1.323,1.323,0,0,0-.534-.114h-.113V70.8a1.426,1.426,0,0,0,.555-.2.984.984,0,0,0,.529-.9.779.779,0,0,0-.228-.58.763.763,0,0,0-.557-.22,1.063,1.063,0,0,0-.908.576Z" transform="translate(-0.004 -0.335)" fill="#4f157f"/>
    <path id="Path_6" data-name="Path 6" d="M40.411,70.873a3.33,3.33,0,0,1-.725-.739,1.14,1.14,0,0,1-.162-.576,1.047,1.047,0,0,1,.355-.791,1.527,1.527,0,0,1,1.869-.021.92.92,0,0,1,.349.707.946.946,0,0,1-.187.537,2.789,2.789,0,0,1-.787.648,4.351,4.351,0,0,1,.812.741,1.223,1.223,0,0,1,.266.749,1.11,1.11,0,0,1-.378.846,1.416,1.416,0,0,1-1,.353,1.354,1.354,0,0,1-1.052-.417,1.1,1.1,0,0,1-.3-.739,1.091,1.091,0,0,1,.213-.62,2.971,2.971,0,0,1,.727-.679m.164.131a1.637,1.637,0,0,0-.427.529,1.4,1.4,0,0,0-.142.62,1.014,1.014,0,0,0,.247.717.81.81,0,0,0,.627.271.847.847,0,0,0,.6-.212.674.674,0,0,0,.228-.514.8.8,0,0,0-.132-.449,5.036,5.036,0,0,0-1-.963m.385-.5a2.5,2.5,0,0,0,.532-.59,1.108,1.108,0,0,0,.111-.5.761.761,0,0,0-.206-.569.75.75,0,0,0-.561-.207.8.8,0,0,0-.578.205.619.619,0,0,0-.223.478.811.811,0,0,0,.089.362,1.206,1.206,0,0,0,.266.343Z" transform="translate(-0.005 -0.335)" fill="#4f157f"/>
    <path id="Path_7" data-name="Path 7" d="M26.7,60.841,26.326,61.9l-.125-.051a1.367,1.367,0,0,0,.062-.432.713.713,0,0,0-.159-.389,1.021,1.021,0,0,0-.41-.269l-.629-.252-1.371,3.4a.981.981,0,0,0-.119.548.523.523,0,0,0,.332.29l.153.063-.049.123-1.894-.76.051-.118.157.059a.486.486,0,0,0,.47-.008,1.068,1.068,0,0,0,.266-.451l1.374-3.394-.538-.216a1.568,1.568,0,0,0-.464-.133.669.669,0,0,0-.389.123,1.043,1.043,0,0,0-.338.421l-.125-.051.474-1.02Z" transform="translate(-0.003 -0.29)" fill="#4f157f"/>
    <path id="Path_8" data-name="Path 8" d="M29.64,61.373a2.181,2.181,0,0,1,1.463,1,2.441,2.441,0,0,1,.342,1.866,2.532,2.532,0,0,1-1.023,1.653,2.323,2.323,0,0,1-3.289-.607,2.514,2.514,0,0,1-.323-1.915,2.436,2.436,0,0,1,1.118-1.684,2.325,2.325,0,0,1,1.712-.311m-.115.241a1.271,1.271,0,0,0-1.108.275,2.7,2.7,0,0,0-.806,1.617,2.838,2.838,0,0,0,.155,1.868,1.246,1.246,0,0,0,.914.662,1.4,1.4,0,0,0,1.2-.309,2.549,2.549,0,0,0,.748-1.549,2.9,2.9,0,0,0-.134-1.892,1.308,1.308,0,0,0-.97-.673" transform="translate(-0.003 -0.3)" fill="#4f157f"/>
    <path id="Path_9" data-name="Path 9" d="M34.581,64.129,36.337,65.9a3.319,3.319,0,0,0,.74.6,1.587,1.587,0,0,0,.617.184l0,.131-2.29-.023,0-.131a.521.521,0,0,0,.3-.066.2.2,0,0,0,.091-.152.358.358,0,0,0-.032-.154,1.689,1.689,0,0,0-.219-.254L33.9,64.387l-.017,1.545a1.587,1.587,0,0,0,.043.48.315.315,0,0,0,.147.152.628.628,0,0,0,.323.087l.164,0,0,.133L32.5,66.765v-.131l.172,0a.51.51,0,0,0,.434-.171,1.057,1.057,0,0,0,.091-.542l.032-3.094a1.634,1.634,0,0,0-.04-.485.325.325,0,0,0-.145-.15.7.7,0,0,0-.325-.089l-.17,0V61.97l2.052.023v.131l-.164,0a.706.706,0,0,0-.323.078.311.311,0,0,0-.155.169,1.566,1.566,0,0,0-.047.466L33.9,64.3c.047-.044.211-.193.489-.444a10.5,10.5,0,0,0,1.288-1.27.474.474,0,0,0,.1-.245A.186.186,0,0,0,35.7,62.2a.383.383,0,0,0-.251-.066H35.34l0-.131,1.767.019v.129a1,1,0,0,0-.285.04,1.572,1.572,0,0,0-.315.146,3.155,3.155,0,0,0-.457.356q-.08.07-.729.717Z" transform="translate(-0.004 -0.303)" fill="#4f157f"/>
    <path id="Path_10" data-name="Path 10" d="M41.335,61.4l1.654-.292.023.131-.091.017a.715.715,0,0,0-.251.123,1.032,1.032,0,0,0-.279.288,3.107,3.107,0,0,0-.268.55L41.3,64.209l.21,1.187a.941.941,0,0,0,.193.525.549.549,0,0,0,.447.072l.153-.028.023.129-2.016.353-.021-.131.166-.028a.483.483,0,0,0,.4-.254,1.079,1.079,0,0,0-.013-.525l-.2-1.117-1.65-1.746a4.455,4.455,0,0,0-.389-.383,1.256,1.256,0,0,0-.378-.148.406.406,0,0,0-.208,0l-.023-.131,2.028-.355.023.131-.106.019a.616.616,0,0,0-.289.127.251.251,0,0,0-.1.254,1.069,1.069,0,0,0,.291.417L41.1,63.925l.674-1.617a1.07,1.07,0,0,0,.123-.523.3.3,0,0,0-.081-.165.31.31,0,0,0-.166-.1.682.682,0,0,0-.291.006Z" transform="translate(-0.005 -0.299)" fill="#4f157f"/>
    <path id="Path_11" data-name="Path 11" d="M45.718,59.954A2.205,2.205,0,0,1,47.491,60,2.452,2.452,0,0,1,48.8,61.38a2.508,2.508,0,0,1,.047,1.938,2.321,2.321,0,0,1-3.094,1.274,2.538,2.538,0,0,1-1.316-1.43,2.409,2.409,0,0,1,.019-2.017,2.294,2.294,0,0,1,1.265-1.191m.036.265a1.263,1.263,0,0,0-.78.834,2.677,2.677,0,0,0,.208,1.79,2.853,2.853,0,0,0,1.15,1.483,1.262,1.262,0,0,0,1.129.063,1.4,1.4,0,0,0,.84-.91,2.57,2.57,0,0,0-.221-1.706,2.893,2.893,0,0,0-1.146-1.513,1.3,1.3,0,0,0-1.18-.042" transform="translate(-0.005 -0.292)" fill="#4f157f"/>
    <path id="Path_12" data-name="Path 12" d="M14.422,62.332l-.13.163-2.609-2.029.13-.163.221.169a.823.823,0,0,0,.714.205,1.755,1.755,0,0,0,.648-.605l2.328-2.965a4.26,4.26,0,0,1,1.021-.988,2.2,2.2,0,0,1,1.1-.339,1.681,1.681,0,0,1,1.138.379,1.241,1.241,0,0,1,.5.726.773.773,0,0,1-.13.662.574.574,0,0,1-.372.245.64.64,0,0,1-.455-.131.5.5,0,0,1-.185-.3,1.92,1.92,0,0,1,.1-.726c.057-.214.032-.362-.077-.446a.358.358,0,0,0-.342-.028,1.2,1.2,0,0,0-.517.44l-3.251,4.137a2.485,2.485,0,0,0-.419.654.515.515,0,0,0,.038.339,1.055,1.055,0,0,0,.325.425Z" transform="translate(-0.001 -0.273)" fill="#4f157f"/>
    <path id="Path_13" data-name="Path 13" d="M6.22,53.873,6.05,54,4.423,51.81l.168-.125.174.233a.786.786,0,0,0,.723.334,1.707,1.707,0,0,0,.731-.391l2.52-1.856a5.594,5.594,0,0,1,1.586-.885,2.28,2.28,0,0,1,1.425.074,3.23,3.23,0,0,1,1.463,1.2A3.412,3.412,0,0,1,14,52.189a2.345,2.345,0,0,1-.4,1.441,6.37,6.37,0,0,1-1.42,1.274l-2.428,1.79c-.381.281-.593.518-.634.711a.8.8,0,0,0,.2.641l.172.231-.17.127L7.341,55.731l.168-.125.176.239a.778.778,0,0,0,.651.366,1.7,1.7,0,0,0,.772-.394l2.707-1.993a7.362,7.362,0,0,0,.78-.679,2.2,2.2,0,0,0,.551-.774,1.624,1.624,0,0,0,.057-.817,2.14,2.14,0,0,0-.425-.925,2.762,2.762,0,0,0-1.072-.891,1.779,1.779,0,0,0-1.167-.15A4.876,4.876,0,0,0,9,50.445L6.488,52.3c-.387.288-.6.508-.634.664a.841.841,0,0,0,.193.679Z" transform="translate(-0.001 -0.24)" fill="#4f157f"/>
    <path id="Path_14" data-name="Path 14" d="M2.845,48.768l-.614-2,4.161-6.185-4.261,1.3a1.544,1.544,0,0,0-.8.408.834.834,0,0,0-.034.7l.079.258-.2.061-.787-2.56.2-.061.081.26a.78.78,0,0,0,.487.576,1.754,1.754,0,0,0,.833-.123l6.228-1.9.062.2L3.813,46.366l4.55-1.384a1.583,1.583,0,0,0,.806-.406.851.851,0,0,0,.034-.7l-.081-.262.2-.061.787,2.56-.2.061-.079-.254a.792.792,0,0,0-.487-.58,1.724,1.724,0,0,0-.833.123L3.371,47.025a3.4,3.4,0,0,0-.347.637,1.844,1.844,0,0,0-.074.55,1.8,1.8,0,0,0,.1.5Z" transform="translate(0 -0.193)" fill="#4f157f"/>
    <path id="Path_15" data-name="Path 15" d="M.125,30.6l1.814-.047,0,.214a2.142,2.142,0,0,0-.687.157,1.136,1.136,0,0,0-.5.457,1.628,1.628,0,0,0-.172.766L.557,33.225l5.9.116a1.6,1.6,0,0,0,.891-.135.839.839,0,0,0,.251-.658l.009-.267.21,0-.066,3.261-.211,0,.006-.273a.783.783,0,0,0-.283-.7,1.741,1.741,0,0,0-.829-.138l-5.9-.121-.021.925a2.613,2.613,0,0,0,.068.768,1.033,1.033,0,0,0,.406.512,1.688,1.688,0,0,0,.827.267L1.809,37,0,36.873Z" transform="translate(0 -0.149)" fill="#4f157f"/>
    <path id="Path_16" data-name="Path 16" d="M1.807,24.921l2.9.942.527-1.606a1.37,1.37,0,0,0,.083-.9,1.292,1.292,0,0,0-.776-.6l.066-.2,2.558.827-.066.2a3.078,3.078,0,0,0-.736-.072.736.736,0,0,0-.4.222,1.717,1.717,0,0,0-.33.643l-.527,1.61,2.424.783a2.214,2.214,0,0,0,.606.148.337.337,0,0,0,.219-.1.991.991,0,0,0,.2-.387L8.958,25.2a3.543,3.543,0,0,0,.208-.929A1.4,1.4,0,0,0,9,23.621a4.334,4.334,0,0,0-.789-1.016l.07-.214,1.637,1.229L8.073,29.259l-.2-.068.085-.26a1.094,1.094,0,0,0,.036-.531.48.48,0,0,0-.185-.317,2.574,2.574,0,0,0-.689-.292L2.345,26.241A1.678,1.678,0,0,0,1.44,26.1a.883.883,0,0,0-.429.576l-.085.258-.2-.063,1.846-5.635,1.635.44-.068.209a2.685,2.685,0,0,0-.88-.008.933.933,0,0,0-.464.3,2.662,2.662,0,0,0-.33.736Z" transform="translate(0 -0.104)" fill="#4f157f"/>
    <path id="Path_17" data-name="Path 17" d="M4.173,17.483,5.412,15.8l7.469-.379-3.6-2.626a1.52,1.52,0,0,0-.812-.394.857.857,0,0,0-.587.394l-.157.216-.17-.125,1.59-2.158.17.123-.162.22a.777.777,0,0,0-.172.732,1.707,1.707,0,0,0,.6.59l5.256,3.834-.121.165-8.033.427,3.838,2.8a1.59,1.59,0,0,0,.808.4.857.857,0,0,0,.587-.4l.164-.218.17.123-1.59,2.161-.17-.125.157-.214a.788.788,0,0,0,.176-.739,1.757,1.757,0,0,0-.6-.59L5.891,16.859a3.492,3.492,0,0,0-.721.1,1.9,1.9,0,0,0-.489.273,1.755,1.755,0,0,0-.338.372Z" transform="translate(0 -0.052)" fill="#4f157f"/>
    <path id="Path_18" data-name="Path 18" d="M16.227,14.442l-.119-.174.24-.163a.769.769,0,0,0,.4-.65,1.777,1.777,0,0,0-.374-.762L13.542,8.6c-.272-.4-.487-.614-.644-.656a.851.851,0,0,0-.687.167l-.238.165L11.851,8.1l2.594-1.773a6.808,6.808,0,0,1,2.4-1.162,3.106,3.106,0,0,1,1.939.256,4.02,4.02,0,0,1,1.654,1.428,3.839,3.839,0,0,1,.719,2.764,4.3,4.3,0,0,1-2.079,2.88Zm1.5-1.7a5.716,5.716,0,0,0,1.091-.554,2.863,2.863,0,0,0,1.282-2A3.5,3.5,0,0,0,19.4,7.63a3.526,3.526,0,0,0-2.148-1.579,2.95,2.95,0,0,0-2.369.5,4.8,4.8,0,0,0-.87.794Z" transform="translate(-0.001 -0.025)" fill="#4f157f"/>
    <path id="Path_19" data-name="Path 19" d="M25.811.739a3.517,3.517,0,0,1,2.815.423,3.927,3.927,0,0,1,1.807,2.455,4.029,4.029,0,0,1-.31,3.1,3.728,3.728,0,0,1-5.179,1.42A4.044,4.044,0,0,1,23.13,5.6a3.877,3.877,0,0,1,.43-3.212A3.707,3.707,0,0,1,25.811.739m0,.427a2.046,2.046,0,0,0-1.408,1.17,4.31,4.31,0,0,0-.023,2.9,4.591,4.591,0,0,0,1.539,2.592,2.018,2.018,0,0,0,1.788.317,2.24,2.24,0,0,0,1.514-1.282,4.081,4.081,0,0,0-.013-2.755A4.632,4.632,0,0,0,27.69,1.465a2.115,2.115,0,0,0-1.875-.3" transform="translate(-0.003 -0.003)" fill="#4f157f"/>
    <path id="Path_20" data-name="Path 20" d="M46.452,1.775l.06-.2,2.622.783-.062.2-.279-.085a.79.79,0,0,0-.78.163,1.721,1.721,0,0,0-.351.749l-.9,2.988a5.563,5.563,0,0,1-.74,1.655,2.264,2.264,0,0,1-1.184.789,3.256,3.256,0,0,1-1.892-.089,3.46,3.46,0,0,1-1.714-.967,2.345,2.345,0,0,1-.551-1.39,6.469,6.469,0,0,1,.372-1.866l.868-2.88A1.507,1.507,0,0,0,42,.677a.817.817,0,0,0-.544-.394L41.179.2l.06-.2,3.2.952-.062.2-.283-.085a.771.771,0,0,0-.742.093,1.7,1.7,0,0,0-.383.772L42,5.148a7.081,7.081,0,0,0-.217,1.005,2.168,2.168,0,0,0,.026.952,1.622,1.622,0,0,0,.444.688,2.146,2.146,0,0,0,.9.487,2.763,2.763,0,0,0,1.395.072,1.743,1.743,0,0,0,1.025-.571,4.806,4.806,0,0,0,.712-1.6l.9-2.984a1.6,1.6,0,0,0,.108-.91.839.839,0,0,0-.561-.427Z" transform="translate(-0.005)" fill="#4f157f"/>
    <path id="Path_21" data-name="Path 21" d="M50.771,3.09l1.75,1.151.744,7.406,2.458-3.7a1.536,1.536,0,0,0,.357-.827.845.845,0,0,0-.423-.563l-.225-.148.117-.176,2.243,1.479-.115.174-.23-.15a.784.784,0,0,0-.742-.135,1.7,1.7,0,0,0-.563.624l-3.6,5.4-.17-.11L51.56,5.553,48.934,9.5a1.583,1.583,0,0,0-.361.823.865.865,0,0,0,.423.567l.23.148-.117.176L46.865,9.743l.115-.178.223.148a.8.8,0,0,0,.748.138,1.722,1.722,0,0,0,.566-.622l2.964-4.461a3.352,3.352,0,0,0-.14-.711,1.9,1.9,0,0,0-.3-.474,1.921,1.921,0,0,0-.391-.317Z" transform="translate(-0.006 -0.015)" fill="#4f157f"/>
    <path id="Path_22" data-name="Path 22" d="M55.929,16.645l-.151.146-2.313-2.357.151-.146.191.2a.835.835,0,0,0,.685.3,1.732,1.732,0,0,0,.725-.512L58.789,10.8a2.517,2.517,0,0,0,.5-.59.517.517,0,0,0,.011-.339,1.074,1.074,0,0,0-.268-.468l-.191-.195L59,9.061l2.313,2.357-.151.148-.2-.2a.82.82,0,0,0-.68-.3,1.669,1.669,0,0,0-.727.51l-3.574,3.47a2.592,2.592,0,0,0-.5.59.509.509,0,0,0-.009.345,1.047,1.047,0,0,0,.264.461Z" transform="translate(-0.006 -0.044)" fill="#4f157f"/>
    <path id="Path_23" data-name="Path 23" d="M66.921,19.524l-.179.112a1.263,1.263,0,0,0-.553-.387,2.354,2.354,0,0,0-1.008,0l-7.006,1.2-.113-.178,4.112-5.963a3.467,3.467,0,0,0,.366-.593,1.006,1.006,0,0,0,.049-.442,1.644,1.644,0,0,0-.189-.54l.179-.114,1.675,2.666-.179.11a1.456,1.456,0,0,0-.525-.491.424.424,0,0,0-.37.044,2.546,2.546,0,0,0-.614.69l-2.8,4.052,4.758-.823a3.119,3.119,0,0,0,.921-.26.43.43,0,0,0,.181-.3,1.065,1.065,0,0,0-.115-.584c-.006-.019-.019-.049-.038-.091l.181-.112Z" transform="translate(-0.007 -0.062)" fill="#4f157f"/>
    <path id="Path_24" data-name="Path 24" d="M67.893,23.694l-2.93.859.481,1.625a1.391,1.391,0,0,0,.44.785,1.3,1.3,0,0,0,.98.055l.06.2-2.581.758-.06-.2a3.066,3.066,0,0,0,.651-.356.714.714,0,0,0,.2-.413,1.685,1.685,0,0,0-.094-.717l-.481-1.621-2.443.719a2.6,2.6,0,0,0-.587.216.378.378,0,0,0-.123.2.956.956,0,0,0,.06.432l.37,1.251a3.439,3.439,0,0,0,.357.885,1.43,1.43,0,0,0,.506.442,4.32,4.32,0,0,0,1.227.391l.064.218-2.048-.091-1.684-5.686.2-.059.079.26a1.093,1.093,0,0,0,.272.459.484.484,0,0,0,.332.159,2.589,2.589,0,0,0,.736-.148L66.7,22.909a1.674,1.674,0,0,0,.827-.4.878.878,0,0,0,.026-.715l-.079-.262.2-.061,1.684,5.688-1.6.557-.064-.209a2.668,2.668,0,0,0,.729-.491.89.89,0,0,0,.21-.51,2.514,2.514,0,0,0-.145-.789Z" transform="translate(-0.007 -0.105)" fill="#4f157f"/>
    <path id="Path_25" data-name="Path 25" d="M62.395,37.725l-.053-2.053,3.544-2.7c-.013-.193-.021-.349-.026-.472v-.159c0-.055,0-.114,0-.176l-2.245.059a1.573,1.573,0,0,0-.9.182.8.8,0,0,0-.234.652l.008.3-.213.006-.085-3.295.21,0,.009.286a.768.768,0,0,0,.336.692,1.827,1.827,0,0,0,.842.1l4.99-.129a1.591,1.591,0,0,0,.9-.182.829.829,0,0,0,.234-.664l-.008-.29.213-.006.072,2.8a6.693,6.693,0,0,1-.132,1.811,2.066,2.066,0,0,1-.636,1,1.719,1.719,0,0,1-1.138.436,1.811,1.811,0,0,1-1.248-.43,2.618,2.618,0,0,1-.778-1.414L63.887,35.73a3.916,3.916,0,0,0-.989.961,2.336,2.336,0,0,0-.293,1.031Zm3.829-5.563c0,.072,0,.131,0,.186s0,.1,0,.131a2.5,2.5,0,0,0,.521,1.646,1.538,1.538,0,0,0,1.235.527,1.555,1.555,0,0,0,1.586-1.687,5.165,5.165,0,0,0-.132-.889Z" transform="translate(-0.007 -0.146)" fill="#4f157f"/>
    <path id="Path_26" data-name="Path 26" d="M68.884,44.213l-2.607-.586.047-.205a3.315,3.315,0,0,0,1.276-.089,1.919,1.919,0,0,0,.872-.571,2.076,2.076,0,0,0,.485-.929A1.366,1.366,0,0,0,68.82,40.8a1.107,1.107,0,0,0-.719-.557.985.985,0,0,0-.683.1,6.276,6.276,0,0,0-1.482,1.382,11.842,11.842,0,0,1-1.195,1.24,2.235,2.235,0,0,1-.85.432,1.938,1.938,0,0,1-.908.013,2,2,0,0,1-1.327-.992,2.44,2.44,0,0,1-.232-1.841,3.462,3.462,0,0,1,.189-.6,6.623,6.623,0,0,1,.364-.667,3.241,3.241,0,0,0,.33-.643.3.3,0,0,0-.032-.237.7.7,0,0,0-.319-.2L62,38.023l2.585.582-.047.205a3.784,3.784,0,0,0-1.3.114,1.91,1.91,0,0,0-.838.593,2.339,2.339,0,0,0-.517,1.041A1.584,1.584,0,0,0,62,41.73a1.149,1.149,0,0,0,.776.6,1.2,1.2,0,0,0,.6-.025,1.707,1.707,0,0,0,.636-.356,13.333,13.333,0,0,0,.976-1.018,11.765,11.765,0,0,1,1.176-1.174,2.351,2.351,0,0,1,.853-.457,1.787,1.787,0,0,1,.9-.017,1.9,1.9,0,0,1,1.257.933,2.252,2.252,0,0,1,.23,1.708,3.246,3.246,0,0,1-.583,1.2,1.323,1.323,0,0,0-.238.406.333.333,0,0,0,.032.254.712.712,0,0,0,.315.224Z" transform="translate(-0.007 -0.186)" fill="#4f157f"/>
    <path id="Path_27" data-name="Path 27" d="M59.666,46.693l-.193-.083,1.305-3.028.193.083-.106.252a.818.818,0,0,0-.019.743,1.747,1.747,0,0,0,.753.47l4.588,1.964a2.675,2.675,0,0,0,.742.235.519.519,0,0,0,.317-.119,1.062,1.062,0,0,0,.334-.425l.106-.25.193.083-1.306,3.03-.193-.085.111-.256a.819.819,0,0,0,.015-.741,1.7,1.7,0,0,0-.751-.474L61.165,46.13a2.567,2.567,0,0,0-.738-.235.5.5,0,0,0-.321.123,1.023,1.023,0,0,0-.33.419Z" transform="translate(-0.007 -0.213)" fill="#4f157f"/>
    <path id="Path_28" data-name="Path 28" d="M62.21,56.608l-1.546-.946.123-.178a2.3,2.3,0,0,0,.661.241,1.153,1.153,0,0,0,.668-.114,1.621,1.621,0,0,0,.563-.546l.614-.893-4.878-3.316a1.622,1.622,0,0,0-.823-.372.849.849,0,0,0-.572.417l-.151.218L56.7,51l1.846-2.7.174.121-.153.222a.777.777,0,0,0-.147.741,1.728,1.728,0,0,0,.617.567l4.878,3.314.523-.766a2.543,2.543,0,0,0,.368-.677,1.05,1.05,0,0,0-.057-.648,1.69,1.69,0,0,0-.546-.675l.121-.178,1.446,1.094Z" transform="translate(-0.007 -0.236)" fill="#4f157f"/>
    <path id="Path_29" data-name="Path 29" d="M56.7,61.815l-2.056,1.731-.138-.157.115-.1a1.184,1.184,0,0,0,.245-.379,1.655,1.655,0,0,0,.153-.622,5.152,5.152,0,0,0-.077-.973l-.474-3.43-1.254-1.469c-.306-.362-.538-.554-.7-.573a.878.878,0,0,0-.676.258l-.191.161-.136-.159L54.018,54l.136.159-.208.176a.779.779,0,0,0-.34.673,1.722,1.722,0,0,0,.442.713L55.23,57.1l3.71,1.1a7.312,7.312,0,0,0,.85.212,2.043,2.043,0,0,0,.644-.1.757.757,0,0,0,.289-.169l.138.161-2.524,2.127L58.2,60.27l.13-.108a.954.954,0,0,0,.3-.415.4.4,0,0,0-.07-.427,1.781,1.781,0,0,0-.744-.339l-2.841-.855.383,2.785a1.712,1.712,0,0,0,.255.825.516.516,0,0,0,.247.163.546.546,0,0,0,.308,0,1.2,1.2,0,0,0,.4-.243Z" transform="translate(-0.006 -0.264)" fill="#4f157f"/>
  </g>
  <g id="レイヤー_2" data-name="レイヤー 2" transform="translate(90 19.806)">
    <path id="Path_2109" data-name="Path 2109" d="M1.974.948v4.7c0,3.525-.247,4.535-.834,5.875L0,11.053C.764,9.878.975,8.7.975,5.672V2.922C.975,2.112.94.984.893.22L2.068.384C2.35.431,2.35.467,2.35.6S2.244.831,1.974.948Zm1.645.822v5.1a23.934,23.934,0,0,0,.106,2.867H2.409c.117-1.269.129-2.726.129-3.067V3.992a26.707,26.707,0,0,0-.07-2.855l1.175.106c.282,0,.4.059.4.235S3.8,1.689,3.619,1.771ZM5.24.972v6.78a30.317,30.317,0,0,0,.129,4.089H4.007a26.226,26.226,0,0,0,.164-4.065V4.438c0-.082,0-3.29-.07-4.206L5.276.443c.282,0,.352.07.352.176S5.569.807,5.24.972Zm2.655,9.4a5.875,5.875,0,0,1-1.645,1.539L5.3,11.065a5.475,5.475,0,0,0,2-1.821l.928.623a.364.364,0,0,1,.211.305c-.012.211-.211.188-.54.164Zm2.855-9.047H9.517L9.118,2.5h2.5V6.577a25.515,25.515,0,0,0,.094,2.679H5.91c.07-.564.106-1.786.106-2.35V2.382c.764.07,1.621.07,1.786.07h.211a10.575,10.575,0,0,0,.352-1.175H7.814q-1.093,0-2.15.07V.361c.8.082,1.986.082,2.15.082h1.5A24.136,24.136,0,0,0,12.079.349V1.371ZM10.5,3.486H7.05V4.5H10.5Zm0,1.927H7.05v.963H10.5Zm0,1.9H7.05V8.3H10.5Zm.764,4.547a5.875,5.875,0,0,1-1.762-1.821l.9-.728a4.77,4.77,0,0,0,1.727,1.727Z" transform="translate(0 -2.874)"/>
    <path id="Path_2110" data-name="Path 2110" d="M23.361,11.671a7.955,7.955,0,0,1-3.736-2.679,7.226,7.226,0,0,1-1.292-2.279,7.649,7.649,0,0,1-5.005,4.911l-.987-1.281a5.875,5.875,0,0,0,3.325-1.61,5.569,5.569,0,0,0,1.809-3.525H16.64a31.9,31.9,0,0,0-3.372.117V4.034c1.175.094,2.855.117,3.372.117H17.6V1.6H16.429c-1.281,0-2.561,0-3.842.117V.45C13.9.544,15.83.567,16.429.567h3.736c1.292,0,2.585,0,3.877-.117V1.731c-1.422-.094-3.349-.117-3.877-.117H18.849V4.151h1.175a32.568,32.568,0,0,0,3.407-.117V5.314C22.186,5.22,20.494,5.2,20.024,5.2h-.881a6.956,6.956,0,0,0,5.123,5.158Z" transform="translate(2.159 -2.834)"/>
    <path id="Path_2111" data-name="Path 2111" d="M32.643,11.493H28.46c-1.081,0-2.808,0-3.83.106V10.329c.881.082,2.773.082,3.725.082h1.41V9.389H26.146V8.214h3.619V7.392H27.015V5.43a7.26,7.26,0,0,0-.07-1.175h6.674V6.37a6.256,6.256,0,0,0,.071,1.175c-.446,0-1.645-.07-2.127-.07H30.94V8.3h1.339c.223,0,1.633,0,2.35-.082V9.46c-.435,0-1.868-.059-2.35-.059H30.94v1.01h1.715c.118,0,2.785,0,3.525-.117v1.257C35.64,11.493,33.29,11.493,32.643,11.493ZM34.57,5.618V3.561H26.11c0,.388,0,1.657.059,2.056H24.853c0-.388.082-.963.082-1.68A9,9,0,0,0,24.877,2.5h3.008A4.253,4.253,0,0,0,26.392.788L27.415.06a6.686,6.686,0,0,1,1.5,1.7l-.975.752h1.821A23.571,23.571,0,0,0,29.682.06l1.351.082c.2,0,.294,0,.294.164s-.129.27-.352.352V2.516h1.48c.846,0,2.585,0,3.4-.106a3.09,3.09,0,0,0,0,.564c0,.27,0,1.492.094,2.6Zm-2.08-.341H28.249V6.452h4.242Zm1.351-4.112a8.025,8.025,0,0,1-.9,1.3L31.88,1.893A4.43,4.43,0,0,0,32.937.142l1.234.517c.129.059.153.129.153.2C34.324,1.164,34.03,1.164,33.842,1.164Z" transform="translate(4.31 -2.902)"/>
    <path id="Path_2112" data-name="Path 2112" d="M47.308,11.615a10.763,10.763,0,0,1-2.984-2.021,8.483,8.483,0,0,1-1.9-2.89,8.225,8.225,0,0,1-1.939,3.137A7.579,7.579,0,0,1,37.6,11.7l-.893-1.116a6.451,6.451,0,0,0,3.619-2.514A7.391,7.391,0,0,0,41.68,4.542h-1.1c-1.175,0-2.432,0-3.654.106V3.355c1.3.117,3.078.117,3.654.117h1.175V.3l1.5.153c.141,0,.376,0,.376.235s-.317.282-.493.341V3.472h1.175c1.175,0,2.444,0,3.666-.106V4.647c-1.574-.106-3.525-.106-3.666-.106H43.137a7.226,7.226,0,0,0,5.076,5.875Z" transform="translate(6.424 -2.86)"/>
    <path id="Path_2113" data-name="Path 2113" d="M56.554,8.671H55.379V10.7a.858.858,0,0,1-.74.987,8.977,8.977,0,0,1-1.6.059l-.564-1.375c.223,0,1.175.188,1.257.188.388,0,.411-.27.411-.858V8.671H52.57c-.482,0-2.456,0-3.83.106V7.532c1.527.106,3.725.106,3.83.106h1.551a5.97,5.97,0,0,0-.141-1.363l.846.2A10.939,10.939,0,0,0,55.9,5.558H51.325V4.383c.223,0,2.056.094,2.42.094h1.445a13.909,13.909,0,0,0,2.35-.129l.446.67L56.812,6.192l-.54.54-.893.893h1.175c.564,0,2.585,0,3.866-.106V8.777C59.209,8.695,57.764,8.671,56.554,8.671Zm2.2-3.431V3.525H50.373c0,.117,0,1.022.071,1.715h-1.4a8.119,8.119,0,0,0,.082-1.715c0-.517,0-.811,0-1.1.352,0,1.845.07,2.35.082A5.006,5.006,0,0,0,50.22.916L51.4.27A4.253,4.253,0,0,1,52.57,1.95l-.952.552h5.675l-.787-.352A5.875,5.875,0,0,0,57.529.235L58.7.693c.106,0,.27.117.27.2s-.294.282-.435.305a11.75,11.75,0,0,1-.822,1.292,20.445,20.445,0,0,0,2.35-.094c0,.282-.059.681-.059,1.328a7.167,7.167,0,0,0,.117,1.516ZM54.368,2.35A4.453,4.453,0,0,0,53.275.587L54.3,0a3.454,3.454,0,0,1,1.175,1.786Z" transform="translate(8.529 -2.913)"/>
    <path id="Path_2114" data-name="Path 2114" d="M67.491,10.979H62.6a2.83,2.83,0,0,0,.082.67H61.24c.071-.952.129-3.607.129-3.913V4.423c0-1.433-.106-3.454-.129-3.913a10.469,10.469,0,0,0,1.715.106l2.021.059h3.372c.376,0,2.432,0,3.748-.129v1.3c-.963-.082-2.221-.176-3.736-.176h-2.7l1,.552a.189.189,0,0,1,.176.176c0,.07-.223.176-.411.164l-.341.529h1.7c.9,0,2.608-.082,3.09-.129V4.141a28.07,28.07,0,0,0-2.937-.129,12.928,12.928,0,0,1-.094,1.422h.94s1.574,0,2.749-.117V6.491c-.834-.07-1.892-.07-2.726-.07h-.258A5.334,5.334,0,0,0,71.5,8.7l-1.14.94A6.568,6.568,0,0,1,67.42,6.878,5.534,5.534,0,0,1,64.483,9.7l-.916-1.046A4,4,0,0,0,66.3,6.408h-.282c-.881,0-1.915,0-2.726.07V5.3c1.093.106,2.62.117,2.726.117h.587A7.732,7.732,0,0,0,66.727,4H65.4a11.6,11.6,0,0,1-.928.94l-1.093-.822a4.853,4.853,0,0,0,1.974-2.444H62.544V9.9h4.97a42.127,42.127,0,0,0,4.806-.117V11.1C70.969,11,68.877,10.979,67.491,10.979Z" transform="translate(10.716 -2.824)"/>
    <path id="Path_2115" data-name="Path 2115" d="M80.752,8.671H79.577V10.7a.858.858,0,0,1-.693,1.046,8.977,8.977,0,0,1-1.645,0l-.564-1.375c.223,0,1.175.188,1.257.188.388,0,.411-.27.411-.858V8.671H76.78c-.482,0-2.456,0-3.83.106V7.532c1.527.106,3.725.106,3.83.106h1.551a5.97,5.97,0,0,0-.141-1.363l.846.2a10.94,10.94,0,0,0,1.022-.916H75.488V4.383c.223,0,2.056.094,2.42.094h1.445a13.91,13.91,0,0,0,2.35-.129l.446.67L80.975,6.192l-.54.54-.893.893h1.175c.564,0,2.585,0,3.866-.106V8.777C83.407,8.695,81.962,8.671,80.752,8.671Zm2.2-3.431V3.525H74.571c0,.117,0,1.022.07,1.715H73.185a8.119,8.119,0,0,0,.141-1.715c0-.517,0-.811,0-1.1.364,0,1.845.07,2.35.082A5.005,5.005,0,0,0,74.5.928L75.57.282a4.254,4.254,0,0,1,1.175,1.68l-.952.552h5.675l-.787-.352A5.875,5.875,0,0,0,81.727.235L82.9.693c.106,0,.27.117.27.2s-.294.282-.435.305a11.75,11.75,0,0,1-.822,1.292,20.445,20.445,0,0,0,2.35-.094V3.725a7.168,7.168,0,0,0,.117,1.516ZM78.566,2.35A4.324,4.324,0,0,0,77.474.587L78.5,0a3.454,3.454,0,0,1,1.175,1.786Z" transform="translate(12.765 -2.913)"/>
    <path id="Path_2116" data-name="Path 2116" d="M89.5,5.708H87.59c-.4,0-2.138.07-2.55.106V4.639c.8,0,1.751.07,1.939.07a11.9,11.9,0,0,0-.893-1.645l.987-.47A8.871,8.871,0,0,1,88,4.357l-.858.329h2.62l-.834-.446a9.317,9.317,0,0,0,.834-1.715l.952.376a.236.236,0,0,1,.223.211c0,.059-.258.153-.353.164a8.564,8.564,0,0,1-.681,1.41,13.72,13.72,0,0,0,1.986-.094V5.861Zm0-3.278H87.437a16.8,16.8,0,0,0-2.068.082V1.337c.834.094,1.974.094,2.068.094h.517a12.507,12.507,0,0,0,0-1.351l1.175.106c.071,0,.388,0,.388.188s-.188.235-.364.341,0,.493,0,.717H89.5a20.292,20.292,0,0,0,2.068-.094V2.512a17.3,17.3,0,0,0-2.08-.082Zm.47,9.318a6.438,6.438,0,0,0,.106-.893H86.955v.893H85.674c0-.153.082-1.727.082-1.9V8.27s-.059-1.328-.07-1.516c.353,0,1.739.082,2,.082H91.3v3.454c0,.235.07,1.257.07,1.457Zm.106-3.889H86.955V9.832h3.114Zm5.628,2.456a3.525,3.525,0,0,1-1.516.247l-.505-1.469h1.046c.576,0,.74-.529.74-1.245a3.02,3.02,0,0,0-.787-1.892c-.106-.129-.881-.963-1.093-1.175l1.492-3.266H93.418V7.729c0,.294.07,1.6.07,1.88a17.491,17.491,0,0,0,.07,2.268H92.113c0-.54.106-2.914.118-3.407V4.181c0-.458,0-2.5-.082-3.713h4.112l.482.587c-1.445,2.8-1.6,3.1-1.8,3.525a4.559,4.559,0,0,1,1.8,3.631,2.138,2.138,0,0,1-1.046,2.1Z" transform="translate(14.88 -2.899)"/>
    <path id="Path_2117" data-name="Path 2117" d="M99.975,4.171A5.957,5.957,0,0,1,101.22,7.3c0,.717-.235,1.915-1.668,1.915a2.468,2.468,0,0,1-.564-.07l-.352-.94c0,1.057,0,2.644.117,3.7H97.39c.082-1.175.176-3.067.176-4.218V3.654c0-.775,0-2.033-.071-2.832V.294l1.292.07h1.175l1.175-.07.435.646C101.256,1.445,100.21,3.713,99.975,4.171Zm-.235,1.7a3.525,3.525,0,0,0-.952-1.563L99.963,1.4H98.635V7.861a5.135,5.135,0,0,0,.693.07c.47,0,.646-.294.646-.693a5.217,5.217,0,0,0-.235-1.363Zm4.524-4.7a8.483,8.483,0,0,1-.928,1.9c.082,0,.153.106.153.211s-.129.235-.258.294V6.968c0,1.657.082,3.313.129,4.947h-1.375c0-.869.165-4.089.165-4.97V4.888a4.6,4.6,0,0,1-.587.681l-1.1-.869A11.232,11.232,0,0,0,102.3,2.35,10.457,10.457,0,0,0,103.194,0l1.175.552a.232.232,0,0,1,.211.235.329.329,0,0,1-.317.317Zm.728,7.179a6.967,6.967,0,0,0-1.4-2.044l1.057-.764a5.875,5.875,0,0,1,1.433,2.033Zm2.6-4.3V7.579c0,.517.07,2.8.07,3.255,0,1.046-.8,1.175-2.467,1.175l-.493-1.527a6.674,6.674,0,0,0,1.281.094c.482,0,.482-.059.482-.6v-6h-1.093a13.465,13.465,0,0,0-1.715.117V2.808a16.015,16.015,0,0,0,1.715.117h1.057a23.134,23.134,0,0,0-.07-2.773l1.175.082c.235,0,.364,0,.364.164a.27.27,0,0,1-.07.164l-.2.258V2.914a9.9,9.9,0,0,0,1.234-.106V4.089a9.165,9.165,0,0,0-1.269-.106Z" transform="translate(17.041 -2.913)"/>
    <path id="Path_2118" data-name="Path 2118" d="M120.468,8.894v1.469c0,.811,0,.893-.165,1.081-.27.376-.587.376-1.762.364l-.446-1.175h.646c.623,0,.646-.082.646-.775V8.682h-1.175a5.334,5.334,0,0,1,.646,1.433l-1.022.423-.129-.552c-.6.106-2.879.423-3.725.552-.07.141-.094.223-.235.223s-.153,0-.188-.223L113.348,9.5a10.085,10.085,0,0,0,2.15-.153V8.823H112.89V9.881a15.563,15.563,0,0,0,.082,1.8h-1.257c.059-.517.118-1,.118-1.281V9.058a9.1,9.1,0,0,0-.082-1.245,25.05,25.05,0,0,0,2.749.106h1v-.6h-.587a22.662,22.662,0,0,0-2.35.082,8.5,8.5,0,0,0,.082-.846V5.733a6.533,6.533,0,0,0-.082-.846c1.175,0,1.927.07,2.35.07h.587V4.464c-.975.07-1.539.082-2.691.07l-.47-.963c.482,0,.646.059,1.175.059a20.727,20.727,0,0,0,4.77-.458h-6.451v1.3a10.963,10.963,0,0,1-1.645,6.439l-1.257-.4a7.167,7.167,0,0,0,1.492-2.855,10.574,10.574,0,0,0,.305-3.1V1.35A7.868,7.868,0,0,0,110.61.34c1.081.094,2.15.117,3.231.117h6.615a5.454,5.454,0,0,0-.094.952V2.29a4.994,4.994,0,0,0,.094.94h-1.751l.717.623s.118.117.118.2a.2.2,0,0,1-.212.164c-.082,0-.423-.082-.482-.082a1.586,1.586,0,0,0-.411.07l-1.7.223v.587h.611c.505,0,1.245,0,2.35-.07a4.957,4.957,0,0,0-.082.846v.822a5.545,5.545,0,0,0,.082.846c-.564,0-1.727-.082-2.35-.082h-.611v.6h1.1c.822,0,1.856-.07,2.691-.153A10.292,10.292,0,0,0,120.468,8.894ZM119.293,1.35H111.9v.94h7.391ZM115.6,5.733h-1.892v.8h1.845Zm2.984,0h-1.845v.8h1.845Zm-1.845,3.09V9.34a1.868,1.868,0,0,0,.787-.094c0-.094-.082-.153-.188-.305l.4-.153Z" transform="translate(19.061 -2.853)"/>
    <path id="Path_2119" data-name="Path 2119" d="M122.979.948v4.7c0,3.525-.247,4.535-.834,5.875l-1.175-.4c.764-1.175.975-2.35.975-5.381V2.922c0-.811,0-1.939-.082-2.7l1.175.164c.247,0,.317.082.317.211S123.249.831,122.979.948Zm1.645.822v5.1a23.937,23.937,0,0,0,.106,2.867h-1.281c.117-1.269.129-2.726.129-3.067V3.992a26.705,26.705,0,0,0-.106-2.855l1.175.106c.282,0,.4.059.4.235S124.8,1.689,124.624,1.771Zm1.621-.8v6.78a30.314,30.314,0,0,0,.129,4.089h-1.316a26.226,26.226,0,0,0,.165-4.065V4.438c0-.082,0-3.29-.07-4.206l1.175.211c.282,0,.353.07.353.176s-.106.188-.435.352Zm2.655,9.4a5.875,5.875,0,0,1-1.645,1.539l-.952-.846a5.475,5.475,0,0,0,2-1.821l.916.658a.364.364,0,0,1,.212.305c0,.176-.2.153-.529.129Zm2.855-9.012h-1.234l-.4,1.175h2.5V6.612a25.52,25.52,0,0,0,.094,2.679h-5.757c.07-.564.106-1.786.106-2.35V2.382c.764.07,1.621.07,1.786.07h.212a10.575,10.575,0,0,0,.352-1.175h-.505q-1.093,0-2.15.07V.361c.8.082,1.986.082,2.15.082h1.5a24.136,24.136,0,0,0,2.761-.094V1.371Zm-.247,2.127h-3.454V4.5h3.431Zm0,1.927h-3.454v.963h3.431Zm0,1.9h-3.454V8.3h3.431Zm.764,4.547a5.875,5.875,0,0,1-1.762-1.821l.9-.728a4.77,4.77,0,0,0,1.727,1.727Z" transform="translate(21.167 -2.874)"/>
    <path id="Path_2120" data-name="Path 2120" d="M144.361,11.671a7.955,7.955,0,0,1-3.736-2.679,7.226,7.226,0,0,1-1.292-2.279,7.649,7.649,0,0,1-5.005,4.911l-.987-1.281a5.875,5.875,0,0,0,3.325-1.61,5.569,5.569,0,0,0,1.809-3.525h-.834a31.894,31.894,0,0,0-3.372.117V4.034c1.175.094,2.855.117,3.372.117h.964V1.6h-1.175c-1.281,0-2.561,0-3.842.117V.45c1.316.094,3.243.117,3.842.117h3.736c1.292,0,2.585,0,3.877-.117V1.731c-1.422-.094-3.349-.117-3.877-.117h-1.328v.834c0,.07,0,.728-.059,1.7h1.175a32.568,32.568,0,0,0,3.407-.117V5.314c-1.245-.094-2.937-.117-3.407-.117h-.881a6.956,6.956,0,0,0,5.123,5.158Z" transform="translate(23.332 -2.834)"/>
    <path id="Path_2121" data-name="Path 2121" d="M153.643,11.493H149.46c-1.081,0-2.808,0-3.83.106V10.329c.881.082,2.773.082,3.725.082h1.41V9.389h-3.619V8.214h3.619V7.392h-2.749V5.43a7.262,7.262,0,0,0-.07-1.175h6.674V6.37a6.257,6.257,0,0,0,.07,1.175c-.447,0-1.645-.07-2.127-.07h-.623V8.3h1.339c.223,0,1.633,0,2.35-.082V9.46c-.435,0-1.868-.059-2.35-.059H151.94v1.01h1.715c.117,0,2.785,0,3.525-.117v1.257C156.64,11.493,154.29,11.493,153.643,11.493Zm1.927-5.875V3.561h-8.507c0,.388,0,1.657.059,2.056h-1.316c0-.388.082-.963.082-1.68V2.5H148.9a4.254,4.254,0,0,0-1.5-1.715L148.415.06a6.686,6.686,0,0,1,1.5,1.7l-.975.752h1.821A23.566,23.566,0,0,0,150.671.06l1.351.082c.2,0,.294,0,.294.164s-.129.27-.352.352V2.516h1.48c.846,0,2.585,0,3.4-.106a3.089,3.089,0,0,0,0,.564c0,.27,0,1.492.094,2.6Zm-2.08-.294h-4.242V6.5h4.242Zm1.351-4.159a8.026,8.026,0,0,1-.9,1.3l-1.057-.576a4.43,4.43,0,0,0,1.057-1.7l1.234.517c.129.059.153.129.153.2C155.324,1.164,155.03,1.164,154.842,1.164Z" transform="translate(25.482 -2.902)"/>
    <path id="Path_2122" data-name="Path 2122" d="M164.3,10.979H159.41a2.83,2.83,0,0,0,.082.67H158c.07-.952.129-3.607.129-3.913V4.423c0-1.433-.106-3.454-.129-3.913a10.469,10.469,0,0,0,1.762.106l2.021.059h3.372c.376,0,2.432,0,3.748-.129v1.3c-.964-.082-2.221-.176-3.736-.176H162.43l1,.552a.189.189,0,0,1,.176.176c0,.07-.223.176-.411.164l-.341.529h1.7c.9,0,2.608-.082,3.09-.129V4.141a28.07,28.07,0,0,0-2.937-.129,12.926,12.926,0,0,1-.094,1.422h.94s1.551,0,2.726-.117V6.491c-.834-.07-1.892-.07-2.726-.07H165.3A5.334,5.334,0,0,0,168.246,8.7l-1.1.952A6.568,6.568,0,0,1,164.2,6.89a5.534,5.534,0,0,1-2.914,2.82l-.94-1.057a4,4,0,0,0,2.738-2.244h-.282c-.881,0-1.915,0-2.726.07V5.3c1.093.106,2.62.117,2.726.117h.587A7.73,7.73,0,0,0,163.511,4h-1.328a11.6,11.6,0,0,1-.928.94l-1.093-.822a4.853,4.853,0,0,0,1.974-2.456h-2.808V9.886h4.97a42.127,42.127,0,0,0,4.806-.117V11.1C167.776,11,165.684,10.979,164.3,10.979Z" transform="translate(27.647 -2.824)"/>
    <path id="Path_2123" data-name="Path 2123" d="M180.013,4.469V2.648H174.7V4.469h-1.175c0-.388.071-.975.071-1.809V1.485c-.611,1.445-.693,1.68-.893,2.115a6.525,6.525,0,0,1-.317.646,4.7,4.7,0,0,1,1.175,2.937,1.762,1.762,0,0,1-1.821,2.033l-.564-1.245h.423c.259,0,.705,0,.705-.94a2.585,2.585,0,0,0-.423-1.422,9.7,9.7,0,0,0-.7-1.175l1.269-2.867h-1.339V9.545c0,.411,0,1.962.059,2.35H169.99c0-.364.082-3,.082-3.349V.5h3.349l.388.482s-.141.364-.235.54c.411,0,1.433.082,1.833.082h1.41V.11l1.433.117c.141,0,.27,0,.27.211s-.082.2-.376.4V1.6h1.539s.916,0,1.7-.07V4.469Zm.106,7.167h-1.093c-1.175,0-1.375-.27-1.375-1.339V7.16H176.7a5.5,5.5,0,0,1-.823,3.114,3.936,3.936,0,0,1-2.9,1.668l-.693-1.175c2.785-.153,3.172-1.856,3.278-3.631a13,13,0,0,0-1.974.094V6c.9.07,2.232.094,2.644.094h2.6A25.181,25.181,0,0,0,181.493,6V7.254c-.834-.07-1.845-.094-2.679-.094V9.909c0,.423,0,.564.376.564h.764c.258,0,.376-.141.505-.482a5,5,0,0,0,.235-1l.952.94C181.352,10.861,181.035,11.637,180.118,11.637Zm-1.986-6.721H176.64a12.031,12.031,0,0,0-1.516.117V3.752a10.5,10.5,0,0,0,1.516.117h1.492a8.225,8.225,0,0,0,1.539-.117V5.033A10.07,10.07,0,0,0,178.133,4.916Z" transform="translate(29.745 -2.894)"/>
    <path id="Path_2124" data-name="Path 2124" d="M5.488,21.216V23.9H7.415V30.24H5.805v-.529H5.488v3.525H7.38V34.9H2.68a8.143,8.143,0,0,0,0,.963H.8c.129-1.645.27-3.278.27-4.935V24.448c0-1.563-.059-3.266-.117-4.829.975,0,1.339.07,2.444.07H5.864c.517,0,1.492,0,2.244-.07v1.657C6.346,21.216,6.029,21.216,5.488,21.216Zm-1.574,0H2.68V23.9H3.914Zm1.95,4.1H2.68v2.89H5.864Zm-1.95,4.359H2.68V33.2H3.914Zm9.8-7.955H10.435a8.589,8.589,0,0,1-.775,1.057c.717,0,1.633.118,2.35.118h2.444a21.479,21.479,0,0,0,2.35-.141,15.98,15.98,0,0,0-.082,1.68v1.88A14.663,14.663,0,0,0,16.8,28a22.807,22.807,0,0,0-2.35-.129H11.927A21.842,21.842,0,0,0,9.577,28c0-.423.07-.987.07-1.68v-1.88a11.874,11.874,0,0,0-.07-1.657A8.437,8.437,0,0,1,8.4,23.954L6.769,22.932a7.379,7.379,0,0,0,3.2-4.512l1.9.482c.094,0,.294.094.294.235s-.117.188-.505.329l-.458.822h2.514c1.292,0,2.6,0,3.889-.094v1.621c-.611-.047-2.209-.118-3.889-.118ZM10.752,35.716v-.952H9.26a7.861,7.861,0,0,0,0,.952H7.744v-6.8c.623,0,1.175.106,1.527.106h1.516a12.478,12.478,0,0,0,1.527-.106v6.8Zm0-5.37H9.26v3.02h1.527Zm4.148-6.11H11.328v2.232h3.607Zm.881,11.444v-.952H14.43v.952H12.867v-6.8a14.181,14.181,0,0,0,1.527.094H15.91a14.1,14.1,0,0,0,1.527-.094c-.059.9-.059,2.056-.059,2.174v2.221c0,.846,0,1.821.059,2.409Zm.059-5.334H14.406v3.02h1.469Z" transform="translate(0.14 0.31)"/>
    <path id="Path_2125" data-name="Path 2125" d="M34.469,34.214a12.831,12.831,0,0,1-5.24-4.559v2.808c0,.364.129,3.125.188,3.466h-2.15c0-.54.106-2.843.106-3.325V29.162a13.759,13.759,0,0,1-4.9,4.947l-1.715-1.175a15.592,15.592,0,0,1-1.046,2.538L17.89,34.79c1.48-2.268,1.845-4.594,1.845-8.577a50.8,50.8,0,0,0-.094-5.8c1,.059,3.325.117,4.43.117h2.174V18.54l2.056.141c.094,0,.411,0,.411.282s-.388.423-.6.482v1.081H30.78c.728,0,4.206-.094,5.041-.153v1.845L30.944,22.1H21.45v3.078a25.7,25.7,0,0,1-.681,7.649,12.032,12.032,0,0,0,5.652-5.593,34.528,34.528,0,0,0-4.265.176v-1.88c1.492.106,3.642.153,4.3.153h.963V23.075l1.845.141c.505,0,.67.059.67.282s-.164.329-.6.564v1.621h1.375a41.127,41.127,0,0,0,4.336-.153v1.88c-1.868-.153-4.183-.176-4.336-.176H29.534a10.481,10.481,0,0,0,6.451,5.217Z" transform="translate(3.13 0.331)"/>
    <path id="Path_2126" data-name="Path 2126" d="M40.747,20.619a22.419,22.419,0,0,1-.634,3.995h1.175s1.245,0,1.657-.07c-.082,1.116-.117,2.632-.117,2.926v2.6c0,.987,0,1.41.07,3.125-.822,0-1.516-.082-2.35-.082H39.6a16.662,16.662,0,0,0,.094,2.35H37.821a50.924,50.924,0,0,0,.2-5.252V29.49c-.176.294-.27.411-.54.834L35.73,29.4a15.275,15.275,0,0,0,3.313-8.754,14.452,14.452,0,0,0-2.35.153V18.88a14.217,14.217,0,0,0,2.15.176h2.138A11.162,11.162,0,0,0,43.1,18.88v1.892A15.875,15.875,0,0,0,40.747,20.619Zm.54,5.546H39.643v5.4h1.61Zm10.363.282v1.234c0,1.516,0,5.428.129,8.131H49.607c.211-3.783.211-5.3.211-8.107V26.423H47.55c0,2.256-.129,6.78-3.525,9.494l-1.6-1.363a5.875,5.875,0,0,0,2.832-3.678,13.83,13.83,0,0,0,.576-4.43,17.9,17.9,0,0,0-2.35.141V24.7a21.43,21.43,0,0,0,2.35.129V20.619a12.062,12.062,0,0,0-2.009.07V18.939c.235,0,2.667.082,3.525.082h2.561c1.057,0,2.832,0,3.678-.082v1.751l-2-.07v4.206A18.394,18.394,0,0,0,53.86,24.7v1.892c-.94-.106-1.845-.118-2.244-.141Zm-1.8-5.875h-2.3V24.9h2.268Z" transform="translate(6.252 0.391)"/>
    <path id="Path_2127" data-name="Path 2127" d="M68.1,35.528H66.6c-.963,0-2.279,0-2.279-1.7,0-.881.423-3.924.576-4.982l-2.879.188a8.73,8.73,0,0,1-6.592,6.662L54,34.13c2.162-.423,5.205-1.5,6.122-4.97h-.67c-2.174.106-3.231.247-4.3.364l-.129-1.8h3.807l1.563-.07c.094-1.257.082-1.986.082-2.467l2.209.446c.153,0,.352.059.352.247s-.329.329-.576.364c-.082.681-.106.928-.164,1.328h.482l4.148-.376a29.716,29.716,0,0,0-.517,3.278l-.258,2.7a.576.576,0,0,0,.188.587,1.234,1.234,0,0,0,.693.117H67.9c.482,0,.94,0,1.48-2.561l1.6,1.234C70.226,35.528,69.275,35.528,68.1,35.528Zm.775-10.3a1.7,1.7,0,0,1-1.7,1H64.7c-1.739,0-1.809-.9-1.809-1.621V22.192h-7.05c0,.987,0,1.986.059,2.949H54.094c0-.47.094-1.175.094-2.491V20.594c1.6.117,3.2.153,4.794.153h2.526a19.31,19.31,0,0,0-.082-2.2l2.044.211c.223,0,.435.059.435.317s-.305.364-.517.435c0,.364-.059.869-.07,1.234h2.091c1.081,0,4.007-.059,5.029-.117,0,.482-.071,1.116-.071,2.021a22.7,22.7,0,0,0,.094,2.585Zm-8-1.715a6.968,6.968,0,0,1-3.407,3.172L56,25.33A5.076,5.076,0,0,0,59.6,22.369l1.551.482c.212.059.446.117.446.341s-.071.235-.717.329Zm3.7-1.316v1.9c0,.258,0,.658.576.658h1.457c.505,0,.858,0,1.175-1.422l.775.482V22.192Z" transform="translate(9.449 0.333)"/>
    <path id="Path_2128" data-name="Path 2128" d="M77.326,26.208a1.868,1.868,0,1,1-1.868-1.868A1.868,1.868,0,0,1,77.326,26.208Z" transform="translate(12.877 1.346)"/>
    <path id="Path_2129" data-name="Path 2129" d="M84.443,27.034A8.425,8.425,0,0,0,81.493,25.2l.8-1.68a11.162,11.162,0,0,1,2.937,1.8Zm-1.022,7.9a5.959,5.959,0,0,1,0,.646.223.223,0,0,1-.235.211c-.129,0-.247-.129-.341-.223L81.47,34.025A26.849,26.849,0,0,0,85.1,28.151l1.175,1.48a33.1,33.1,0,0,1-2.879,5.3Zm2.5-12.843a8.3,8.3,0,0,0-2.961-1.927l.881-1.586a8.859,8.859,0,0,1,2.949,1.809Zm11.115,4.629a7.8,7.8,0,0,0-.6-1.245c-3.525.388-6,.634-9.506.987-.258.435-.27.493-.411.493s-.247-.235-.282-.54l-.211-1.9h2.138a20.139,20.139,0,0,0,2.479-6.1l2.021.693c.353.117.411.129.411.364s-.082.27-.693.388c-.587,1.339-1.433,3.255-2.162,4.524,1.175,0,4.007-.235,5.3-.305A8.225,8.225,0,0,0,93.6,22.217l1.48-1.057a11.6,11.6,0,0,1,3.654,4.488Zm-2.021,9.13a5.122,5.122,0,0,0,.07-1.057H89.213a6.022,6.022,0,0,0,.07,1.057H87.368A18.992,18.992,0,0,0,87.5,33.2V30.595c0-.423-.106-2.268-.129-2.655,1,.059,2.209.094,3.349.094h2.949c.552,0,2.714-.082,3.255-.141V33.2c0,.305.106,1.574.141,1.821s.082.564.094.811Zm.07-6.239H89.213v3.6h5.875Z" transform="translate(14.255 0.309)"/>
    <path id="Path_2130" data-name="Path 2130" d="M99.645,34.314H98.2a8.707,8.707,0,0,0,.529-3.525l1.116.106a12.406,12.406,0,0,1,.094,1.281,8,8,0,0,1-.294,2.138Zm15.733-9.13a17.4,17.4,0,0,1-1.715-1.057v.928a10.75,10.75,0,0,0-2-.117v1.316h.952c.623,0,2.1-.082,2.773-.117a11.09,11.09,0,0,0-.094,1.727v1.375A13.691,13.691,0,0,0,115.378,31c-.517-.059-2.35-.117-2.773-.117h-.329a6.768,6.768,0,0,0,4.042,3.525L114.8,35.795a9.4,9.4,0,0,1-3.83-3.948,7.261,7.261,0,0,1-4.265,3.983l-1.574-1.386a5.558,5.558,0,0,0,4.394-3.584c-1,0-2.021.059-3.02.118,0-.376.117-1.245.117-1.516V27.746a14.614,14.614,0,0,0-.082-1.586c1.022,0,2.2.117,3.043.117h.423V24.962a10.446,10.446,0,0,0-2.021.117v-.928c-.67.6-1.175.952-1.457,1.175l-1.022-.74v1.645l-1.915-.07v1.41a22.324,22.324,0,0,0,2.35-.106A29.458,29.458,0,0,1,105.25,34a2.82,2.82,0,0,1-3.137,1.986l-.987-1.809a8.025,8.025,0,0,0,1.069.118c1.457,0,1.574-.752,1.9-2.89l-.411.282a3.8,3.8,0,0,0-1.339-2l.728-.576a3.654,3.654,0,0,1,1.175,1.022V28.957H100.6v.881H98.975c.094-1.715.094-1.9.094-3.384V22.377c0-1.457,0-1.633-.094-3.219.975.059,1.939.082,2.926.082h2.174a20.728,20.728,0,0,0,2.115-.129v1.516c-.693,0-2.15-.059-2.561-.059v1.386a5.44,5.44,0,0,0,.634,0,10.986,10.986,0,0,0,1.175-.059v1.5a16.45,16.45,0,0,0-1.868-.094v1.422c.752,0,1.175-.059,1.868-.117l-.611-.435a9.4,9.4,0,0,0,3.055-2.432,10.962,10.962,0,0,0,1.833-3.372l2.256.787c.117,0,.27.082.27.211s-.259.294-.364.329a9.059,9.059,0,0,0,4.888,4.007ZM100.75,33.609a8.565,8.565,0,0,0-.811-2.82l.928-.341a6.321,6.321,0,0,1,1.034,2.467Zm1.175-13.019H100.55v1.422H101.9Zm0,2.714H100.55v1.422H101.9Zm0,2.867H100.55v1.422H101.9Zm.517,6.392a5.6,5.6,0,0,0-1.245-2.232l.858-.446a4.7,4.7,0,0,1,1.292,2.08Zm5.757-4.982v2h1.6a18.266,18.266,0,0,0,.2-2Zm2.35-6.8a11.879,11.879,0,0,1-1.88,2.644h4.065a10.951,10.951,0,0,1-2.15-2.644Zm3.043,6.8H111.63a19.221,19.221,0,0,1-.141,2h2.1Z" transform="translate(17.183 0.302)"/>
    <path id="Path_2131" data-name="Path 2131" d="M130.014,27.106c-.188.305-1.668,2.6-2.514,3.7l-1.762-1.057a18.8,18.8,0,0,0,3.1-4.054l-4.864.376-.811.106v2.1c0,.658,0,2.926.094,3.431.176.8.869,1.034,2.926,1.034a18.8,18.8,0,0,0,4.43-.517v1.927c-2.2.2-4.1.27-5.182.27-3.419,0-4.112-.858-4.112-3.255V26.366c-1.5.176-3.114.352-4.488.6l-.341-2.08c1.093,0,1.457,0,4.829-.176a49.488,49.488,0,0,0-.153-5.029l2.432.294c.341,0,.4.153.4.27s-.176.329-.576.611a6.1,6.1,0,0,0-.094.893,27.5,27.5,0,0,1-.176,2.843l3.431-.211c3-.188,3.384-.423,3.866-.7l1.527,1.492a3.619,3.619,0,0,0-1.962,1.939Z" transform="translate(20.383 0.531)"/>
    <path id="Path_2132" data-name="Path 2132" d="M135.753,33.841a1.862,1.862,0,0,1-.176.446.235.235,0,0,1-.212.117c-.129,0-.188-.082-.4-.47l-1.046-2A25.133,25.133,0,0,0,147.479,23.8l.775,1.868C144.471,30.1,138.408,32.713,135.753,33.841Zm2.679-9.929a16.133,16.133,0,0,0-4.195-2.655l1.057-1.727a13.841,13.841,0,0,1,4.23,2.679Z" transform="translate(23.433 0.505)"/>
    <path id="Path_2133" data-name="Path 2133" d="M162.951,23.886a24.086,24.086,0,0,1-1.986,4.864,19.969,19.969,0,0,1,1.715,1.375l-1.3,1.61a12.454,12.454,0,0,0-1.469-1.363,14.1,14.1,0,0,1-7.226,5.076L151.2,33.8a11.033,11.033,0,0,0,5.276-2.491,11.279,11.279,0,0,0,1.962-2,33.393,33.393,0,0,0-3.76-1.962l.964-1.175c1.022.341,3.3,1.4,3.783,1.645a14.828,14.828,0,0,0,1.539-4.112h-5.487a15.509,15.509,0,0,1-3.783,4.23l-1.845-1.116a11.2,11.2,0,0,0,3.889-3.772,15.369,15.369,0,0,0,1.633-3.008,5.337,5.337,0,0,0,.294-1.034l2.1.822a.413.413,0,0,1,.329.352c0,.176-.423.4-.775.446-.153.223-.869,1.492-.928,1.6h2.35a17.625,17.625,0,0,0,2.35-.211,4.7,4.7,0,0,0,1.281-.435L163.8,22.97a4.7,4.7,0,0,0-.846.916Z" transform="translate(26.221 0.414)"/>
    <path id="Path_2134" data-name="Path 2134" d="M175.762,26.9h-4.418c-.247,0-3.137,0-5.064.223V25a37.069,37.069,0,0,0,5.064.223h4.418A40.478,40.478,0,0,0,180.826,25v2.091a45.53,45.53,0,0,0-5.064-.188Z" transform="translate(29.096 1.462)"/>
  </g>
</svg>
