<svg id="rogo" xmlns="http://www.w3.org/2000/svg" width="188" height="45.536" viewBox="0 0 188 45.536">
  <g id="Group_1" data-name="Group 1">
    <path id="Path_1" data-name="Path 1" d="M10.9,25.382a14.971,14.971,0,0,0,9.933,14.079V37.636a13.2,13.2,0,0,1,.975-24.777V39.521h1.873V12.4c.321-.055.646-.1.975-.129v-1.8A14.992,14.992,0,0,0,10.9,25.382" transform="translate(-4.103 -3.972)" fill="#fff"/>
    <path id="Path_2" data-name="Path 2" d="M37.062,10.475v1.792q.493.05.975.132V39.523h1.873V12.86a13.2,13.2,0,0,1,.973,24.777v1.826a14.952,14.952,0,0,0-3.821-28.988" transform="translate(-13.946 -3.973)" fill="#fff"/>
    <path id="Path_3" data-name="Path 3" d="M27.6,68.786l.719-.348h.072v2.482a1.254,1.254,0,0,0,.021.308.155.155,0,0,0,.085.094.774.774,0,0,0,.267.037v.081H27.65v-.081a.817.817,0,0,0,.271-.036.175.175,0,0,0,.085-.084,1.158,1.158,0,0,0,.024-.318V69.332a2.459,2.459,0,0,0-.021-.412.176.176,0,0,0-.056-.1.147.147,0,0,0-.1-.033.588.588,0,0,0-.224.067Z" transform="translate(-10.385 -25.956)" fill="#fff"/>
    <path id="Path_4" data-name="Path 4" d="M31.852,69.956a2.1,2.1,0,0,1-.451-.461.686.686,0,0,1-.1-.359.653.653,0,0,1,.221-.494.826.826,0,0,1,.59-.206.836.836,0,0,1,.576.193.577.577,0,0,1,.216.441.59.59,0,0,1-.117.335,1.7,1.7,0,0,1-.491.4,2.78,2.78,0,0,1,.508.462.771.771,0,0,1,.166.467.689.689,0,0,1-.237.528.883.883,0,0,1-.623.22.84.84,0,0,1-.655-.26.647.647,0,0,1-.057-.847,1.915,1.915,0,0,1,.455-.424m.1.082a1.026,1.026,0,0,0-.268.33.875.875,0,0,0-.088.387.627.627,0,0,0,.154.447.5.5,0,0,0,.39.169.526.526,0,0,0,.377-.132.421.421,0,0,0,.143-.321.5.5,0,0,0-.084-.28,3.164,3.164,0,0,0-.625-.6m.239-.314a1.592,1.592,0,0,0,.332-.368.674.674,0,0,0,.069-.309.479.479,0,0,0-.127-.355.47.47,0,0,0-.35-.129.509.509,0,0,0-.363.128.391.391,0,0,0-.139.3.493.493,0,0,0,.058.226.724.724,0,0,0,.164.214Z" transform="translate(-11.765 -25.956)" fill="#fff"/>
    <path id="Path_5" data-name="Path 5" d="M35.3,69.056a1.154,1.154,0,0,1,.318-.458.72.72,0,0,1,.48-.161.663.663,0,0,1,.545.23.557.557,0,0,1,.143.364.93.93,0,0,1-.4.665.88.88,0,0,1,.411.3.785.785,0,0,1,.139.463.965.965,0,0,1-.244.661,1.151,1.151,0,0,1-.92.366.779.779,0,0,1-.406-.074.2.2,0,0,1-.109-.158.143.143,0,0,1,.05-.11.172.172,0,0,1,.123-.049.408.408,0,0,1,.111.017,1.3,1.3,0,0,1,.168.079,1.1,1.1,0,0,0,.18.082.611.611,0,0,0,.172.024.521.521,0,0,0,.387-.172.569.569,0,0,0,.163-.405.79.79,0,0,0-.076-.334.613.613,0,0,0-.123-.183.88.88,0,0,0-.259-.157.825.825,0,0,0-.333-.071h-.07v-.066a.89.89,0,0,0,.346-.123.614.614,0,0,0,.33-.56.486.486,0,0,0-.142-.362.476.476,0,0,0-.347-.137.663.663,0,0,0-.566.359Z" transform="translate(-13.266 -25.956)" fill="#fff"/>
    <path id="Path_6" data-name="Path 6" d="M40.057,69.956A2.077,2.077,0,0,1,39.6,69.5a.711.711,0,0,1-.1-.359.653.653,0,0,1,.221-.494.952.952,0,0,1,1.166-.013.574.574,0,0,1,.218.441.59.59,0,0,1-.117.335,1.74,1.74,0,0,1-.491.4,2.715,2.715,0,0,1,.507.462.763.763,0,0,1,.166.467.692.692,0,0,1-.236.528.883.883,0,0,1-.623.22.845.845,0,0,1-.657-.26.688.688,0,0,1-.187-.461.68.68,0,0,1,.133-.387,1.853,1.853,0,0,1,.454-.424m.1.082a1.021,1.021,0,0,0-.267.33.876.876,0,0,0-.089.387.633.633,0,0,0,.154.447.5.5,0,0,0,.391.169.528.528,0,0,0,.377-.132.42.42,0,0,0,.142-.321.5.5,0,0,0-.082-.28,3.142,3.142,0,0,0-.626-.6m.24-.314a1.561,1.561,0,0,0,.332-.368.691.691,0,0,0,.069-.309.475.475,0,0,0-.129-.355.468.468,0,0,0-.35-.129.5.5,0,0,0-.361.128.386.386,0,0,0-.139.3.506.506,0,0,0,.056.226.752.752,0,0,0,.166.214Z" transform="translate(-14.853 -25.956)" fill="#fff"/>
    <path id="Path_7" data-name="Path 7" d="M24.974,60.292l-.232.663-.078-.032a.852.852,0,0,0,.038-.269.445.445,0,0,0-.1-.243.637.637,0,0,0-.256-.168l-.393-.157L23.1,62.2a.612.612,0,0,0-.074.342.326.326,0,0,0,.207.181l.1.04-.031.077-1.182-.474.032-.074.1.037a.3.3,0,0,0,.293-.005.666.666,0,0,0,.166-.281l.857-2.117-.336-.135a.978.978,0,0,0-.289-.083.417.417,0,0,0-.243.077.651.651,0,0,0-.211.263l-.078-.032.3-.636Z" transform="translate(-8.322 -22.522)" fill="#fff"/>
    <path id="Path_8" data-name="Path 8" d="M28.55,61.355a1.361,1.361,0,0,1,.912.623,1.523,1.523,0,0,1,.214,1.164,1.579,1.579,0,0,1-.638,1.031,1.449,1.449,0,0,1-2.052-.379,1.568,1.568,0,0,1-.2-1.195,1.519,1.519,0,0,1,.7-1.051,1.45,1.45,0,0,1,1.068-.194m-.072.15a.793.793,0,0,0-.691.172,1.682,1.682,0,0,0-.5,1.008,1.77,1.77,0,0,0,.1,1.166.777.777,0,0,0,.57.413.873.873,0,0,0,.748-.193,1.59,1.59,0,0,0,.467-.966,1.807,1.807,0,0,0-.084-1.18.816.816,0,0,0-.6-.42" transform="translate(-10.064 -23.259)" fill="#fff"/>
    <path id="Path_9" data-name="Path 9" d="M33.8,63.316l1.1,1.107a2.07,2.07,0,0,0,.462.374.99.99,0,0,0,.385.115v.082L34.31,64.98V64.9a.325.325,0,0,0,.186-.041.122.122,0,0,0,.057-.1.223.223,0,0,0-.02-.1,1.053,1.053,0,0,0-.137-.158l-1.027-1.03-.011.964a.989.989,0,0,0,.027.3.2.2,0,0,0,.092.1.392.392,0,0,0,.2.054h.1v.083l-1.28-.013v-.082h.107a.318.318,0,0,0,.271-.107.66.66,0,0,0,.057-.338l.02-1.93a1.019,1.019,0,0,0-.025-.3.2.2,0,0,0-.09-.094.434.434,0,0,0-.2-.055h-.106V61.97l1.28.015v.082h-.1a.441.441,0,0,0-.2.049.194.194,0,0,0-.1.106.977.977,0,0,0-.029.29l-.009.915c.029-.028.131-.12.305-.277a6.547,6.547,0,0,0,.8-.792.3.3,0,0,0,.062-.153.116.116,0,0,0-.046-.09.239.239,0,0,0-.157-.041h-.069V61.99l1.1.012v.081a.621.621,0,0,0-.178.025.98.98,0,0,0-.2.091,1.969,1.969,0,0,0-.285.222q-.05.044-.455.447Z" transform="translate(-12.23 -23.504)" fill="#fff"/>
    <path id="Path_10" data-name="Path 10" d="M40.076,61.293l1.032-.182.015.082-.057.011a.446.446,0,0,0-.157.077.643.643,0,0,0-.174.18,1.938,1.938,0,0,0-.167.343l-.516,1.241.131.741a.587.587,0,0,0,.121.327.343.343,0,0,0,.279.045l.1-.017.015.081-1.257.22-.013-.082.1-.017a.3.3,0,0,0,.247-.158.673.673,0,0,0-.008-.327l-.123-.7-1.029-1.089a2.778,2.778,0,0,0-.243-.239.783.783,0,0,0-.236-.092.254.254,0,0,0-.13,0l-.015-.082,1.265-.222.015.082-.066.012a.385.385,0,0,0-.18.079.157.157,0,0,0-.06.158.667.667,0,0,0,.182.26l.785.839.42-1.008a.667.667,0,0,0,.077-.326.185.185,0,0,0-.05-.1.194.194,0,0,0-.1-.059.426.426,0,0,0-.182,0Z" transform="translate(-14.295 -23.178)" fill="#fff"/>
    <path id="Path_11" data-name="Path 11" d="M45.155,59.893a1.376,1.376,0,0,1,1.106.029,1.53,1.53,0,0,1,.814.861,1.565,1.565,0,0,1,.029,1.209,1.448,1.448,0,0,1-1.93.795,1.583,1.583,0,0,1-.821-.892,1.5,1.5,0,0,1,.012-1.258,1.431,1.431,0,0,1,.789-.743m.023.165a.788.788,0,0,0-.487.52,1.67,1.67,0,0,0,.13,1.117,1.779,1.779,0,0,0,.718.925.787.787,0,0,0,.7.04.875.875,0,0,0,.524-.568,1.6,1.6,0,0,0-.138-1.064,1.8,1.8,0,0,0-.715-.944.813.813,0,0,0-.736-.026" transform="translate(-16.641 -22.677)" fill="#fff"/>
    <path id="Path_12" data-name="Path 12" d="M13.392,59.866l-.081.1L11.683,58.7l.081-.1.138.106a.513.513,0,0,0,.446.128,1.1,1.1,0,0,0,.4-.378L14.2,56.607a2.657,2.657,0,0,1,.637-.616,1.374,1.374,0,0,1,.686-.211,1.049,1.049,0,0,1,.71.236.774.774,0,0,1,.312.453.482.482,0,0,1-.081.413.358.358,0,0,1-.232.153.4.4,0,0,1-.284-.082.314.314,0,0,1-.115-.185,1.2,1.2,0,0,1,.065-.453c.036-.133.02-.226-.048-.279a.223.223,0,0,0-.214-.017.745.745,0,0,0-.322.275l-2.028,2.581a1.55,1.55,0,0,0-.261.408.321.321,0,0,0,.024.211.658.658,0,0,0,.2.265Z" transform="translate(-4.396 -21.155)" fill="#fff"/>
    <path id="Path_13" data-name="Path 13" d="M5.544,52.055l-.106.079L4.423,50.768l.1-.078.109.145a.49.49,0,0,0,.451.209,1.065,1.065,0,0,0,.456-.244l1.572-1.158a3.489,3.489,0,0,1,.989-.552,1.422,1.422,0,0,1,.889.046,2.014,2.014,0,0,1,.912.748A2.128,2.128,0,0,1,10.4,51a1.463,1.463,0,0,1-.247.9,3.974,3.974,0,0,1-.886.795L7.751,53.815c-.237.176-.37.323-.4.444a.5.5,0,0,0,.125.4l.107.144-.106.079L6.243,53.214l.1-.078.11.149a.485.485,0,0,0,.406.228,1.06,1.06,0,0,0,.481-.246l1.688-1.243A4.593,4.593,0,0,0,9.52,51.6a1.371,1.371,0,0,0,.344-.483,1.013,1.013,0,0,0,.036-.509,1.335,1.335,0,0,0-.265-.577,1.723,1.723,0,0,0-.668-.556,1.109,1.109,0,0,0-.728-.094,3.041,3.041,0,0,0-.958.535L5.711,51.073c-.241.18-.373.317-.4.414a.525.525,0,0,0,.121.424Z" transform="translate(-1.665 -18.6)" fill="#fff"/>
    <path id="Path_14" data-name="Path 14" d="M1.919,45.285,1.536,44.04l2.6-3.858-2.658.809a.963.963,0,0,0-.5.255.52.52,0,0,0-.021.44L1,41.847l-.126.038-.491-1.6.125-.038.05.162a.487.487,0,0,0,.3.359,1.094,1.094,0,0,0,.52-.077L5.267,39.51l.038.123L2.523,43.787l2.838-.863a.988.988,0,0,0,.5-.253.531.531,0,0,0,.021-.44l-.05-.164.126-.038.491,1.6-.126.038-.049-.158a.494.494,0,0,0-.3-.362,1.075,1.075,0,0,0-.52.077L2.247,44.2a2.121,2.121,0,0,0-.216.4,1.15,1.15,0,0,0-.046.343,1.123,1.123,0,0,0,.061.309Z" transform="translate(-0.144 -14.985)" fill="#fff"/>
    <path id="Path_15" data-name="Path 15" d="M.078,30.578l1.131-.029,0,.133a1.336,1.336,0,0,0-.428.1.709.709,0,0,0-.31.285,1.015,1.015,0,0,0-.107.478l-.013.676,3.683.073a1,1,0,0,0,.556-.084.523.523,0,0,0,.157-.411l.005-.166.131,0-.041,2.034-.131,0,0-.17a.488.488,0,0,0-.176-.436,1.086,1.086,0,0,0-.517-.086L.334,32.9l-.013.577a1.63,1.63,0,0,0,.042.479.644.644,0,0,0,.253.319,1.053,1.053,0,0,0,.516.166l0,.135L0,34.494Z" transform="translate(0 -11.586)" fill="#fff"/>
    <path id="Path_16" data-name="Path 16" d="M1.4,23.535l1.812.587.329-1a.855.855,0,0,0,.052-.56.806.806,0,0,0-.484-.374l.041-.123,1.6.516-.041.124a1.92,1.92,0,0,0-.459-.045.459.459,0,0,0-.252.139,1.071,1.071,0,0,0-.206.4l-.329,1,1.512.488a1.381,1.381,0,0,0,.378.092.21.21,0,0,0,.137-.059.618.618,0,0,0,.122-.242l.253-.775a2.21,2.21,0,0,0,.13-.579.875.875,0,0,0-.1-.405,2.7,2.7,0,0,0-.492-.634l.044-.133,1.021.767L5.309,26.241,5.184,26.2l.053-.162a.682.682,0,0,0,.023-.331.3.3,0,0,0-.115-.2,1.606,1.606,0,0,0-.43-.182l-2.979-.966a1.047,1.047,0,0,0-.565-.086.551.551,0,0,0-.268.359l-.053.161-.125-.04,1.151-3.515,1.02.275-.042.131a1.675,1.675,0,0,0-.549-.005.582.582,0,0,0-.289.187,1.661,1.661,0,0,0-.206.459Z" transform="translate(-0.273 -8.055)" fill="#fff"/>
    <path id="Path_17" data-name="Path 17" d="M4.173,14.941l.773-1.051,4.659-.236L7.363,12.016a.948.948,0,0,0-.507-.246.534.534,0,0,0-.366.246l-.1.135-.106-.078.992-1.346.106.077-.1.137a.485.485,0,0,0-.107.457,1.065,1.065,0,0,0,.371.368l3.279,2.392-.076.1-5.011.267,2.394,1.746a.992.992,0,0,0,.5.249A.535.535,0,0,0,9,16.276l.1-.136.106.077-.992,1.348-.106-.078.1-.133a.492.492,0,0,0,.11-.461,1.1,1.1,0,0,0-.373-.368l-2.7-1.972a2.178,2.178,0,0,0-.45.065,1.187,1.187,0,0,0-.305.17,1.1,1.1,0,0,0-.211.232Z" transform="translate(-1.57 -4.068)" fill="#fff"/>
    <path id="Path_18" data-name="Path 18" d="M14.581,10.931l-.074-.108.15-.1a.48.48,0,0,0,.247-.405,1.108,1.108,0,0,0-.233-.475L12.906,7.286c-.17-.248-.3-.383-.4-.409a.531.531,0,0,0-.428.1l-.149.1-.076-.107,1.618-1.106a4.247,4.247,0,0,1,1.495-.725,1.937,1.937,0,0,1,1.21.16,2.507,2.507,0,0,1,1.032.891,2.4,2.4,0,0,1,.448,1.724,2.682,2.682,0,0,1-1.3,1.8Zm.938-1.061a3.565,3.565,0,0,0,.68-.346A1.786,1.786,0,0,0,17,8.278a2.18,2.18,0,0,0-.442-1.6,2.2,2.2,0,0,0-1.34-.985,1.84,1.84,0,0,0-1.477.314,2.991,2.991,0,0,0-.542.495Z" transform="translate(-4.46 -1.939)" fill="#fff"/>
    <path id="Path_19" data-name="Path 19" d="M24.738.692a2.194,2.194,0,0,1,1.756.264,2.449,2.449,0,0,1,1.127,1.531,2.513,2.513,0,0,1-.194,1.932,2.326,2.326,0,0,1-3.231.886,2.523,2.523,0,0,1-1.131-1.584,2.418,2.418,0,0,1,.268-2,2.312,2.312,0,0,1,1.4-1.026m0,.267a1.276,1.276,0,0,0-.878.73A2.689,2.689,0,0,0,23.848,3.5a2.864,2.864,0,0,0,.96,1.617,1.259,1.259,0,0,0,1.115.2,1.4,1.4,0,0,0,.944-.8,2.545,2.545,0,0,0-.008-1.719,2.889,2.889,0,0,0-.95-1.647A1.319,1.319,0,0,0,24.74.959" transform="translate(-8.639 -0.233)" fill="#fff"/>
    <path id="Path_20" data-name="Path 20" d="M44.281,1.107l.037-.127,1.635.488-.038.127-.174-.053a.493.493,0,0,0-.487.1,1.074,1.074,0,0,0-.219.467l-.561,1.864a3.47,3.47,0,0,1-.462,1.032,1.412,1.412,0,0,1-.739.492,2.031,2.031,0,0,1-1.18-.055,2.158,2.158,0,0,1-1.069-.6,1.463,1.463,0,0,1-.344-.867,4.035,4.035,0,0,1,.232-1.164l.541-1.8a.94.94,0,0,0,.05-.591.51.51,0,0,0-.34-.245L40.992.125,41.029,0l2,.594-.038.127L42.811.668a.481.481,0,0,0-.463.058,1.059,1.059,0,0,0-.239.482l-.6,2a4.417,4.417,0,0,0-.135.627,1.352,1.352,0,0,0,.016.594,1.011,1.011,0,0,0,.277.429,1.339,1.339,0,0,0,.56.3,1.723,1.723,0,0,0,.87.045,1.087,1.087,0,0,0,.639-.356,3,3,0,0,0,.444-1l.561-1.861a1,1,0,0,0,.068-.568.524.524,0,0,0-.35-.267Z" transform="translate(-15.309)" fill="#fff"/>
    <path id="Path_21" data-name="Path 21" d="M49.3,3.09l1.092.718.464,4.62L52.39,6.121a.958.958,0,0,0,.223-.516.527.527,0,0,0-.264-.351l-.141-.092.073-.11,1.4.923-.072.108-.143-.094A.489.489,0,0,0,53,5.9a1.059,1.059,0,0,0-.351.389L50.409,9.665,50.3,9.6l-.509-4.97L48.155,7.091a.987.987,0,0,0-.225.513.54.54,0,0,0,.264.354l.143.092-.073.11-1.4-.92.072-.111.139.092a.5.5,0,0,0,.467.086A1.074,1.074,0,0,0,47.9,6.92l1.849-2.782a2.09,2.09,0,0,0-.088-.444,1.182,1.182,0,0,0-.184-.3,1.2,1.2,0,0,0-.244-.2Z" transform="translate(-17.635 -1.172)" fill="#fff"/>
    <path id="Path_22" data-name="Path 22" d="M55,13.791l-.094.091-1.443-1.47.094-.091.119.123a.521.521,0,0,0,.427.186,1.08,1.08,0,0,0,.452-.319l2.228-2.166a1.57,1.57,0,0,0,.314-.368.323.323,0,0,0,.007-.211.67.67,0,0,0-.167-.292l-.119-.121.094-.091,1.443,1.47-.094.092-.122-.125a.512.512,0,0,0-.424-.185,1.041,1.041,0,0,0-.454.318L55.034,12.8a1.617,1.617,0,0,0-.313.368.317.317,0,0,0-.005.215.653.653,0,0,0,.164.288Z" transform="translate(-20.119 -3.436)" fill="#fff"/>
    <path id="Path_23" data-name="Path 23" d="M63.588,16.926l-.111.07a.788.788,0,0,0-.345-.242,1.468,1.468,0,0,0-.629,0l-4.37.747-.07-.111,2.565-3.72a2.163,2.163,0,0,0,.228-.37.627.627,0,0,0,.031-.276,1.025,1.025,0,0,0-.118-.337l.111-.071,1.045,1.663-.111.069a.908.908,0,0,0-.328-.306.265.265,0,0,0-.231.028,1.588,1.588,0,0,0-.383.43l-1.744,2.528,2.968-.513a1.946,1.946,0,0,0,.574-.162.269.269,0,0,0,.113-.19.664.664,0,0,0-.072-.364c0-.012-.012-.03-.024-.057l.113-.07Z" transform="translate(-21.849 -4.785)" fill="#fff"/>
    <path id="Path_24" data-name="Path 24" d="M65.022,22.859l-1.828.536.3,1.014a.868.868,0,0,0,.275.49.808.808,0,0,0,.611.034l.037.125-1.61.473-.037-.124a1.913,1.913,0,0,0,.406-.222.445.445,0,0,0,.127-.257,1.051,1.051,0,0,0-.058-.447l-.3-1.011-1.524.449a1.619,1.619,0,0,0-.366.135.236.236,0,0,0-.077.127.6.6,0,0,0,.037.269l.231.78a2.145,2.145,0,0,0,.223.552.892.892,0,0,0,.316.276,2.7,2.7,0,0,0,.765.244l.04.136-1.277-.057-1.05-3.547.126-.037.049.162a.682.682,0,0,0,.17.286.3.3,0,0,0,.207.1,1.615,1.615,0,0,0,.459-.092l3-.882a1.044,1.044,0,0,0,.516-.247.548.548,0,0,0,.016-.446l-.049-.164.127-.038,1.05,3.548-1,.347-.04-.131a1.664,1.664,0,0,0,.455-.306.555.555,0,0,0,.131-.318,1.568,1.568,0,0,0-.09-.492Z" transform="translate(-22.677 -8.145)" fill="#fff"/>
    <path id="Path_25" data-name="Path 25" d="M62.32,34.772l-.033-1.28L64.5,31.81c-.008-.12-.013-.218-.016-.294v-.1c0-.034,0-.071,0-.11l-1.4.037a.981.981,0,0,0-.562.114.5.5,0,0,0-.146.407l.005.187-.133,0L62.195,30l.131,0,.005.178a.479.479,0,0,0,.21.432,1.14,1.14,0,0,0,.525.061l3.113-.081a.993.993,0,0,0,.562-.114.517.517,0,0,0,.146-.414l-.005-.181.133,0,.045,1.748a4.175,4.175,0,0,1-.082,1.13,1.289,1.289,0,0,1-.4.626,1.072,1.072,0,0,1-.71.272,1.129,1.129,0,0,1-.779-.268,1.633,1.633,0,0,1-.485-.882l-1.357,1.027a2.443,2.443,0,0,0-.617.6,1.457,1.457,0,0,0-.183.643Zm2.389-3.47c0,.045,0,.082,0,.116s0,.061,0,.082a1.557,1.557,0,0,0,.325,1.027.959.959,0,0,0,.771.329.97.97,0,0,0,.989-1.052,3.222,3.222,0,0,0-.082-.554Z" transform="translate(-23.404 -11.331)" fill="#fff"/>
    <path id="Path_26" data-name="Path 26" d="M66.046,41.884l-1.626-.366.029-.128a2.068,2.068,0,0,0,.8-.055,1.2,1.2,0,0,0,.544-.356,1.3,1.3,0,0,0,.3-.579.852.852,0,0,0-.085-.643.69.69,0,0,0-.448-.347.614.614,0,0,0-.426.061,3.915,3.915,0,0,0-.924.862,7.386,7.386,0,0,1-.745.774,1.394,1.394,0,0,1-.531.269,1.209,1.209,0,0,1-.566.008,1.25,1.25,0,0,1-.828-.619,1.522,1.522,0,0,1-.145-1.148,2.16,2.16,0,0,1,.118-.376,4.131,4.131,0,0,1,.227-.416,2.022,2.022,0,0,0,.206-.4.185.185,0,0,0-.02-.148.439.439,0,0,0-.2-.123l.029-.128,1.613.363-.029.128a2.361,2.361,0,0,0-.813.071,1.192,1.192,0,0,0-.523.37,1.459,1.459,0,0,0-.322.649.988.988,0,0,0,.074.731.717.717,0,0,0,.484.372.747.747,0,0,0,.371-.016,1.065,1.065,0,0,0,.4-.222,8.318,8.318,0,0,0,.609-.635,7.339,7.339,0,0,1,.733-.733,1.467,1.467,0,0,1,.532-.285,1.115,1.115,0,0,1,.564-.011,1.184,1.184,0,0,1,.784.582,1.4,1.4,0,0,1,.143,1.065,2.025,2.025,0,0,1-.363.75.825.825,0,0,0-.149.253.208.208,0,0,0,.02.158.444.444,0,0,0,.2.14Z" transform="translate(-23.082 -14.421)" fill="#fff"/>
    <path id="Path_27" data-name="Path 27" d="M59.593,45.522l-.121-.051.814-1.889.121.051-.066.157a.511.511,0,0,0-.012.463,1.09,1.09,0,0,0,.47.293l2.862,1.225a1.669,1.669,0,0,0,.463.146.324.324,0,0,0,.2-.074.663.663,0,0,0,.208-.265l.066-.156.121.051-.814,1.89-.121-.053.069-.16a.511.511,0,0,0,.009-.462,1.058,1.058,0,0,0-.468-.3l-2.863-1.224a1.6,1.6,0,0,0-.46-.146.312.312,0,0,0-.2.077.638.638,0,0,0-.206.261Z" transform="translate(-22.379 -16.53)" fill="#fff"/>
    <path id="Path_28" data-name="Path 28" d="M60.136,53.485l-.964-.59.077-.111a1.431,1.431,0,0,0,.412.15.719.719,0,0,0,.416-.071,1.011,1.011,0,0,0,.351-.341l.383-.557L57.769,49.9a1.011,1.011,0,0,0-.513-.232.529.529,0,0,0-.357.26l-.094.136-.109-.073,1.151-1.682.109.075-.1.139a.485.485,0,0,0-.092.462,1.078,1.078,0,0,0,.385.354L61.2,51.4l.326-.478a1.587,1.587,0,0,0,.229-.422.655.655,0,0,0-.036-.4,1.054,1.054,0,0,0-.341-.421l.076-.111.9.682Z" transform="translate(-21.335 -18.321)" fill="#fff"/>
    <path id="Path_29" data-name="Path 29" d="M54.748,58.873l-1.283,1.08-.086-.1.072-.059a.739.739,0,0,0,.153-.236,1.032,1.032,0,0,0,.1-.388,3.214,3.214,0,0,0-.048-.607l-.3-2.14-.783-.916c-.191-.226-.336-.346-.434-.358a.548.548,0,0,0-.422.161l-.119.1-.085-.1L53.076,54l.085.1-.13.11a.486.486,0,0,0-.212.42,1.074,1.074,0,0,0,.276.445l.737.866,2.314.684a4.56,4.56,0,0,0,.531.132,1.274,1.274,0,0,0,.4-.061.472.472,0,0,0,.18-.106l.086.1-1.574,1.327-.085-.1.081-.067a.6.6,0,0,0,.184-.259.249.249,0,0,0-.044-.267,1.111,1.111,0,0,0-.464-.211l-1.772-.533.239,1.737a1.068,1.068,0,0,0,.159.515.322.322,0,0,0,.154.1.341.341,0,0,0,.192,0,.752.752,0,0,0,.248-.152Z" transform="translate(-19.385 -20.479)" fill="#fff"/>
  </g>
  <g id="レイヤー_2" data-name="レイヤー 2" transform="translate(56.14 10.537)">
    <path id="Path_2109" data-name="Path 2109" d="M1.231.674V3.606a7.785,7.785,0,0,1-.52,3.665L0,6.978c.476-.733.608-1.466.608-3.357V1.906C.608,1.4.586.7.557.22l.733.1c.176.029.176.051.176.132S1.4.6,1.231.674Zm1.026.513V4.368a14.929,14.929,0,0,0,.066,1.788H1.5c.073-.792.081-1.7.081-1.913V2.573A16.659,16.659,0,0,0,1.539.792l.733.066c.176,0,.249.037.249.147S2.367,1.136,2.257,1.187Zm1.011-.5V4.918a18.911,18.911,0,0,0,.081,2.551H2.5a16.359,16.359,0,0,0,.1-2.536V2.851C2.6,2.8,2.6.8,2.558.227l.733.132c.176,0,.22.044.22.11S3.474.586,3.269.689ZM4.925,6.552a3.665,3.665,0,0,1-1.026.96l-.594-.528A3.415,3.415,0,0,0,4.551,5.849l.579.388a.227.227,0,0,1,.132.191c-.007.132-.132.117-.337.1ZM6.706.909h-.77l-.249.733H7.249V4.185a15.916,15.916,0,0,0,.059,1.671H3.687c.044-.352.066-1.114.066-1.466V1.569c.476.044,1.011.044,1.114.044H5A6.6,6.6,0,0,0,5.218.88H4.874q-.682,0-1.341.044V.308c.5.051,1.239.051,1.341.051h.938A15.056,15.056,0,0,0,7.534.3V.938ZM6.552,2.258H4.4v.63H6.552Zm0,1.2H4.4v.6H6.552Zm0,1.187H4.4v.616H6.552Zm.476,2.836a3.665,3.665,0,0,1-1.1-1.136l.564-.454A2.976,2.976,0,0,0,7.571,6.97Z" transform="translate(0 -0.059)" fill="#fff"/>
    <path id="Path_2110" data-name="Path 2110" d="M19.215,7.449a4.962,4.962,0,0,1-2.331-1.671,4.507,4.507,0,0,1-.806-1.422A4.771,4.771,0,0,1,12.956,7.42l-.616-.8a3.665,3.665,0,0,0,2.074-1,3.474,3.474,0,0,0,1.129-2.2h-.52a19.9,19.9,0,0,0-2.1.073V2.685c.733.059,1.781.073,2.1.073h.6V1.168h-.733c-.8,0-1.6,0-2.4.073V.45c.821.059,2.023.073,2.4.073h2.331c.806,0,1.612,0,2.419-.073v.8c-.887-.059-2.089-.073-2.419-.073H16.4V2.759h.733a20.315,20.315,0,0,0,2.125-.073v.8c-.777-.059-1.832-.073-2.125-.073h-.55a4.339,4.339,0,0,0,3.2,3.218Z" transform="translate(-3.296 -0.12)" fill="#fff"/>
    <path id="Path_2111" data-name="Path 2111" d="M29.629,7.191H27.019c-.674,0-1.752,0-2.389.066V6.466c.55.051,1.73.051,2.323.051h.88V5.879H25.575V5.146h2.257V4.633H26.118V3.409a4.529,4.529,0,0,0-.044-.733h4.163V4a3.9,3.9,0,0,0,.044.733c-.279,0-1.026-.044-1.327-.044h-.388V5.2H29.4c.139,0,1.019,0,1.466-.051v.777c-.271,0-1.165-.037-1.466-.037h-.836v.63h1.07c.073,0,1.737,0,2.2-.073v.784C31.5,7.191,30.032,7.191,29.629,7.191Zm1.2-3.665V2.244H25.553c0,.242,0,1.033.037,1.283h-.821c0-.242.051-.6.051-1.048a5.616,5.616,0,0,0-.037-.894H26.66a2.653,2.653,0,0,0-.931-1.07L26.367.06a4.17,4.17,0,0,1,.938,1.063l-.608.469h1.136A14.7,14.7,0,0,0,27.782.06l.843.051c.125,0,.183,0,.183.1s-.081.169-.22.22V1.592h.923c.528,0,1.612,0,2.118-.066a1.928,1.928,0,0,0,0,.352c0,.169,0,.931.059,1.62Zm-1.3-.213H26.887v.733h2.646ZM30.376.749a5.006,5.006,0,0,1-.564.814l-.66-.359a2.763,2.763,0,0,0,.66-1.092l.77.322c.081.037.1.081.1.125C30.677.749,30.493.749,30.376.749Z" transform="translate(-6.578 -0.016)" fill="#fff"/>
    <path id="Path_2112" data-name="Path 2112" d="M43.321,7.358A6.714,6.714,0,0,1,41.459,6.1a5.292,5.292,0,0,1-1.187-1.8,5.13,5.13,0,0,1-1.209,1.957,4.727,4.727,0,0,1-1.8,1.158l-.557-.7a4.024,4.024,0,0,0,2.257-1.568,4.61,4.61,0,0,0,.843-2.2h-.689c-.733,0-1.517,0-2.279.066V2.206c.814.073,1.92.073,2.279.073h.733V.3l.938.1c.088,0,.235,0,.235.147s-.2.176-.308.213V2.279h.733c.733,0,1.524,0,2.287-.066v.8c-.982-.066-2.2-.066-2.287-.066h-.733A4.507,4.507,0,0,0,43.885,6.61Z" transform="translate(-9.804 -0.08)" fill="#fff"/>
    <path id="Path_2113" data-name="Path 2113" d="M53.614,5.409h-.733V6.677a.535.535,0,0,1-.462.616,5.6,5.6,0,0,1-1,.037l-.352-.858c.139,0,.733.117.784.117.242,0,.257-.169.257-.535V5.409h-.982c-.3,0-1.532,0-2.389.066V4.7c.953.066,2.323.066,2.389.066H52.1a3.724,3.724,0,0,0-.088-.85l.528.125a6.823,6.823,0,0,0,.667-.572H50.352V2.734c.139,0,1.283.059,1.51.059h.9a8.676,8.676,0,0,0,1.466-.081l.279.418-.733.733-.337.337-.557.557h.733c.352,0,1.612,0,2.411-.066v.784C55.27,5.424,54.369,5.409,53.614,5.409Zm1.371-2.14V2.2H49.759c0,.073,0,.638.044,1.07h-.872a5.064,5.064,0,0,0,.051-1.07V1.51c.22,0,1.151.044,1.466.051a3.122,3.122,0,0,0-.784-.989l.733-.4a2.653,2.653,0,0,1,.733,1.048l-.594.344h3.54l-.491-.22A3.665,3.665,0,0,0,54.222.147l.733.286c.066,0,.169.073.169.125s-.183.176-.271.191a7.33,7.33,0,0,1-.513.806A12.753,12.753,0,0,0,55.805,1.5c0,.176-.037.425-.037.828a4.47,4.47,0,0,0,.073.945Zm-2.734-1.8a2.778,2.778,0,0,0-.682-1.1L52.207,0a2.155,2.155,0,0,1,.733,1.114Z" transform="translate(-13.017 0)" fill="#fff"/>
    <path id="Path_2114" data-name="Path 2114" d="M65.139,7.04H62.09a1.765,1.765,0,0,0,.051.418h-.9c.044-.594.081-2.25.081-2.441V2.951c0-.894-.066-2.155-.081-2.441a6.53,6.53,0,0,0,1.07.066l1.261.037h2.1c.235,0,1.517,0,2.338-.081v.814c-.6-.051-1.385-.11-2.331-.11H64l.623.344a.118.118,0,0,1,.11.11c0,.044-.139.11-.257.1l-.213.33h1.063c.564,0,1.627-.051,1.928-.081v.733a17.509,17.509,0,0,0-1.832-.081,8.065,8.065,0,0,1-.059.887h.586s.982,0,1.715-.073v.733c-.52-.044-1.18-.044-1.7-.044H65.8a3.328,3.328,0,0,0,1.84,1.422l-.711.586A4.1,4.1,0,0,1,65.1,4.482a3.452,3.452,0,0,1-1.832,1.759l-.572-.652a2.492,2.492,0,0,0,1.708-1.4h-.176c-.55,0-1.195,0-1.7.044V3.5c.682.066,1.634.073,1.7.073h.366a4.824,4.824,0,0,0,.073-.887h-.828a7.232,7.232,0,0,1-.579.586l-.682-.513a3.027,3.027,0,0,0,1.231-1.524H62.054v5.13h3.1a26.277,26.277,0,0,0,3-.073v.821C67.309,7.055,66,7.04,65.139,7.04Z" transform="translate(-16.356 -0.136)" fill="#fff"/>
    <path id="Path_2115" data-name="Path 2115" d="M77.817,5.409h-.733V6.677a.535.535,0,0,1-.432.652,5.6,5.6,0,0,1-1.026,0l-.352-.858c.139,0,.733.117.784.117.242,0,.257-.169.257-.535V5.409h-.975c-.3,0-1.532,0-2.389.066V4.7c.953.066,2.323.066,2.389.066h.967a3.723,3.723,0,0,0-.088-.85l.528.125a6.824,6.824,0,0,0,.638-.572H74.533V2.734c.139,0,1.283.059,1.51.059h.9a8.676,8.676,0,0,0,1.466-.081l.279.418-.733.733-.337.337-.557.557h.733c.352,0,1.612,0,2.411-.066v.784C79.473,5.424,78.572,5.409,77.817,5.409Zm1.371-2.14V2.2H73.961c0,.073,0,.638.044,1.07H73.1a5.065,5.065,0,0,0,.088-1.07c0-.322,0-.506,0-.689.227,0,1.151.044,1.466.051a3.122,3.122,0,0,0-.733-.982l.667-.4a2.653,2.653,0,0,1,.733,1.048l-.594.344h3.54l-.491-.22a3.665,3.665,0,0,0,.652-1.2l.733.286c.066,0,.169.073.169.125s-.183.176-.271.191a7.33,7.33,0,0,1-.513.806A12.753,12.753,0,0,0,80.008,1.5v.828a4.471,4.471,0,0,0,.073.945Zm-2.734-1.8a2.7,2.7,0,0,0-.682-1.1L76.409,0a2.155,2.155,0,0,1,.733,1.114Z" transform="translate(-19.483 0)" fill="#fff"/>
    <path id="Path_2116" data-name="Path 2116" d="M87.825,3.591H86.63c-.249,0-1.334.044-1.59.066V2.924c.5,0,1.092.044,1.209.044a7.425,7.425,0,0,0-.557-1.026l.616-.293a5.533,5.533,0,0,1,.579,1.1l-.535.205h1.634l-.52-.279a5.811,5.811,0,0,0,.52-1.07l.594.235a.147.147,0,0,1,.139.132c0,.037-.161.1-.22.1a5.342,5.342,0,0,1-.425.88,8.559,8.559,0,0,0,1.239-.059v.792Zm0-2.045h-1.29a10.48,10.48,0,0,0-1.29.051V.864c.52.059,1.231.059,1.29.059h.322a7.8,7.8,0,0,0,0-.843l.733.066c.044,0,.242,0,.242.117s-.117.147-.227.213,0,.308,0,.447h.22a12.658,12.658,0,0,0,1.29-.059V1.6a10.788,10.788,0,0,0-1.3-.051Zm.293,5.812a4.015,4.015,0,0,0,.066-.557h-1.95v.557h-.8c0-.1.051-1.077.051-1.187V5.188s-.037-.828-.044-.945c.22,0,1.085.051,1.246.051h2.257V6.449c0,.147.044.784.044.909Zm.066-2.426h-1.95V6.163h1.942Zm3.511,1.532a2.2,2.2,0,0,1-.945.154L90.434,5.7h.652c.359,0,.462-.33.462-.777a1.884,1.884,0,0,0-.491-1.18c-.066-.081-.55-.6-.682-.733L91.306.974H90.266V4.851c0,.183.044,1,.044,1.173a10.91,10.91,0,0,0,.044,1.415h-.9c0-.337.066-1.818.073-2.125V2.638c0-.286,0-1.561-.051-2.316h2.565l.3.366c-.9,1.744-1,1.935-1.121,2.2A2.844,2.844,0,0,1,92.34,5.152a1.334,1.334,0,0,1-.652,1.312Z" transform="translate(-22.712 -0.021)" fill="#fff"/>
    <path id="Path_2117" data-name="Path 2117" d="M99,2.6a3.716,3.716,0,0,1,.777,1.95c0,.447-.147,1.195-1.041,1.195a1.539,1.539,0,0,1-.352-.044l-.22-.586c0,.66,0,1.649.073,2.309h-.85c.051-.733.11-1.913.11-2.631V2.279c0-.484,0-1.268-.044-1.766V.183l.806.044H99l.733-.044.271.4C99.8.9,99.149,2.316,99,2.6Zm-.147,1.063a2.2,2.2,0,0,0-.594-.975L99,.872h-.828V4.9a3.2,3.2,0,0,0,.432.044c.293,0,.4-.183.4-.432a3.254,3.254,0,0,0-.147-.85ZM101.678.733A5.292,5.292,0,0,1,101.1,1.92c.051,0,.1.066.1.132s-.081.147-.161.183V4.346c0,1.033.051,2.067.081,3.086h-.858c0-.542.1-2.551.1-3.1V3.049a2.866,2.866,0,0,1-.366.425L99.3,2.932a7.006,7.006,0,0,0,1.151-1.466A6.522,6.522,0,0,0,101.011,0l.733.344a.145.145,0,0,1,.132.147.205.205,0,0,1-.2.2Zm.454,4.478a4.346,4.346,0,0,0-.872-1.275l.66-.476a3.665,3.665,0,0,1,.894,1.268Zm1.62-2.682v2.2c0,.322.044,1.744.044,2.03,0,.652-.5.733-1.539.733l-.308-.953a4.163,4.163,0,0,0,.8.059c.3,0,.3-.037.3-.374V2.477h-.682a8.4,8.4,0,0,0-1.07.073v-.8a9.99,9.99,0,0,0,1.07.073h.66A14.432,14.432,0,0,0,102.982.1l.733.051c.147,0,.227,0,.227.1a.169.169,0,0,1-.044.1l-.125.161v1.3a6.179,6.179,0,0,0,.77-.066v.8a5.717,5.717,0,0,0-.792-.066Z" transform="translate(-26.01 0)" fill="#fff"/>
    <path id="Path_2118" data-name="Path 2118" d="M116.127,5.676v.916c0,.506,0,.557-.1.674-.169.235-.366.235-1.1.227l-.279-.733h.4c.388,0,.4-.051.4-.484V5.544h-.733a3.328,3.328,0,0,1,.4.894l-.638.264-.081-.344c-.374.066-1.8.264-2.323.344-.044.088-.059.139-.147.139s-.1,0-.117-.139l-.132-.645a6.291,6.291,0,0,0,1.341-.1v-.33H111.4v.66a9.708,9.708,0,0,0,.051,1.121h-.784c.037-.322.073-.623.073-.8V5.778A5.671,5.671,0,0,0,110.689,5a15.625,15.625,0,0,0,1.715.066h.623V4.694h-.366a14.136,14.136,0,0,0-1.466.051,5.3,5.3,0,0,0,.051-.528V3.7a4.076,4.076,0,0,0-.051-.528c.733,0,1.2.044,1.466.044h.366V2.913c-.608.044-.96.051-1.678.044l-.293-.6c.3,0,.4.037.733.037a12.929,12.929,0,0,0,2.976-.286H110.74V2.92a6.838,6.838,0,0,1-1.026,4.016l-.784-.249a4.471,4.471,0,0,0,.931-1.781,6.6,6.6,0,0,0,.191-1.935v-2a4.911,4.911,0,0,0-.073-.63c.674.059,1.341.073,2.016.073h4.126a3.4,3.4,0,0,0-.059.594v.55a3.114,3.114,0,0,0,.059.586h-1.092l.447.388s.073.073.073.125a.125.125,0,0,1-.132.1c-.051,0-.264-.051-.3-.051a.99.99,0,0,0-.257.044l-1.063.139v.366h.381c.315,0,.777,0,1.466-.044a3.094,3.094,0,0,0-.051.528v.513a3.46,3.46,0,0,0,.051.528c-.352,0-1.077-.051-1.466-.051H113.8V5.1h.689c.513,0,1.158-.044,1.678-.1A6.418,6.418,0,0,0,116.127,5.676ZM115.394.97h-4.61v.586h4.61Zm-2.3,2.734h-1.18v.5h1.151Zm1.862,0H113.8v.5h1.151ZM113.8,5.632v.322a1.165,1.165,0,0,0,.491-.059c0-.059-.051-.1-.117-.191l.249-.1Z" transform="translate(-29.092 -0.091)" fill="#fff"/>
    <path id="Path_2119" data-name="Path 2119" d="M122.223.674V3.606a7.785,7.785,0,0,1-.52,3.665l-.733-.249c.476-.733.608-1.466.608-3.357V1.906c0-.506,0-1.209-.051-1.686l.733.1c.154,0,.2.051.2.132S122.392.6,122.223.674Zm1.026.513V4.368a14.931,14.931,0,0,0,.066,1.788h-.8c.073-.792.081-1.7.081-1.913V2.573a16.656,16.656,0,0,0-.066-1.781l.733.066c.176,0,.249.037.249.147S123.359,1.136,123.249,1.187Zm1.011-.5V4.918a18.909,18.909,0,0,0,.081,2.551h-.821a16.36,16.36,0,0,0,.1-2.536V2.851c0-.051,0-2.052-.044-2.624l.733.132c.176,0,.22.044.22.11s-.066.117-.271.22Zm1.656,5.863a3.665,3.665,0,0,1-1.026.96l-.594-.528a3.415,3.415,0,0,0,1.246-1.136l.572.41a.227.227,0,0,1,.132.191c0,.11-.125.1-.33.081ZM127.7.931h-.77l-.249.733h1.561V4.207a15.918,15.918,0,0,0,.059,1.671h-3.591c.044-.352.066-1.114.066-1.466V1.569c.476.044,1.011.044,1.114.044h.132a6.593,6.593,0,0,0,.22-.733h-.315q-.682,0-1.341.044V.308c.5.051,1.239.051,1.341.051h.938A15.056,15.056,0,0,0,128.585.3V.938Zm-.154,1.327H125.39v.63h2.14Zm0,1.2H125.39v.6h2.14Zm0,1.187H125.39v.616h2.14Zm.476,2.836a3.664,3.664,0,0,1-1.1-1.136l.564-.454a2.976,2.976,0,0,0,1.077,1.077Z" transform="translate(-32.308 -0.059)" fill="#fff"/>
    <path id="Path_2120" data-name="Path 2120" d="M140.215,7.449a4.962,4.962,0,0,1-2.331-1.671,4.508,4.508,0,0,1-.806-1.422,4.771,4.771,0,0,1-3.122,3.064l-.616-.8a3.665,3.665,0,0,0,2.074-1,3.474,3.474,0,0,0,1.129-2.2h-.52a19.9,19.9,0,0,0-2.1.073V2.685c.733.059,1.781.073,2.1.073h.6V1.168h-.733c-.8,0-1.6,0-2.4.073V.45c.821.059,2.023.073,2.4.073h2.331c.806,0,1.612,0,2.419-.073v.8c-.887-.059-2.089-.073-2.419-.073h-.828V1.7c0,.044,0,.454-.037,1.063h.733a20.315,20.315,0,0,0,2.125-.073v.8c-.777-.059-1.832-.073-2.125-.073h-.55a4.339,4.339,0,0,0,3.2,3.218Z" transform="translate(-35.612 -0.12)" fill="#fff"/>
    <path id="Path_2121" data-name="Path 2121" d="M150.629,7.191h-2.609c-.674,0-1.752,0-2.389.066V6.466c.55.051,1.73.051,2.323.051h.88V5.879h-2.257V5.146h2.257V4.633h-1.715V3.409a4.529,4.529,0,0,0-.044-.733h4.163V4a3.9,3.9,0,0,0,.044.733c-.279,0-1.026-.044-1.327-.044h-.388V5.2h.836c.139,0,1.019,0,1.466-.051v.777c-.271,0-1.165-.037-1.466-.037h-.836v.63h1.07c.073,0,1.737,0,2.2-.073v.784C152.5,7.191,151.032,7.191,150.629,7.191Zm1.2-3.665V2.244h-5.306c0,.242,0,1.033.037,1.283h-.821c0-.242.051-.6.051-1.048V1.584h1.876a2.653,2.653,0,0,0-.938-1.07l.638-.454a4.17,4.17,0,0,1,.938,1.063l-.608.469h1.136A14.7,14.7,0,0,0,148.774.06l.843.051c.125,0,.183,0,.183.1s-.081.169-.22.22V1.592h.923c.528,0,1.612,0,2.118-.066a1.93,1.93,0,0,0,0,.352c0,.169,0,.931.059,1.62Zm-1.3-.183h-2.646v.733h2.646Zm.843-2.595a5.007,5.007,0,0,1-.564.814l-.66-.359a2.763,2.763,0,0,0,.66-1.063l.77.322c.081.037.1.081.1.125C151.677.749,151.493.749,151.376.749Z" transform="translate(-38.894 -0.016)" fill="#fff"/>
    <path id="Path_2122" data-name="Path 2122" d="M161.928,7.04h-3.049a1.764,1.764,0,0,0,.051.418H158c.044-.594.081-2.25.081-2.441V2.951c0-.894-.066-2.155-.081-2.441a6.53,6.53,0,0,0,1.1.066l1.261.037h2.1c.235,0,1.517,0,2.338-.081v.814c-.6-.051-1.385-.11-2.331-.11h-1.708l.623.344a.118.118,0,0,1,.11.11c0,.044-.139.11-.257.1l-.213.33h1.063c.564,0,1.627-.051,1.928-.081v.733a17.509,17.509,0,0,0-1.832-.081,8.067,8.067,0,0,1-.059.887h.586s.967,0,1.7-.073v.733c-.52-.044-1.18-.044-1.7-.044h-.161a3.328,3.328,0,0,0,1.84,1.422l-.689.594A4.1,4.1,0,0,1,161.87,4.49a3.452,3.452,0,0,1-1.818,1.759l-.586-.66a2.492,2.492,0,0,0,1.708-1.4H161c-.55,0-1.195,0-1.7.044V3.5c.682.066,1.634.073,1.7.073h.366a4.822,4.822,0,0,0,.073-.887h-.828a7.237,7.237,0,0,1-.579.586l-.682-.513a3.027,3.027,0,0,0,1.231-1.532h-1.752v5.13h3.1a26.278,26.278,0,0,0,3-.073v.828C164.1,7.055,162.793,7.04,161.928,7.04Z" transform="translate(-42.198 -0.136)" fill="#fff"/>
    <path id="Path_2123" data-name="Path 2123" d="M176.242,2.829V1.693h-3.313V2.829H172.2c0-.242.044-.608.044-1.129V.968c-.381.9-.432,1.048-.557,1.319a4.072,4.072,0,0,1-.2.4,2.932,2.932,0,0,1,.733,1.832,1.1,1.1,0,0,1-1.136,1.268l-.352-.777h.264c.161,0,.44,0,.44-.586a1.613,1.613,0,0,0-.264-.887,6.05,6.05,0,0,0-.44-.733l.792-1.788h-.836V6c0,.257,0,1.224.037,1.466h-.733c0-.227.051-1.869.051-2.089V.352h2.089l.242.3s-.088.227-.147.337c.257,0,.894.051,1.143.051h.88V.11l.894.073c.088,0,.169,0,.169.132s-.051.125-.235.249v.476h.96s.572,0,1.063-.044V2.829Zm.066,4.471h-.682c-.733,0-.858-.169-.858-.836V4.508h-.594a3.43,3.43,0,0,1-.513,1.942,2.455,2.455,0,0,1-1.81,1.041l-.432-.733c1.737-.1,1.979-1.158,2.045-2.265a8.11,8.11,0,0,0-1.231.059v-.77c.564.044,1.393.059,1.649.059h1.62a15.707,15.707,0,0,0,1.664-.059v.784c-.52-.044-1.151-.059-1.671-.059V6.223c0,.264,0,.352.235.352h.476c.161,0,.235-.088.315-.3a3.116,3.116,0,0,0,.147-.623l.594.586C177.077,6.816,176.879,7.3,176.308,7.3Zm-1.239-4.192h-.931a7.505,7.505,0,0,0-.945.073v-.8a6.552,6.552,0,0,0,.945.073h.931a5.131,5.131,0,0,0,.96-.073v.8A6.281,6.281,0,0,0,175.069,3.108Z" transform="translate(-45.4 -0.029)" fill="#fff"/>
    <path id="Path_2124" data-name="Path 2124" d="M3.724,20.164v1.671h1.2v3.958h-1v-.33h-.2v2.2H4.9V28.7H1.973a5.079,5.079,0,0,0,0,.6H.8c.081-1.026.169-2.045.169-3.078V22.18c0-.975-.037-2.038-.073-3.012.608,0,.836.044,1.524.044H3.959c.322,0,.931,0,1.4-.044V20.2C4.259,20.164,4.062,20.164,3.724,20.164Zm-.982,0h-.77v1.671h.77Zm1.217,2.558H1.973v1.8H3.959ZM2.742,25.441h-.77v2.2h.77ZM8.855,20.48H6.81a5.358,5.358,0,0,1-.484.66c.447,0,1.019.073,1.466.073H9.317a13.4,13.4,0,0,0,1.466-.088,9.968,9.968,0,0,0-.051,1.048v1.173a9.146,9.146,0,0,0,.051,1.048,14.227,14.227,0,0,0-1.466-.081H7.741a13.624,13.624,0,0,0-1.466.081c0-.264.044-.616.044-1.048V22.173a7.407,7.407,0,0,0-.044-1.033,5.262,5.262,0,0,1-.733.733l-1.019-.638A4.6,4.6,0,0,0,6.517,18.42l1.187.3c.059,0,.183.059.183.147s-.073.117-.315.205l-.286.513H8.855c.806,0,1.62,0,2.426-.059v1.011c-.381-.029-1.378-.073-2.426-.073ZM7.008,29.209v-.594H6.077a4.9,4.9,0,0,0,0,.594H5.132V24.965c.388,0,.733.066.953.066H7.03a7.783,7.783,0,0,0,.953-.066v4.244Zm0-3.349H6.077v1.884H7.03ZM9.6,22.048H7.367v1.393h2.25Zm.55,7.139v-.594H9.3v.594H8.327V24.943A8.846,8.846,0,0,0,9.28,25h.945a8.794,8.794,0,0,0,.953-.059c-.037.564-.037,1.283-.037,1.356v1.385c0,.528,0,1.136.037,1.5Zm.037-3.327H9.287v1.884H10.2Z" transform="translate(-0.214 -4.92)" fill="#fff"/>
    <path id="Path_2125" data-name="Path 2125" d="M28.232,28.317a8,8,0,0,1-3.269-2.844v1.752c0,.227.081,1.95.117,2.162H23.739c0-.337.066-1.774.066-2.074V25.166a8.583,8.583,0,0,1-3.056,3.086l-1.07-.733a9.726,9.726,0,0,1-.652,1.583l-1.136-.425c.923-1.415,1.151-2.866,1.151-5.35a31.687,31.687,0,0,0-.059-3.621c.623.037,2.074.073,2.763.073H23.1V18.54l1.283.088c.059,0,.257,0,.257.176s-.242.264-.374.3v.674H25.93c.454,0,2.624-.059,3.144-.1v1.151l-3.042-.073H20.111v1.92a16.029,16.029,0,0,1-.425,4.771,7.505,7.505,0,0,0,3.525-3.489,21.538,21.538,0,0,0-2.661.11V22.9c.931.066,2.272.1,2.682.1h.6V21.369l1.151.088c.315,0,.418.037.418.176s-.1.205-.374.352V23h.858a25.654,25.654,0,0,0,2.7-.1v1.173c-1.165-.1-2.609-.11-2.7-.11h-.733a6.538,6.538,0,0,0,4.024,3.254Z" transform="translate(-4.778 -4.952)" fill="#fff"/>
    <path id="Path_2126" data-name="Path 2126" d="M38.86,19.965a13.984,13.984,0,0,1-.4,2.492H39.2s.777,0,1.033-.044c-.051.7-.073,1.642-.073,1.825v1.62c0,.616,0,.88.044,1.95-.513,0-.945-.051-1.466-.051h-.594a10.393,10.393,0,0,0,.059,1.466H37.035a31.764,31.764,0,0,0,.125-3.276V25.5c-.11.183-.169.257-.337.52L35.73,25.44a9.528,9.528,0,0,0,2.067-5.46,9.015,9.015,0,0,0-1.466.1V18.88a8.869,8.869,0,0,0,1.341.11h1.334a6.963,6.963,0,0,0,1.319-.11v1.18A9.9,9.9,0,0,0,38.86,19.965Zm.337,3.459H38.171V26.8h1Zm6.464.176v.77c0,.945,0,3.386.081,5.072H44.386c.132-2.36.132-3.305.132-5.057v-.8H43.1c0,1.407-.081,4.229-2.2,5.922l-1-.85a3.665,3.665,0,0,0,1.766-2.294,8.627,8.627,0,0,0,.359-2.763,11.167,11.167,0,0,0-1.466.088v-1.18a13.368,13.368,0,0,0,1.466.081V19.965a7.524,7.524,0,0,0-1.253.044V18.917c.147,0,1.664.051,2.2.051h1.6c.66,0,1.766,0,2.294-.051v1.092l-1.246-.044v2.624a11.474,11.474,0,0,0,1.415-.081v1.18c-.586-.066-1.151-.073-1.4-.088ZM44.54,19.935H43.1v2.7h1.415Z" transform="translate(-9.542 -5.042)" fill="#fff"/>
    <path id="Path_2127" data-name="Path 2127" d="M62.8,29.141h-.938c-.6,0-1.422,0-1.422-1.063,0-.55.264-2.448.359-3.108l-1.8.117a5.446,5.446,0,0,1-4.112,4.156L54,28.269a4.447,4.447,0,0,0,3.819-3.1H57.4c-1.356.066-2.016.154-2.682.227l-.081-1.121h2.375l.975-.044c.059-.784.051-1.239.051-1.539l1.378.279c.1,0,.22.037.22.154s-.205.205-.359.227c-.051.425-.066.579-.1.828h.3l2.587-.235a18.537,18.537,0,0,0-.322,2.045l-.161,1.686a.359.359,0,0,0,.117.366.77.77,0,0,0,.432.073h.542c.3,0,.586,0,.923-1.6l1,.77C64.122,29.141,63.528,29.141,62.8,29.141Zm.484-6.428a1.063,1.063,0,0,1-1.063.623H60.677c-1.085,0-1.129-.564-1.129-1.011v-1.5h-4.4c0,.616,0,1.239.037,1.84H54.059c0-.293.059-.733.059-1.554V19.825c1,.073,1.994.1,2.99.1h1.576a12.044,12.044,0,0,0-.051-1.371l1.275.132c.139,0,.271.037.271.2s-.191.227-.322.271c0,.227-.037.542-.044.77h1.3c.674,0,2.5-.037,3.137-.073,0,.3-.044.7-.044,1.261a14.161,14.161,0,0,0,.059,1.612Zm-4.991-1.07a4.346,4.346,0,0,1-2.125,1.979l-.916-.843a3.166,3.166,0,0,0,2.25-1.847l.967.3c.132.037.279.073.279.213s-.044.147-.447.205Zm2.309-.821v1.187c0,.161,0,.41.359.41h.909c.315,0,.535,0,.733-.887l.484.3V20.822Z" transform="translate(-14.422 -4.954)" fill="#fff"/>
    <path id="Path_2128" data-name="Path 2128" d="M75.921,25.505a1.165,1.165,0,1,1-1.165-1.165A1.165,1.165,0,0,1,75.921,25.505Z" transform="translate(-19.654 -6.501)" fill="#fff"/>
    <path id="Path_2129" data-name="Path 2129" d="M83.324,23.79a5.255,5.255,0,0,0-1.84-1.143l.5-1.048a6.963,6.963,0,0,1,1.832,1.121Zm-.638,4.925a3.716,3.716,0,0,1,0,.4.139.139,0,0,1-.147.132c-.081,0-.154-.081-.213-.139l-.858-.96a16.747,16.747,0,0,0,2.265-3.665l.733.923a20.647,20.647,0,0,1-1.8,3.305ZM84.248,20.7A5.174,5.174,0,0,0,82.4,19.5l.55-.989a5.526,5.526,0,0,1,1.84,1.129Zm6.933,2.888a4.867,4.867,0,0,0-.374-.777c-2.2.242-3.745.4-5.929.616-.161.271-.169.308-.257.308s-.154-.147-.176-.337l-.132-1.187h1.334a12.562,12.562,0,0,0,1.546-3.8l1.261.432c.22.073.257.081.257.227s-.051.169-.432.242c-.366.836-.894,2.03-1.349,2.822.733,0,2.5-.147,3.305-.191a5.13,5.13,0,0,0-1.2-1.158l.923-.66a7.234,7.234,0,0,1,2.279,2.8Zm-1.261,5.695a3.2,3.2,0,0,0,.044-.66H86.3a3.756,3.756,0,0,0,.044.66H85.149a11.846,11.846,0,0,0,.081-1.649V26.01c0-.264-.066-1.415-.081-1.656.623.037,1.378.059,2.089.059h1.84c.344,0,1.693-.051,2.03-.088v3.313c0,.191.066.982.088,1.136s.051.352.059.506Zm.044-3.892H86.3v2.243h3.665Z" transform="translate(-21.759 -4.917)" fill="#fff"/>
    <path id="Path_2130" data-name="Path 2130" d="M99.1,28.316h-.9a5.431,5.431,0,0,0,.33-2.2l.7.066a7.739,7.739,0,0,1,.059.8,4.991,4.991,0,0,1-.183,1.334Zm9.814-5.695a10.857,10.857,0,0,1-1.07-.66v.579a6.706,6.706,0,0,0-1.246-.073v.821h.594c.388,0,1.312-.051,1.73-.073a6.918,6.918,0,0,0-.059,1.077v.858a8.539,8.539,0,0,0,.051,1.1c-.323-.037-1.466-.073-1.73-.073h-.205a4.222,4.222,0,0,0,2.521,2.2l-.945.865a5.863,5.863,0,0,1-2.389-2.463,4.529,4.529,0,0,1-2.661,2.485l-.982-.865a3.467,3.467,0,0,0,2.741-2.235c-.623,0-1.261.037-1.884.073,0-.235.073-.777.073-.945v-1.07a9.112,9.112,0,0,0-.051-.989c.638,0,1.371.073,1.9.073h.264v-.821a6.516,6.516,0,0,0-1.261.073v-.579c-.418.374-.733.594-.909.733l-.638-.462v1.026l-1.195-.044v.88a13.926,13.926,0,0,0,1.466-.066,18.375,18.375,0,0,1-.432,4.075,1.759,1.759,0,0,1-1.957,1.239l-.616-1.129a5.006,5.006,0,0,0,.667.073c.909,0,.982-.469,1.187-1.8l-.257.176a2.367,2.367,0,0,0-.836-1.246l.454-.359a2.279,2.279,0,0,1,.733.638v-.733H99.7v.55H98.684c.059-1.07.059-1.187.059-2.111V20.869c0-.909,0-1.019-.059-2.008.608.037,1.209.051,1.825.051h1.356a12.93,12.93,0,0,0,1.319-.081v.945c-.432,0-1.341-.037-1.6-.037v.865a3.392,3.392,0,0,0,.4,0,6.852,6.852,0,0,0,.733-.037v.938a10.261,10.261,0,0,0-1.165-.059v.887c.469,0,.733-.037,1.165-.073l-.381-.271a5.863,5.863,0,0,0,1.906-1.517,6.838,6.838,0,0,0,1.143-2.1l1.407.491c.073,0,.169.051.169.132s-.161.183-.227.205a5.651,5.651,0,0,0,3.049,2.5ZM99.79,27.876a5.343,5.343,0,0,0-.506-1.759l.579-.213a3.943,3.943,0,0,1,.645,1.539Zm.733-8.121h-.858v.887h.843Zm0,1.693h-.858v.887h.843Zm0,1.788h-.858v.887h.843Zm.322,3.987a3.5,3.5,0,0,0-.777-1.393l.535-.279a2.932,2.932,0,0,1,.806,1.3Zm3.591-3.108v1.246h1a11.4,11.4,0,0,0,.125-1.246Zm1.466-4.244a7.41,7.41,0,0,1-1.173,1.649h2.536a6.83,6.83,0,0,1-1.341-1.649Zm1.9,4.244h-1.224a11.988,11.988,0,0,1-.088,1.246H107.8Z" transform="translate(-26.227 -4.906)" fill="#fff"/>
    <path id="Path_2131" data-name="Path 2131" d="M124.926,24.312c-.117.191-1.041,1.62-1.568,2.309l-1.1-.66a11.727,11.727,0,0,0,1.935-2.529l-3.034.235-.506.066v1.312c0,.41,0,1.825.059,2.14.11.5.542.645,1.825.645a11.727,11.727,0,0,0,2.763-.322v1.2c-1.371.125-2.558.169-3.232.169-2.133,0-2.565-.535-2.565-2.03v-3c-.938.11-1.942.22-2.8.374l-.213-1.3c.682,0,.909,0,3.012-.11a30.869,30.869,0,0,0-.1-3.137l1.517.183c.213,0,.249.1.249.169s-.11.205-.359.381a3.8,3.8,0,0,0-.059.557,17.154,17.154,0,0,1-.11,1.774l2.14-.132c1.869-.117,2.111-.264,2.411-.44l.953.931a2.257,2.257,0,0,0-1.224,1.209Z" transform="translate(-31.112 -5.256)" fill="#fff"/>
    <path id="Path_2132" data-name="Path 2132" d="M135.063,28.457a1.161,1.161,0,0,1-.11.279.147.147,0,0,1-.132.073c-.081,0-.117-.051-.249-.293l-.652-1.246a15.677,15.677,0,0,0,8.458-5.079l.484,1.165C140.5,26.126,136.72,27.753,135.063,28.457Zm1.671-6.193a10.063,10.063,0,0,0-2.617-1.656l.66-1.077a8.634,8.634,0,0,1,2.639,1.671Z" transform="translate(-35.767 -5.216)" fill="#fff"/>
    <path id="Path_2133" data-name="Path 2133" d="M158.022,22.052a15.026,15.026,0,0,1-1.239,3.034,12.458,12.458,0,0,1,1.07.858l-.814,1a7.77,7.77,0,0,0-.916-.85,8.8,8.8,0,0,1-4.507,3.166l-.923-1.026a6.882,6.882,0,0,0,3.291-1.554,7.036,7.036,0,0,0,1.224-1.246,20.828,20.828,0,0,0-2.345-1.224l.6-.733c.638.213,2.059.872,2.36,1.026a9.249,9.249,0,0,0,.96-2.565h-3.423A9.674,9.674,0,0,1,151,24.58l-1.151-.7a6.985,6.985,0,0,0,2.426-2.353,9.587,9.587,0,0,0,1.019-1.876,3.33,3.33,0,0,0,.183-.645l1.312.513a.258.258,0,0,1,.205.22c0,.11-.264.249-.484.279-.1.139-.542.931-.579,1H155.4a10.994,10.994,0,0,0,1.466-.132,2.933,2.933,0,0,0,.8-.271l.887.865a2.931,2.931,0,0,0-.528.572Z" transform="translate(-40.021 -5.077)" fill="#fff"/>
    <path id="Path_2134" data-name="Path 2134" d="M172.195,26.187h-2.756c-.154,0-1.957,0-3.159.139V25a23.123,23.123,0,0,0,3.159.139h2.756A25.249,25.249,0,0,0,175.354,25v1.3a28.4,28.4,0,0,0-3.159-.117Z" transform="translate(-44.41 -6.677)" fill="#fff"/>
  </g>
</svg>
