<svg xmlns="http://www.w3.org/2000/svg" width="437.282" height="124.649" viewBox="0 0 437.282 124.649">
  <g id="title" transform="translate(0.066 -0.55)">
    <g id="レイヤー_1" data-name="レイヤー 1" transform="translate(0.472 0.55)">
      <g id="sadow" transform="translate(4.82 1.666)" opacity="0.5">
        <path id="Path_81" data-name="Path 81" d="M8.443,13.118a2.068,2.068,0,0,1,.624,1.408,1.934,1.934,0,0,1-1.934,1.827,1.783,1.783,0,0,1-1.31-.588,32.645,32.645,0,0,0-2.915-2.683,1.667,1.667,0,0,1-.767-1.337A1.926,1.926,0,0,1,4.066,9.962a2.22,2.22,0,0,1,1.212.41,18.257,18.257,0,0,1,3.165,2.746Zm.829,6.508A1.917,1.917,0,0,1,11.3,21.408a1.952,1.952,0,0,1-.107.624A42.638,42.638,0,0,1,7,31.2a2.193,2.193,0,0,1-1.863,1.052,1.854,1.854,0,0,1-1.961-1.72,2.1,2.1,0,0,1,.374-1.141,42.594,42.594,0,0,0,4-8.576,1.783,1.783,0,0,1,1.72-1.186Zm1.72-14.78a2.22,2.22,0,0,1,.588,1.417A1.783,1.783,0,0,1,8.371,7.43c-.927-.927-2-1.926-2.79-2.612a1.72,1.72,0,0,1-.686-1.275,1.836,1.836,0,0,1,1.9-1.694A2.139,2.139,0,0,1,8,2.269a21.484,21.484,0,0,1,3,2.576ZM19.22,2.75a1.783,1.783,0,0,1,1.827-1.31A1.917,1.917,0,0,1,23.08,3.222a1.676,1.676,0,0,1-.107.553,48.825,48.825,0,0,1-3.512,8.3c2.416-.241,4.787-.553,7.132-.891-.374-.49-.793-.972-1.168-1.382a1.614,1.614,0,0,1-.455-1.07,1.783,1.783,0,0,1,1.863-1.587,2.193,2.193,0,0,1,1.551.7A43.681,43.681,0,0,1,33,13.8a1.952,1.952,0,0,1,.339,1.07,1.979,1.979,0,0,1-2.033,1.827,1.872,1.872,0,0,1-1.649-1c-.276-.481-.588-1-.891-1.551A120.022,120.022,0,0,1,13.506,16.1a1.712,1.712,0,0,1-1.827-1.783,1.578,1.578,0,0,1,1.515-1.72c.7,0,1.382-.071,2.068-.134A55.047,55.047,0,0,0,19.22,2.75Zm-.41,29.418c-3.165,0-4.511-1.132-4.511-3.887V22.656c0-2.755,1.346-3.9,4.511-3.9h7.444c3.165,0,4.511,1.141,4.511,3.9v5.58c-.071,3.1-1.694,3.824-4.511,3.887Zm7.06-3.236c.891,0,1.105-.276,1.105-1.07v-4.8c0-.793-.241-1.061-1.105-1.061H19.193c-.891,0-1.105.267-1.105,1.061v4.725c0,.891.312,1.034,1.105,1.07Z" transform="translate(-2.14 -0.646)" fill="#6b6b6b"/>
        <path id="Path_82" data-name="Path 82" d="M44.733,23.607a1.088,1.088,0,0,1,1.141,1.2,23.481,23.481,0,0,1-.891,4.618,1.248,1.248,0,0,1-1.239.963,1.132,1.132,0,0,1-1.2-1.1,1.48,1.48,0,0,1,.1-.517,20,20,0,0,0,.891-4.172A1.123,1.123,0,0,1,44.733,23.607Zm7.5-15.636h2.514c.731,0,1.105.686,1.105,1.382s-.374,1.408-1.105,1.408H52.23V13.24h2.514c.731,0,1.105.686,1.105,1.382s-.374,1.408-1.105,1.408H52.23v2.585h1.694c2.033,0,2.924.963,2.888,2.79a35.426,35.426,0,0,1-.891,8.166c-.686,2.674-2.1,3.405-4.2,3.405a11.268,11.268,0,0,1-1.97-.169,1.6,1.6,0,0,1-1.373-1.658A1.507,1.507,0,0,1,50.2,29.562a6.659,6.659,0,0,0,1.382.134c.722,0,1.034-.205,1.239-1.034a27.786,27.786,0,0,0,.588-3.477.891.891,0,0,1-.793.481.811.811,0,0,1-.749-.562,17.633,17.633,0,0,0-.891-2,.838.838,0,0,1-.143-.481.784.784,0,0,1,.891-.722.963.963,0,0,1,.82.446,10.831,10.831,0,0,1,.891,1.827c0,.1.071.169.1.241,0-.686.071-1.408.071-2.139,0-.517-.169-.722-.758-.722H47.033c-2.166,0-3.067-.793-3.067-2.674V5.493c0-2,.891-3.067,3.619-3.067h7.952a1.346,1.346,0,0,1,1.31,1.48,1.355,1.355,0,0,1-1.31,1.587H52.23ZM48.664,27.637a1.1,1.1,0,0,1-1.105,1.2.891.891,0,0,1-.963-.891,25.558,25.558,0,0,0-.446-3.512.891.891,0,0,1,.963-1.141,1,1,0,0,1,.963.731,19.522,19.522,0,0,1,.579,3.61Zm-.74-22.144c-.615,0-.784.169-.784.722V8H49.27v-2.5Zm1.346,7.782V10.761H47.14V13.24Zm0,2.79H47.14v1.863c0,.579.169.722.784.722H49.27Zm2.068,10.02a1.07,1.07,0,0,1-.963,1.417.954.954,0,0,1-.891-.829,15.154,15.154,0,0,0-.784-2.755.838.838,0,0,1-.071-.41.891.891,0,0,1,.891-.793.972.972,0,0,1,.891.579,15.28,15.28,0,0,1,.927,2.755Zm10.02-2.166c-2.514,0-3.441-.891-3.441-2.826v-3c0-1.926.891-2.79,3.441-2.79H63.7v-1.9h-1.48a1.3,1.3,0,0,1-1.2-1.444,1.622,1.622,0,0,1,.241-.891c-.66.651-1.346,1.239-2,1.783a1.934,1.934,0,0,1-1.248.481,1.783,1.783,0,0,1-1.783-1.783,1.97,1.97,0,0,1,.891-1.515,29.971,29.971,0,0,0,6.891-7.818,1.72,1.72,0,0,1,1.515-.891,1.89,1.89,0,0,1,1.926,1.694,1.337,1.337,0,0,1,0,.374A35.274,35.274,0,0,0,74.24,9.415a2.015,2.015,0,0,1,1,1.694,1.863,1.863,0,0,1-1.854,1.783,2.1,2.1,0,0,1-1.275-.446A18.72,18.72,0,0,1,70.327,11a1.783,1.783,0,0,1,.241.891,1.31,1.31,0,0,1-1.239,1.444H67.019V15.3h2.674c2.514,0,3.441.891,3.441,2.79v2.96c0,1.9-.891,2.826-3.441,2.826H67.554a16.643,16.643,0,0,0,5.821,5.474,2,2,0,0,1,1.105,1.721A1.881,1.881,0,0,1,72.7,32.852a2.1,2.1,0,0,1-1.1-.374,21.029,21.029,0,0,1-6.24-6.338,14.647,14.647,0,0,1-6.472,6.615,2.211,2.211,0,0,1-.963.276,1.7,1.7,0,0,1-.66-3.272,11.339,11.339,0,0,0,5.545-5.928Zm2.273-2.755A22.7,22.7,0,0,0,63.8,18.49v-.428h-2c-.544,0-.722.169-.722.588v1.89c0,.446.312.588.722.588Zm5.687-10.608a1.088,1.088,0,0,1,.481.107,36.3,36.3,0,0,1-4.234-4.377,47.381,47.381,0,0,1-3.9,4.368.891.891,0,0,1,.517-.134Zm-2.3,7.675a28.525,28.525,0,0,1-.169,2.9h2.478c.579,0,.758-.169.758-.588v-1.89c0-.419-.178-.588-.758-.588H67.019Z" transform="translate(-6.525 -0.635)" fill="#6b6b6b"/>
        <path id="Path_83" data-name="Path 83" d="M94.9,18.572a3.512,3.512,0,1,1-3.512-3.512A3.566,3.566,0,0,1,94.9,18.572Z" transform="translate(-11.447 -2.125)" fill="#6b6b6b"/>
        <path id="Path_84" data-name="Path 84" d="M119.634,11.031c2.674,0,3.512,1.1,3.512,3.236v3.958c0,2.139-.891,3.236-3.512,3.236v6.615h2.345c.891,0,1.31.793,1.31,1.622s-.419,1.6-1.31,1.6h-7.132c-3.379,0-4.457-1.408-4.457-4.056V6.689c0-2.674,1.1-4.065,4.457-4.065h7.916c.891,0,1.31.793,1.31,1.622s-.41,1.614-1.31,1.614H119.6Zm-4.653-5.17c-1,0-1.2.241-1.2,1.239v3.931h2.5V5.86Zm3.86,12.48c.793,0,1-.169,1-.793V14.989c0-.615-.205-.793-1-.793h-5.063v4.1ZM116.283,21.5h-2.514v5.349c0,1,.205,1.239,1.2,1.239h1.31ZM139.612,4.621a1.435,1.435,0,0,1,1.346,1.587,1.444,1.444,0,0,1-1.346,1.622h-11.09a26.557,26.557,0,0,1-1.783,2.755,2.033,2.033,0,0,1-1.622.891,1.729,1.729,0,0,1-1.783-1.614,1.943,1.943,0,0,1,.455-1.177A23.971,23.971,0,0,0,127.3,2.143,1.783,1.783,0,0,1,129,.94a1.676,1.676,0,0,1,1.783,1.515,1.542,1.542,0,0,1-.143.651c-.169.481-.374,1-.615,1.515ZM126.659,32.069c-2.1,0-2.826-.891-2.826-2.924V23.359c0-2,.793-2.924,2.9-2.924h2.1c2.059,0,2.888.891,2.888,2.888v5.821c0,2.068-.829,2.9-2.888,2.924Zm3.414-13.5c-2.451,0-3.236-.722-3.236-2.9V13.1c0-2.139.963-2.933,3.405-2.933h4.618c2.443,0,3.405.793,3.405,2.933v2.514c0,2.407-1.07,2.924-3.307,2.96Zm-1.934,10.644c.446,0,.588-.205.588-.624v-4.68c0-.446-.169-.624-.588-.624h-.722c-.41,0-.579.178-.579.624v4.716c0,.383.169.624.579.624Zm6.026-13.327c.66,0,.793-.178.793-.66V13.473c0-.481-.134-.651-.793-.651h-3.236c-.651,0-.793.169-.793.651v1.783c0,.553.276.66.793.66Zm1.783,16.18c-2.095,0-2.817-.891-2.817-2.924V23.359c0-2,.758-2.924,2.853-2.924h2.211c2.059,0,2.888.891,2.888,2.888v5.821c0,2.068-.829,2.9-2.888,2.924Zm1.551-2.853c.455,0,.588-.205.588-.624v-4.68c0-.446-.169-.624-.588-.624h-.793c-.41,0-.579.178-.579.624v4.716c0,.383.169.624.579.624Z" transform="translate(-13.891 -0.592)" fill="#6b6b6b"/>
        <path id="Path_85" data-name="Path 85" d="M165.232,2.038c0-.891.891-1.408,1.854-1.408s1.827.481,1.827,1.408v2.79h11.161a1.462,1.462,0,0,1,1.346,1.622,1.471,1.471,0,0,1-1.346,1.64H159.027c-1.551,0-2,.446-2,1.622V14.26c0,6.713-1.07,11.883-3.307,16.224a2.068,2.068,0,0,1-1.854,1.2,1.783,1.783,0,0,1-1.9-1.783,2.371,2.371,0,0,1,.312-1.105c2-3.824,2.96-8.433,2.96-14.709V8.929c0-2.79,1.382-4.1,4.894-4.1h7.132Zm5.607,23.6V31.59a1.783,1.783,0,1,1-3.566,0V25.635l.1-4.992a30.479,30.479,0,0,1-7.952,8.469,1.961,1.961,0,0,1-1.2.41,1.667,1.667,0,0,1-1.658-1.649,1.783,1.783,0,0,1,.829-1.48,31,31,0,0,0,8.3-8.995h-5.438a1.453,1.453,0,0,1-1.382-1.614,1.444,1.444,0,0,1,1.382-1.622h7.025V10.819a1.783,1.783,0,0,1,3.566,0v3.343h8.2a1.471,1.471,0,0,1,1.408,1.622A1.48,1.48,0,0,1,179.04,17.4h-7.025a30.951,30.951,0,0,0,9.432,8.13,1.979,1.979,0,0,1,1.177,1.72,1.836,1.836,0,0,1-1.783,1.827,2.264,2.264,0,0,1-1.168-.339,31.825,31.825,0,0,1-8.914-8.273Z" transform="translate(-18.187 -0.559)" fill="#6b6b6b"/>
        <path id="Path_86" data-name="Path 86" d="M194.373,19.5c-.169.276-.312.481-.446.722a1.872,1.872,0,0,1-1.587.891,1.658,1.658,0,0,1-1.72-1.551,2.157,2.157,0,0,1,.446-1.239A31.976,31.976,0,0,0,195.2,7.091h-2.621a1.489,1.489,0,0,1-1.373-1.649,1.489,1.489,0,0,1,1.373-1.649h9.966a1.5,1.5,0,0,1,1.408,1.649A1.5,1.5,0,0,1,202.548,7.1h-3.833a43.371,43.371,0,0,1-1.515,6.169h3.067c2.309,0,3.1.963,3.1,3.236v9.726c0,2.273-.731,3.2-3.1,3.236H197.4c-2.309,0-3.093-.963-3.093-3.236V22.843Zm4.823,6.927c.553,0,.722-.169.722-.829V17.129c0-.66-.169-.829-.722-.829H198.4c-.553,0-.722.169-.722.829V25.6c0,.553.107.829.722.829Zm12.676-9.164c-.481,6.891-2.139,11.161-5.349,14.78a2.157,2.157,0,0,1-1.587.758,1.836,1.836,0,0,1-1.89-1.783,2.273,2.273,0,0,1,.651-1.489c2.55-2.853,3.958-6.2,4.413-12.293h-2.478a1.507,1.507,0,0,1-1.453-1.649,1.507,1.507,0,0,1,1.453-1.658h2.612V6.8h-1.827a1.507,1.507,0,0,1-1.444-1.658,1.506,1.506,0,0,1,1.444-1.649h14.5a1.507,1.507,0,0,1,1.48,1.649A1.516,1.516,0,0,1,220.92,6.8h-2.175v7.132h3.138a1.515,1.515,0,0,1,1.48,1.658,1.507,1.507,0,0,1-1.48,1.649h-3.138V31.455a1.881,1.881,0,0,1-3.717,0V17.263Zm.134-4.68v1.373h3.1V6.824h-3.067Z" transform="translate(-22.599 -0.869)" fill="#6b6b6b"/>
        <path id="Path_87" data-name="Path 87" d="M251.16,18.183c2.96-.062,4.127,1.105,4.127,3.691v6.16c0,.758.348.936,2.416.936,2.407,0,3.031-.419,3.2-2.621a1.685,1.685,0,0,1,1.827-1.515,1.64,1.64,0,0,1,1.783,1.783c-.276,3.994-1.587,5.509-6.962,5.509-5.161,0-5.991-.829-5.991-3.343V22.177c0-.722-.169-.891-1.034-.891l-3.566.071c-1.587,5.572-5.438,9.057-11.74,11.366a2.193,2.193,0,0,1-.758.134,1.783,1.783,0,0,1-1.783-1.783,1.7,1.7,0,0,1,1.2-1.587c4.716-1.783,7.747-4.163,9.164-8.023l-7,.143a1.48,1.48,0,0,1-1.444-1.622,1.373,1.373,0,0,1,1.346-1.551l7.88-.134c.107-.891.178-1.863.214-2.9a1.638,1.638,0,0,1,1.854-1.515c.963,0,1.9.517,1.863,1.587s-.107,1.89-.205,2.755ZM246.337,1.967c0-.972.891-1.417,1.89-1.417S250.09,1,250.09,1.967V4.027h8.54c3.236,0,4.546.972,4.546,3.45v1.2a1.667,1.667,0,0,1-1.863,1.515,2.442,2.442,0,0,1-.891-.169,1.426,1.426,0,0,1,.062.651c-.3,2.924-1.685,3.9-5.919,3.9s-5.233-.7-5.233-3.209V7h-4.377a1.48,1.48,0,0,1,.963,1.337,1.515,1.515,0,0,1-.134.624c-1.382,3.343-5.206,6.3-9.44,7.577a1.391,1.391,0,0,1-.517.071,1.685,1.685,0,0,1-1.649-1.694,1.56,1.56,0,0,1,1.2-1.515c3.566-1.1,6.1-3.129,7.23-5.643A1.7,1.7,0,0,1,243.333,7h-4.921c-.963,0-1.275.3-1.275,1.025V9.866a1.649,1.649,0,0,1-1.783,1.515,1.667,1.667,0,0,1-1.863-1.515V7.477c0-2.478,1.275-3.45,4.52-3.45h8.326Zm6.472,8.915c0,.758.241.891,1.89.891,2.006,0,2.345-.276,2.487-1.382a1.5,1.5,0,0,1,1.649-1.2,1.631,1.631,0,0,1,.722.143,1.73,1.73,0,0,1-.1-.588V8.02c0-.749-.241-1.025-1.248-1.025h-5.367Z" transform="translate(-27.165 -0.55)" fill="#6b6b6b"/>
        <path id="Path_88" data-name="Path 88" d="M291.149,9.957c-4.127.553-9.6,1.382-14.566,2.1a1.908,1.908,0,0,1-2.273-1.934,1.845,1.845,0,0,1,1.783-1.89c7.132-.891,16.046-1.9,23.178-2.55a1.783,1.783,0,0,1,2.068,1.827,1.854,1.854,0,0,1-1.587,1.854,12.026,12.026,0,0,0-3.789,1.382c-5.349,3.067-6.508,6.65-6.508,9.922,0,3.815,2.674,6.16,7.47,6.748a2.041,2.041,0,1,1-.374,4.065c-6.508-.482-11.09-4.859-11.09-10.7a13.9,13.9,0,0,1,5.643-10.7Zm5.063,5.545a1.444,1.444,0,0,1,2.416-.891,17.257,17.257,0,0,1,2.674,3,1.435,1.435,0,0,1,.312.891,1.409,1.409,0,0,1-1.382,1.382,1.373,1.373,0,0,1-1.132-.66,25.6,25.6,0,0,0-2.55-2.924,1.239,1.239,0,0,1-.339-.793Zm3.414-2.755a1.382,1.382,0,0,1,1.444-1.275,1.7,1.7,0,0,1,1.034.41,17.832,17.832,0,0,1,2.674,2.826,1.658,1.658,0,0,1,.374,1.034,1.346,1.346,0,0,1-1.382,1.31,1.489,1.489,0,0,1-1.2-.624c-.793-1-1.783-2.033-2.549-2.853a1.132,1.132,0,0,1-.392-.829Z" transform="translate(-31.684 -1.105)" fill="#6b6b6b"/>
      </g>
      <g id="sadow-2" data-name="sadow" transform="translate(2.499 64.659)" opacity="0.5">
        <path id="Path_73" data-name="Path 73" d="M28.364,113v9.467c0,1.515-1.462,2.273-2.924,2.273s-2.924-.758-2.924-2.273V113l.223-9.681A62.134,62.134,0,0,1,4.82,119.067a3.066,3.066,0,0,1-1.569.437A2.674,2.674,0,0,1,2,114.413a59.237,59.237,0,0,0,17.7-15.484H3.662c-1.408,0-2.166-1.346-2.166-2.674s.758-2.674,2.166-2.674H22.516V87.447H7.9a2.734,2.734,0,0,1,0-5.349H22.516V75.27c0-1.515,1.462-2.22,2.924-2.22s2.924.7,2.924,2.22v6.873H43.518c1.462,0,2.22,1.3,2.22,2.674s-.758,2.674-2.22,2.674H28.364V93.66H47.681c1.462,0,2.22,1.3,2.22,2.674s-.758,2.674-2.22,2.674H30.744a52.185,52.185,0,0,0,18.025,13.969,3.147,3.147,0,0,1,2.006,2.817,3.067,3.067,0,0,1-2.977,3.084,3.637,3.637,0,0,1-1.569-.437A52.07,52.07,0,0,1,28.15,103.074Z" transform="translate(-0.472 -68.08)" fill="#6b6b6b" stroke="#6b6b6b" stroke-miterlimit="10" stroke-width="2"/>
        <path id="Path_74" data-name="Path 74" d="M97.6,114.4v8.228c0,1.515-1.462,2.273-2.924,2.273s-2.924-.758-2.924-2.273V114.4l.214-7.907a59.727,59.727,0,0,1-17.963,14.45,3.289,3.289,0,0,1-1.622.437,2.755,2.755,0,0,1-2.674-2.674,2.674,2.674,0,0,1,1.569-2.327A57.856,57.856,0,0,0,88.6,102.744H72.9a2.674,2.674,0,0,1,0-5.188H91.738V85.227H75.121a2.642,2.642,0,0,1,0-5.2H91.738V75.27c0-1.515,1.462-2.22,2.924-2.22s2.924.7,2.924,2.22v4.76H114.1a2.674,2.674,0,0,1,0,5.2H97.6V97.52h18.943a2.63,2.63,0,0,1,0,5.188H100.278a51.749,51.749,0,0,0,17.758,12.347,2.853,2.853,0,0,1,1.89,2.674,3.013,3.013,0,0,1-2.915,3.084,3.566,3.566,0,0,1-1.462-.321A52.4,52.4,0,0,1,97.363,106.15ZM87.468,91.726A3.762,3.762,0,0,1,88,93.562a2.844,2.844,0,0,1-2.879,2.764A3.067,3.067,0,0,1,82.449,94.6,27.333,27.333,0,0,0,80.1,90.834a2.906,2.906,0,0,1-.651-1.783,2.674,2.674,0,0,1,2.764-2.541A3.174,3.174,0,0,1,84.7,87.759,24.523,24.523,0,0,1,87.468,91.726Zm19.808-5.518a2.674,2.674,0,0,1,2.862,2.541,3.289,3.289,0,0,1-.374,1.462,33.366,33.366,0,0,1-3.138,5.028,2.844,2.844,0,0,1-2.38,1.248,2.55,2.55,0,0,1-2.273-4.163,40.2,40.2,0,0,0,2.808-4.6A2.764,2.764,0,0,1,107.276,86.208Z" transform="translate(-7.987 -68.08)" fill="#6b6b6b" stroke="#6b6b6b" stroke-miterlimit="10" stroke-width="2"/>
        <path id="Path_75" data-name="Path 75" d="M149.555,94.772a11.865,11.865,0,0,1,4.234-.838c3.4,0,5.607,1.034,6.891,4.671a128.509,128.509,0,0,1,12.293-4.457,4.137,4.137,0,0,1,.989-.143,2.621,2.621,0,0,1,.588,5.161c-4.279,1.284-8.656,2.764-12.792,4.457.25,1.783.348,3.985.446,6.543a2.576,2.576,0,0,1-2.808,2.558,2.389,2.389,0,0,1-2.6-2.264c-.053-1.863-.152-3.441-.25-4.769-5.117,2.6-6.294,4.823-6.294,6.641s1.783,3.049,7.426,3.049a57.522,57.522,0,0,0,9.547-.838,2.674,2.674,0,0,1,3.191,2.674,2.719,2.719,0,0,1-2.46,2.674,57.82,57.82,0,0,1-10.082.785c-9.3,0-13.238-3.1-13.238-7.925,0-3.931,2.318-7.72,11.072-12.1-.642-1.854-1.694-2.264-3.477-2.264s-5.411,1.328-10.082,5.072a2.96,2.96,0,0,1-1.783.633,2.674,2.674,0,0,1-2.674-2.6,2.853,2.853,0,0,1,1.132-2.166,46.445,46.445,0,0,0,8.308-9.592c-1.917.143-3.682.2-5.349.241a2.541,2.541,0,1,1,0-5.063c2.318,0,5.072-.152,7.925-.348.838-1.961,1.578-3.887,2.166-5.705a2.674,2.674,0,0,1,5.215.49,1.926,1.926,0,0,1-.1.74,39.614,39.614,0,0,1-1.48,3.887c2.558-.25,5.019-.588,7.132-.981a2.327,2.327,0,0,1,2.951,2.309,2.469,2.469,0,0,1-2.166,2.46c-3.1.544-6.793,1.079-10.43,1.426-1.23,2.015-2.46,3.887-3.646,5.465Z" transform="translate(-15.367 -68.506)" fill="#6b6b6b" stroke="#6b6b6b" stroke-miterlimit="10" stroke-width="2"/>
        <path id="Path_76" data-name="Path 76" d="M207.968,91.8a62.3,62.3,0,0,1-7.354,10.43,4.528,4.528,0,0,1-3.387,1.667,3.512,3.512,0,0,1-3.566-3.459,4.074,4.074,0,0,1,1.212-2.817c5.179-5.625,10.43-15.03,13.113-23.855a3.566,3.566,0,0,1,3.566-2.558,3.459,3.459,0,0,1,3.708,3.254,3.709,3.709,0,0,1-.187,1.159,63.149,63.149,0,0,1-3.708,9.654h31.851a3.272,3.272,0,0,1,0,6.525H228.953c-1.408,14.584-8.317,26.806-19.059,33.777a4.172,4.172,0,0,1-2.309.7,3.619,3.619,0,0,1-3.646-3.512,4,4,0,0,1,1.917-3.263c9.218-6.24,14.263-14.843,15.609-27.706Zm23.543-17.615a2.612,2.612,0,0,1,2.674-2.371,2.576,2.576,0,0,1,1.926.891,34.17,34.17,0,0,1,4.457,6.008,2.835,2.835,0,0,1,.446,1.533,2.621,2.621,0,0,1-2.621,2.567,2.478,2.478,0,0,1-2.175-1.408,45.672,45.672,0,0,0-4.225-5.821,2.149,2.149,0,0,1-.481-1.4Zm6.784-4.457a2.487,2.487,0,0,1,2.621-2.246,2.96,2.96,0,0,1,2.113.891,32.217,32.217,0,0,1,4.457,5.687,3.476,3.476,0,0,1,.579,1.729,2.514,2.514,0,0,1-2.567,2.5,2.888,2.888,0,0,1-2.407-1.426,70.265,70.265,0,0,0-4.225-5.759A2.2,2.2,0,0,1,238.295,69.726Z" transform="translate(-21.442 -67.475)" fill="#6b6b6b" stroke="#6b6b6b" stroke-miterlimit="10" stroke-width="2"/>
        <path id="Path_77" data-name="Path 77" d="M284.965,86.725a3.762,3.762,0,0,1,1.159,2.755,4.324,4.324,0,0,1-4.1,4.217,4.083,4.083,0,0,1-2.879-1.275,91.944,91.944,0,0,0-8.7-7.738A3.566,3.566,0,0,1,268.91,81.8a4.136,4.136,0,0,1,4.1-3.9,4.636,4.636,0,0,1,2.559.829A57.5,57.5,0,0,1,284.965,86.725Zm28.152-1.854a3.726,3.726,0,0,1,3.9,3.566,3.815,3.815,0,0,1-.642,2.041,76.772,76.772,0,0,1-39.536,33.652,4.456,4.456,0,0,1-1.729.321,3.9,3.9,0,0,1-3.833-3.9,3.45,3.45,0,0,1,2.5-3.388c14.522-5.5,28.4-16.572,36.077-30.265a3.655,3.655,0,0,1,3.263-2.024Z" transform="translate(-29.611 -68.607)" fill="#6b6b6b" stroke="#6b6b6b" stroke-miterlimit="10" stroke-width="2"/>
        <path id="Path_78" data-name="Path 78" d="M354.067,74.146c-.446-2.371,1.658-3.717,3.708-3.717A3.334,3.334,0,0,1,361.3,73.1l1.854,10.43,14.459-2.246c2.425-.383,3.833,1.6,3.833,3.566a2.969,2.969,0,0,1-2.621,3.022L364.3,90.112l1.6,9.021L384.617,96a3.289,3.289,0,0,1,3.842,3.45,3.075,3.075,0,0,1-2.63,3.138l-18.8,3.138,3.067,17.267c.446,2.371-1.6,3.78-3.646,3.78a3.334,3.334,0,0,1-3.521-2.755l-3.067-17.08-18.72,3.138c-2.362.383-3.771-1.6-3.771-3.566a3.067,3.067,0,0,1,2.621-3.138l18.72-3.129-1.6-9.084-14.326,2.238c-2.371.383-3.708-1.6-3.708-3.566a2.924,2.924,0,0,1,2.621-3.129l14.2-2.175Z" transform="translate(-37.042 -67.795)" fill="#6b6b6b" stroke="#6b6b6b" stroke-miterlimit="10" stroke-width="2"/>
        <path id="Path_79" data-name="Path 79" d="M415.055,81c1.578,0,3.147,1.034,2.808,3.049A102.6,102.6,0,0,0,415.6,105.8a96.067,96.067,0,0,0,.891,11.589,2.845,2.845,0,0,1-5.652.588,96.2,96.2,0,0,1-.838-12.15,110.945,110.945,0,0,1,2.309-22.732A2.674,2.674,0,0,1,415.055,81Zm22.34,30.309a40.465,40.465,0,0,0,7.426-.731,2.674,2.674,0,0,1,3.2,2.674,2.558,2.558,0,0,1-2.166,2.612,43.156,43.156,0,0,1-8.513.838c-9.1,0-12.89-2.755-13.425-8.709a2.746,2.746,0,0,1,2.853-3,2.4,2.4,0,0,1,2.505,2.113C429.719,110.168,431.243,111.309,437.394,111.309Zm7.773-23.32a2.674,2.674,0,0,1-2.514,2.674,125.157,125.157,0,0,1-13.871,1.079,2.585,2.585,0,0,1-2.853-2.674,2.612,2.612,0,0,1,2.674-2.674,120.185,120.185,0,0,0,13.488-1.025,2.594,2.594,0,0,1,3.076,2.6Z" transform="translate(-44.926 -68.943)" fill="#6b6b6b" stroke="#6b6b6b" stroke-miterlimit="10" stroke-width="2"/>
        <path id="Path_80" data-name="Path 80" d="M484.262,117.5a9.066,9.066,0,1,1-9.039-8.914,8.914,8.914,0,0,1,9.039,8.915Zm-14.4,0a5.349,5.349,0,1,0,5.349-5.349,5.269,5.269,0,0,0-5.349,5.349Z" transform="translate(-51.019 -71.938)" fill="#6b6b6b" stroke="#6b6b6b" stroke-miterlimit="10" stroke-width="2"/>
      </g>
      <path id="Path_57" data-name="Path 57" d="M8.443,13.118a2.068,2.068,0,0,1,.624,1.408,1.934,1.934,0,0,1-1.934,1.827,1.783,1.783,0,0,1-1.31-.588,32.645,32.645,0,0,0-2.915-2.683,1.667,1.667,0,0,1-.767-1.337A1.926,1.926,0,0,1,4.066,9.962a2.22,2.22,0,0,1,1.212.41,18.257,18.257,0,0,1,3.165,2.746Zm.829,6.508A1.917,1.917,0,0,1,11.3,21.408a1.952,1.952,0,0,1-.107.624A42.638,42.638,0,0,1,7,31.2a2.193,2.193,0,0,1-1.863,1.052,1.854,1.854,0,0,1-1.961-1.72,2.1,2.1,0,0,1,.374-1.141,42.594,42.594,0,0,0,4-8.576,1.783,1.783,0,0,1,1.72-1.186Zm1.72-14.78a2.22,2.22,0,0,1,.588,1.417A1.783,1.783,0,0,1,8.371,7.43c-.927-.927-2-1.926-2.79-2.612a1.72,1.72,0,0,1-.686-1.275,1.836,1.836,0,0,1,1.9-1.694A2.139,2.139,0,0,1,8,2.269a21.484,21.484,0,0,1,3,2.576ZM19.22,2.75a1.783,1.783,0,0,1,1.827-1.31A1.917,1.917,0,0,1,23.08,3.222a1.676,1.676,0,0,1-.107.553,48.825,48.825,0,0,1-3.512,8.3c2.416-.241,4.787-.553,7.132-.891-.374-.49-.793-.972-1.168-1.382a1.614,1.614,0,0,1-.455-1.07,1.783,1.783,0,0,1,1.863-1.587,2.193,2.193,0,0,1,1.551.7A43.681,43.681,0,0,1,33,13.8a1.952,1.952,0,0,1,.339,1.07,1.979,1.979,0,0,1-2.033,1.827,1.872,1.872,0,0,1-1.649-1c-.276-.481-.588-1-.891-1.551A120.022,120.022,0,0,1,13.506,16.1a1.712,1.712,0,0,1-1.827-1.783,1.578,1.578,0,0,1,1.515-1.72c.7,0,1.382-.071,2.068-.134A55.047,55.047,0,0,0,19.22,2.75Zm-.41,29.418c-3.165,0-4.511-1.132-4.511-3.887V22.656c0-2.755,1.346-3.9,4.511-3.9h7.444c3.165,0,4.511,1.141,4.511,3.9v5.58c-.071,3.1-1.694,3.824-4.511,3.887Zm7.06-3.236c.891,0,1.105-.276,1.105-1.07v-4.8c0-.793-.241-1.061-1.105-1.061H19.193c-.891,0-1.105.267-1.105,1.061v4.725c0,.891.312,1.034,1.105,1.07Z" transform="translate(-0.653 -0.646)" fill="#6b6b6b"/>
      <path id="Path_58" data-name="Path 58" d="M44.733,23.607a1.088,1.088,0,0,1,1.141,1.2,23.481,23.481,0,0,1-.891,4.618,1.248,1.248,0,0,1-1.239.963,1.132,1.132,0,0,1-1.2-1.1,1.48,1.48,0,0,1,.1-.517,20,20,0,0,0,.891-4.172A1.123,1.123,0,0,1,44.733,23.607Zm7.5-15.636h2.514c.731,0,1.105.686,1.105,1.382s-.374,1.408-1.105,1.408H52.23V13.24h2.514c.731,0,1.105.686,1.105,1.382s-.374,1.408-1.105,1.408H52.23v2.585h1.694c2.033,0,2.924.963,2.888,2.79a35.426,35.426,0,0,1-.891,8.166c-.686,2.674-2.1,3.405-4.2,3.405a11.268,11.268,0,0,1-1.97-.169,1.6,1.6,0,0,1-1.373-1.658A1.507,1.507,0,0,1,50.2,29.562a6.659,6.659,0,0,0,1.382.134c.722,0,1.034-.205,1.239-1.034a27.786,27.786,0,0,0,.588-3.477.891.891,0,0,1-.793.481.811.811,0,0,1-.749-.562,17.633,17.633,0,0,0-.891-2,.838.838,0,0,1-.143-.481.784.784,0,0,1,.891-.722.963.963,0,0,1,.82.446,10.831,10.831,0,0,1,.891,1.827c0,.1.071.169.1.241,0-.686.071-1.408.071-2.139,0-.517-.169-.722-.758-.722H47.033c-2.166,0-3.067-.793-3.067-2.674V5.493c0-2,.891-3.067,3.619-3.067h7.952a1.346,1.346,0,0,1,1.31,1.48,1.355,1.355,0,0,1-1.31,1.587H52.23ZM48.664,27.637a1.1,1.1,0,0,1-1.105,1.2.891.891,0,0,1-.963-.891,25.558,25.558,0,0,0-.446-3.512.891.891,0,0,1,.963-1.141,1,1,0,0,1,.963.731,19.522,19.522,0,0,1,.579,3.61Zm-.74-22.144c-.615,0-.784.169-.784.722V8H49.27v-2.5Zm1.346,7.782V10.761H47.14V13.24Zm0,2.79H47.14v1.863c0,.579.169.722.784.722H49.27Zm2.068,10.02a1.07,1.07,0,0,1-.963,1.417.954.954,0,0,1-.891-.829,15.154,15.154,0,0,0-.784-2.755.838.838,0,0,1-.071-.41.891.891,0,0,1,.891-.793.972.972,0,0,1,.891.579,15.28,15.28,0,0,1,.927,2.755Zm10.02-2.166c-2.514,0-3.441-.891-3.441-2.826v-3c0-1.926.891-2.79,3.441-2.79H63.7v-1.9h-1.48a1.3,1.3,0,0,1-1.2-1.444,1.622,1.622,0,0,1,.241-.891c-.66.651-1.346,1.239-2,1.783a1.934,1.934,0,0,1-1.248.481,1.783,1.783,0,0,1-1.783-1.783,1.97,1.97,0,0,1,.891-1.515,29.97,29.97,0,0,0,6.891-7.818,1.72,1.72,0,0,1,1.515-.891,1.89,1.89,0,0,1,1.926,1.694,1.337,1.337,0,0,1,0,.374A35.274,35.274,0,0,0,74.24,9.415a2.015,2.015,0,0,1,1,1.694,1.863,1.863,0,0,1-1.854,1.783,2.1,2.1,0,0,1-1.275-.446A18.72,18.72,0,0,1,70.327,11a1.783,1.783,0,0,1,.241.891,1.31,1.31,0,0,1-1.239,1.444H67.019V15.3h2.674c2.514,0,3.441.891,3.441,2.79v2.96c0,1.9-.891,2.826-3.441,2.826H67.554a16.643,16.643,0,0,0,5.821,5.474,2,2,0,0,1,1.105,1.721A1.881,1.881,0,0,1,72.7,32.852a2.1,2.1,0,0,1-1.1-.374,21.029,21.029,0,0,1-6.24-6.338,14.647,14.647,0,0,1-6.472,6.615,2.211,2.211,0,0,1-.963.276,1.7,1.7,0,0,1-.66-3.272,11.339,11.339,0,0,0,5.545-5.928Zm2.273-2.755A22.7,22.7,0,0,0,63.8,18.49v-.428h-2c-.544,0-.722.169-.722.588v1.89c0,.446.312.588.722.588Zm5.687-10.608a1.088,1.088,0,0,1,.481.107,36.3,36.3,0,0,1-4.234-4.377,47.381,47.381,0,0,1-3.9,4.368.891.891,0,0,1,.517-.134Zm-2.3,7.675a28.525,28.525,0,0,1-.169,2.9h2.478c.579,0,.758-.169.758-.588v-1.89c0-.419-.178-.588-.758-.588H67.019Z" transform="translate(-5.038 -0.635)" fill="#6b6b6b"/>
      <path id="Path_59" data-name="Path 59" d="M94.9,18.572a3.512,3.512,0,1,1-3.512-3.512A3.566,3.566,0,0,1,94.9,18.572Z" transform="translate(-9.96 -2.125)" fill="#6b6b6b"/>
      <path id="Path_60" data-name="Path 60" d="M119.634,11.031c2.674,0,3.512,1.1,3.512,3.236v3.958c0,2.139-.891,3.236-3.512,3.236v6.615h2.345c.891,0,1.31.793,1.31,1.622s-.419,1.6-1.31,1.6h-7.132c-3.379,0-4.457-1.408-4.457-4.056V6.689c0-2.674,1.1-4.065,4.457-4.065h7.916c.891,0,1.31.793,1.31,1.622s-.41,1.614-1.31,1.614H119.6Zm-4.653-5.17c-1,0-1.2.241-1.2,1.239v3.931h2.5V5.86Zm3.86,12.48c.793,0,1-.169,1-.793V14.989c0-.615-.205-.793-1-.793h-5.063v4.1ZM116.283,21.5h-2.514v5.349c0,1,.205,1.239,1.2,1.239h1.31ZM139.612,4.621a1.435,1.435,0,0,1,1.346,1.587,1.444,1.444,0,0,1-1.346,1.622h-11.09a26.557,26.557,0,0,1-1.783,2.755,2.033,2.033,0,0,1-1.622.891,1.729,1.729,0,0,1-1.783-1.614,1.943,1.943,0,0,1,.455-1.177A23.971,23.971,0,0,0,127.3,2.143,1.783,1.783,0,0,1,129,.94a1.676,1.676,0,0,1,1.783,1.515,1.542,1.542,0,0,1-.143.651c-.169.481-.374,1-.615,1.515ZM126.659,32.069c-2.1,0-2.826-.891-2.826-2.924V23.359c0-2,.793-2.924,2.9-2.924h2.1c2.059,0,2.888.891,2.888,2.888v5.821c0,2.068-.829,2.9-2.888,2.924Zm3.414-13.5c-2.451,0-3.236-.722-3.236-2.9V13.1c0-2.139.963-2.933,3.405-2.933h4.618c2.443,0,3.405.793,3.405,2.933v2.514c0,2.407-1.07,2.924-3.307,2.96Zm-1.934,10.644c.446,0,.588-.205.588-.624v-4.68c0-.446-.169-.624-.588-.624h-.722c-.41,0-.579.178-.579.624v4.716c0,.383.169.624.579.624Zm6.026-13.327c.66,0,.793-.178.793-.66V13.473c0-.481-.134-.651-.793-.651h-3.236c-.651,0-.793.169-.793.651v1.783c0,.553.276.66.793.66Zm1.783,16.18c-2.095,0-2.817-.891-2.817-2.924V23.359c0-2,.758-2.924,2.853-2.924h2.211c2.059,0,2.888.891,2.888,2.888v5.821c0,2.068-.829,2.9-2.888,2.924Zm1.551-2.853c.455,0,.588-.205.588-.624v-4.68c0-.446-.169-.624-.588-.624h-.793c-.41,0-.579.178-.579.624v4.716c0,.383.169.624.579.624Z" transform="translate(-12.403 -0.592)" fill="#6b6b6b"/>
      <path id="Path_61" data-name="Path 61" d="M165.232,2.038c0-.891.891-1.408,1.854-1.408s1.827.481,1.827,1.408v2.79h11.161a1.462,1.462,0,0,1,1.346,1.622,1.471,1.471,0,0,1-1.346,1.64H159.027c-1.551,0-2,.446-2,1.622V14.26c0,6.713-1.07,11.883-3.307,16.224a2.068,2.068,0,0,1-1.854,1.2,1.783,1.783,0,0,1-1.9-1.783,2.371,2.371,0,0,1,.312-1.105c2-3.824,2.96-8.433,2.96-14.709V8.929c0-2.79,1.382-4.1,4.894-4.1h7.132Zm5.607,23.6V31.59a1.783,1.783,0,1,1-3.566,0V25.635l.1-4.992a30.479,30.479,0,0,1-7.952,8.469,1.961,1.961,0,0,1-1.2.41,1.667,1.667,0,0,1-1.658-1.649,1.783,1.783,0,0,1,.829-1.48,31,31,0,0,0,8.3-8.995h-5.438a1.453,1.453,0,0,1-1.382-1.614,1.444,1.444,0,0,1,1.382-1.622h7.025V10.819a1.783,1.783,0,0,1,3.566,0v3.343h8.2a1.471,1.471,0,0,1,1.408,1.622A1.48,1.48,0,0,1,179.04,17.4h-7.025a30.951,30.951,0,0,0,9.432,8.13,1.979,1.979,0,0,1,1.177,1.72,1.836,1.836,0,0,1-1.783,1.827,2.264,2.264,0,0,1-1.168-.339,31.825,31.825,0,0,1-8.914-8.273Z" transform="translate(-16.7 -0.559)" fill="#6b6b6b"/>
      <path id="Path_62" data-name="Path 62" d="M194.373,19.5c-.169.276-.312.481-.446.722a1.872,1.872,0,0,1-1.587.891,1.658,1.658,0,0,1-1.72-1.551,2.157,2.157,0,0,1,.446-1.239A31.976,31.976,0,0,0,195.2,7.091h-2.621a1.489,1.489,0,0,1-1.373-1.649,1.489,1.489,0,0,1,1.373-1.649h9.966a1.5,1.5,0,0,1,1.408,1.649A1.5,1.5,0,0,1,202.548,7.1h-3.833a43.371,43.371,0,0,1-1.515,6.169h3.067c2.309,0,3.1.963,3.1,3.236v9.726c0,2.273-.731,3.2-3.1,3.236H197.4c-2.309,0-3.093-.963-3.093-3.236V22.843Zm4.823,6.927c.553,0,.722-.169.722-.829V17.129c0-.66-.169-.829-.722-.829H198.4c-.553,0-.722.169-.722.829V25.6c0,.553.107.829.722.829Zm12.676-9.164c-.481,6.891-2.139,11.161-5.349,14.78a2.157,2.157,0,0,1-1.587.758,1.836,1.836,0,0,1-1.89-1.783,2.273,2.273,0,0,1,.651-1.489c2.55-2.853,3.958-6.2,4.413-12.293h-2.478a1.507,1.507,0,0,1-1.453-1.649,1.507,1.507,0,0,1,1.453-1.658h2.612V6.8h-1.827a1.507,1.507,0,0,1-1.444-1.658,1.506,1.506,0,0,1,1.444-1.649h14.5a1.507,1.507,0,0,1,1.48,1.649A1.516,1.516,0,0,1,220.92,6.8h-2.175v7.132h3.138a1.515,1.515,0,0,1,1.48,1.658,1.507,1.507,0,0,1-1.48,1.649h-3.138V31.455a1.881,1.881,0,0,1-3.717,0V17.263Zm.134-4.68v1.373h3.1V6.824h-3.067Z" transform="translate(-21.112 -0.869)" fill="#6b6b6b"/>
      <path id="Path_63" data-name="Path 63" d="M251.16,18.183c2.96-.062,4.127,1.105,4.127,3.691v6.16c0,.758.348.936,2.416.936,2.407,0,3.031-.419,3.2-2.621a1.685,1.685,0,0,1,1.827-1.515,1.64,1.64,0,0,1,1.783,1.783c-.276,3.994-1.587,5.509-6.962,5.509-5.161,0-5.991-.829-5.991-3.343V22.177c0-.722-.169-.891-1.034-.891l-3.566.071c-1.587,5.572-5.438,9.057-11.74,11.366a2.193,2.193,0,0,1-.758.134,1.783,1.783,0,0,1-1.783-1.783,1.7,1.7,0,0,1,1.2-1.587c4.716-1.783,7.747-4.163,9.164-8.023l-7,.143a1.48,1.48,0,0,1-1.444-1.622,1.373,1.373,0,0,1,1.346-1.551l7.88-.134c.107-.891.178-1.863.214-2.9a1.638,1.638,0,0,1,1.854-1.515c.963,0,1.9.517,1.863,1.587s-.107,1.89-.205,2.755ZM246.337,1.967c0-.972.891-1.417,1.89-1.417S250.09,1,250.09,1.967V4.027h8.54c3.236,0,4.546.972,4.546,3.45v1.2a1.667,1.667,0,0,1-1.863,1.515,2.442,2.442,0,0,1-.891-.169,1.426,1.426,0,0,1,.062.651c-.3,2.924-1.685,3.9-5.919,3.9s-5.233-.7-5.233-3.209V7h-4.377a1.48,1.48,0,0,1,.963,1.337,1.515,1.515,0,0,1-.134.624c-1.382,3.343-5.206,6.3-9.44,7.577a1.391,1.391,0,0,1-.517.071,1.685,1.685,0,0,1-1.649-1.694,1.56,1.56,0,0,1,1.2-1.515c3.566-1.1,6.1-3.129,7.23-5.643A1.7,1.7,0,0,1,243.333,7h-4.921c-.963,0-1.275.3-1.275,1.025V9.866a1.649,1.649,0,0,1-1.783,1.515,1.667,1.667,0,0,1-1.863-1.515V7.477c0-2.478,1.275-3.45,4.52-3.45h8.326Zm6.472,8.915c0,.758.241.891,1.89.891,2.006,0,2.345-.276,2.487-1.382a1.5,1.5,0,0,1,1.649-1.2,1.631,1.631,0,0,1,.722.143,1.73,1.73,0,0,1-.1-.588V8.02c0-.749-.241-1.025-1.248-1.025h-5.367Z" transform="translate(-25.678 -0.55)" fill="#6b6b6b"/>
      <path id="Path_64" data-name="Path 64" d="M291.149,9.957c-4.127.553-9.6,1.382-14.566,2.1a1.908,1.908,0,0,1-2.273-1.934,1.845,1.845,0,0,1,1.783-1.89c7.132-.891,16.046-1.9,23.178-2.55a1.783,1.783,0,0,1,2.068,1.827,1.854,1.854,0,0,1-1.587,1.854,12.026,12.026,0,0,0-3.789,1.382c-5.349,3.067-6.508,6.65-6.508,9.922,0,3.815,2.674,6.16,7.47,6.748a2.041,2.041,0,1,1-.374,4.065c-6.508-.482-11.09-4.859-11.09-10.7a13.9,13.9,0,0,1,5.643-10.7Zm5.063,5.545a1.444,1.444,0,0,1,2.416-.891,17.257,17.257,0,0,1,2.674,3,1.435,1.435,0,0,1,.312.891,1.409,1.409,0,0,1-1.382,1.382,1.373,1.373,0,0,1-1.132-.66,25.6,25.6,0,0,0-2.55-2.924,1.239,1.239,0,0,1-.339-.793Zm3.414-2.755a1.382,1.382,0,0,1,1.444-1.275,1.7,1.7,0,0,1,1.034.41,17.832,17.832,0,0,1,2.674,2.826,1.658,1.658,0,0,1,.374,1.034,1.346,1.346,0,0,1-1.382,1.31,1.489,1.489,0,0,1-1.2-.624c-.793-1-1.783-2.033-2.549-2.853a1.132,1.132,0,0,1-.392-.829Z" transform="translate(-30.197 -1.105)" fill="#6b6b6b"/>
      <path id="Path_65" data-name="Path 65" d="M28.364,113v9.467c0,1.515-1.462,2.273-2.924,2.273s-2.924-.758-2.924-2.273V113l.223-9.681A62.134,62.134,0,0,1,4.82,119.067a3.066,3.066,0,0,1-1.569.437A2.674,2.674,0,0,1,2,114.413a59.237,59.237,0,0,0,17.7-15.484H3.662c-1.408,0-2.166-1.346-2.166-2.674s.758-2.674,2.166-2.674H22.516V87.447H7.9a2.734,2.734,0,0,1,0-5.349H22.516V75.27c0-1.515,1.462-2.22,2.924-2.22s2.924.7,2.924,2.22v6.873H43.518c1.462,0,2.22,1.3,2.22,2.674s-.758,2.674-2.22,2.674H28.364V93.66H47.681c1.462,0,2.22,1.3,2.22,2.674s-.758,2.674-2.22,2.674H30.744a52.185,52.185,0,0,0,18.025,13.969,3.147,3.147,0,0,1,2.006,2.817,3.067,3.067,0,0,1-2.977,3.084,3.637,3.637,0,0,1-1.569-.437A52.07,52.07,0,0,1,28.15,103.074Z" transform="translate(-0.472 -8.42)" fill="#6b6b6b" stroke="#6b6b6b" stroke-miterlimit="10" stroke-width="1"/>
      <path id="Path_66" data-name="Path 66" d="M97.6,114.4v8.228c0,1.515-1.462,2.273-2.924,2.273s-2.924-.758-2.924-2.273V114.4l.214-7.907a59.727,59.727,0,0,1-17.963,14.45,3.289,3.289,0,0,1-1.622.437,2.755,2.755,0,0,1-2.674-2.674,2.674,2.674,0,0,1,1.569-2.327A57.855,57.855,0,0,0,88.6,102.744H72.9a2.674,2.674,0,0,1,0-5.188H91.738V85.227H75.121a2.642,2.642,0,0,1,0-5.2H91.738V75.27c0-1.515,1.462-2.22,2.924-2.22s2.924.7,2.924,2.22v4.76H114.1a2.674,2.674,0,0,1,0,5.2H97.6V97.52h18.943a2.63,2.63,0,0,1,0,5.188H100.278a51.749,51.749,0,0,0,17.758,12.347,2.853,2.853,0,0,1,1.89,2.674,3.013,3.013,0,0,1-2.915,3.084,3.566,3.566,0,0,1-1.462-.321A52.4,52.4,0,0,1,97.363,106.15ZM87.468,91.726A3.762,3.762,0,0,1,88,93.562a2.844,2.844,0,0,1-2.879,2.764A3.067,3.067,0,0,1,82.449,94.6,27.333,27.333,0,0,0,80.1,90.834a2.906,2.906,0,0,1-.651-1.783,2.674,2.674,0,0,1,2.764-2.541A3.174,3.174,0,0,1,84.7,87.759,24.524,24.524,0,0,1,87.468,91.726Zm19.808-5.518a2.674,2.674,0,0,1,2.862,2.541,3.289,3.289,0,0,1-.374,1.462,33.367,33.367,0,0,1-3.138,5.028,2.844,2.844,0,0,1-2.38,1.248,2.55,2.55,0,0,1-2.273-4.163,40.2,40.2,0,0,0,2.808-4.6A2.763,2.763,0,0,1,107.276,86.208Z" transform="translate(-7.987 -8.42)" fill="#6b6b6b" stroke="#6b6b6b" stroke-miterlimit="10" stroke-width="1"/>
      <path id="Path_67" data-name="Path 67" d="M149.555,94.772a11.865,11.865,0,0,1,4.234-.838c3.4,0,5.607,1.034,6.891,4.671a128.515,128.515,0,0,1,12.293-4.457,4.137,4.137,0,0,1,.99-.143,2.621,2.621,0,0,1,.588,5.161c-4.279,1.284-8.656,2.764-12.792,4.457.25,1.783.348,3.985.446,6.543a2.576,2.576,0,0,1-2.808,2.558,2.389,2.389,0,0,1-2.6-2.264c-.053-1.863-.152-3.441-.25-4.769-5.117,2.6-6.294,4.823-6.294,6.641s1.783,3.049,7.426,3.049a57.523,57.523,0,0,0,9.547-.838,2.674,2.674,0,0,1,3.191,2.674,2.719,2.719,0,0,1-2.46,2.674,57.819,57.819,0,0,1-10.082.784c-9.3,0-13.238-3.1-13.238-7.925,0-3.931,2.318-7.72,11.072-12.1-.642-1.854-1.694-2.264-3.477-2.264s-5.411,1.328-10.082,5.072a2.96,2.96,0,0,1-1.783.633,2.674,2.674,0,0,1-2.674-2.6,2.853,2.853,0,0,1,1.132-2.166,46.445,46.445,0,0,0,8.308-9.592c-1.917.143-3.682.2-5.349.241a2.541,2.541,0,1,1,0-5.063c2.318,0,5.072-.152,7.925-.348.838-1.961,1.578-3.887,2.166-5.705a2.674,2.674,0,0,1,5.215.49,1.925,1.925,0,0,1-.1.74,39.612,39.612,0,0,1-1.48,3.887c2.558-.25,5.019-.588,7.132-.981a2.327,2.327,0,0,1,2.951,2.309,2.469,2.469,0,0,1-2.166,2.46c-3.1.544-6.793,1.079-10.43,1.426-1.23,2.015-2.46,3.887-3.646,5.465Z" transform="translate(-15.367 -8.845)" fill="#6b6b6b" stroke="#6b6b6b" stroke-miterlimit="10" stroke-width="1"/>
      <path id="Path_68" data-name="Path 68" d="M207.968,91.8a62.3,62.3,0,0,1-7.354,10.43,4.529,4.529,0,0,1-3.388,1.667,3.512,3.512,0,0,1-3.566-3.459,4.074,4.074,0,0,1,1.212-2.817c5.179-5.625,10.43-15.03,13.113-23.855a3.566,3.566,0,0,1,3.566-2.558,3.459,3.459,0,0,1,3.708,3.254,3.708,3.708,0,0,1-.187,1.159,63.151,63.151,0,0,1-3.708,9.654h31.852a3.272,3.272,0,0,1,0,6.525H228.953c-1.408,14.584-8.317,26.806-19.059,33.777a4.172,4.172,0,0,1-2.309.7,3.619,3.619,0,0,1-3.646-3.512,4,4,0,0,1,1.917-3.263c9.218-6.24,14.263-14.843,15.609-27.706Zm23.543-17.615a2.612,2.612,0,0,1,2.674-2.371,2.576,2.576,0,0,1,1.926.891,34.169,34.169,0,0,1,4.457,6.008,2.835,2.835,0,0,1,.446,1.533,2.621,2.621,0,0,1-2.621,2.567,2.478,2.478,0,0,1-2.175-1.409,45.672,45.672,0,0,0-4.225-5.821,2.149,2.149,0,0,1-.481-1.4Zm6.784-4.457a2.487,2.487,0,0,1,2.621-2.246,2.96,2.96,0,0,1,2.113.891,32.217,32.217,0,0,1,4.457,5.687,3.476,3.476,0,0,1,.579,1.729,2.514,2.514,0,0,1-2.567,2.5,2.888,2.888,0,0,1-2.407-1.426,70.262,70.262,0,0,0-4.225-5.759A2.2,2.2,0,0,1,238.295,69.726Z" transform="translate(-21.442 -7.815)" fill="#6b6b6b" stroke="#6b6b6b" stroke-miterlimit="10" stroke-width="1"/>
      <path id="Path_69" data-name="Path 69" d="M284.965,86.725a3.762,3.762,0,0,1,1.159,2.755,4.324,4.324,0,0,1-4.1,4.217,4.083,4.083,0,0,1-2.879-1.275,91.946,91.946,0,0,0-8.7-7.738A3.566,3.566,0,0,1,268.91,81.8a4.136,4.136,0,0,1,4.1-3.9,4.636,4.636,0,0,1,2.559.829A57.5,57.5,0,0,1,284.965,86.725Zm28.152-1.854a3.726,3.726,0,0,1,3.9,3.566,3.816,3.816,0,0,1-.642,2.041,76.772,76.772,0,0,1-39.536,33.652,4.457,4.457,0,0,1-1.729.321,3.9,3.9,0,0,1-3.833-3.9,3.45,3.45,0,0,1,2.5-3.388c14.522-5.5,28.4-16.572,36.077-30.265a3.655,3.655,0,0,1,3.263-2.024Z" transform="translate(-29.611 -8.946)" fill="#6b6b6b" stroke="#6b6b6b" stroke-miterlimit="10" stroke-width="1"/>
      <path id="Path_70" data-name="Path 70" d="M354.067,74.146c-.446-2.371,1.658-3.717,3.708-3.717A3.334,3.334,0,0,1,361.3,73.1l1.854,10.43,14.459-2.246c2.425-.383,3.833,1.6,3.833,3.566a2.969,2.969,0,0,1-2.621,3.022L364.3,90.112l1.6,9.021L384.617,96a3.289,3.289,0,0,1,3.842,3.45,3.076,3.076,0,0,1-2.63,3.138l-18.8,3.138,3.067,17.267c.446,2.371-1.6,3.78-3.646,3.78a3.334,3.334,0,0,1-3.521-2.755l-3.067-17.08-18.72,3.138c-2.362.383-3.771-1.6-3.771-3.566a3.067,3.067,0,0,1,2.621-3.138l18.72-3.129-1.6-9.084-14.326,2.238c-2.371.383-3.708-1.6-3.708-3.566a2.924,2.924,0,0,1,2.621-3.129l14.2-2.175Z" transform="translate(-37.042 -8.134)" fill="#6b6b6b" stroke="#6b6b6b" stroke-miterlimit="10" stroke-width="1"/>
      <path id="Path_71" data-name="Path 71" d="M415.055,81c1.578,0,3.147,1.034,2.808,3.049A102.6,102.6,0,0,0,415.6,105.8a96.061,96.061,0,0,0,.891,11.589,2.845,2.845,0,0,1-5.652.588,96.189,96.189,0,0,1-.838-12.15,110.946,110.946,0,0,1,2.309-22.732A2.674,2.674,0,0,1,415.055,81Zm22.34,30.309a40.465,40.465,0,0,0,7.426-.731,2.674,2.674,0,0,1,3.2,2.674,2.559,2.559,0,0,1-2.166,2.612,43.156,43.156,0,0,1-8.513.838c-9.1,0-12.89-2.755-13.425-8.709a2.746,2.746,0,0,1,2.853-3,2.4,2.4,0,0,1,2.505,2.113C429.719,110.168,431.243,111.309,437.394,111.309Zm7.773-23.32a2.674,2.674,0,0,1-2.514,2.674,125.157,125.157,0,0,1-13.871,1.079,2.585,2.585,0,0,1-2.853-2.674,2.612,2.612,0,0,1,2.674-2.674,120.184,120.184,0,0,0,13.488-1.025,2.594,2.594,0,0,1,3.076,2.6Z" transform="translate(-44.926 -9.282)" fill="#6b6b6b" stroke="#6b6b6b" stroke-miterlimit="10" stroke-width="1"/>
      <path id="Path_72" data-name="Path 72" d="M484.262,117.5a9.066,9.066,0,1,1-9.039-8.915,8.914,8.914,0,0,1,9.039,8.915Zm-14.4,0a5.349,5.349,0,1,0,5.349-5.349,5.269,5.269,0,0,0-5.349,5.349Z" transform="translate(-51.019 -12.278)" fill="#6b6b6b" stroke="#6f6f6f" stroke-miterlimit="10" stroke-width="1"/>
    </g>
  </g>
</svg>
