<svg xmlns="http://www.w3.org/2000/svg" xmlns:xlink="http://www.w3.org/1999/xlink" width="466" height="400" viewBox="0 0 466 400">
  <defs>
    <clipPath id="clip-path">
      <rect id="Rectangle_5373" data-name="Rectangle 5373" width="466" height="400" transform="translate(20.55 4)" fill="none"/>
    </clipPath>
  </defs>
  <g id="レイヤー_1" data-name="レイヤー 1" transform="translate(-20.55 -4)">
    <g id="Group_29" data-name="Group 29" clip-path="url(#clip-path)">
      <rect id="Rectangle_5359" data-name="Rectangle 5359" width="479.21" height="403.98" transform="translate(16.33)" fill="#d8dcec"/>
      <g id="Group_27" data-name="Group 27" opacity="0.5">
        <path id="Path_1995" data-name="Path 1995" d="M158.86,150.78H-20.08a.47.47,0,0,1-.47-.47V56.89a.47.47,0,0,1,.47-.47H158.86a.47.47,0,0,1,.47.47v93.42A.47.47,0,0,1,158.86,150.78Zm-178.47-.94h178V57.36h-178Z" transform="translate(20.55 4)" fill="#3c50a0"/>
        <path id="Path_1996" data-name="Path 1996" d="M158.86,119.64H-20.08a.47.47,0,0,1-.47-.47.47.47,0,0,1,.47-.47H158.86a.47.47,0,0,1,0,.94Z" transform="translate(20.55 4)" fill="#3c50a0"/>
        <path id="Path_1997" data-name="Path 1997" d="M158.86,88.5H-20.08a.47.47,0,0,1-.47-.47.47.47,0,0,1,.47-.47H158.86a.47.47,0,0,1,0,.94Z" transform="translate(20.55 4)" fill="#3c50a0"/>
        <path id="Path_1998" data-name="Path 1998" d="M99.21,150.78a.47.47,0,0,1-.46-.47V56.89a.47.47,0,1,1,.93,0v93.42A.47.47,0,0,1,99.21,150.78Z" transform="translate(20.55 4)" fill="#3c50a0"/>
        <path id="Path_1999" data-name="Path 1999" d="M39.57,150.78a.47.47,0,0,1-.47-.47V56.89a.47.47,0,1,1,.94,0v93.42A.47.47,0,0,1,39.57,150.78Z" transform="translate(20.55 4)" fill="#3c50a0"/>
      </g>
      <path id="Path_2000" data-name="Path 2000" d="M264.39,253.16,186,277.09l-82.82,59.2-10,63.65s32.6.06,78.2.08c98.82,0,258.72-.14,280.52-1.61-35.08-46.7-93.08-128.33-93.08-128.33l-60.14-13.34Z" transform="translate(20.55 4)" fill="#fff"/>
      <path id="Path_2001" data-name="Path 2001" d="M202.05,381.66s-21.4,13.63-34.42,16.75,38.93,1.44,38.93,1.44Z" transform="translate(20.55 4)" fill="#3c50a0" opacity="0.5"/>
      <path id="Path_2002" data-name="Path 2002" d="M254.75,266.38l1.19,29.2,27.59,13.85-11.84,18,47.77,73.85h3.62l30.51-83.51-7.5-13.32,13.24-11.53-13.34-26.26-87.64-1.38Z" fill="#3c50a0" opacity="0.5"/>
      <path id="Path_2003" data-name="Path 2003" d="M272.81,236.12l-34.87,25.16,9.36,34.58,23.63,3.76s-11.25,15.57-9.65,17.72,42.07,71.05,42.07,71.05l26.19-76.14-11-14.64s17-7.84,16.46-10-9.46-25-9.46-25L302.28,245Z" transform="translate(20.55 4)" fill="#fff"/>
      <path id="Path_2004" data-name="Path 2004" d="M311.56,147.85s-27.38,1.07-36.51,14,1.07,30.81-4.3,41.18,0,27,4.08,28S311.56,147.85,311.56,147.85Z" transform="translate(20.55 4)" fill="#3c50a0"/>
      <path id="Path_2005" data-name="Path 2005" d="M308.74,203.45l-25.95,61.33L320,340.29l10.98-71.87-4.52-6.02,16.47-53.9Z" fill="#ffb27d"/>
      <path id="Path_2006" data-name="Path 2006" d="M358.54,306.24c.36,39.74-14.32,93.08-14.32,93.08s4.66,2,5.37,0,4.66,0,4.66,0,4.29-26.3,5.37-46.08S358.54,306.24,358.54,306.24Z" transform="translate(20.55 4)" fill="#3c50a0" opacity="0.5"/>
      <path id="Path_2007" data-name="Path 2007" d="M181,373.91c6.5-6,41.35-32,51.08-47.36,2-3.23.37-9,0-10.64,22-3.66,26.23-12.19,26.23-12.19l-21.94-27.87S206.82,283,183,291.51c-12.71,4.52-36.83,16.21-56.56,26.13l-23.22,18.65-4,25.44c.79,4.91,1.5,8.61,1.89,9.06,1.23,1.41,2.57,27.42,2.65,29.06h.73C110.6,399.1,149.11,403.06,181,373.91Z" transform="translate(20.55 4)" fill="#3c50a0" opacity="0.5"/>
      <path id="Path_2008" data-name="Path 2008" d="M246,269.29c8.1-2.52,14.38-1.67,11.71,2.41a32.359,32.359,0,0,1-3.73,4.15l-17.59-2.65Z" transform="translate(20.55 4)" fill="#3c50a0"/>
      <path id="Path_2009" data-name="Path 2009" d="M387.59,319.12l-1.07,2.89L256.09,276.17l2.6-7.03Z" fill="#fff"/>
      <path id="Path_2010" data-name="Path 2010" d="M366.2,318.49l-.35-.12-130.79-46,2.86-7.74.36.13L367.52,314.9ZM236,271.94l129.72,45.6.82-2.2L238.36,265.63Z" transform="translate(20.55 4)" fill="#2e5b9a"/>
      <path id="Path_2011" data-name="Path 2011" d="M416.08,349.65c32.43-8.15,54.88-1.88,68.48,26.37,5.05,10.5,7.76,22.35,4.24,21.81s-55.44.58-55.44.58Z" transform="translate(20.55 4)" fill="#fff"/>
      <path id="Path_2012" data-name="Path 2012" d="M245,269.83c-1.32,4.45-8.21,6.33-15.38,4.2s-11.91-7.47-10.59-11.92,8.21-6.34,15.38-4.21S246.35,265.37,245,269.83Z" transform="translate(20.55 4)" fill="#a074c4"/>
      <path id="Path_2013" data-name="Path 2013" d="M293.17,300.05c-1.7-3.19-19.71-10.31-16.69-9.29s12.64,4.32,9.61.77-26.17-19.25-33.54-19.45c-6.9-.19-16.56-1.4-21.42,2.33a88.53,88.53,0,0,1-22.57,12.87s-7.22,2.79-7.55,2.85c-15.29,2.69-23.44,57.64-23.44,57.64,1.94,0,35.32-26.56,51.2-39.13,3.14,1.09,13.09.61,20.94-3.47A105,105,0,0,0,260,298.59s10.72,3.09,13.84,3.93C282.22,304.77,294.87,303.24,293.17,300.05Z" transform="translate(20.55 4)" fill="#3c50a0"/>
      <path id="Path_2014" data-name="Path 2014" d="M98.76,339.69c-13.49,16.16-16.56,56.58-2.23,58.53,33.62,4.58,130.08-74.94,130.08-74.94L211,285.76S118,316.64,98.76,339.69Z" transform="translate(20.55 4)" fill="#fff"/>
      <path id="Path_2015" data-name="Path 2015" d="M364.81,316.85a.87.87,0,0,1-.32-.06l-15.41-5.64a.94.94,0,1,1,.64-1.76L365.13,315a.94.94,0,0,1-.32,1.82Z" transform="translate(20.55 4)" fill="#3c50a0"/>
      <path id="Path_2016" data-name="Path 2016" d="M346.82,310.26a.89.89,0,0,1-.32-.05l-3.77-1.38a.94.94,0,1,1,.64-1.76l3.77,1.38a.93.93,0,0,1-.32,1.81Z" transform="translate(20.55 4)" fill="#9ec8ff"/>
      <path id="Path_2017" data-name="Path 2017" d="M340.29,307.88a.911.911,0,0,1-.32-.06L308,296.13a.94.94,0,1,1,.64-1.76l31.94,11.69a.93.93,0,0,1,.56,1.2.94.94,0,0,1-.85.62Z" transform="translate(20.55 4)" fill="#3c50a0"/>
      <path id="Path_2018" data-name="Path 2018" d="M302.54,294.06a.87.87,0,0,1-.32-.06l-8.7-3.18a.93.93,0,0,1-.55-1.2.94.94,0,0,1,1.2-.56l8.69,3.19a.93.93,0,0,1-.32,1.81Z" transform="translate(20.55 4)" fill="#3c50a0"/>
      <path id="Path_2019" data-name="Path 2019" d="M289.78,289.39a1.13,1.13,0,0,1-.32-.05l-7.37-2.7a.94.94,0,1,1,.64-1.76l7.37,2.7a.93.93,0,0,1-.32,1.81Z" transform="translate(20.55 4)" fill="#3c50a0"/>
      <path id="Path_2020" data-name="Path 2020" d="M348.1,389.08a5.88,5.88,0,0,1-5.88-5.88V323.43H354V383.2a5.89,5.89,0,0,1-5.9,5.88Z" transform="translate(20.55 4)" fill="#fff"/>
      <path id="Path_2021" data-name="Path 2021" d="M348.1,389.46a6.27,6.27,0,0,1-6.26-6.26V323.05h12.52V383.2A6.26,6.26,0,0,1,348.1,389.46Zm-5.51-65.66v59.4a5.52,5.52,0,0,0,11,0V323.8Z" transform="translate(20.55 4)" fill="#2e5b9a"/>
      <path id="Path_2022" data-name="Path 2022" d="M367.05,389.08a5.88,5.88,0,0,1-5.89-5.88V323.43h11.77V383.2a5.88,5.88,0,0,1-5.88,5.88Z" transform="translate(20.55 4)" fill="#fff"/>
      <path id="Path_2023" data-name="Path 2023" d="M367.05,389.46a6.27,6.27,0,0,1-6.27-6.26V323.05h12.53V383.2A6.27,6.27,0,0,1,367.05,389.46Zm-5.52-65.66v59.4a5.52,5.52,0,0,0,11,0V323.8Z" transform="translate(20.55 4)" fill="#2e5b9a"/>
      <path id="Path_2024" data-name="Path 2024" d="M386.77,389.08a5.89,5.89,0,0,1-5.89-5.88V323.43h11.77V383.2a5.88,5.88,0,0,1-5.88,5.88Z" transform="translate(20.55 4)" fill="#fff"/>
      <path id="Path_2025" data-name="Path 2025" d="M386.77,389.46a6.27,6.27,0,0,1-6.26-6.26V323.05H393V383.2a6.27,6.27,0,0,1-6.23,6.26Zm-5.51-65.66v59.4a5.51,5.51,0,1,0,11,0V323.8Z" transform="translate(20.55 4)" fill="#2e5b9a"/>
      <path id="Path_2026" data-name="Path 2026" d="M386.77,386.33a4.17,4.17,0,0,1-4.17-4.17V339.78h8.34v42.38a4.17,4.17,0,0,1-4.17,4.17Z" transform="translate(20.55 4)" fill="#3c50a0"/>
      <path id="Path_2027" data-name="Path 2027" d="M367.05,386.33a4.18,4.18,0,0,1-4.18-4.17v-24.9h8.35v24.9A4.17,4.17,0,0,1,367.05,386.33Z" transform="translate(20.55 4)" fill="#3c50a0"/>
      <path id="Path_2028" data-name="Path 2028" d="M405.71,389.08a5.89,5.89,0,0,1-5.89-5.88V323.43H411.6V383.2a5.89,5.89,0,0,1-5.89,5.88Z" transform="translate(20.55 4)" fill="#fff"/>
      <path id="Path_2029" data-name="Path 2029" d="M405.71,389.46a6.27,6.27,0,0,1-6.26-6.26V323.05H412V383.2a6.27,6.27,0,0,1-6.29,6.26ZM400.2,323.8v59.4a5.51,5.51,0,1,0,11,0V323.8Z" transform="translate(20.55 4)" fill="#2e5b9a"/>
      <path id="Path_2030" data-name="Path 2030" d="M405.71,386.36a4.05,4.05,0,0,1-4.06-4.05V335.45h8.12v46.86a4.05,4.05,0,0,1-4.06,4.05Z" transform="translate(20.55 4)" fill="#3c50a0"/>
      <path id="Path_2031" data-name="Path 2031" d="M368,335.62l.47,10.18a1.41,1.41,0,1,1-2.81.13v-.13l.47-10.18a.94.94,0,0,1,1-.9A1,1,0,0,1,368,335.62Z" transform="translate(20.55 4)" fill="#3c50a0"/>
      <path id="Path_2032" data-name="Path 2032" d="M368,318.77l.41,10.51a1.35,1.35,0,1,1-2.69.11v-.11l.41-10.51a.94.94,0,0,1,1.87,0Z" transform="translate(20.55 4)" fill="#3c50a0"/>
      <rect id="Rectangle_5360" data-name="Rectangle 5360" width="95.23" height="6.19" rx="2.13" transform="translate(350.09 367.06)" fill="#f5dc95"/>
      <rect id="Rectangle_5361" data-name="Rectangle 5361" width="95.23" height="6.19" rx="2.13" transform="translate(350.09 395.09)" fill="#f5dc95"/>
      <rect id="Rectangle_5362" data-name="Rectangle 5362" width="6.16" height="28.03" rx="1.83" transform="translate(352.52 370.15)" fill="#f5dc95"/>
      <rect id="Rectangle_5363" data-name="Rectangle 5363" width="5.66" height="28.03" rx="1.75" transform="translate(437.26 370.15)" fill="#f5dc95"/>
      <path id="Path_2033" data-name="Path 2033" d="M288.27,240.77c8.71,32.9,27.71,32.54,36.05,32.54,6.73,0,12.32-4,15.84-7.39l-14.57-3.23h0L302.28,245Z" transform="translate(20.55 4)" fill="#9ec8ff" opacity="0.3"/>
      <path id="Path_2034" data-name="Path 2034" d="M288.19,199.45l-4.2,9.93c1.87,42.47,13.87,59.14,25.09,63.93l1.35-8.89-4.51-6,16.46-53.9Z" transform="translate(20.55 4)" fill="#e2915a"/>
      <path id="Path_2035" data-name="Path 2035" d="M383.79,182.75c-11.55,19.33-15.25,23.94-27.76,24.86S357.1,175,357.1,175Z" transform="translate(20.55 4)" fill="#3c50a0"/>
      <ellipse id="Ellipse_27" data-name="Ellipse 27" cx="46.94" cy="36.82" rx="46.94" ry="36.82" transform="translate(306.452 246.523) rotate(-81.29)" fill="#ffb27d"/>
      <path id="Path_2036" data-name="Path 2036" d="M49.8,318.94V285.59H27.68v33.35a7.11,7.11,0,0,1-.2,1.66L10.07,391.24a6.93,6.93,0,0,0,6.73,8.59H60.68a6.93,6.93,0,0,0,6.73-8.59L50,320.6A7.109,7.109,0,0,1,49.8,318.94Z" transform="translate(20.55 4)" fill="#fff"/>
      <path id="Path_2037" data-name="Path 2037" d="M60.68,400.2H16.8a7.3,7.3,0,0,1-7.09-9.05l17.4-70.64a6.37,6.37,0,0,0,.19-1.57V285.22H50.18v33.72a6.37,6.37,0,0,0,.19,1.57l17.4,70.64a7.3,7.3,0,0,1-7.09,9.05ZM28.05,286v33a7.35,7.35,0,0,1-.21,1.75l-17.4,70.64a6.55,6.55,0,0,0,6.36,8.12H60.68A6.55,6.55,0,0,0,67,391.33L49.6,320.69a7.35,7.35,0,0,1-.21-1.75V286Z" transform="translate(20.55 4)" fill="#3c50a0"/>
      <path id="Path_2038" data-name="Path 2038" d="M49,325.7c-2.23-.05-12.18,3.33-21.6,2.85L13.5,386.6c-.85,4.27,1.75,8.4,5.28,8.4H58.7c3.53,0,6.13-4.13,5.28-8.4Z" transform="translate(20.55 4)" fill="#3c50a0"/>
      <path id="Path_2039" data-name="Path 2039" d="M50.05,345a4.17,4.17,0,1,1-4.17-4.17A4.17,4.17,0,0,1,50.05,345Z" transform="translate(20.55 4)" fill="#fff"/>
      <path id="Path_2040" data-name="Path 2040" d="M35.63,323.82A1.86,1.86,0,1,1,33.77,322a1.86,1.86,0,0,1,1.86,1.82Z" transform="translate(20.55 4)" fill="#3c50a0"/>
      <circle id="Ellipse_28" data-name="Ellipse 28" cx="1.91" cy="1.91" r="1.91" transform="translate(59.78 306.88)" fill="#3c50a0"/>
      <path id="Path_2041" data-name="Path 2041" d="M40.5,294.35a4,4,0,1,1-4-4A4,4,0,0,1,40.5,294.35Z" transform="translate(20.55 4)" fill="#3c50a0"/>
      <circle id="Ellipse_29" data-name="Ellipse 29" cx="3.72" cy="3.72" r="3.72" transform="translate(54.82 373.45)" fill="#fff"/>
      <path id="Path_2042" data-name="Path 2042" d="M33.65,333.93a2.73,2.73,0,1,1-2.73-2.72,2.73,2.73,0,0,1,2.73,2.72Z" transform="translate(20.55 4)" fill="#fff"/>
      <circle id="Ellipse_30" data-name="Ellipse 30" cx="1.6" cy="1.6" r="1.6" transform="translate(45.34 360.52)" fill="#fff"/>
      <path id="Path_2043" data-name="Path 2043" d="M26.4,388.81a2.89,2.89,0,1,1-2.89-2.89,2.89,2.89,0,0,1,2.89,2.89Z" transform="translate(20.55 4)" fill="#fff"/>
      <path id="Path_2044" data-name="Path 2044" d="M37.31,274.26a1.56,1.56,0,1,1-.457-1.113A1.57,1.57,0,0,1,37.31,274.26Z" transform="translate(20.55 4)" fill="#fff"/>
      <path id="Path_2045" data-name="Path 2045" d="M43.64,264.41a3,3,0,1,1-3-3,3,3,0,0,1,3,3Z" transform="translate(20.55 4)" fill="#fff"/>
      <path id="Path_2046" data-name="Path 2046" d="M34,256.42a1.9,1.9,0,1,1-.553-1.35A1.91,1.91,0,0,1,34,256.42Z" transform="translate(20.55 4)" fill="#fff"/>
      <path id="Path_2047" data-name="Path 2047" d="M70.71,339.62V314.8H54.24v24.82a5.05,5.05,0,0,1-.15,1.23l-13,52.58a5.16,5.16,0,0,0,5,6.4H78.8a5.16,5.16,0,0,0,5-6.4l-13-52.58a5.05,5.05,0,0,1-.09-1.23Z" transform="translate(20.55 4)" fill="#fff"/>
      <path id="Path_2048" data-name="Path 2048" d="M78.8,400.2H46.15a5.54,5.54,0,0,1-5.38-6.86l13-52.57a5,5,0,0,0,.14-1.15v-25.2H71.08v25.2a5,5,0,0,0,.14,1.15l13,52.57a5.52,5.52,0,0,1-5.37,6.86Zm-24.19-85v24.45a5.3,5.3,0,0,1-.16,1.32l-13,52.58a4.78,4.78,0,0,0,4.65,5.93H78.8a4.78,4.78,0,0,0,4.65-5.93l-13-52.58a5.811,5.811,0,0,1-.16-1.32V315.17Z" transform="translate(20.55 4)" fill="#3c50a0"/>
      <path id="Path_2049" data-name="Path 2049" d="M74.53,366.42c-1.08,1.09-5.34,1.28-7.64,1.09-7.22-.59-9.43-2.38-16.12-2.72L44.54,391c-.6,3,1.25,6,3.76,6H76.65c2.51,0,4.36-2.93,3.75-6Z" transform="translate(20.55 4)" fill="#6373b3"/>
      <path id="Path_2050" data-name="Path 2050" d="M71.66,361.05a3.1,3.1,0,1,1-3.1-3.1A3.1,3.1,0,0,1,71.66,361.05Z" transform="translate(20.55 4)" fill="#6373b3"/>
      <circle id="Ellipse_31" data-name="Ellipse 31" cx="1.38" cy="1.38" r="1.38" transform="translate(86.77 352.32)" fill="#6373b3"/>
      <path id="Path_2051" data-name="Path 2051" d="M63.3,327.67a1.43,1.43,0,1,1-1.42-1.43,1.43,1.43,0,0,1,1.42,1.43Z" transform="translate(20.55 4)" fill="#6373b3"/>
      <path id="Path_2052" data-name="Path 2052" d="M64.86,334.72a3,3,0,1,1-3-3A3,3,0,0,1,64.86,334.72Z" transform="translate(20.55 4)" fill="#6373b3"/>
      <path id="Path_2053" data-name="Path 2053" d="M60.59,384.21a2.77,2.77,0,1,1-2.77-2.77A2.77,2.77,0,0,1,60.59,384.21Z" transform="translate(20.55 4)" fill="#fff"/>
      <path id="Path_2054" data-name="Path 2054" d="M59.42,370a2,2,0,1,1-2-2A2,2,0,0,1,59.42,370Z" transform="translate(20.55 4)" fill="#fff"/>
      <path id="Path_2055" data-name="Path 2055" d="M68.8,385.4a1.2,1.2,0,1,1-1.19-1.19A1.2,1.2,0,0,1,68.8,385.4Z" transform="translate(20.55 4)" fill="#fff"/>
      <path id="Path_2056" data-name="Path 2056" d="M53.29,391.63a2.15,2.15,0,1,1-2.15-2.15,2.15,2.15,0,0,1,2.15,2.15Z" transform="translate(20.55 4)" fill="#fff"/>
      <circle id="Ellipse_32" data-name="Ellipse 32" cx="3.22" cy="3.22" r="3.22" transform="matrix(0.231, -0.973, 0.973, 0.231, 88.455, 398.692)" fill="#fff"/>
      <path id="Path_2057" data-name="Path 2057" d="M349.34,205.64c-.1-.1-2.5-2.49-7.3-2.08l-.31-3.74c6.68-.55,10.18,3.08,10.33,3.24l-2.73,2.56Z" transform="translate(20.55 4)" fill="#fff"/>
      <path id="Path_2058" data-name="Path 2058" d="M340.59,210.31c-3.22,8.39-11.45,13.23-18.38,10.81s-9.92-11.17-6.7-19.55,11.45-13.23,18.38-10.82S343.82,201.92,340.59,210.31Z" transform="translate(20.55 4)" fill="#dbe5eb" opacity="0.5"/>
      <ellipse id="Ellipse_33" data-name="Ellipse 33" cx="15.15" cy="9.95" rx="15.15" ry="9.95" transform="translate(362.068 228.195) rotate(-67.6)" fill="#dbe5eb" opacity="0.5"/>
      <path id="Path_2059" data-name="Path 2059" d="M325.89,222.68a12.05,12.05,0,0,1-4-.67,12.46,12.46,0,0,1-7.16-6.67,18.23,18.23,0,0,1-.11-14.11c3.39-8.84,12.17-13.94,19.56-11.36a12.47,12.47,0,0,1,7.15,6.67,18.27,18.27,0,0,1,.12,14.11C338.66,217.93,332.21,222.68,325.89,222.68Zm4.29-31.61c-5.55,0-11.28,4.28-13.8,10.83a16.38,16.38,0,0,0,.07,12.65,10.43,10.43,0,0,0,6.07,5.69,10.2,10.2,0,0,0,3.4.57c5.55,0,11.28-4.28,13.8-10.83a16.38,16.38,0,0,0-.07-12.65,10.43,10.43,0,0,0-6.07-5.69,10.159,10.159,0,0,0-3.4-.57Z" transform="translate(20.55 4)" fill="#fff"/>
      <path id="Path_2060" data-name="Path 2060" d="M353.33,229.41a7.82,7.82,0,0,1-2.59-.43,8.38,8.38,0,0,1-4.81-4.61c-1.76-3.78-1.65-9,.27-14a21.07,21.07,0,0,1,6.92-9.45c3.06-2.24,6.29-2.93,9.1-1.95a8.36,8.36,0,0,1,4.81,4.6c1.75,3.78,1.65,9-.27,14a21.17,21.17,0,0,1-6.92,9.46A11.17,11.17,0,0,1,353.33,229.41Zm6.28-29c-4.33,0-9.23,4.32-11.66,10.65-1.75,4.54-1.87,9.24-.33,12.57a6.63,6.63,0,0,0,3.73,3.62c4.72,1.65,10.84-3,13.66-10.31,1.75-4.54,1.87-9.24.32-12.57a6.6,6.6,0,0,0-3.72-3.63,6.21,6.21,0,0,0-2-.37Z" transform="translate(20.55 4)" fill="#fff"/>
      <g id="Group_28" data-name="Group 28" opacity="0.5">
        <path id="Path_2061" data-name="Path 2061" d="M367,206.42l-21.37,11.14a12.51,12.51,0,0,0,2.36,8.37L366.6,215A18.29,18.29,0,0,0,367,206.42Z" transform="translate(20.55 4)" fill="#fff" opacity="0.5"/>
        <path id="Path_2062" data-name="Path 2062" d="M363.87,200.91,347.82,209c-.27.56-.52,1.13-.74,1.72a23.28,23.28,0,0,0-1.07,3.63l20-10.66A7.91,7.91,0,0,0,363.87,200.91Z" transform="translate(20.55 4)" fill="#fff" opacity="0.5"/>
        <path id="Path_2063" data-name="Path 2063" d="M339.7,195.47l-25.46,12.09a15.18,15.18,0,0,0,2.43,9.26l25.14-11.71a15.52,15.52,0,0,0-2.11-9.64Z" transform="translate(20.55 4)" fill="#fff" opacity="0.5"/>
        <path id="Path_2064" data-name="Path 2064" d="M315.88,200.67l19.8-9.1a10.783,10.783,0,0,0-1.79-.82C327.21,188.42,319.33,192.84,315.88,200.67Z" transform="translate(20.55 4)" fill="#fff" opacity="0.5"/>
      </g>
      <path id="Path_2065" data-name="Path 2065" d="M301.17,203.85c-6.26,2.91-3.56-7.87-3.67-16.92-.08-6-10.87-38.55,5-45.79s30.11-2.2,39.35-6S377.34,139,380,151.61c2.13,10,7.33,16.9,10.91,23.35s-9.17,17.54-19.5,18.26c-15.41,1.08-36-28.19-47.12-25.77S306.35,201.45,301.17,203.85Z" transform="translate(20.55 4)" fill="#3c50a0"/>
      <path id="Path_2066" data-name="Path 2066" d="M313.42,180.97l26.52,18-3.19,4.2-24.46-20.7Z" fill="#fff"/>
      <path id="Path_2067" data-name="Path 2067" d="M297.61,189.44c0,8.65-3.9,16.83-9.43,16.83s-10-7-10-15.65,4.48-15.66,10-15.66S297.61,180.8,297.61,189.44Z" transform="translate(20.55 4)" fill="#ffb27d"/>
      <path id="Path_2068" data-name="Path 2068" d="M453.23,354.93c15.58,3.58,23.81,12.76,27,22.49s8.5,19.15-4.7,20.17-29-2.45-29.52-3.4S453.23,354.93,453.23,354.93Z" transform="translate(20.55 4)" fill="#3c50a0" opacity="0.5"/>
      <path id="Path_2069" data-name="Path 2069" d="M462,357.26c17.18,7.43,15,33.44,9.78,35.62-24.46,10.18-36.79,3.46-47-1.79s-8-15.07-8-15.07.47-5.3,16.64-12.1C445.18,359,462,357.26,462,357.26Z" transform="translate(20.55 4)" fill="#3c50a0"/>
      <path id="Path_2070" data-name="Path 2070" d="M468.12,361.38c-13-12.94-31-11.32-39.05-8.14s-21.71,8.63-12.35,9.82,21.66-.53,25.95.86S468.12,361.38,468.12,361.38Z" transform="translate(20.55 4)" fill="#3c50a0"/>
      <path id="Path_2071" data-name="Path 2071" d="M167.25,106.25H148a.94.94,0,0,1-.81-.47L137.6,89.13a.93.93,0,0,1,0-.94l9.61-16.65a.94.94,0,0,1,.81-.46h19.23a.94.94,0,0,1,.81.46l9.61,16.65a.93.93,0,0,1,0,.94l-9.61,16.65A.94.94,0,0,1,167.25,106.25Zm-18.69-1.87h18.15l9.07-15.72L166.71,73H148.56l-9.07,15.71Z" transform="translate(20.55 4)" fill="#fff"/>
      <path id="Path_2072" data-name="Path 2072" d="M172.38,89.13a.47.47,0,0,1-.41-.23L164.6,76.13a.47.47,0,1,1,.81-.47l7.37,12.77a.47.47,0,0,1-.17.64.46.46,0,0,1-.23.06Z" transform="translate(20.55 4)" fill="#fff"/>
      <path id="Path_2073" data-name="Path 2073" d="M142.89,89.13a.46.46,0,0,1-.23-.06.47.47,0,0,1-.17-.64l7.37-12.77a.47.47,0,1,1,.81.47L143.3,88.9A.47.47,0,0,1,142.89,89.13Z" transform="translate(20.55 4)" fill="#fff"/>
      <path id="Path_2074" data-name="Path 2074" d="M165,101.9H150.26a.47.47,0,1,1,0-.94H165a.47.47,0,0,1,0,.94Z" transform="translate(20.55 4)" fill="#fff"/>
      <path id="Path_2075" data-name="Path 2075" d="M205.88,106.25a.92.92,0,0,1-.81-.47l-9.62-16.65a1,1,0,0,1,0-.94l9.62-16.65a.91.91,0,0,1,.81-.46H225.1a.94.94,0,1,1,0,1.87H206.42l-9.08,15.71,9.35,16.18a.94.94,0,0,1-.35,1.28.84.84,0,0,1-.46.13Z" transform="translate(20.55 4)" fill="#fff"/>
      <path id="Path_2076" data-name="Path 2076" d="M138.13,122.9a.9.9,0,0,1-.47-.13.93.93,0,0,1-.34-1.28l9.61-16.65a.94.94,0,0,1,1.62.94l-9.61,16.65A.94.94,0,0,1,138.13,122.9Z" transform="translate(20.55 4)" fill="#fff"/>
      <path id="Path_2077" data-name="Path 2077" d="M225.1,73a.9.9,0,0,1-.47-.13.94.94,0,0,1-.34-1.28l9.61-16.65a.941.941,0,0,1,1.63.94l-9.62,16.65A.94.94,0,0,1,225.1,73Z" transform="translate(20.55 4)" fill="#fff"/>
      <path id="Path_2078" data-name="Path 2078" d="M196.26,89.6H177a.92.92,0,0,1-.81-.47l-9.62-16.65a1,1,0,0,1,0-.94l9.62-16.65a.94.94,0,0,1,1.62.94L168.51,72l9.07,15.72h18.68a.94.94,0,1,1,0,1.87Z" transform="translate(20.55 4)" fill="#fff"/>
      <path id="Path_2079" data-name="Path 2079" d="M267.64,50.39h-27a2.5,2.5,0,0,1,0-5h27a2.5,2.5,0,0,1,0,5Z" transform="translate(20.55 4)" fill="#fff"/>
      <path id="Path_2080" data-name="Path 2080" d="M267.64,42.91h-27a2.5,2.5,0,0,1,0-5h27a2.5,2.5,0,0,1,0,5Z" transform="translate(20.55 4)" fill="#fff"/>
      <path id="Path_2081" data-name="Path 2081" d="M245.88,77.45H234.23a2.72,2.72,0,0,1,0-5.44h11.65a2.72,2.72,0,1,1,0,5.44Z" transform="translate(20.55 4)" fill="#fff"/>
      <rect id="Rectangle_5364" data-name="Rectangle 5364" width="16.55" height="6.76" rx="3.2" transform="translate(199.36 49.41)" fill="#fff"/>
      <rect id="Rectangle_5365" data-name="Rectangle 5365" width="26.35" height="7.83" rx="3.2" transform="translate(229.98 112.24)" fill="#fff"/>
      <rect id="Rectangle_5366" data-name="Rectangle 5366" width="17.8" height="6.59" rx="3.2" transform="translate(139.2 128.09)" fill="#fff"/>
      <path id="Path_2082" data-name="Path 2082" d="M410.92,57.11H395.73a.92.92,0,0,1-.81-.47l-7.6-13.16a.93.93,0,0,1,0-.94l7.6-13.15a.92.92,0,0,1,.81-.47h15.19a.92.92,0,0,1,.81.47l7.6,13.15a.93.93,0,0,1,0,.94l-7.6,13.16a.92.92,0,0,1-.81.47Zm-14.65-1.87h14.11L417.44,43l-7.06-12.22H396.27L389.21,43Z" transform="translate(20.55 4)" fill="#fff"/>
      <path id="Path_2083" data-name="Path 2083" d="M434.28,70.59h-15.2a.94.94,0,0,1-.81-.47L410.67,57a1,1,0,0,1,0-.93l7.6-13.16a.94.94,0,0,1,.81-.47h15.2a.94.94,0,0,1,.81.47L442.68,56a.91.91,0,0,1,0,.93l-7.59,13.16a.94.94,0,0,1-.81.5Zm-14.66-1.87h14.12l7.05-12.22-7.05-12.23H419.62L412.56,56.5Z" transform="translate(20.55 4)" fill="#fff"/>
      <path id="Path_2084" data-name="Path 2084" d="M387.57,70.59a1,1,0,0,1-.47-.12.93.93,0,0,1-.34-1.28L394.35,56A.965.965,0,1,1,396,57l-7.6,13.16A1,1,0,0,1,387.57,70.59Z" transform="translate(20.55 4)" fill="#fff"/>
      <path id="Path_2085" data-name="Path 2085" d="M464.79,70.45A.94.94,0,0,1,464,70l-7.6-13.16a.94.94,0,0,1,.35-1.28.92.92,0,0,1,1.27.35L465.6,69a.93.93,0,0,1-.34,1.28A.9.9,0,0,1,464.79,70.45Z" transform="translate(20.55 4)" fill="#fff"/>
      <path id="Path_2086" data-name="Path 2086" d="M387.57,44.27h-15.2a.94.94,0,0,1,0-1.87h15.2a.94.94,0,0,1,0,1.87Z" transform="translate(20.55 4)" fill="#fff"/>
      <path id="Path_2087" data-name="Path 2087" d="M457.07,57.11h-15.2a.94.94,0,0,1-.81-.47l-7.59-13.16a.93.93,0,0,1,0-.94l7.59-13.15a.934.934,0,1,1,1.62.93L435.36,43l7.05,12.23h14.66a.94.94,0,1,1,0,1.87Z" transform="translate(20.55 4)" fill="#fff"/>
      <path id="Path_2088" data-name="Path 2088" d="M438.09,57.2a.49.49,0,0,1-.41-.24l-6.12-10.61a.47.47,0,1,1,.81-.47l6.12,10.61a.46.46,0,0,1-.17.64.39.39,0,0,1-.23.07Z" transform="translate(20.55 4)" fill="#fff"/>
      <path id="Path_2089" data-name="Path 2089" d="M397.49,53.86a.46.46,0,0,1-.4-.24L391,43a.47.47,0,0,1,.17-.64.46.46,0,0,1,.64.18l6.13,10.6a.47.47,0,0,1-.17.64A.44.44,0,0,1,397.49,53.86Z" transform="translate(20.55 4)" fill="#fff"/>
      <path id="Path_2090" data-name="Path 2090" d="M414.86,43.48a.48.48,0,0,1-.41-.23l-6.12-10.61a.47.47,0,1,1,.81-.47l6.12,10.61a.46.46,0,0,1-.4.7Z" transform="translate(20.55 4)" fill="#fff"/>
      <rect id="Rectangle_5367" data-name="Rectangle 5367" width="17.45" height="5.3" rx="2.53" transform="translate(476.61 52.77)" fill="#fff"/>
      <rect id="Rectangle_5368" data-name="Rectangle 5368" width="15.2" height="7.39" rx="2.53" transform="translate(454.82 23.3)" fill="#fff"/>
      <rect id="Rectangle_5369" data-name="Rectangle 5369" width="21.18" height="5.7" rx="2.53" transform="translate(480.25 75.9)" fill="#fff"/>
      <rect id="Rectangle_5370" data-name="Rectangle 5370" width="20.26" height="5.38" rx="2.53" transform="translate(390.39 76.06)" fill="#fff"/>
      <rect id="Rectangle_5371" data-name="Rectangle 5371" width="17.73" height="6.35" rx="2.53" transform="translate(372.66 43.77)" fill="#fff"/>
      <circle id="Ellipse_34" data-name="Ellipse 34" cx="8.77" cy="8.77" r="8.77" transform="matrix(0.828, -0.561, 0.561, 0.828, 13.752, 123.609)" fill="#fff"/>
      <path id="Path_2091" data-name="Path 2091" d="M57.37,140.17H-3a1.61,1.61,0,0,1-1.61-1.61A1.62,1.62,0,0,1-3,137H57.4a1.61,1.61,0,1,1,0,3.22Z" transform="translate(20.55 4)" fill="#fff"/>
      <path id="Path_2092" data-name="Path 2092" d="M57.37,147H-3a1.62,1.62,0,0,1-1.61-1.61,1.61,1.61,0,0,1,.461-1.158A1.61,1.61,0,0,1-3,143.75H57.4a1.61,1.61,0,1,1,0,3.22Z" transform="translate(20.55 4)" fill="#fff"/>
      <circle id="Ellipse_35" data-name="Ellipse 35" cx="15.39" cy="15.39" r="15.39" transform="translate(91.33 206.47)" fill="#fff"/>
      <path id="Path_2093" data-name="Path 2093" d="M86.18,229a11.11,11.11,0,1,1,11.11-11.11A11.11,11.11,0,0,1,86.18,229Zm0-21.29a10.2,10.2,0,1,0,0-.03Z" transform="translate(20.55 4)" fill="#3c50a0"/>
      <path id="Path_2094" data-name="Path 2094" d="M103.18,210a1,1,0,0,1-.84-.51.94.94,0,0,1,.4-1.26l55.32-28.8a.935.935,0,1,1,.86,1.66l-55.31,28.8A1,1,0,0,1,103.18,210Z" transform="translate(20.55 4)" fill="#fff"/>
      <path id="Path_2095" data-name="Path 2095" d="M136.27,218.79h0l-30.62-1.33a.92.92,0,0,1-.89-1,.94.94,0,0,1,1-.9l30.62,1.33a.94.94,0,0,1,0,1.87Z" transform="translate(20.55 4)" fill="#fff"/>
      <path id="Path_2096" data-name="Path 2096" d="M174,175.47a6.69,6.69,0,1,1-6.69-6.69,6.69,6.69,0,0,1,6.69,6.69Z" transform="translate(20.55 4)" fill="#fff"/>
      <path id="Path_2097" data-name="Path 2097" d="M154.73,217.86a7.16,7.16,0,1,1-7.16-7.16,7.16,7.16,0,0,1,7.16,7.16Z" transform="translate(20.55 4)" fill="#fff"/>
      <path id="Path_2098" data-name="Path 2098" d="M420,170.42H408.51a3.09,3.09,0,0,1-3.09-3.08V155.8a3.09,3.09,0,0,1,3.09-3.08H420a3.09,3.09,0,0,1,3.09,3.08v11.54A3.09,3.09,0,0,1,420,170.42Zm-11.53-15.83a1.21,1.21,0,0,0-1.21,1.21v11.54a1.21,1.21,0,0,0,1.21,1.21H420a1.21,1.21,0,0,0,1.21-1.21V155.8a1.21,1.21,0,0,0-1.21-1.21Z" transform="translate(20.55 4)" fill="#fff"/>
      <path id="Path_2099" data-name="Path 2099" d="M420,196.22H408.51a3.09,3.09,0,0,1-3.09-3.08V181.61a3.09,3.09,0,0,1,3.09-3.09H420a3.09,3.09,0,0,1,3.09,3.09v11.53A3.09,3.09,0,0,1,420,196.22Zm-11.53-15.83a1.22,1.22,0,0,0-1.21,1.22v11.53a1.21,1.21,0,0,0,1.21,1.21H420a1.21,1.21,0,0,0,1.21-1.21V181.61a1.22,1.22,0,0,0-1.21-1.22Z" transform="translate(20.55 4)" fill="#fff"/>
      <path id="Path_2100" data-name="Path 2100" d="M414.28,165.83h0a.9.9,0,0,1-.68-.35l-5-6.24a.94.94,0,0,1,.15-1.32.93.93,0,0,1,1.31.15l4.36,5.43,9.65-9.65a.94.94,0,0,1,1.32,1.33l-10.38,10.38A1,1,0,0,1,414.28,165.83Z" transform="translate(20.55 4)" fill="#a074c4"/>
      <path id="Path_2101" data-name="Path 2101" d="M414.28,191h0a.92.92,0,0,1-.68-.34l-5-6.25a.94.94,0,0,1,1.46-1.17l4.36,5.43L424,179a.933.933,0,0,1,1.32,1.32L414.94,190.7A.94.94,0,0,1,414.28,191Z" transform="translate(20.55 4)" fill="#a074c4"/>
      <path id="Path_2102" data-name="Path 2102" d="M468.27,162.89H436.56a1.6,1.6,0,0,1,0-3.19h31.71a1.6,1.6,0,0,1,0,3.19Z" transform="translate(20.55 4)" fill="#fff"/>
      <path id="Path_2103" data-name="Path 2103" d="M468.27,169.1H436.56a1.6,1.6,0,0,1,0-3.19h31.71a1.6,1.6,0,0,1,0,3.19Z" transform="translate(20.55 4)" fill="#fff"/>
      <path id="Path_2104" data-name="Path 2104" d="M468.27,189H436.56a1.6,1.6,0,0,1,0-3.19h31.71a1.6,1.6,0,0,1,0,3.19Z" transform="translate(20.55 4)" fill="#fff"/>
      <path id="Path_2105" data-name="Path 2105" d="M455.82,195.13H436.56a1.6,1.6,0,0,1,0-3.19h19.26a1.6,1.6,0,1,1,0,3.19Z" transform="translate(20.55 4)" fill="#fff"/>
      <path id="Path_2106" data-name="Path 2106" d="M35.41,63.52H8.07a1.61,1.61,0,0,1,0-3.22H35.41a1.61,1.61,0,1,1,0,3.22Z" transform="translate(20.55 4)" fill="#fff"/>
      <path id="Path_2107" data-name="Path 2107" d="M35.41,69.27H8.07a1.61,1.61,0,0,1,0-3.22H35.41a1.61,1.61,0,0,1,0,3.22Z" transform="translate(20.55 4)" fill="#fff"/>
      <path id="Path_2108" data-name="Path 2108" d="M35.41,76.17H8.07a1.61,1.61,0,0,1,0-3.22H35.41a1.61,1.61,0,0,1,0,3.22Z" transform="translate(20.55 4)" fill="#fff"/>
      <rect id="Rectangle_5372" data-name="Rectangle 5372" width="37.82" height="16.85" rx="2.62" transform="translate(78.43 103.02)" fill="#3c50a0" opacity="0.5"/>
    </g>
  </g>
</svg>
