<svg xmlns="http://www.w3.org/2000/svg" width="330" height="216" viewBox="0 0 330 216">
  <g id="img" transform="translate(-170 -2091)">
    <rect id="Rectangle_19" data-name="Rectangle 19" width="330" height="216" transform="translate(170 2091)" fill="#cecece"/>
    <g id="rogo" transform="translate(300 2163)">
      <path id="Path_1" data-name="Path 1" d="M10.9,34.374A24,24,0,0,0,26.828,56.944V54.019A21.164,21.164,0,0,1,28.389,14.3V57.041h3V13.558c.515-.089,1.035-.154,1.563-.207V10.473A24.035,24.035,0,0,0,10.9,34.374" transform="translate(-0.001 -0.051)" fill="#b5b5b5"/>
      <path id="Path_2" data-name="Path 2" d="M37.062,10.475v2.874q.791.079,1.563.212V57.043h3V14.3a21.165,21.165,0,0,1,1.561,39.721v2.927a23.97,23.97,0,0,0-6.126-46.471" transform="translate(-0.004 -0.051)" fill="#b5b5b5"/>
      <path id="Path_3" data-name="Path 3" d="M27.6,69l1.152-.559h.115v3.978a2.011,2.011,0,0,0,.034.493.248.248,0,0,0,.136.15,1.24,1.24,0,0,0,.427.059v.129H27.681v-.129a1.31,1.31,0,0,0,.434-.057.281.281,0,0,0,.136-.135,1.856,1.856,0,0,0,.038-.51V69.872a3.943,3.943,0,0,0-.034-.66.281.281,0,0,0-.089-.163A.236.236,0,0,0,28.009,69a.943.943,0,0,0-.359.108Z" transform="translate(-0.003 -0.335)" fill="#b5b5b5"/>
      <path id="Path_4" data-name="Path 4" d="M32.206,70.873a3.358,3.358,0,0,1-.723-.739,1.1,1.1,0,0,1-.162-.576,1.047,1.047,0,0,1,.355-.791,1.325,1.325,0,0,1,.946-.33,1.34,1.34,0,0,1,.923.309.924.924,0,0,1,.347.707.946.946,0,0,1-.187.537,2.726,2.726,0,0,1-.787.648,4.456,4.456,0,0,1,.814.741,1.236,1.236,0,0,1,.266.749,1.1,1.1,0,0,1-.381.846,1.416,1.416,0,0,1-1,.353,1.346,1.346,0,0,1-1.05-.417,1.038,1.038,0,0,1-.091-1.359,3.07,3.07,0,0,1,.729-.679m.166.131a1.645,1.645,0,0,0-.43.529,1.4,1.4,0,0,0-.14.62,1,1,0,0,0,.247.717.8.8,0,0,0,.625.271.843.843,0,0,0,.6-.212.676.676,0,0,0,.23-.514.8.8,0,0,0-.134-.449,5.071,5.071,0,0,0-1-.963m.383-.5a2.553,2.553,0,0,0,.532-.59,1.081,1.081,0,0,0,.111-.5.768.768,0,0,0-.2-.569.753.753,0,0,0-.561-.207.817.817,0,0,0-.583.205.626.626,0,0,0-.223.478.791.791,0,0,0,.094.362,1.16,1.16,0,0,0,.264.343Z" transform="translate(-0.004 -0.335)" fill="#b5b5b5"/>
      <path id="Path_5" data-name="Path 5" d="M35.328,69.43a1.849,1.849,0,0,1,.51-.734,1.155,1.155,0,0,1,.77-.258,1.064,1.064,0,0,1,.874.368.892.892,0,0,1,.23.584,1.491,1.491,0,0,1-.649,1.067,1.411,1.411,0,0,1,.659.485,1.258,1.258,0,0,1,.223.743,1.547,1.547,0,0,1-.391,1.06,1.845,1.845,0,0,1-1.476.586,1.249,1.249,0,0,1-.651-.118.32.32,0,0,1-.174-.254.229.229,0,0,1,.081-.176.275.275,0,0,1,.2-.078.653.653,0,0,1,.179.028,2.087,2.087,0,0,1,.27.127,1.766,1.766,0,0,0,.289.131.98.98,0,0,0,.276.038.834.834,0,0,0,.621-.275.913.913,0,0,0,.262-.65,1.267,1.267,0,0,0-.121-.535.983.983,0,0,0-.2-.294,1.412,1.412,0,0,0-.415-.252,1.323,1.323,0,0,0-.534-.114h-.113V70.8a1.426,1.426,0,0,0,.555-.2.984.984,0,0,0,.529-.9.779.779,0,0,0-.228-.58.763.763,0,0,0-.557-.22,1.063,1.063,0,0,0-.908.576Z" transform="translate(-0.004 -0.335)" fill="#b5b5b5"/>
      <path id="Path_6" data-name="Path 6" d="M40.411,70.873a3.33,3.33,0,0,1-.725-.739,1.14,1.14,0,0,1-.162-.576,1.047,1.047,0,0,1,.355-.791,1.527,1.527,0,0,1,1.869-.021.92.92,0,0,1,.349.707.946.946,0,0,1-.187.537,2.789,2.789,0,0,1-.787.648,4.351,4.351,0,0,1,.812.741,1.223,1.223,0,0,1,.266.749,1.11,1.11,0,0,1-.378.846,1.416,1.416,0,0,1-1,.353,1.354,1.354,0,0,1-1.052-.417,1.1,1.1,0,0,1-.3-.739,1.091,1.091,0,0,1,.213-.62,2.971,2.971,0,0,1,.727-.679m.164.131a1.637,1.637,0,0,0-.427.529,1.4,1.4,0,0,0-.142.62,1.014,1.014,0,0,0,.247.717.81.81,0,0,0,.627.271.847.847,0,0,0,.6-.212.674.674,0,0,0,.228-.514.8.8,0,0,0-.132-.449,5.036,5.036,0,0,0-1-.963m.385-.5a2.5,2.5,0,0,0,.532-.59,1.108,1.108,0,0,0,.111-.5.761.761,0,0,0-.206-.569.75.75,0,0,0-.561-.207.8.8,0,0,0-.578.205.619.619,0,0,0-.223.478.811.811,0,0,0,.089.362,1.206,1.206,0,0,0,.266.343Z" transform="translate(-0.005 -0.335)" fill="#b5b5b5"/>
      <path id="Path_7" data-name="Path 7" d="M26.7,60.841,26.326,61.9l-.125-.051a1.367,1.367,0,0,0,.062-.432.713.713,0,0,0-.159-.389,1.021,1.021,0,0,0-.41-.269l-.629-.252-1.371,3.4a.981.981,0,0,0-.119.548.523.523,0,0,0,.332.29l.153.063-.049.123-1.894-.76.051-.118.157.059a.486.486,0,0,0,.47-.008,1.068,1.068,0,0,0,.266-.451l1.374-3.394-.538-.216a1.568,1.568,0,0,0-.464-.133.669.669,0,0,0-.389.123,1.043,1.043,0,0,0-.338.421l-.125-.051.474-1.02Z" transform="translate(-0.003 -0.29)" fill="#b5b5b5"/>
      <path id="Path_8" data-name="Path 8" d="M29.64,61.373a2.181,2.181,0,0,1,1.463,1,2.441,2.441,0,0,1,.342,1.866,2.532,2.532,0,0,1-1.023,1.653,2.323,2.323,0,0,1-3.289-.607,2.514,2.514,0,0,1-.323-1.915,2.436,2.436,0,0,1,1.118-1.684,2.325,2.325,0,0,1,1.712-.311m-.115.241a1.271,1.271,0,0,0-1.108.275,2.7,2.7,0,0,0-.806,1.617,2.838,2.838,0,0,0,.155,1.868,1.246,1.246,0,0,0,.914.662,1.4,1.4,0,0,0,1.2-.309,2.549,2.549,0,0,0,.748-1.549,2.9,2.9,0,0,0-.134-1.892,1.308,1.308,0,0,0-.97-.673" transform="translate(-0.003 -0.3)" fill="#b5b5b5"/>
      <path id="Path_9" data-name="Path 9" d="M34.581,64.129,36.337,65.9a3.319,3.319,0,0,0,.74.6,1.587,1.587,0,0,0,.617.184l0,.131-2.29-.023,0-.131a.521.521,0,0,0,.3-.066.2.2,0,0,0,.091-.152.358.358,0,0,0-.032-.154,1.689,1.689,0,0,0-.219-.254L33.9,64.387l-.017,1.545a1.587,1.587,0,0,0,.043.48.315.315,0,0,0,.147.152.628.628,0,0,0,.323.087l.164,0,0,.133L32.5,66.765v-.131l.172,0a.51.51,0,0,0,.434-.171,1.057,1.057,0,0,0,.091-.542l.032-3.094a1.634,1.634,0,0,0-.04-.485.325.325,0,0,0-.145-.15.7.7,0,0,0-.325-.089l-.17,0V61.97l2.052.023v.131l-.164,0a.706.706,0,0,0-.323.078.311.311,0,0,0-.155.169,1.566,1.566,0,0,0-.047.466L33.9,64.3c.047-.044.211-.193.489-.444a10.5,10.5,0,0,0,1.288-1.27.474.474,0,0,0,.1-.245A.186.186,0,0,0,35.7,62.2a.383.383,0,0,0-.251-.066H35.34l0-.131,1.767.019v.129a1,1,0,0,0-.285.04,1.572,1.572,0,0,0-.315.146,3.155,3.155,0,0,0-.457.356q-.08.07-.729.717Z" transform="translate(-0.004 -0.303)" fill="#b5b5b5"/>
      <path id="Path_10" data-name="Path 10" d="M41.335,61.4l1.654-.292.023.131-.091.017a.715.715,0,0,0-.251.123,1.032,1.032,0,0,0-.279.288,3.107,3.107,0,0,0-.268.55L41.3,64.209l.21,1.187a.941.941,0,0,0,.193.525.549.549,0,0,0,.447.072l.153-.028.023.129-2.016.353-.021-.131.166-.028a.483.483,0,0,0,.4-.254,1.079,1.079,0,0,0-.013-.525l-.2-1.117-1.65-1.746a4.455,4.455,0,0,0-.389-.383,1.256,1.256,0,0,0-.378-.148.406.406,0,0,0-.208,0l-.023-.131,2.028-.355.023.131-.106.019a.616.616,0,0,0-.289.127.251.251,0,0,0-.1.254,1.069,1.069,0,0,0,.291.417L41.1,63.925l.674-1.617a1.07,1.07,0,0,0,.123-.523.3.3,0,0,0-.081-.165.31.31,0,0,0-.166-.1.682.682,0,0,0-.291.006Z" transform="translate(-0.005 -0.299)" fill="#b5b5b5"/>
      <path id="Path_11" data-name="Path 11" d="M45.718,59.954A2.205,2.205,0,0,1,47.491,60,2.452,2.452,0,0,1,48.8,61.38a2.508,2.508,0,0,1,.047,1.938,2.321,2.321,0,0,1-3.094,1.274,2.538,2.538,0,0,1-1.316-1.43,2.409,2.409,0,0,1,.019-2.017,2.294,2.294,0,0,1,1.265-1.191m.036.265a1.263,1.263,0,0,0-.78.834,2.677,2.677,0,0,0,.208,1.79,2.853,2.853,0,0,0,1.15,1.483,1.262,1.262,0,0,0,1.129.063,1.4,1.4,0,0,0,.84-.91,2.57,2.57,0,0,0-.221-1.706,2.893,2.893,0,0,0-1.146-1.513,1.3,1.3,0,0,0-1.18-.042" transform="translate(-0.005 -0.292)" fill="#b5b5b5"/>
      <path id="Path_12" data-name="Path 12" d="M14.422,62.332l-.13.163-2.609-2.029.13-.163.221.169a.823.823,0,0,0,.714.205,1.755,1.755,0,0,0,.648-.605l2.328-2.965a4.26,4.26,0,0,1,1.021-.988,2.2,2.2,0,0,1,1.1-.339,1.681,1.681,0,0,1,1.138.379,1.241,1.241,0,0,1,.5.726.773.773,0,0,1-.13.662.574.574,0,0,1-.372.245.64.64,0,0,1-.455-.131.5.5,0,0,1-.185-.3,1.92,1.92,0,0,1,.1-.726c.057-.214.032-.362-.077-.446a.358.358,0,0,0-.342-.028,1.2,1.2,0,0,0-.517.44l-3.251,4.137a2.485,2.485,0,0,0-.419.654.515.515,0,0,0,.038.339,1.055,1.055,0,0,0,.325.425Z" transform="translate(-0.001 -0.273)" fill="#b5b5b5"/>
      <path id="Path_13" data-name="Path 13" d="M6.22,53.873,6.05,54,4.423,51.81l.168-.125.174.233a.786.786,0,0,0,.723.334,1.707,1.707,0,0,0,.731-.391l2.52-1.856a5.594,5.594,0,0,1,1.586-.885,2.28,2.28,0,0,1,1.425.074,3.23,3.23,0,0,1,1.463,1.2A3.412,3.412,0,0,1,14,52.189a2.345,2.345,0,0,1-.4,1.441,6.37,6.37,0,0,1-1.42,1.274l-2.428,1.79c-.381.281-.593.518-.634.711a.8.8,0,0,0,.2.641l.172.231-.17.127L7.341,55.731l.168-.125.176.239a.778.778,0,0,0,.651.366,1.7,1.7,0,0,0,.772-.394l2.707-1.993a7.362,7.362,0,0,0,.78-.679,2.2,2.2,0,0,0,.551-.774,1.624,1.624,0,0,0,.057-.817,2.14,2.14,0,0,0-.425-.925,2.762,2.762,0,0,0-1.072-.891,1.779,1.779,0,0,0-1.167-.15A4.876,4.876,0,0,0,9,50.445L6.488,52.3c-.387.288-.6.508-.634.664a.841.841,0,0,0,.193.679Z" transform="translate(-0.001 -0.24)" fill="#b5b5b5"/>
      <path id="Path_14" data-name="Path 14" d="M2.845,48.768l-.614-2,4.161-6.185-4.261,1.3a1.544,1.544,0,0,0-.8.408.834.834,0,0,0-.034.7l.079.258-.2.061-.787-2.56.2-.061.081.26a.78.78,0,0,0,.487.576,1.754,1.754,0,0,0,.833-.123l6.228-1.9.062.2L3.813,46.366l4.55-1.384a1.583,1.583,0,0,0,.806-.406.851.851,0,0,0,.034-.7l-.081-.262.2-.061.787,2.56-.2.061-.079-.254a.792.792,0,0,0-.487-.58,1.724,1.724,0,0,0-.833.123L3.371,47.025a3.4,3.4,0,0,0-.347.637,1.844,1.844,0,0,0-.074.55,1.8,1.8,0,0,0,.1.5Z" transform="translate(0 -0.193)" fill="#b5b5b5"/>
      <path id="Path_15" data-name="Path 15" d="M.125,30.6l1.814-.047,0,.214a2.142,2.142,0,0,0-.687.157,1.136,1.136,0,0,0-.5.457,1.628,1.628,0,0,0-.172.766L.557,33.225l5.9.116a1.6,1.6,0,0,0,.891-.135.839.839,0,0,0,.251-.658l.009-.267.21,0-.066,3.261-.211,0,.006-.273a.783.783,0,0,0-.283-.7,1.741,1.741,0,0,0-.829-.138l-5.9-.121-.021.925a2.613,2.613,0,0,0,.068.768,1.033,1.033,0,0,0,.406.512,1.688,1.688,0,0,0,.827.267L1.809,37,0,36.873Z" transform="translate(0 -0.149)" fill="#b5b5b5"/>
      <path id="Path_16" data-name="Path 16" d="M1.807,24.921l2.9.942.527-1.606a1.37,1.37,0,0,0,.083-.9,1.292,1.292,0,0,0-.776-.6l.066-.2,2.558.827-.066.2a3.078,3.078,0,0,0-.736-.072.736.736,0,0,0-.4.222,1.717,1.717,0,0,0-.33.643l-.527,1.61,2.424.783a2.214,2.214,0,0,0,.606.148.337.337,0,0,0,.219-.1.991.991,0,0,0,.2-.387L8.958,25.2a3.543,3.543,0,0,0,.208-.929A1.4,1.4,0,0,0,9,23.621a4.334,4.334,0,0,0-.789-1.016l.07-.214,1.637,1.229L8.073,29.259l-.2-.068.085-.26a1.094,1.094,0,0,0,.036-.531.48.48,0,0,0-.185-.317,2.574,2.574,0,0,0-.689-.292L2.345,26.241A1.678,1.678,0,0,0,1.44,26.1a.883.883,0,0,0-.429.576l-.085.258-.2-.063,1.846-5.635,1.635.44-.068.209a2.685,2.685,0,0,0-.88-.008.933.933,0,0,0-.464.3,2.662,2.662,0,0,0-.33.736Z" transform="translate(0 -0.104)" fill="#b5b5b5"/>
      <path id="Path_17" data-name="Path 17" d="M4.173,17.483,5.412,15.8l7.469-.379-3.6-2.626a1.52,1.52,0,0,0-.812-.394.857.857,0,0,0-.587.394l-.157.216-.17-.125,1.59-2.158.17.123-.162.22a.777.777,0,0,0-.172.732,1.707,1.707,0,0,0,.6.59l5.256,3.834-.121.165-8.033.427,3.838,2.8a1.59,1.59,0,0,0,.808.4.857.857,0,0,0,.587-.4l.164-.218.17.123-1.59,2.161-.17-.125.157-.214a.788.788,0,0,0,.176-.739,1.757,1.757,0,0,0-.6-.59L5.891,16.859a3.492,3.492,0,0,0-.721.1,1.9,1.9,0,0,0-.489.273,1.755,1.755,0,0,0-.338.372Z" transform="translate(0 -0.052)" fill="#b5b5b5"/>
      <path id="Path_18" data-name="Path 18" d="M16.227,14.442l-.119-.174.24-.163a.769.769,0,0,0,.4-.65,1.777,1.777,0,0,0-.374-.762L13.542,8.6c-.272-.4-.487-.614-.644-.656a.851.851,0,0,0-.687.167l-.238.165L11.851,8.1l2.594-1.773a6.808,6.808,0,0,1,2.4-1.162,3.106,3.106,0,0,1,1.939.256,4.02,4.02,0,0,1,1.654,1.428,3.839,3.839,0,0,1,.719,2.764,4.3,4.3,0,0,1-2.079,2.88Zm1.5-1.7a5.716,5.716,0,0,0,1.091-.554,2.863,2.863,0,0,0,1.282-2A3.5,3.5,0,0,0,19.4,7.63a3.526,3.526,0,0,0-2.148-1.579,2.95,2.95,0,0,0-2.369.5,4.8,4.8,0,0,0-.87.794Z" transform="translate(-0.001 -0.025)" fill="#b5b5b5"/>
      <path id="Path_19" data-name="Path 19" d="M25.811.739a3.517,3.517,0,0,1,2.815.423,3.927,3.927,0,0,1,1.807,2.455,4.029,4.029,0,0,1-.31,3.1,3.728,3.728,0,0,1-5.179,1.42A4.044,4.044,0,0,1,23.13,5.6a3.877,3.877,0,0,1,.43-3.212A3.707,3.707,0,0,1,25.811.739m0,.427a2.046,2.046,0,0,0-1.408,1.17,4.31,4.31,0,0,0-.023,2.9,4.591,4.591,0,0,0,1.539,2.592,2.018,2.018,0,0,0,1.788.317,2.24,2.24,0,0,0,1.514-1.282,4.081,4.081,0,0,0-.013-2.755A4.632,4.632,0,0,0,27.69,1.465a2.115,2.115,0,0,0-1.875-.3" transform="translate(-0.003 -0.003)" fill="#b5b5b5"/>
      <path id="Path_20" data-name="Path 20" d="M46.452,1.775l.06-.2,2.622.783-.062.2-.279-.085a.79.79,0,0,0-.78.163,1.721,1.721,0,0,0-.351.749l-.9,2.988a5.563,5.563,0,0,1-.74,1.655,2.264,2.264,0,0,1-1.184.789,3.256,3.256,0,0,1-1.892-.089,3.46,3.46,0,0,1-1.714-.967,2.345,2.345,0,0,1-.551-1.39,6.469,6.469,0,0,1,.372-1.866l.868-2.88A1.507,1.507,0,0,0,42,.677a.817.817,0,0,0-.544-.394L41.179.2l.06-.2,3.2.952-.062.2-.283-.085a.771.771,0,0,0-.742.093,1.7,1.7,0,0,0-.383.772L42,5.148a7.081,7.081,0,0,0-.217,1.005,2.168,2.168,0,0,0,.026.952,1.622,1.622,0,0,0,.444.688,2.146,2.146,0,0,0,.9.487,2.763,2.763,0,0,0,1.395.072,1.743,1.743,0,0,0,1.025-.571,4.806,4.806,0,0,0,.712-1.6l.9-2.984a1.6,1.6,0,0,0,.108-.91.839.839,0,0,0-.561-.427Z" transform="translate(-0.005)" fill="#b5b5b5"/>
      <path id="Path_21" data-name="Path 21" d="M50.771,3.09l1.75,1.151.744,7.406,2.458-3.7a1.536,1.536,0,0,0,.357-.827.845.845,0,0,0-.423-.563l-.225-.148.117-.176,2.243,1.479-.115.174-.23-.15a.784.784,0,0,0-.742-.135,1.7,1.7,0,0,0-.563.624l-3.6,5.4-.17-.11L51.56,5.553,48.934,9.5a1.583,1.583,0,0,0-.361.823.865.865,0,0,0,.423.567l.23.148-.117.176L46.865,9.743l.115-.178.223.148a.8.8,0,0,0,.748.138,1.722,1.722,0,0,0,.566-.622l2.964-4.461a3.352,3.352,0,0,0-.14-.711,1.9,1.9,0,0,0-.3-.474,1.921,1.921,0,0,0-.391-.317Z" transform="translate(-0.006 -0.015)" fill="#b5b5b5"/>
      <path id="Path_22" data-name="Path 22" d="M55.929,16.645l-.151.146-2.313-2.357.151-.146.191.2a.835.835,0,0,0,.685.3,1.732,1.732,0,0,0,.725-.512L58.789,10.8a2.517,2.517,0,0,0,.5-.59.517.517,0,0,0,.011-.339,1.074,1.074,0,0,0-.268-.468l-.191-.195L59,9.061l2.313,2.357-.151.148-.2-.2a.82.82,0,0,0-.68-.3,1.669,1.669,0,0,0-.727.51l-3.574,3.47a2.592,2.592,0,0,0-.5.59.509.509,0,0,0-.009.345,1.047,1.047,0,0,0,.264.461Z" transform="translate(-0.006 -0.044)" fill="#b5b5b5"/>
      <path id="Path_23" data-name="Path 23" d="M66.921,19.524l-.179.112a1.263,1.263,0,0,0-.553-.387,2.354,2.354,0,0,0-1.008,0l-7.006,1.2-.113-.178,4.112-5.963a3.467,3.467,0,0,0,.366-.593,1.006,1.006,0,0,0,.049-.442,1.644,1.644,0,0,0-.189-.54l.179-.114,1.675,2.666-.179.11a1.456,1.456,0,0,0-.525-.491.424.424,0,0,0-.37.044,2.546,2.546,0,0,0-.614.69l-2.8,4.052,4.758-.823a3.119,3.119,0,0,0,.921-.26.43.43,0,0,0,.181-.3,1.065,1.065,0,0,0-.115-.584c-.006-.019-.019-.049-.038-.091l.181-.112Z" transform="translate(-0.007 -0.062)" fill="#b5b5b5"/>
      <path id="Path_24" data-name="Path 24" d="M67.893,23.694l-2.93.859.481,1.625a1.391,1.391,0,0,0,.44.785,1.3,1.3,0,0,0,.98.055l.06.2-2.581.758-.06-.2a3.066,3.066,0,0,0,.651-.356.714.714,0,0,0,.2-.413,1.685,1.685,0,0,0-.094-.717l-.481-1.621-2.443.719a2.6,2.6,0,0,0-.587.216.378.378,0,0,0-.123.2.956.956,0,0,0,.06.432l.37,1.251a3.439,3.439,0,0,0,.357.885,1.43,1.43,0,0,0,.506.442,4.32,4.32,0,0,0,1.227.391l.064.218-2.048-.091-1.684-5.686.2-.059.079.26a1.093,1.093,0,0,0,.272.459.484.484,0,0,0,.332.159,2.589,2.589,0,0,0,.736-.148L66.7,22.909a1.674,1.674,0,0,0,.827-.4.878.878,0,0,0,.026-.715l-.079-.262.2-.061,1.684,5.688-1.6.557-.064-.209a2.668,2.668,0,0,0,.729-.491.89.89,0,0,0,.21-.51,2.514,2.514,0,0,0-.145-.789Z" transform="translate(-0.007 -0.105)" fill="#b5b5b5"/>
      <path id="Path_25" data-name="Path 25" d="M62.395,37.725l-.053-2.053,3.544-2.7c-.013-.193-.021-.349-.026-.472v-.159c0-.055,0-.114,0-.176l-2.245.059a1.573,1.573,0,0,0-.9.182.8.8,0,0,0-.234.652l.008.3-.213.006-.085-3.295.21,0,.009.286a.768.768,0,0,0,.336.692,1.827,1.827,0,0,0,.842.1l4.99-.129a1.591,1.591,0,0,0,.9-.182.829.829,0,0,0,.234-.664l-.008-.29.213-.006.072,2.8a6.693,6.693,0,0,1-.132,1.811,2.066,2.066,0,0,1-.636,1,1.719,1.719,0,0,1-1.138.436,1.811,1.811,0,0,1-1.248-.43,2.618,2.618,0,0,1-.778-1.414L63.887,35.73a3.916,3.916,0,0,0-.989.961,2.336,2.336,0,0,0-.293,1.031Zm3.829-5.563c0,.072,0,.131,0,.186s0,.1,0,.131a2.5,2.5,0,0,0,.521,1.646,1.538,1.538,0,0,0,1.235.527,1.555,1.555,0,0,0,1.586-1.687,5.165,5.165,0,0,0-.132-.889Z" transform="translate(-0.007 -0.146)" fill="#b5b5b5"/>
      <path id="Path_26" data-name="Path 26" d="M68.884,44.213l-2.607-.586.047-.205a3.315,3.315,0,0,0,1.276-.089,1.919,1.919,0,0,0,.872-.571,2.076,2.076,0,0,0,.485-.929A1.366,1.366,0,0,0,68.82,40.8a1.107,1.107,0,0,0-.719-.557.985.985,0,0,0-.683.1,6.276,6.276,0,0,0-1.482,1.382,11.842,11.842,0,0,1-1.195,1.24,2.235,2.235,0,0,1-.85.432,1.938,1.938,0,0,1-.908.013,2,2,0,0,1-1.327-.992,2.44,2.44,0,0,1-.232-1.841,3.462,3.462,0,0,1,.189-.6,6.623,6.623,0,0,1,.364-.667,3.241,3.241,0,0,0,.33-.643.3.3,0,0,0-.032-.237.7.7,0,0,0-.319-.2L62,38.023l2.585.582-.047.205a3.784,3.784,0,0,0-1.3.114,1.91,1.91,0,0,0-.838.593,2.339,2.339,0,0,0-.517,1.041A1.584,1.584,0,0,0,62,41.73a1.149,1.149,0,0,0,.776.6,1.2,1.2,0,0,0,.6-.025,1.707,1.707,0,0,0,.636-.356,13.333,13.333,0,0,0,.976-1.018,11.765,11.765,0,0,1,1.176-1.174,2.351,2.351,0,0,1,.853-.457,1.787,1.787,0,0,1,.9-.017,1.9,1.9,0,0,1,1.257.933,2.252,2.252,0,0,1,.23,1.708,3.246,3.246,0,0,1-.583,1.2,1.323,1.323,0,0,0-.238.406.333.333,0,0,0,.032.254.712.712,0,0,0,.315.224Z" transform="translate(-0.007 -0.186)" fill="#b5b5b5"/>
      <path id="Path_27" data-name="Path 27" d="M59.666,46.693l-.193-.083,1.305-3.028.193.083-.106.252a.818.818,0,0,0-.019.743,1.747,1.747,0,0,0,.753.47l4.588,1.964a2.675,2.675,0,0,0,.742.235.519.519,0,0,0,.317-.119,1.062,1.062,0,0,0,.334-.425l.106-.25.193.083-1.306,3.03-.193-.085.111-.256a.819.819,0,0,0,.015-.741,1.7,1.7,0,0,0-.751-.474L61.165,46.13a2.567,2.567,0,0,0-.738-.235.5.5,0,0,0-.321.123,1.023,1.023,0,0,0-.33.419Z" transform="translate(-0.007 -0.213)" fill="#b5b5b5"/>
      <path id="Path_28" data-name="Path 28" d="M62.21,56.608l-1.546-.946.123-.178a2.3,2.3,0,0,0,.661.241,1.153,1.153,0,0,0,.668-.114,1.621,1.621,0,0,0,.563-.546l.614-.893-4.878-3.316a1.622,1.622,0,0,0-.823-.372.849.849,0,0,0-.572.417l-.151.218L56.7,51l1.846-2.7.174.121-.153.222a.777.777,0,0,0-.147.741,1.728,1.728,0,0,0,.617.567l4.878,3.314.523-.766a2.543,2.543,0,0,0,.368-.677,1.05,1.05,0,0,0-.057-.648,1.69,1.69,0,0,0-.546-.675l.121-.178,1.446,1.094Z" transform="translate(-0.007 -0.236)" fill="#b5b5b5"/>
      <path id="Path_29" data-name="Path 29" d="M56.7,61.815l-2.056,1.731-.138-.157.115-.1a1.184,1.184,0,0,0,.245-.379,1.655,1.655,0,0,0,.153-.622,5.152,5.152,0,0,0-.077-.973l-.474-3.43-1.254-1.469c-.306-.362-.538-.554-.7-.573a.878.878,0,0,0-.676.258l-.191.161-.136-.159L54.018,54l.136.159-.208.176a.779.779,0,0,0-.34.673,1.722,1.722,0,0,0,.442.713L55.23,57.1l3.71,1.1a7.312,7.312,0,0,0,.85.212,2.043,2.043,0,0,0,.644-.1.757.757,0,0,0,.289-.169l.138.161-2.524,2.127L58.2,60.27l.13-.108a.954.954,0,0,0,.3-.415.4.4,0,0,0-.07-.427,1.781,1.781,0,0,0-.744-.339l-2.841-.855.383,2.785a1.712,1.712,0,0,0,.255.825.516.516,0,0,0,.247.163.546.546,0,0,0,.308,0,1.2,1.2,0,0,0,.4-.243Z" transform="translate(-0.006 -0.264)" fill="#b5b5b5"/>
    </g>
  </g>
</svg>
