<svg xmlns="http://www.w3.org/2000/svg" xmlns:xlink="http://www.w3.org/1999/xlink" width="466" height="400" viewBox="0 0 466 400">
  <defs>
    <clipPath id="clip-path">
      <rect id="Rectangle_5249" data-name="Rectangle 5249" width="466" height="400" transform="translate(38 2)" fill="none"/>
    </clipPath>
    <clipPath id="clip-path-2">
      <rect width="118" height="36" fill="none"/>
    </clipPath>
    <clipPath id="clip-path-3">
      <rect width="35" height="36" fill="none"/>
    </clipPath>
  </defs>
  <g id="MV01" transform="translate(-38 -3)">
    <g id="Mask_Group_3" data-name="Mask Group 3" transform="translate(0 1)" clip-path="url(#clip-path)">
      <rect id="Rectangle_5245" data-name="Rectangle 5245" width="466" height="400" transform="translate(38 2)" fill="#ffedf2"/>
      <path id="Path_352" data-name="Path 352" d="M110.872,11.06l36.152,219.575,36.141,202.913H38.59L74.731,230.635Z" transform="translate(3.545 -32.549)" fill="#f8c3cd"/>
      <path id="Path_353" data-name="Path 353" d="M60.6,73.63,90.9,257.709,121.2,427.8H0L30.3,257.709Z" transform="translate(0 -26.8)" fill="#f8c3cd"/>
      <g id="Repeat_Grid_4" data-name="Repeat Grid 4" transform="translate(38 348)" clip-path="url(#clip-path-2)">
        <g id="Group_20" data-name="Group 20" transform="translate(-4581 -170)">
          <circle id="Ellipse_24" data-name="Ellipse 24" cx="2.5" cy="2.5" r="2.5" transform="translate(4581 170)" fill="#f2879b"/>
          <circle id="Ellipse_25" data-name="Ellipse 25" cx="2.5" cy="2.5" r="2.5" transform="translate(4591 180)" fill="#f2879b"/>
        </g>
        <g id="Group_20-2" data-name="Group 20" transform="translate(-4561 -170)">
          <circle id="Ellipse_24-2" data-name="Ellipse 24" cx="2.5" cy="2.5" r="2.5" transform="translate(4581 170)" fill="#f2879b"/>
          <circle id="Ellipse_25-2" data-name="Ellipse 25" cx="2.5" cy="2.5" r="2.5" transform="translate(4591 180)" fill="#f2879b"/>
        </g>
        <g id="Group_20-3" data-name="Group 20" transform="translate(-4541 -170)">
          <circle id="Ellipse_24-3" data-name="Ellipse 24" cx="2.5" cy="2.5" r="2.5" transform="translate(4581 170)" fill="#f2879b"/>
          <circle id="Ellipse_25-3" data-name="Ellipse 25" cx="2.5" cy="2.5" r="2.5" transform="translate(4591 180)" fill="#f2879b"/>
        </g>
        <g id="Group_20-4" data-name="Group 20" transform="translate(-4521 -170)">
          <circle id="Ellipse_24-4" data-name="Ellipse 24" cx="2.5" cy="2.5" r="2.5" transform="translate(4581 170)" fill="#f2879b"/>
          <circle id="Ellipse_25-4" data-name="Ellipse 25" cx="2.5" cy="2.5" r="2.5" transform="translate(4591 180)" fill="#f2879b"/>
        </g>
        <g id="Group_20-5" data-name="Group 20" transform="translate(-4501 -170)">
          <circle id="Ellipse_24-5" data-name="Ellipse 24" cx="2.5" cy="2.5" r="2.5" transform="translate(4581 170)" fill="#f2879b"/>
          <circle id="Ellipse_25-5" data-name="Ellipse 25" cx="2.5" cy="2.5" r="2.5" transform="translate(4591 180)" fill="#f2879b"/>
        </g>
        <g id="Group_20-6" data-name="Group 20" transform="translate(-4481 -170)">
          <circle id="Ellipse_24-6" data-name="Ellipse 24" cx="2.5" cy="2.5" r="2.5" transform="translate(4581 170)" fill="#f2879b"/>
          <circle id="Ellipse_25-6" data-name="Ellipse 25" cx="2.5" cy="2.5" r="2.5" transform="translate(4591 180)" fill="#f2879b"/>
        </g>
        <g id="Group_20-7" data-name="Group 20" transform="translate(-4581 -150)">
          <circle id="Ellipse_24-7" data-name="Ellipse 24" cx="2.5" cy="2.5" r="2.5" transform="translate(4581 170)" fill="#f2879b"/>
          <circle id="Ellipse_25-7" data-name="Ellipse 25" cx="2.5" cy="2.5" r="2.5" transform="translate(4591 180)" fill="#f2879b"/>
        </g>
        <g id="Group_20-8" data-name="Group 20" transform="translate(-4561 -150)">
          <circle id="Ellipse_24-8" data-name="Ellipse 24" cx="2.5" cy="2.5" r="2.5" transform="translate(4581 170)" fill="#f2879b"/>
          <circle id="Ellipse_25-8" data-name="Ellipse 25" cx="2.5" cy="2.5" r="2.5" transform="translate(4591 180)" fill="#f2879b"/>
        </g>
        <g id="Group_20-9" data-name="Group 20" transform="translate(-4541 -150)">
          <circle id="Ellipse_24-9" data-name="Ellipse 24" cx="2.5" cy="2.5" r="2.5" transform="translate(4581 170)" fill="#f2879b"/>
          <circle id="Ellipse_25-9" data-name="Ellipse 25" cx="2.5" cy="2.5" r="2.5" transform="translate(4591 180)" fill="#f2879b"/>
        </g>
        <g id="Group_20-10" data-name="Group 20" transform="translate(-4521 -150)">
          <circle id="Ellipse_24-10" data-name="Ellipse 24" cx="2.5" cy="2.5" r="2.5" transform="translate(4581 170)" fill="#f2879b"/>
          <circle id="Ellipse_25-10" data-name="Ellipse 25" cx="2.5" cy="2.5" r="2.5" transform="translate(4591 180)" fill="#f2879b"/>
        </g>
        <g id="Group_20-11" data-name="Group 20" transform="translate(-4501 -150)">
          <circle id="Ellipse_24-11" data-name="Ellipse 24" cx="2.5" cy="2.5" r="2.5" transform="translate(4581 170)" fill="#f2879b"/>
          <circle id="Ellipse_25-11" data-name="Ellipse 25" cx="2.5" cy="2.5" r="2.5" transform="translate(4591 180)" fill="#f2879b"/>
        </g>
        <g id="Group_20-12" data-name="Group 20" transform="translate(-4481 -150)">
          <circle id="Ellipse_24-12" data-name="Ellipse 24" cx="2.5" cy="2.5" r="2.5" transform="translate(4581 170)" fill="#f2879b"/>
          <circle id="Ellipse_25-12" data-name="Ellipse 25" cx="2.5" cy="2.5" r="2.5" transform="translate(4591 180)" fill="#f2879b"/>
        </g>
      </g>
      <path id="Path_354" data-name="Path 354" d="M347.59,398.24s0-4.87.7-6.49,3.23-8.21,3.23-8.21h10a64.664,64.664,0,0,1,2,8c.15,2,0,6.72,0,6.72Z" transform="translate(38 4)" fill="#3d3d3d"/>
      <path id="Path_355" data-name="Path 355" d="M410.75,398.24s0-4.87-.7-6.49-3.23-8.21-3.23-8.21h-9.95a64.664,64.664,0,0,0-2,8c-.15,2,0,6.72,0,6.72Z" transform="translate(38 4)" fill="#3d3d3d"/>
      <path id="Path_356" data-name="Path 356" d="M370.9,124.91s-.35,10.85-1.74,15.71l-11,7.66,41.35,6.19-9.86-13.63s-3-14.54-1.41-19.92S370.9,124.91,370.9,124.91Z" transform="translate(38 4)" fill="#ffb27d"/>
      <path id="Path_357" data-name="Path 357" d="M370.84,126.41s3.27,7.87,9.43,7.7,7.56-7.14,7.56-7.14Z" transform="translate(38 4)" fill="#ed985f"/>
      <path id="Path_358" data-name="Path 358" d="M367.16,120s-2-9.93-3.38-12.94S361.24,90.68,376.62,90c0,0,5.9.7,9.14-1.27,0,0,0,2-.81,2.66a10.22,10.22,0,0,1,9.48,3.36c4.17,4.62-2.77,20.82-2.42,24.63Z" transform="translate(38 4)" fill="#2c3a64"/>
      <path id="Path_359" data-name="Path 359" d="M392.24,106.2V117a12.84,12.84,0,0,1-1.12,5.15h0a16.39,16.39,0,0,1-5.54,6.69,10.72,10.72,0,0,1-6,2.19,11.62,11.62,0,0,1-5.71-2.16,16.09,16.09,0,0,1-6.41-7.89h0v-.14a10.681,10.681,0,0,1-.5-3.14V106.2c0-2.68,1.88-4.88,4.17-4.88h17C390.36,101.32,392.24,103.52,392.24,106.2Z" transform="translate(38 4)" fill="#ffb27d"/>
      <path id="Path_360" data-name="Path 360" d="M366.88,112.34s0-6.9,5.49-8,17.7,3.37,19.43-1.66-23.64-4.95-24.92-1.74S366.88,112.34,366.88,112.34Z" transform="translate(38 4)" fill="#2c3a64"/>
      <path id="Path_361" data-name="Path 361" d="M348.84,229.59s1.74,53.15-.86,83.47,0,72.52,0,72.52a19.67,19.67,0,0,0,17.34,0s9.89-58.58,9.83-72.52c-.07-14.85,10.77-81.15,10.77-81.15Z" transform="translate(38 4)" fill="#c8acde"/>
      <path id="Path_362" data-name="Path 362" d="M410.39,385.58a19.67,19.67,0,0,1-17.34,0s-9.9-58.58-9.83-72.52c0-6.27-1.89-21.72-4.12-37.48-3-21.55-6.65-43.67-6.65-43.67L411,229.5s-3.18,53.24-.58,83.56S410.39,385.58,410.39,385.58Z" transform="translate(38 4)" fill="#c8acde"/>
      <path id="Path_363" data-name="Path 363" d="M359.81,240.14c-6.25-.83-10.74-1.71-10.74-1.71s-3.33.3-1.36-16.13c1.49-12.5,1-23.78.69-35.39,0-1.29,0-2.82.07-4.52,1,1.54,11.63,18.77,14.51,31.59C365.07,223.32,361.91,234.33,359.81,240.14Z" transform="translate(38 4)" fill="#ed7d2b"/>
      <path id="Path_364" data-name="Path 364" d="M403.72,143.41h0a111.617,111.617,0,0,0-14.06-2.59c-3.83,5.1-6.59,6.28-10.1,7.67-5.64-.78-10.4-7.74-10.4-7.89a62.78,62.78,0,0,0-12,2.28c-.33,0-18.37,2.42-43.9,54.4,0,0,1.37,4.78,8.07,13.13,4.76,5.93,12.22,13.67,23.8,22.76a39.929,39.929,0,0,0,2.09-6.11s-6.88-13.39-11-22.46c-2-4.41-3.38-7.8-3-8.13.74-.62,9.07-7.84,15.21-13.18-.05,1.33-.06,2.55,0,3.6.34,11.61.8,22.89-.69,35.39-2,16.43,1.36,16.13,1.36,16.13s4.49.88,10.74,1.71a151.226,151.226,0,0,0,19.29,1.48c15,0,31.42-3.19,31.42-3.19,4.73.06-1.32-29.42-2.21-47.17-.2-4.12-.39-7.88-.57-11.31,5.65,4.9,18.16,15.78,19.09,16.54.39.33-1,3.72-3,8.13-4.15,9.07-11,22.46-11,22.46a39.932,39.932,0,0,0,2.09,6.11c11.58-9.09,19-16.83,23.81-22.76,6.69-8.35,8.07-13.13,8.07-13.13C421,144.83,403.72,143.41,403.72,143.41Z" transform="translate(38 4)" fill="#d0d0d0"/>
      <path id="Path_365" data-name="Path 365" d="M383.22,313.06c0-6.27-1.89-21.72-4.12-37.48,2.31-9.41,7.93-18.46,7.93-18.46C394.15,277.07,383.22,313.06,383.22,313.06Z" transform="translate(38 4)" fill="#a99ec4"/>
      <path id="Path_366" data-name="Path 366" d="M345.86,227.74s6.24-5.79,8.79-2.55,3,8.33,1,8-6-2.19-6.59-1.27-3.17,2.7-4,1.29S345.86,227.74,345.86,227.74Z" transform="translate(38 4)" fill="#ffb27d"/>
      <path id="Path_367" data-name="Path 367" d="M347.23,227.08a39.925,39.925,0,0,1-2.09,6.11c-11.58-9.09-19-16.83-23.8-22.76,3.59-.27,8.83-1.56,14.87-5.81C340.35,213.69,347.23,227.08,347.23,227.08Z" transform="translate(38 4)" fill="#ffb27d"/>
      <path id="Path_368" data-name="Path 368" d="M414.19,227.74s-6.25-5.79-8.79-2.55-3,8.33-1,8,6-2.19,6.6-1.27,3.17,2.7,3.95,1.29S414.19,227.74,414.19,227.74Z" transform="translate(38 4)" fill="#ffb27d"/>
      <path id="Path_369" data-name="Path 369" d="M412.81,227.08a39.928,39.928,0,0,0,2.09,6.11c11.58-9.09,19-16.83,23.81-22.76-3.6-.27-8.84-1.56-14.87-5.81C419.69,213.69,412.81,227.08,412.81,227.08Z" transform="translate(38 4)" fill="#ffb27d"/>
      <path id="Path_370" data-name="Path 370" d="M385.57,124.11v4.77a10.72,10.72,0,0,1-6,2.19,11.62,11.62,0,0,1-5.71-2.16v-4.8a4.86,4.86,0,0,1,4.85-4.85h2a4.86,4.86,0,0,1,4.86,4.85Z" transform="translate(38 4)" fill="#2c3a64"/>
      <path id="Path_371" data-name="Path 371" d="M426.83,196.49c-.93-.77-13.53-11.71-19.15-16.6,0,0,5.61-4.2,9.08,1.93a158.447,158.447,0,0,0,10.07,14.67Z" transform="translate(38 4)" fill="#ed7d2b"/>
      <path id="Path_372" data-name="Path 372" d="M391.11,122.19c-2.29,5.21-7.63,8.95-11.55,8.88-3.76-.07-10.2-4.31-12.12-10h0v-.14s4.05,3.45,6.72,1.74H385.4a5.55,5.55,0,0,0,5.71-.48Z" transform="translate(38 4)" fill="#2c3a64"/>
      <path id="Path_373" data-name="Path 373" d="M446.78,197.3s-1.38,4.78-8.07,13.13C431,210.32,446.78,197.3,446.78,197.3Z" transform="translate(38 4)" fill="#ed7d2b"/>
      <path id="Path_374" data-name="Path 374" d="M380.92,123.52H378.5c-.56,0-1.26-.91-1.26-1.46a2.62,2.62,0,0,1,1.26-.56h2.42a2,2,0,0,1,1.5.8,1.67,1.67,0,0,1-1.5,1.22Z" transform="translate(38 4)" fill="#ffb27d"/>
      <path id="Path_375" data-name="Path 375" d="M260.65,116.71s-4.08-11.57-4.29-14.58,1.13-11.68,11.15-12.61,13.76-2,13.76-2l-1.91,2.25a7.16,7.16,0,0,1,5.69,1c2.9,1.91,4.37,7.55,3.94,12.41s-4.23,10.2-4.28,12.21S260.65,116.71,260.65,116.71Z" transform="translate(38 4)" fill="#3d3d3d"/>
      <path id="Path_376" data-name="Path 376" d="M233.32,236.83s-.23,2.64-3,8.39c0,0-1.27,3.91,7,9.78s.23-18.17.23-18.17Z" transform="translate(38 4)" fill="#ffb27d"/>
      <path id="Path_377" data-name="Path 377" d="M262.54,134.66s-4.64,24.86-9.71,50.84c-5.51,28.23-11.51,57.77-12.59,58.13-2.07.69-5.24-2-6.61-5.46-1.11-2.78-3-25.59-1.72-40.33a70.79,70.79,0,0,1,1.09-8.37c2.07-9.32,2.69-42.28,8.9-47.45S262.54,134.66,262.54,134.66Z" transform="translate(38 4)" fill="#ffb27d"/>
      <path id="Path_378" data-name="Path 378" d="M262.54,134.66s-2.68,14.33-6.18,32.59c-1.11,5.8-2.31,12-3.53,18.25-5,9.73-9.23,16.34-10.54,15.1-2.69-2.54-7.4-2.85-10.38-2.76a70.786,70.786,0,0,1,1.09-8.37c.16-.74.31-1.62.46-2.63,1.74-11.72,2.72-40.06,8.44-44.82C248.12,136.84,262.54,134.66,262.54,134.66Z" transform="translate(38 4)" fill="#a074c4"/>
      <path id="Path_379" data-name="Path 379" d="M256.36,167.25c-1.11,5.8-2.31,12-3.53,18.25-5,9.73-9.23,16.34-10.54,15.1-2.69-2.54-7.4-2.85-10.38-2.76a70.786,70.786,0,0,1,1.09-8.37c.16-.74.31-1.62.46-2.63l14.89-35.93Z" transform="translate(38 4)" fill="#816eb4"/>
      <path id="Path_380" data-name="Path 380" d="M283.14,134.29a109.516,109.516,0,0,0-.65-16.06l-20,3.27s0,6.11.09,12.89h0s-.55,6.29,7.2,7.21S283.35,139.14,283.14,134.29Z" transform="translate(38 4)" fill="#ffb27d"/>
      <path id="Path_381" data-name="Path 381" d="M262.42,122.74s4.71,9.66,10.12,9.66S283,123.31,283,123.31Z" transform="translate(38 4)" fill="#ed985f"/>
      <path id="Path_382" data-name="Path 382" d="M275.76,399.64s.73-5.67,2.41-9.05,12.42-1.22,12.42-1.22,2.15,1.84,2.61,10.43Z" transform="translate(38 4)" fill="#3d3d3d"/>
      <path id="Path_383" data-name="Path 383" d="M239.18,399.57c2.53-1.54,1.09-13,1.09-13s-11.75-9.4-13.37-2.2-11.16,10.43-16.6,11.31c-3.75.61-4.91,2.69-5.27,3.92Z" transform="translate(38 4)" fill="#3d3d3d"/>
      <path id="Path_384" data-name="Path 384" d="M263.07,123.45c1.94,1.53,7.64,3,9.29,3.23,0,0,8.46-1.89,10-2.81,2.38-1.45,2.22-4.37,2.35-8.43.14-4.8.63-8.58.09-11.35-.64-3.32-2.74-5.2-8.62-5.71-10.81-.94-15.31,1.76-15.5,5.38,0,1-.09,1.9-.12,2.78C260.13,117.84,261,121.84,263.07,123.45Z" transform="translate(38 4)" fill="#ffb27d"/>
      <path id="Path_385" data-name="Path 385" d="M263.53,314.22a53.8,53.8,0,0,0-.86,6.35c-1.1,21.31-17.94,70-21,71.18-4.66,1.76-12-2-15.84-3.21a3.29,3.29,0,0,1-2.31-3.74c8.34-38.35,11.4-93.58,12.52-126.28a148.1,148.1,0,0,1,3.39-27.85s41.09-11,41.33,2.91C281,245.85,267.19,294,263.53,314.22Z" transform="translate(38 4)" fill="#fff"/>
      <path id="Path_386" data-name="Path 386" d="M263.53,314.22l-27.45-55.7a148.1,148.1,0,0,1,3.39-27.85s41.09-11,41.33,2.91C281,245.85,267.19,294,263.53,314.22Z" transform="translate(38 4)" fill="#e6e6e6"/>
      <path id="Path_387" data-name="Path 387" d="M254.39,233.63l21.72,157.43s9.54,2.3,17,.46c0,0,6.36-83.73,5.83-104s4.56-54.17-1.17-57.91S254.39,233.63,254.39,233.63Z" transform="translate(38 4)" fill="#fff"/>
      <path id="Path_388" data-name="Path 388" d="M300.85,229.64a3.24,3.24,0,0,1-3.19,3.37l-34.23.52-25.14.39c-1.18,0,2.54-9.4,2.62-70.82,0-13.7,21.23-28.45,21.63-28.45h0c0,2,3.11,5.62,7.9,5.93,5.69.37,12.66-2.46,12.66-5.73a14.7,14.7,0,0,1,1.73,2.22c2.84,4.14,8.55,14.22,12.2,31.78,2.89,13.86,1.78,32.39,3.85,56.31C301,226.9,300.81,228.43,300.85,229.64Z" transform="translate(38 4)" fill="#ffb27d"/>
      <path id="Path_389" data-name="Path 389" d="M299.59,233.2a69.811,69.811,0,0,1-13.06,3.8,129.412,129.412,0,0,1-25.3,2.54c-16.64.1-22.94-5.63-22.94-5.63-1.18,0,2.54-9.4,2.62-70.82,0-13.7,21.23-28.45,21.63-28.45h0s-.55,18.25,5,23.61c0,0,7.74-6,17.78-23,2.84,4.14,8.08,16,11.73,33.59a95.893,95.893,0,0,1,1.56,11.65c1,12.11.75,26.9,2.29,44.66.15,1.73-.07,3.26,0,4.47C300.93,231.46,301.42,233.18,299.59,233.2Z" transform="translate(38 4)" fill="#a074c4"/>
      <path id="Path_390" data-name="Path 390" d="M299.59,233.2a69.811,69.811,0,0,1-13.06,3.8c-2.68-4.09-6-11.46-6.52-23.07C279.22,194.3,297.88,169,297.88,169l.71,11.5c1,12.11.75,26.9,2.29,44.66.15,1.73-.07,3.26,0,4.47C300.93,231.46,301.42,233.18,299.59,233.2Z" transform="translate(38 4)" fill="#816eb4"/>
      <rect id="Rectangle_5246" data-name="Rectangle 5246" width="36.72" height="50.37" transform="translate(289.636 189.064) rotate(-30)" fill="#3d3d3d"/>
      <path id="Path_391" data-name="Path 391" d="M313.6,207.5A98.745,98.745,0,0,1,296,207a170.419,170.419,0,0,1-30.6-6.16l3.55-6.06s14.5-.64,25.12-2.19a62.354,62.354,0,0,0,6.92-1.34c2.31-.62-9.15-29.66-14.93-46.75-1.38-4.07-2.44-7.47-2.91-9.63,0,0,1,.16,2.6.47,4.5.89,13.65,3,17.54,5.92C308.51,145.23,321.66,190.14,313.6,207.5Z" transform="translate(38 4)" fill="#ffb27d"/>
      <path id="Path_392" data-name="Path 392" d="M269,194.77s-4.91-4.6-6.81-4.6-7.37,2-7.92,3.53-.79,4.29.78,4.9a68.848,68.848,0,0,0,9.71,2.3C266.46,201.06,270.59,200.14,269,194.77Z" transform="translate(38 4)" fill="#ffb27d"/>
      <path id="Path_393" data-name="Path 393" d="M313.6,207.5A98.745,98.745,0,0,1,296,207c.61-3,1.19-8.93-1.93-14.41a62.351,62.351,0,0,0,6.92-1.34c2.31-.62-9.15-29.66-14.93-46.75-.46-5.52-.71-9.22-.71-9.22l.4.06c4.5.89,13.65,3,17.54,5.92C308.51,145.23,321.66,190.14,313.6,207.5Z" transform="translate(38 4)" fill="#a074c4"/>
      <path id="Path_394" data-name="Path 394" d="M267.51,158.27s15.49-6.82,15.72-7.36-.76-4.67-1.84-5.9c0,0,7.44.69,7.9-.23s.61-8.59.61-8.59a11.87,11.87,0,0,0-6.74-3.37s-3.36,8.32-4.6,10.81C275.26,150.22,267.51,158.27,267.51,158.27Z" transform="translate(38 4)" fill="#816eb4"/>
      <path id="Path_395" data-name="Path 395" d="M263.83,144.78s1,8,3.68,13.49c0,0-8.08-5.63-8.77-7.47s1.95-5.41,1.95-5.41-4.83-.11-4.94-1.72,1.49-7.94,1.49-7.94,4.16-3,5.31-2.92Z" transform="translate(38 4)" fill="#816eb4"/>
      <path id="Path_396" data-name="Path 396" d="M260.46,110.16s.42-7.19,4.89-7.28,12.24-.52,15.46-3.56-19.18-1.64-19.18-1.64S258.92,106.35,260.46,110.16Z" transform="translate(38 4)" fill="#3d3d3d"/>
      <path id="Path_397" data-name="Path 397" d="M278.4,100.39s5.83,2.37,6.65,6.08C285.05,106.47,287,92.82,278.4,100.39Z" transform="translate(38 4)" fill="#3d3d3d"/>
      <path id="Path_398" data-name="Path 398" d="M311.46,221.87c-13.72-3.49-28.81-24.78-28.81-24.78l3.87-3.35c4,4.71,20.63,12.84,20.63,12.84a114.268,114.268,0,0,1,.3-11.84c1.84-24.36,11-32.47,13.53-34.25a6.323,6.323,0,0,1,.64-.41s0,.18,0,.51c0,.73.1,2.18.17,4.19C322.32,179.68,322.93,224.79,311.46,221.87Z" transform="translate(38 4)" fill="#ffb27d"/>
      <path id="Path_399" data-name="Path 399" d="M286.52,193.74c-.06-.58-.45-9-2.11-10.54s-4.94-3.76-5.89-3.59-4.14,5.51-2.63,9.18,6.76,8.3,6.76,8.3Z" transform="translate(38 4)" fill="#d9935c"/>
      <rect id="Rectangle_5247" data-name="Rectangle 5247" width="10.13" height="18.34" rx="0.54" transform="translate(317.598 180.76) rotate(-2.4)" fill="#f1a34f"/>
      <rect id="Rectangle_5248" data-name="Rectangle 5248" width="10.13" height="18.34" rx="0.96" transform="translate(315.663 180.841) rotate(-2.4)" fill="#d86713"/>
      <path id="Path_400" data-name="Path 400" d="M277.84,180.25s2.46-2.75,4.93-.65-.17,6.6-2.3,7.82a17.622,17.622,0,0,0-2.83,1.87Z" transform="translate(38 4)" fill="#ffb27d"/>
      <path id="Path_401" data-name="Path 401" d="M341.35,363.46c-.84,3.33-1.76,6.49-2.7,9.44l-.6,1.86-.3.89c-.19.58-.39,1.16-.58,1.72-.26.72-.51,1.44-.76,2.12-.18.51-.37,1-.55,1.5-2.78,7.46-5.11,12.19-5.11,12.19l-5.55-.38a149.726,149.726,0,0,0,2.5-24.09c0-.5,0-1,0-1.53v-4.79c-.11-12.21-1.63-26.65-6.45-40.44a263.086,263.086,0,0,1-8.83-31.17c-6.64-30.59-5.08-50.69-5.08-50.69l31.19,3.65,1.46.17c.13,14.33.5,33.78.82,49,.06,2.64.11,5.15.16,7.49.22,9.76.38,16.44.38,16.44C347.42,329.74,345.24,348,341.35,363.46Z" transform="translate(38 4)" fill="#ed985f"/>
      <path id="Path_402" data-name="Path 402" d="M332.41,133s7.38,6.28.62,13.51c0,0,5.64.56,7.54-1a5,5,0,0,1-.72,1.1s6.31.23,8.91-1.74.93-34.22-16.57-30.61c0,0-14.83-1.12-13.45,16s-4.21,17.16-4.21,17.16a7.94,7.94,0,0,0,2.31.76s1.09-.41,1.31-1a4,4,0,0,1-.5,1.26s6.05.57,9.06-1.71S333.28,136.53,332.41,133Z" transform="translate(38 4)" fill="#a48b77"/>
      <path id="Path_403" data-name="Path 403" d="M356.23,236.59c-5.9-13.22-8.72-17-8.81-21.12-.08-3.29,1.54-6.84,4.69-15.54a32.9,32.9,0,0,0,1.57-6.29c2.49-16.78-7.21-34.92-13.24-36.15-1.68-.45-4.52-6.51-4.49-16.27l-.75.15-12.7,2.51s.29,4,.3,7.76c0,3.14-.17,6.33-.88,6.71a17.407,17.407,0,0,0-1.74.25s-10.75,7.54-11.44,17.78c-.93,13.67,8.71,29.88.16,57.21C300.17,261.5,359.49,243.9,356.23,236.59Z" transform="translate(38 4)" fill="#ffb27d"/>
      <path id="Path_404" data-name="Path 404" d="M322.5,143.88s.29,4,.3,7.76c7.1-.2,10.86-6.68,12.4-10.27Z" transform="translate(38 4)" fill="#ed985f"/>
      <path id="Path_405" data-name="Path 405" d="M336.51,140s3.72-5.88,4.62-10.91c.63-3.59-1.2-16.91-14.58-15a18.27,18.27,0,0,0-7.53,2.85c-2.91,2-7.1,6.2-2.41,17.82l1.21,3.92Z" transform="translate(38 4)" fill="#a48b77"/>
      <path id="Path_406" data-name="Path 406" d="M320.13,147.45s16.81.27,16.82-10.2,2.19-17.49-8.55-18.11-12.82,3.38-13.67,6.87S315.75,147.1,320.13,147.45Z" transform="translate(38 4)" fill="#ffb27d"/>
      <path id="Path_407" data-name="Path 407" d="M320.75,118.89s4.6,12.28,11.66,14.1,10.13-.08,10.13-.08A20,20,0,0,1,336,121.09S324.22,113,320.75,118.89Z" transform="translate(38 4)" fill="#a48b77"/>
      <path id="Path_408" data-name="Path 408" d="M321.89,119.88s-3.44,2.75-4.28,5.41-1.21,8.16-2.81,8c0,0-3.47-8.35.43-13.07C319.36,115.18,321.89,119.88,321.89,119.88Z" transform="translate(38 4)" fill="#a48b77"/>
      <path id="Path_409" data-name="Path 409" d="M378.09,250.64l-5,1.51s-16.65-27.62-18.17-34.81c-.49-2.34-1.7-7-3.11-12.27-2.93-10.87-6.7-24.16-6.7-24.16l-1.24-5.38-4.24-18.36s8.12.83,12.86,2.82c1.57.65,2.77,1.43,3.19,2.35,3.49,7.67,7,27,9.42,40.82,1.36,7.7,2.4,13.67,2.94,14.94C369.52,221.63,374.14,241.05,378.09,250.64Z" transform="translate(38 4)" fill="#ffb27d"/>
      <path id="Path_410" data-name="Path 410" d="M321.25,120.3s3.28,12.86,12.19,17c0,0-8.91-7.9-9.67-16.39S321.25,120.3,321.25,120.3Z" transform="translate(38 4)" fill="#a48b77"/>
      <path id="Path_411" data-name="Path 411" d="M377.74,249.8s1.53,3.61,3.13,4.62a9,9,0,0,1,3.45,5.38,4.76,4.76,0,0,1-4.16,5.8c-2,0-3.94-2.75-5.13-9.32-.07-.36-2-4.13-2-4.13Z" transform="translate(38 4)" fill="#ffb27d"/>
      <path id="Path_412" data-name="Path 412" d="M359.24,360.78c-1.79,19.14-9.69,31.52-9.69,31.52l-2.7,2.45s-2.45-14-4.23-30.06c-1.69-15.25-4-31.39-6.63-36.32-3.91-7.36-6.8-22.41-8.88-38.31-3.43-26.32-4.65-55-4.65-55l31.63-1.57c3.18,5.35,4.56,14.12,4.89,24.1a243.37,243.37,0,0,1-1.62,32.86c-1.6,14.78-3.83,27.1-4.35,29.87h0a1.65,1.65,0,0,0,.21,1.06C359.51,333.88,360.42,348.13,359.24,360.78Z" transform="translate(38 4)" fill="#ffb27d"/>
      <path id="Path_413" data-name="Path 413" d="M322.33,192.64c-.71,17.38-3.31,34.58-10.87,33.47-9.28-1.35-11.69-10-12.18-16.44a36.827,36.827,0,0,1,.13-7.15s4.56,0,5.3-.7c3.51-3.23,2.47-35,4.2-38.28s13-5.41,13-5.41S323,175.47,322.33,192.64Z" transform="translate(38 4)" fill="#f2879b"/>
      <path id="Path_414" data-name="Path 414" d="M322.33,192.64c-.71,17.38-3.31,34.58-10.87,33.47-9.28-1.35-11.69-10-12.18-16.44,2.27-.11,6.28-.67,7.87-3.1,2.28-3.47,9.4-25.85,9.4-25.85S319.34,185.74,322.33,192.64Z" transform="translate(38 4)" fill="#f0799b"/>
      <path id="Path_415" data-name="Path 415" d="M341.35,363.46c-.84,3.33-1.76,6.49-2.7,9.44l-.6,1.86-.3.89c-.19.58-.39,1.16-.58,1.72-.26.72-.51,1.44-.76,2.12-.18.51-.37,1-.55,1.5-2.78,7.46-5.11,12.19-5.11,12.19l-5.55-.38a149.726,149.726,0,0,0,2.5-24.09c0-.5,0-1,0-1.53v-4.79c-.11-12.21-1.63-26.65-6.45-40.44a263.086,263.086,0,0,1-8.83-31.17c3.3.68,6.2,0,14.62-.72.89-.08,5.12,5.17,9.3,12.1.22,9.77,5,14.67,5,14.67C347.42,329.74,345.24,348,341.35,363.46Z" transform="translate(38 4)" fill="#b1b1b1"/>
      <path id="Path_416" data-name="Path 416" d="M359.24,360.78c-1.79,19.14-9.69,31.52-9.69,31.52l-2.7,2.45s-2.45-14-4.23-30.06c-1.69-15.25-4-31.39-6.63-36.32-3.91-7.36-6.8-22.41-8.88-38.31,2.91,1.21,12.82,4.36,30.25.42-1.6,14.78-3.83,27.1-4.35,29.87h0a1.65,1.65,0,0,0,.21,1.06C359.51,333.88,360.42,348.13,359.24,360.78Z" transform="translate(38 4)" fill="#d0d0d0"/>
      <path id="Path_417" data-name="Path 417" d="M312.49,216.24s18.6,4.67,34.93-.77c0,0,9,19,11.42,27.18s6.46,25,6.46,25-33.14,10.23-60.38,0c0,0-1.24-22.43,2.33-34.12S312.49,216.24,312.49,216.24Z" transform="translate(38 4)" fill="#3d3d3d"/>
      <path id="Path_418" data-name="Path 418" d="M379.93,225c0,4.36-4.45,7-9.23,8.35-4.59,1.26-9.49,1.24-11,.21-2.64-1.77-6.94-21.44-8.2-27.43l-.35-1.72s-3.43,8.19-3.54,8.95c0,.35-.09.82-.12,1.23s-.06.92-.06.92-18.62,9.4-34.92.77c0,0-6.63-38.3-3.75-44.89,1.43-3.28,8.89-10,11.87-12.95.67-.66.6-2,.34-3.14a1.37,1.37,0,0,1,1.68-1.63,17.72,17.72,0,0,0,9.07-.8,21.881,21.881,0,0,0,5.55-2.71.84.84,0,0,1,1.31.6c.28,2.28,1,6.45,2.23,6.45,1.74,0,13.58,1.45,14.44,2.91.31.51,3.38,7.47,7.27,16.7h0C369.8,194.11,379.93,219.37,379.93,225Z" transform="translate(38 4)" fill="#f2879b"/>
      <path id="Path_419" data-name="Path 419" d="M351.13,204.37s-3.43,8.19-3.54,8.95c0,.35-.09.82-.12,1.23a16.94,16.94,0,0,1-5.71,3c-5.8,1.76-8.33-9.37-8-14.92s8.56-21.4,11.29-21.73S351.13,204.37,351.13,204.37Z" transform="translate(38 4)" fill="#f0799b"/>
      <path id="Path_420" data-name="Path 420" d="M351.48,206.09l-.35-1.72a8.482,8.482,0,0,1,.35,1.72Z" transform="translate(38 4)" fill="#e58638"/>
      <path id="Path_421" data-name="Path 421" d="M327.52,219.79c-10.6,0-14.8-3-15.13-3.22l-.68-5c.1.07,14.32,8.61,36.32.43l-.46,3.78C339.1,218.94,333,219.79,327.52,219.79Z" transform="translate(38 4)" fill="#f2879b"/>
      <path id="Path_422" data-name="Path 422" d="M379.93,225c0,4.36-4.45,7-9.23,8.35,6.59-7.84-7.82-55.29-8.19-56.5C369.8,194.11,379.93,219.37,379.93,225Z" transform="translate(38 4)" fill="#f0799b"/>
      <path id="Path_423" data-name="Path 423" d="M340.79,157.17s-8.86,5.62-15.57,4.29c0,0-1.61-1,.61-2s6.94-3.79,5.87-6.59a21.88,21.88,0,0,0,5.55-2.71.84.84,0,0,1,1.31.6C338.84,153,339.53,157.17,340.79,157.17Z" transform="translate(38 4)" fill="#f0799b"/>
      <path id="Path_424" data-name="Path 424" d="M333.94,397.83H330.4c-1.19-.18-2.06-.53-3.28-.68a3.27,3.27,0,0,0-2.86.68h-15c-.38-.54,0-1.79.34-2.71a2.14,2.14,0,0,1,1.41-1.29c1.59-.46,4.74-.87,7.61-3.48,1.62-1.46,7.82-5.38,7.82-5.38h0c.13,0,.78.21,3.6,2.59,1.46,1.23,3.95-1.74,3.95-1.74a3.66,3.66,0,0,1,.81,1.11,3.73,3.73,0,0,1,.32,2.31c-.22,1.35.5,3.87,1.08,5.57.35,1,.65,1.76.65,1.76S337,397.45,333.94,397.83Z" transform="translate(38 4)" fill="#3d3d3d"/>
      <path id="Path_425" data-name="Path 425" d="M334.77,387a11.49,11.49,0,0,1-3.81,1.92c-1.6.21-4.59-3.87-4.59-3.87h0c.13,0,.78.21,3.6,2.59,1.46,1.23,3.95-1.74,3.95-1.74a3.66,3.66,0,0,1,.85,1.1Z" transform="translate(38 4)" fill="#3d3d3d"/>
      <path id="Path_426" data-name="Path 426" d="M333.94,397.83H330.4c-1.19-.18-2.06-.53-3.28-.68a3.27,3.27,0,0,0-2.86.68h-15c-.38-.54,0-1.79.34-2.71.46-.41.59,1.76.84,2.11s12.26.12,13-.38a7.22,7.22,0,0,1,5.67-.7c2.53.61,6.25-.94,7.17-1.35.35,1,.65,1.76.65,1.76S337,397.45,333.94,397.83Z" transform="translate(38 4)" fill="#3d3d3d"/>
      <path id="Path_427" data-name="Path 427" d="M352.83,397.83h-3.54c-1.19-.18-2.06-.53-3.28-.68a3.24,3.24,0,0,0-2.86.68h-15c-.38-.54,0-1.79.34-2.71a2.14,2.14,0,0,1,1.41-1.29c1.59-.46,4.73-.87,7.61-3.48,1.62-1.46,7.82-5.38,7.82-5.38h0c.14,0,.79.21,3.61,2.59,1.46,1.23,3.94-1.74,3.94-1.74a3.581,3.581,0,0,1,.82,1.11,3.73,3.73,0,0,1,.32,2.31c-.22,1.35.5,3.87,1.08,5.57.35,1,.64,1.76.64,1.76S355.87,397.45,352.83,397.83Z" transform="translate(38 4)" fill="#3d3d3d"/>
      <path id="Path_428" data-name="Path 428" d="M353.66,387a11.49,11.49,0,0,1-3.81,1.92c-1.6.21-4.59-3.87-4.59-3.87h0c.14,0,.79.21,3.61,2.59,1.46,1.23,3.94-1.74,3.94-1.74a3.58,3.58,0,0,1,.85,1.1Z" transform="translate(38 4)" fill="#3d3d3d"/>
      <path id="Path_429" data-name="Path 429" d="M352.83,397.83h-3.54c-1.19-.18-2.06-.53-3.28-.68a3.24,3.24,0,0,0-2.86.68h-15c-.38-.54,0-1.79.34-2.71.45-.41.58,1.76.84,2.11s12.26.12,12.95-.38a7.26,7.26,0,0,1,5.68-.7c2.53.61,6.25-.94,7.17-1.35.35,1,.64,1.76.64,1.76S355.87,397.45,352.83,397.83Z" transform="translate(38 4)" fill="#3d3d3d"/>
      <path id="Path_430" data-name="Path 430" d="M186.2,131.07s-12-.6-12.37-7.54-10.27-12-7.39-17.58c3.53-6.83.31-13.4,4.76-18,4.91-5.06,11.11-2.31,14.38-5.26s9.26-5.67,15.15-2,10.41,1.68,14.28,5.19c4.29,3.88,2.66,8.76,6.2,11.41,3.24,2.43,1.91,9.07-.81,14.46-2,3.88,2.56,7.53-5.22,12-3.23,1.86-2.53,6.54-12.36,7.35C198.39,131.43,188.78,129.36,186.2,131.07Z" transform="translate(38 4)" fill="#a48b77"/>
      <path id="Path_431" data-name="Path 431" d="M163.25,398.24s0-4.87.69-6.49,3.24-8.21,3.24-8.21h9.95a64.664,64.664,0,0,1,2,8c.15,2,0,6.72,0,6.72Z" transform="translate(38 4)" fill="#3d3d3d"/>
      <path id="Path_432" data-name="Path 432" d="M226.41,398.24s0-4.87-.7-6.49-3.24-8.21-3.24-8.21h-9.94a64.664,64.664,0,0,0-2,8c-.15,2,0,6.72,0,6.72Z" transform="translate(38 4)" fill="#3d3d3d"/>
      <path id="Path_433" data-name="Path 433" d="M186.56,124.91s-.35,10.85-1.74,15.71l-11,7.66,41.35,6.19-9.86-13.63s-3-14.54-1.41-19.92S186.56,124.91,186.56,124.91Z" transform="translate(38 4)" fill="#ffb27d"/>
      <path id="Path_434" data-name="Path 434" d="M186.5,126.41s3.27,7.87,9.43,7.7,7.56-7.14,7.56-7.14Z" transform="translate(38 4)" fill="#ed985f"/>
      <path id="Path_435" data-name="Path 435" d="M195.22,131.07c-4.46-.08-12.68-6-12.68-13.38V106.2c0-2.68,1.88-4.88,4.17-4.88h17c2.29,0,4.17,2.2,4.17,4.88V117C207.9,124.75,200.34,131.16,195.22,131.07Z" transform="translate(38 4)" fill="#ffb27d"/>
      <path id="Path_436" data-name="Path 436" d="M164.5,229.59s1.74,53.15-.86,83.47,0,72.52,0,72.52a19.69,19.69,0,0,0,17.35,0s9.89-58.58,9.83-72.52c-.07-14.85,10.77-81.15,10.77-81.15Z" transform="translate(38 4)" fill="#d0d0d0"/>
      <path id="Path_437" data-name="Path 437" d="M226.05,385.58a19.68,19.68,0,0,1-17.35,0s-9.89-58.58-9.83-72.52c0-6.27-1.88-21.72-4.11-37.48-3-21.55-6.66-43.67-6.66-43.67l38.54-2.41s-3.17,53.24-.57,83.56S226.05,385.58,226.05,385.58Z" transform="translate(38 4)" fill="#d0d0d0"/>
      <path id="Path_438" data-name="Path 438" d="M219.38,143.41h0a111.62,111.62,0,0,0-14.06-2.59c-3.84,5.1-6.59,6.28-10.1,7.67-5.64-.78-10.4-7.74-10.4-7.89a62.78,62.78,0,0,0-12,2.28c-.33,0-18.37,2.42-43.91,54.4,0,0,1.38,4.78,8.08,13.13,4.76,5.93,12.22,13.67,23.8,22.76a39.929,39.929,0,0,0,2.09-6.11s-6.88-13.39-11-22.46c-2-4.41-3.37-7.8-3-8.13.74-.62,9.07-7.84,15.21-13.18-.05,1.33-.06,2.55,0,3.6.33,11.61.8,22.89-.69,35.39-2,16.43,1.36,16.13,1.36,16.13s4.48.88,10.74,1.71a151.225,151.225,0,0,0,19.29,1.48c15,0,31.42-3.19,31.42-3.19,4.73.06-1.32-29.42-2.21-47.17-.2-4.12-.39-7.88-.57-11.31,5.65,4.9,18.16,15.78,19.08,16.54.4.33-1,3.72-3,8.13-4.15,9.07-11,22.46-11,22.46a39.929,39.929,0,0,0,2.09,6.11c11.58-9.09,19-16.83,23.81-22.76,6.69-8.35,8.07-13.13,8.07-13.13C236.66,144.83,219.38,143.41,219.38,143.41Z" transform="translate(38 4)" fill="#f2879b"/>
      <path id="Path_439" data-name="Path 439" d="M175.47,240.14c-6.26-.83-10.74-1.71-10.74-1.71s-3.33.3-1.36-16.13c1.49-12.5,1-23.78.69-35.39,0-1.29,0-2.82.07-4.52,1,1.54,11.63,18.77,14.5,31.59C180.73,223.32,177.57,234.33,175.47,240.14Z" transform="translate(38 4)" fill="#f0799b"/>
      <path id="Path_440" data-name="Path 440" d="M198.87,313.06c0-6.27-1.88-21.72-4.11-37.48,2.31-9.41,7.93-18.46,7.93-18.46C209.8,277.07,198.87,313.06,198.87,313.06Z" transform="translate(38 4)" fill="#6b6b6b" opacity="0.3"/>
      <path id="Path_441" data-name="Path 441" d="M161.52,227.74s6.24-5.79,8.79-2.55,3,8.33,1,8-6-2.19-6.6-1.27-3.17,2.7-3.95,1.29S161.52,227.74,161.52,227.74Z" transform="translate(38 4)" fill="#ffb27d"/>
      <path id="Path_442" data-name="Path 442" d="M162.89,227.08a39.929,39.929,0,0,1-2.09,6.11c-11.58-9.09-19-16.83-23.8-22.76,3.59-.27,8.83-1.56,14.86-5.81C156,213.69,162.89,227.08,162.89,227.08Z" transform="translate(38 4)" fill="#ffb27d"/>
      <path id="Path_443" data-name="Path 443" d="M229.84,227.74s-6.24-5.79-8.79-2.55-3,8.33-1,8,6-2.19,6.6-1.27,3.17,2.7,3.95,1.29S229.84,227.74,229.84,227.74Z" transform="translate(38 4)" fill="#ffb27d"/>
      <path id="Path_444" data-name="Path 444" d="M228.47,227.08a39.93,39.93,0,0,0,2.09,6.11c11.58-9.09,19-16.83,23.8-22.76-3.59-.27-8.83-1.56-14.86-5.81C235.35,213.69,228.47,227.08,228.47,227.08Z" transform="translate(38 4)" fill="#ffb27d"/>
      <path id="Path_445" data-name="Path 445" d="M242.48,196.49c-.92-.77-13.52-11.71-19.14-16.6,0,0,5.61-4.2,9.08,1.93a159.19,159.19,0,0,0,10.06,14.67Z" transform="translate(38 4)" fill="#f0799b"/>
      <path id="Path_446" data-name="Path 446" d="M262.44,197.3s-1.38,4.78-8.07,13.13C246.61,210.32,262.44,197.3,262.44,197.3Z" transform="translate(38 4)" fill="#f0799b"/>
      <path id="Path_447" data-name="Path 447" d="M182.54,110.86s3.1-9.45,13.25-8,11,3.64,12.11,6.16,3.16-9.2,3.16-9.2l-12-3.55s-14.49,1.64-15.53,4.07l-1,2.43Z" transform="translate(38 4)" fill="#a48b77"/>
      <path id="Path_448" data-name="Path 448" d="M189,117.91c-1.75,0-5.26-.38-5.87-3.43a2.76,2.76,0,0,1,.5-2.37,3.28,3.28,0,0,1,2.57-1.09h5.38a2.39,2.39,0,0,1,2.13.88,3.463,3.463,0,0,1-.09,3c-.84,2-2,2.94-3.64,2.94A9.592,9.592,0,0,1,189,117.91Zm-2.8-6.53a2.89,2.89,0,0,0-2.29,1,2.37,2.37,0,0,0-.43,2.07c.31,1.56,1.48,2.56,3.48,3a10.73,10.73,0,0,0,3,.14h0c1.49,0,2.54-.87,3.32-2.73.17-.42.7-1.84.12-2.7a2.06,2.06,0,0,0-1.83-.71Z" transform="translate(38 4)" fill="#3d3d3d"/>
      <path id="Path_449" data-name="Path 449" d="M201.43,117.91a9.592,9.592,0,0,1-1,0c-1.64,0-2.79-.94-3.63-2.94-.25-.59-.75-2.05-.1-3a2.4,2.4,0,0,1,2.13-.88h5.39a3.25,3.25,0,0,1,2.56,1.09,2.73,2.73,0,0,1,.5,2.37C206.69,117.52,203.19,117.91,201.43,117.91Zm-2.58-6.53a2.07,2.07,0,0,0-1.83.71c-.57.86-.05,2.28.13,2.7.77,1.86,1.83,2.73,3.31,2.73h0a10.74,10.74,0,0,0,3-.14c2-.41,3.17-1.41,3.49-3a2.43,2.43,0,0,0-.43-2.07,2.92,2.92,0,0,0-2.29-1Z" transform="translate(38 4)" fill="#3d3d3d"/>
      <path id="Path_450" data-name="Path 450" d="M193.29,113.51a.21.21,0,0,1-.09-.4,5,5,0,0,1,4.08,0,.215.215,0,0,1-.2.38,4.65,4.65,0,0,0-3.7,0A.15.15,0,0,1,193.29,113.51Z" transform="translate(38 4)" fill="#3d3d3d"/>
      <path id="Path_451" data-name="Path 451" d="M159.09,236l-4.93.91s-13.49-20.79-13.88-27.13c-.37-6.06-12.53-32.55,1.7-49.1a26.827,26.827,0,0,1,2.1-2.18.6.6,0,0,1,.08-.08.861.861,0,0,1,.07.12,31.7,31.7,0,0,1,2.75,7c2.07,7.06,4.63,20.16,5.24,42.79C152.22,208.39,155.53,227.77,159.09,236Z" transform="translate(38 4)" fill="#ffb27d"/>
      <path id="Path_452" data-name="Path 452" d="M159.09,236s5.28,6,5.44,8.38-1.93,5.45-4.27,6-.89-3.2-1.24-4.7-1.88-3.77-1.79-3.09,1,3.34.74,3.76-1.05.5-1.33-.92-2.66-3.08-2.19-4.61.08-2.7-.56-4.75-1.71-4.5-1.71-4.5l3.8-.81Z" transform="translate(38 4)" fill="#f4a671"/>
      <path id="Path_453" data-name="Path 453" d="M123.43,128.39s-.11,2.52,1.4,3-1.56,5.92-1.32,9.59,1.86,5.13,1.86,5.13a6.06,6.06,0,0,1-.34-3.26,5,5,0,0,0,1.83,3.9c1.89,1.31,1.38,2.44,1.38,2.44s4.28-1.28,4.4-4.49a8.83,8.83,0,0,1,0,2s3.69-2.77,3.87-6-2.91-5.9-4.32-5.95-4.54-2.8-4.45-3.85S123.43,128.39,123.43,128.39Z" transform="translate(38 4)" fill="#3d3d3d"/>
      <path id="Path_454" data-name="Path 454" d="M135.26,110.42c-2.49-3.78-12.38-1.66-22.08,4.73s-15.56,14.64-13.07,18.42,12.38,1.67,22.09-4.72S137.75,114.21,135.26,110.42Z" transform="translate(38 4)" fill="#e2af64"/>
      <path id="Path_455" data-name="Path 455" d="M156.61,389.45l-5.23,1.95s-22.74-31.53-25.54-59.28a42.15,42.15,0,0,1,.75-14.18l-.61-3.51c-.18-1.05-.4-2.31-.65-3.75-.74-4.24-1.76-10-2.92-16.63-2.68-15.18-6.14-34.59-8.84-48.86l1.41-.45,15.26-4.93,3.16-10,11.36-3s2.54,5,4.81,28.43c.42,3.07.8,6.47,1.08,10.15a200.36,200.36,0,0,1-1.08,41.08q-.78,6.12-2,12.61a56.31,56.31,0,0,0-.44,12.46C148.29,354.21,156.61,389.45,156.61,389.45Z" transform="translate(38 4)" fill="#f2879b"/>
      <path id="Path_456" data-name="Path 456" d="M150.65,265.38,126,314.43c-.18-1.05-.4-2.31-.65-3.75-.74-4.24-1.76-10-2.92-16.63-2.68-15.18-6.14-34.59-8.84-48.86l1.41-.45,15.26-4.93,3.16-10,13.57-4s.33,6,2.6,29.47C150,258.3,150.37,261.7,150.65,265.38Z" transform="translate(38 4)" fill="#f0799b"/>
      <path id="Path_457" data-name="Path 457" d="M129.8,110.85l-17.45,26.48s-2-3.91-4.21-2.51c-3.46,2.19-10.88-5.29-9.33-15.85.1-.69.22-1.34.35-2,3.48-5,7.35-10.6,10.12-14.53C117.3,97.64,129.8,110.85,129.8,110.85Z" transform="translate(38 4)" fill="#3d3d3d"/>
      <path id="Path_458" data-name="Path 458" d="M137.47,164.33a29.94,29.94,0,0,1-9.73,5.8c-15.4,5.84-23.33-6.78-26.87-15.7a13.82,13.82,0,0,1,5.16-2.38c1.13-.3,2.33-.55,3.32-.74,1.6-1.61,3.5-7.57,2.91-16.34l.78.09,13,1.73s0,4.06.2,7.87c.18,3,.53,5.8,1.18,6.41l1.61.14h0a81,81,0,0,1,8.44,13.12Z" transform="translate(38 4)" fill="#ffb27d"/>
      <path id="Path_459" data-name="Path 459" d="M126,136.79s0,4.06.2,7.87c-7.2.26-11.42-6.06-13.2-9.59Z" transform="translate(38 4)" fill="#ed985f"/>
      <path id="Path_460" data-name="Path 460" d="M128.67,140.25s-17,1.36-17.67-9.23-3.34-17.55,7.47-18.87,13.19,2.59,14.28,6.07S133.07,139.62,128.67,140.25Z" transform="translate(38 4)" fill="#ffb27d"/>
      <path id="Path_461" data-name="Path 461" d="M131.87,112.36c-2.83-3-4.77-2.19-5.83-1.16a11.89,11.89,0,0,0-15.12,3.42A20.29,20.29,0,0,1,105.06,127s3.22,1.72,10.25-.58a12.08,12.08,0,0,0,5.53-4.36,39.9,39.9,0,0,1-6.29,8.78c8.28-4.49,11-16.58,11.21-17.86,1.1.87,3.27,2.76,4,4.71,1,2.64,1.76,8.17,3.36,7.88C133.14,125.56,136.11,116.89,131.87,112.36Z" transform="translate(38 4)" fill="#3d3d3d"/>
      <path id="Path_462" data-name="Path 462" d="M173,398.24H146.63s-1-4.21.74-7.07c1.54-2.53.95-4-.19-6.07a10.211,10.211,0,0,0,4.44.84,9.241,9.241,0,0,0,3.92-1.38c1.14,1.29,6,6.8,7.52,7.89C164.78,393.69,172.46,393.25,173,398.24Z" transform="translate(38 4)" fill="#3d3d3d"/>
      <path id="Path_463" data-name="Path 463" d="M98.44,124.19s-7.9-15.73,3.14-21.94,19.12-3.78,25.19,3.82Z" transform="translate(38 4)" fill="#edbd77"/>
      <path id="Path_464" data-name="Path 464" d="M148.71,167.1c-2.11-10.58-8.66-13.61-8.66-13.61s-1.09-1.65-7.17-1.91c-.95,0-2-.23-3.14-.32h-.7c.23.36,6.37,9.79,6,12.33s-22.69,1.7-24.31.39c-1.3-1.05-3.55-8.06-4.39-10.8L106,152s-7.8,1.36-11.47,4.4a33.72,33.72,0,0,1,4.68,6.87c.18.36.35.72.51,1.09a16.17,16.17,0,0,1,.81,2.37,4.73,4.73,0,0,1-.54,3.3,22.189,22.189,0,0,1-2.22,3.46c-.6.81-1.24,1.67-1.9,2.58.46,1.54,1.07,3.39,1.74,5.48a145.47,145.47,0,0,1,4.19,15.33,14.61,14.61,0,0,1-.15,6.48,14.42,14.42,0,0,1-.85,2.47c-.55,1.25-.69,3-1.32,4.58C97,217.07,94,225.69,97,230.2c2,5.76,47.59-8.23,44.52-14.27,0,0,1.82-31.68,3.07-41.5,0-.36.08-.71.1-1.06v-1.62C148.61,169.94,148.71,167.1,148.71,167.1Z" transform="translate(38 4)" fill="#fff"/>
      <path id="Path_465" data-name="Path 465" d="M142.91,104.35c-2.27-3.65-10.22-3.06-19.81.87a79.681,79.681,0,0,0-11.76,6.08,75.679,75.679,0,0,0-12.73,9.84c-6.35,6.21-9.45,12.16-7.4,15.46,2.29,3.66,10.31,3.05,20-.94-.79-.85-1.89-1.57-3-.84s-2.85.36-4.45-.91a3.48,3.48,0,0,1-2.54-1.44,3,3,0,0,1-.36-2.06c.49-3.67,5.7-9.38,13.18-14,5.75-3.58,11.46-5.69,15.39-5.94,2.29-.15,4,.33,4.72,1.51.64,1,.49,2.46-.29,4.11a15.07,15.07,0,0,1,.26,5.15C141.38,114.49,145.12,107.89,142.91,104.35Z" transform="translate(38 4)" fill="#ffcf83"/>
      <path id="Path_466" data-name="Path 466" d="M117.23,206.82a78.06,78.06,0,0,1-18,3.38c.62-1.62,1.09-3.08,1.64-4.33a14.84,14.84,0,0,0,1-9c-1.17-5.72-4.29-15.48-5.67-19.77,3.69-8.23,7.5-3.74,7.5-3.74s11.14,5,15.89,14.21S122.9,205,117.23,206.82Z" transform="translate(38 4)" fill="#e6e6e6"/>
      <path id="Path_467" data-name="Path 467" d="M103,152.67a33.76,33.76,0,0,1,13.33,21.08l3.21-1s-1.25-10.2-13.52-20.68Z" transform="translate(38 4)" fill="#f2879b"/>
      <path id="Path_468" data-name="Path 468" d="M140.49,174.11l-3.36.22a34.09,34.09,0,0,0-7.39-23.07c1.15.09,2.2.2,3.14.33C141.67,164.32,140.49,174.11,140.49,174.11Z" transform="translate(38 4)" fill="#f2879b"/>
      <path id="Path_469" data-name="Path 469" d="M144.66,227.83l2.38-1-2.34-35.51s-2.28-16.15-2.31-19a5.22,5.22,0,0,0-2.31-4.2s-16.73.88-21.44,1.15-4.25,2.94-4.25,2.94,2.06,8.58,2.27,9.47c3.17,13.48-15,21.72-15,21.72s-2.94,7.62-5.23,14.92c-3.91,12.51-.41,30.46-.41,30.46.59,9.54,1.68,50,2.81,62,.41,4.34.77,7.44.91,8.67h0a1.78,1.78,0,0,1-.28,1.07,57,57,0,0,0-4.19,8.79C84.18,359,97,395.52,97,395.52l3.33-1.35s7.31-40.63,13.24-58.57a35.931,35.931,0,0,1,2.86-6.87c2.58-4.17,5-11,7.15-19.07,4.11-15.3,7.42-35.21,9.62-50.58.3,0,3.47-21.54,11.4-31A.2.2,0,0,0,144.66,227.83Z" transform="translate(38 4)" fill="#f2879b"/>
      <path id="Path_470" data-name="Path 470" d="M116.2,172.5a1.415,1.415,0,1,1,1.77.92A1.411,1.411,0,0,1,116.2,172.5Z" transform="translate(38 4)" fill="#f0799b"/>
      <path id="Path_471" data-name="Path 471" d="M116.45,172.43a1.4,1.4,0,1,1,.691.82,1.41,1.41,0,0,1-.691-.82Z" transform="translate(38 4)" fill="#ffedf2"/>
      <path id="Path_472" data-name="Path 472" d="M116.92,172a.2.2,0,1,1,.2.2.2.2,0,0,1-.2-.2Z" transform="translate(38 4)" fill="#3d3d3d"/>
      <path id="Path_473" data-name="Path 473" d="M118.25,172a.2.2,0,1,1,.062.145.2.2,0,0,1-.062-.145Z" transform="translate(38 4)" fill="#3d3d3d"/>
      <path id="Path_474" data-name="Path 474" d="M136.94,170.71a1.41,1.41,0,1,1,1.77.92,1.41,1.41,0,0,1-1.77-.92Z" transform="translate(38 4)" fill="#f0799b"/>
      <path id="Path_475" data-name="Path 475" d="M137.18,170.63a1.41,1.41,0,1,1,1.77.92,1.41,1.41,0,0,1-1.77-.92Z" transform="translate(38 4)" fill="#ffedf2"/>
      <path id="Path_476" data-name="Path 476" d="M137.65,170.21a.21.21,0,1,1,.41,0,.205.205,0,0,1-.41,0Z" transform="translate(38 4)" fill="#3d3d3d"/>
      <path id="Path_477" data-name="Path 477" d="M139,170.21a.21.21,0,1,1,.41,0,.205.205,0,0,1-.41,0Z" transform="translate(38 4)" fill="#3d3d3d"/>
      <path id="Path_478" data-name="Path 478" d="M100.79,130.41s-.12,2.52,1.39,3-1.55,5.92-1.31,9.58,1.86,5.14,1.86,5.14a6,6,0,0,1-.35-3.26,5,5,0,0,0,1.83,3.9c1.89,1.31,1.38,2.44,1.38,2.44s4.28-1.28,4.4-4.49a8.29,8.29,0,0,1,0,2.05s3.69-2.78,3.87-6-2.91-5.9-4.31-5.95-4.54-2.81-4.46-3.85S100.79,130.41,100.79,130.41Z" transform="translate(38 4)" fill="#3d3d3d"/>
      <path id="Path_479" data-name="Path 479" d="M100.81,214.65s5.08,3.21,5.83,3.18c1.74-.06,5.18-3.87,8-2.11s5.67,4.7,4.68,5.87-4.36-.21-6,0-5.6,2.21-8.41,1.28-8.54-4.58-8.54-4.58Z" transform="translate(38 4)" fill="#ffb27d"/>
      <path id="Path_480" data-name="Path 480" d="M94.56,156.44s-18.93,22.35-25.19,34.95c0,0,7.53,16.39,31.94,29.71a8.47,8.47,0,0,0,2.74-1.42c2.59-1.85-.28-3.2-.84-3.56-6.2-4-17-21.29-17.33-22.79s13.56-15,17.78-19.92S101.11,153.88,94.56,156.44Z" transform="translate(38 4)" fill="#ffb27d"/>
      <path id="Path_481" data-name="Path 481" d="M123.43,134.33s2.53,1.53,4.34,1.35,2.75-2.33,2.75-2.33a14.93,14.93,0,0,0-7.09.98Z" transform="translate(38 4)" fill="#fff2e9"/>
      <path id="Path_482" data-name="Path 482" d="M94.56,156.44l-8.5,8.31S88,177,100.87,178.61c0,0,10.56-8.45,4.25-17.26S94.56,156.44,94.56,156.44Z" transform="translate(38 4)" fill="#fff"/>
      <path id="Path_483" data-name="Path 483" d="M106.64,217.83a2.69,2.69,0,0,1,1.37-1.72c1.1-.48,2.11-1.54,2.2-1.24a1.43,1.43,0,0,1-.41,1.46,3.63,3.63,0,0,1-3.16,1.5Z" transform="translate(38 4)" fill="#ffb27d"/>
      <path id="Path_484" data-name="Path 484" d="M116.39,398.24H90a14.48,14.48,0,0,1,.75-7.07c1.32-2.92,3.39-4.25,2.89-7.79a9.53,9.53,0,0,0,8.22,3.14c.46.76,3,4.81,4.57,5.93C108.17,393.69,115.86,393.25,116.39,398.24Z" transform="translate(38 4)" fill="#3d3d3d"/>
      <path id="Path_485" data-name="Path 485" d="M398.74,397.83l-.5-149.2s-1.14-10.75-10.51-10.81c-10-.06-10.64,10.68-10.64,10.68a1.13,1.13,0,0,0,1.16.94,1.21,1.21,0,0,0,1.26-.92s.49-8.28,8.2-8.24c7.23.05,8.11,8.34,8.11,8.34l-.89,149.18Z" transform="translate(38 4)" fill="#3d3d3d"/>
      <path id="Path_486" data-name="Path 486" d="M393.64,397.8h6.22l-.51-6.5s.06-.91-1.2-1-3.47-.23-3.7.47S393.64,397.8,393.64,397.8Z" transform="translate(38 4)" fill="#3d3d3d"/>
      <path id="Path_487" data-name="Path 487" d="M387.7,229.92l-.44,2.13a13.66,13.66,0,0,0-13.08,11.18s-.7,4.7,2.7,3.72,2.88-3.39,7.69-4.67,7.94-2.28,8.69-5.77l.81-3.89Z" transform="translate(38 4)" fill="#ffb27d"/>
      <path id="Path_488" data-name="Path 488" d="M425.54,137.64s-2.85,11-5.32,21c-1,4-1.92,7.92-2.58,10.87s-1.05,5.09-.91,5.32c2.07,3.41-1.87,24.1-4.94,31.6-.27.67-.64,1.44-1.09,2.31-4.28,8.26-15.63,24.47-15.63,24.47a14.06,14.06,0,0,1-5.25-.49,6.87,6.87,0,0,1-2.9-2.79c1-1.61,5.2-20.73,10.51-31.43,2.27-4.58,5.82-47.15,10.2-52.86C411.28,140.86,425.54,137.64,425.54,137.64Z" transform="translate(38 4)" fill="#fff"/>
      <path id="Path_489" data-name="Path 489" d="M416.73,174.81c2.07,3.41-1.87,24.1-4.94,31.6-.27.67-.64,1.44-1.09,2.31-3.93-17.9,2.91-43.18,2.91-43.18a8.27,8.27,0,0,1,4,4C417,172.53,416.59,174.58,416.73,174.81Z" transform="translate(38 4)" fill="#e6e6e6"/>
      <path id="Path_490" data-name="Path 490" d="M444.78,381.67s1,16.18-2.08,16.39c-.4,0-15.49-.06-15.49-.06l-19.46-.12s.35-4.75,6-5.7,15.08-4.85,18.53-12.27C435.91,372.11,444.78,381.67,444.78,381.67Z" transform="translate(38 4)" fill="#3d3d3d"/>
      <path id="Path_491" data-name="Path 491" d="M474.05,381.84S475,398,472,398.23c-.4,0-15.49-.06-15.49-.06L437,398.05s.35-4.75,6-5.69,15.08-4.85,18.54-12.27C465.18,372.28,474.05,381.84,474.05,381.84Z" transform="translate(38 4)" fill="#3d3d3d"/>
      <path id="Path_492" data-name="Path 492" d="M445.93,342.68c.44,6.84,1.37,15.65,1,23.57-.55,11.09-1,20.43-1,20.43-7.32,2.45-20.72-.65-20.72-.65s-4.59-28-8.37-50.43c-1.7-10-3.11-18.71-3.63-22.81-1.68-13.24,2.37-83.58,2.37-83.58s19.86-12.56,28-6,13.12,13-.47,84.51C442.08,313.17,445,327.35,445.93,342.68Z" transform="translate(38 4)" fill="#6b6b6b"/>
      <path id="Path_493" data-name="Path 493" d="M445.93,342.68c.44,6.84,1.26,17.8.86,25.72-6.83-7.31-20.29-22.75-29.94-32.8-1.7-10-3.11-18.71-3.63-22.81-1.68-13.24,2.37-83.58,2.37-83.58s19.86-12.56,28-6,13.12,13-.47,84.51C442.08,313.17,445,327.35,445.93,342.68Z" transform="translate(38 4)" fill="#4d4d4d"/>
      <path id="Path_494" data-name="Path 494" d="M433.46,230.75s1.36,70.44,4.05,83.51,16.83,72.94,16.83,72.94,13.57,1.32,20.69-1.68c0,0-.29-27.69-2.6-44-2.16-15.21-6.11-29.12-5.5-34.61,8.06-72.34,2.59-78.36-6-84.3S433.46,230.75,433.46,230.75Z" transform="translate(38 4)" fill="#6b6b6b"/>
      <path id="Path_495" data-name="Path 495" d="M460.27,237.08a13.66,13.66,0,0,0,4.24,16.68s3.9,2.7,4.52-.78-.08-2.27.9-7.15-.21-10-3-12.16Z" transform="translate(38 4)" fill="#ffb27d"/>
      <path id="Path_496" data-name="Path 496" d="M421.29,121.65s5.38,8.29,4.25,16l7.92,19.4L448.09,135a51.09,51.09,0,0,1-10.4-19.77Z" transform="translate(38 4)" fill="#ffb27d"/>
      <path id="Path_497" data-name="Path 497" d="M418.87,128.68s19.77,1,20.2-10.89,5.82-19.74-9-20.87C418,96,413.87,101,412.77,105S411.54,128,418.87,128.68Z" transform="translate(38 4)" fill="#ffb27d"/>
      <path id="Path_498" data-name="Path 498" d="M466.65,234.34c-4.25.37-10.1.83-17.2,1.23l-4.4.24c-21.43,1.07-29.93-2.45-29.93-2.45s-.57-.46-.37-3c1-12.95,3.78-16.76,3.46-19.23-.71-5.54-13.87-50.78-13.87-50.78s-.17-14.27,15.74-20.87a37.341,37.341,0,0,1,5.44-1.78c.68,1.85,2.57,4.95,7.45,4.41A25.47,25.47,0,0,0,447.54,135a5.242,5.242,0,0,1,.56,0,47.245,47.245,0,0,1,1.3,4.71c1.26,5.62,2,11.52,5.41,15.95a120,120,0,0,1,8.7,12.91,104,104,0,0,1,5.29,10.3C482.66,210,471.65,233.9,466.65,234.34Z" transform="translate(38 4)" fill="#fff"/>
      <path id="Path_499" data-name="Path 499" d="M466.65,234.34c-4.25.37-10.1.83-17.2,1.23-1.86-34.89,12.55-68.3,12.55-68.3a11.286,11.286,0,0,1,1.51,1.27c2.46,2.42,4.17,6,5.29,10.3C472.94,194.68,469.25,220.35,466.65,234.34Z" transform="translate(38 4)" fill="#e6e6e6"/>
      <path id="Path_500" data-name="Path 500" d="M412.56,117.32s-3.94,15.25,2.58,17.44,23.87.57,24-18.15c0,0-9.14,5.37-13.48,5.21s-7.14-2.69-11.17-.76C414.47,121.06,413,121,412.56,117.32Z" transform="translate(38 4)" fill="#d0d0d0"/>
      <path id="Path_501" data-name="Path 501" d="M448.09,135s13.83.39,21.07,9.94c5.55,7.31,11.24,46.41,11.2,52.3s-6.53,38.31-10.07,41.82a13.33,13.33,0,0,1-5.33,0,10.81,10.81,0,0,1-5.13-2.52s2-36.14,2-39.53c0-4.91-15.14-35-15.14-35S438.81,147.55,448.09,135Z" transform="translate(38 4)" fill="#fff"/>
      <path id="Path_502" data-name="Path 502" d="M438.24,100.66a3.46,3.46,0,0,0-1.81-1.86c-11.11-4.92-19.28.34-19.28.34C424,90,440.49,92,443.91,100.33c5.59,13.53-4.79,16.28-4.79,16.28s-10.32-4.42-4.3-9.83a9.72,9.72,0,0,0,3.29-4.79h0a4.8,4.8,0,0,0,.13-1.33Z" transform="translate(38 4)" fill="#d0d0d0"/>
      <path id="Path_503" data-name="Path 503" d="M124,243.88a14.61,14.61,0,0,1,9.16,16s-1,5-4.06,2.77-1.63-1.8-6-4.82-7.24-7.79-6.74-11.57Z" transform="translate(38 4)" fill="#ffb27d"/>
      <path id="Path_504" data-name="Path 504" d="M124.52,244.67l-6.31,7.66a1.26,1.26,0,0,1-1.21.43c-5.92-1.08-26.3-14.21-33-19.57a19.559,19.559,0,0,1-1.65-1.45c-2.49-2.53-11.07-15-17.16-26.18-3.5-6.41-6.18-12.38-6.39-15.72-.76-11.92,5.51-28.6,5.51-28.6,18.56,6.46,20.51,21.28,20.51,21.28L95.13,220.8l29.14,21.78a1.45,1.45,0,0,1,.25,2.09Z" transform="translate(38 4)" fill="#c8acde"/>
      <path id="Path_505" data-name="Path 505" d="M84,233.19a19.559,19.559,0,0,1-1.65-1.45c-2.49-2.53-11.07-15-17.16-26.18-.78-6.73-.24-13.05,2.53-17.46C67.75,188.1,83.53,215.86,84,233.19Z" transform="translate(38 4)" fill="#a99ec4"/>
      <path id="Path_506" data-name="Path 506" d="M73.34,343.49l-3.15,13.16-2,8.14-6.49,27.1a21.75,21.75,0,0,1-11.35,0,98.911,98.911,0,0,1-2.2-20.15,67.41,67.41,0,0,1,2.21-18.41,42.439,42.439,0,0,1,2.71-7.2C62.28,327.4,73.34,343.49,73.34,343.49Z" transform="translate(38 4)" fill="#ffb27d"/>
      <path id="Path_507" data-name="Path 507" d="M78.73,399.81H48.19a25.78,25.78,0,0,1,.86-9,16.723,16.723,0,0,1,.72-1.94s6.82,1.54,12.7,0c0,0,5.53,4.71,8.87,6.15S78.37,395.64,78.73,399.81Z" transform="translate(38 4)" fill="#3d3d3d"/>
      <path id="Path_508" data-name="Path 508" d="M70.19,356.65l-2,8.14a47,47,0,0,1-20,6.95,67.41,67.41,0,0,1,2.21-18.41c2.81-1.42,5.67-2.17,8.1-1.75C64.57,352.64,68.17,354.86,70.19,356.65Z" transform="translate(38 4)" fill="#e8945b"/>
      <path id="Path_509" data-name="Path 509" d="M62.86,399.81H48.19a25.78,25.78,0,0,1,.86-9C52.73,391.92,60.23,394.79,62.86,399.81Z" transform="translate(38 4)" fill="#3d3d3d"/>
      <path id="Path_510" data-name="Path 510" d="M49,343.49l-3.16,13.16-2,8.14-6.5,27.1a21.74,21.74,0,0,1-11.35,0,98.911,98.911,0,0,1-2.2-20.15,67.82,67.82,0,0,1,2.22-18.41,42.4,42.4,0,0,1,2.7-7.2C37.93,327.4,49,343.49,49,343.49Z" transform="translate(38 4)" fill="#ffb27d"/>
      <path id="Path_511" data-name="Path 511" d="M25.43,388.83s6.81,1.54,12.7,0c0,0,5.52,4.71,8.86,6.15s7,.66,7.39,4.83H23.84S23.2,393.72,25.43,388.83Z" transform="translate(38 4)" fill="#3d3d3d"/>
      <path id="Path_512" data-name="Path 512" d="M45.84,356.65l-2,8.14a47,47,0,0,1-20,6.95,67.82,67.82,0,0,1,2.22-18.41c2.8-1.42,5.66-2.17,8.1-1.75C40.22,352.64,43.82,354.86,45.84,356.65Z" transform="translate(38 4)" fill="#e8945b"/>
      <path id="Path_513" data-name="Path 513" d="M79.71,355.78a6.22,6.22,0,0,1-6,4.6h-49a6.34,6.34,0,0,1-6.31-6.82c.52-6.67,2.35-17.56,3.16-24.92a33.32,33.32,0,0,0,.29-6.78c-4.94-32.7-9.09-71.23-8.59-78.59.07-1,.12-1.57.12-1.57s3.57-.31,9-.52c15.78-.62,47.26-.51,52.49,9.8,5.32,10.51,8.54,80.26,8.54,80.26C84.2,337.76,81.45,349.35,79.71,355.78Z" transform="translate(38 4)" fill="#6b6b6b"/>
      <path id="Path_514" data-name="Path 514" d="M21.58,328.64a33.32,33.32,0,0,0,.29-6.78c-4.94-32.7-9.09-71.23-8.59-78.59.07-1,.12-1.57.12-1.57s3.57-.31,9-.52c8.16,4.81,13.47,13,13.47,13S34.22,315.38,21.58,328.64Z" transform="translate(38 4)" fill="#4d4d4d"/>
      <path id="Path_517" data-name="Path 517" d="M26.58,255.46a14.62,14.62,0,0,1-4.64,17.81s-4.19,2.87-4.84-.86.1-2.43-.91-7.66.28-10.63,3.29-13Z" transform="translate(38 4)" fill="#ffb27d"/>
      <path id="Path_518" data-name="Path 518" d="M66.66,144.44s-.25,2.74-.72,6.46c-.22,1.81-.5,3.86-.83,5.93-.23,1.48-.49,3-.77,4.41L58,182.55l-14.82-24s3.48-2.88,8.2-18.5l.08-.25Z" transform="translate(38 4)" fill="#ffb27d"/>
      <path id="Path_519" data-name="Path 519" d="M75.29,249.57c.2,2.39-.41,2.83-.41,2.83s-9.11,3.3-32,2.16c-2.48-.13-4.82-.25-7-.38-14.76-.87-22.66-1.78-22.66-1.78S1.11,224.48,23.83,190.09a109.431,109.431,0,0,1,9.11-11.88c3.68-4.2,4.49-9.82,5.88-15.15.4-1.53-.75-1.87-.18-3.31,0,0,4.15-1.17,4.57-1.17,2.36,2.07,5.46,6.1,13.17,6.9,5.2.54,7.24-2.4,8-4.16a62.512,62.512,0,0,1,5.73,2.77c14,6.7,15.25,19.7,15.25,19.7S72.51,226,71.71,231.25C71.35,233.59,74.3,237.23,75.29,249.57Z" transform="translate(38 4)" fill="#c8acde"/>
      <path id="Path_520" data-name="Path 520" d="M65.94,150.9c-.22,1.81-1,6.78-1.32,8.85-15.69-6.12-13.63-18-13.21-19.67l.08-.25S59.79,145.72,65.94,150.9Z" transform="translate(38 4)" fill="#e8945b"/>
      <path id="Path_523" data-name="Path 523" d="M66.66,122.81s6.19,7.66,9,10.11C75.66,132.92,82.54,123,66.66,122.81Z" transform="translate(38 4)" fill="#a48b77"/>
      <path id="Path_525" data-name="Path 525" d="M35.86,254.18c-14.76-.87-22.66-1.78-22.66-1.78S1.11,224.48,23.83,190.09C28.43,200.81,39.28,229.47,35.86,254.18Z" transform="translate(38 4)" fill="#a99ec4"/>
      <path id="Path_526" data-name="Path 526" d="M43.21,158.58s-17.53,3.59-25.34,12.64c-6,6.93-12.53,40.81-12.53,46.4,0,5.35,6.15,33.8,10,39.25a1.27,1.27,0,0,0,1.17.54l9.88-1.05a1.45,1.45,0,0,0,1.28-1.66l-5.55-36,19.47-34.53S53.06,170.6,43.21,158.58Z" transform="translate(38 4)" fill="#c8acde"/>
      <path id="Path_527" data-name="Path 527" d="M118.42,390.08a7.53,7.53,0,0,0,4.77,3.61,8.17,8.17,0,0,1,4.95,3.05,1.93,1.93,0,0,1-1.55,3.07h-16.7a2.4,2.4,0,0,1-2.39-2.64c.13-1.24.26-2.68.31-3.78.13-2.42,2.54-4.36,2.54-4.36Z" transform="translate(38 4)" fill="#3d3d3d"/>
      <path id="Path_528" data-name="Path 528" d="M122.2,348c.7,12.7-1,41.56-1,41.56s-1.17,3.22-8.52,4a22.12,22.12,0,0,1-7.49-.61q-2.22-10.25-4.12-19.56c-9.07-44.54-12.62-72-12.62-72L124.26,293s-1.57,25.14-2,42.29C122.08,340.6,122.05,345.17,122.2,348Z" transform="translate(38 4)" fill="#a074c4"/>
      <path id="Path_529" data-name="Path 529" d="M124.26,293s-1.57,25.14-2,42.29L101,373.34c-9.07-44.54-12.62-72-12.62-72Z" transform="translate(38 4)" fill="#816eb4"/>
      <path id="Path_530" data-name="Path 530" d="M88.23,235.37s-13.86-6.31-24.36-.79-4.07,51.1,10.93,55.51h0S102.9,299.08,88.23,235.37Z" transform="translate(38 4)" fill="#3d3d3d"/>
      <path id="Path_531" data-name="Path 531" d="M128.34,303.58h0a1.089,1.089,0,0,0-.13-.17,38.748,38.748,0,0,1-1.83-4l-2.24,2.94c-.06.07-1-.63-1-.55l.22,7.62,2.24-.53.28-.1h0a1.63,1.63,0,0,0,.68-.6l1.81-2.86A1.63,1.63,0,0,0,128.34,303.58Z" transform="translate(38 4)" fill="#e8945b"/>
      <path id="Path_532" data-name="Path 532" d="M118,228.29s4.41,0,7,6.22c5.47,12.86,3.09,40.64,2.76,44.61,0,0,1.88,7.9-.91,21.55l-3.64,2.16s-5.6-54-4.91-59.29S118,228.29,118,228.29Z" transform="translate(38 4)" fill="#e8945b"/>
      <path id="Path_533" data-name="Path 533" d="M89.34,390.08a7.56,7.56,0,0,0,4.78,3.61,8.19,8.19,0,0,1,4.95,3.05,1.93,1.93,0,0,1-1.55,3.07H80.82a2.39,2.39,0,0,1-2.39-2.64c.12-1.24.25-2.68.31-3.78.12-2.42,2.54-4.36,2.54-4.36Z" transform="translate(38 4)" fill="#3d3d3d"/>
      <path id="Path_534" data-name="Path 534" d="M101,177.39c-3.57,0-8.06,1.54-10.46,3.88-2.56,2.48-5.22,2.61-7.12,5.54s-3.2,6.24-2.2,10.54c1.08,4.7.86,9.25,3.81,12.7,1.46,1.71,3.85,1.9,5.51,3.47,3,2.88,6.51,3.79,10.46,3.79,7.45,0,12.09-4.41,15.91-9.91,3-4.41,2.45-7.38,3.16-11.15C122.29,184.38,112.39,177.39,101,177.39Z" transform="translate(38 4)" fill="#f2879b"/>
      <path id="Path_535" data-name="Path 535" d="M111.45,225.22,97.21,232.5l-2.86-9.88a30.19,30.19,0,0,0,2.64-9,37.73,37.73,0,0,0,.29-8.13l11.61,5.94a21.319,21.319,0,0,0-.46,2.66,19.14,19.14,0,0,0,.2,6.21A8.61,8.61,0,0,0,111.45,225.22Z" transform="translate(38 4)" fill="#ffb27d"/>
      <path id="Path_536" data-name="Path 536" d="M78.45,296.82s-2.7,35.9-2.1,93.11A22,22,0,0,0,83.56,392c7.35.73,9.14-2.19,9.14-2.19s7.53-27.92,9.41-40.5c1.73-11.6,13.12-53.45,13.12-53.45Z" transform="translate(38 4)" fill="#a074c4"/>
      <path id="Path_537" data-name="Path 537" d="M120.87,226.21a46,46,0,0,0-11.22-3.16c.07,2-.48,3.95-4.07,4.43-4.79.62-9.06-2.64-11.23-4.86h0s-3.37.36-7.3,1.22a45.935,45.935,0,0,0-6,1.69,12.68,12.68,0,0,0-5.34,3.19h0C72.07,233.24,66,246.84,66,246.84s10.07,3.73,12.61,5.91l.06.49,1.58,13.09-4.7,26.08a4,4,0,0,0-.06.68,3.84,3.84,0,0,0,2.94,3.73s.4.07,1.15.17c5,.7,25.19,3.11,41-1.19a7.71,7.71,0,0,0,5.62-8.05l-2.59-32.42c1.38-.23,3-.48,4.27-.63a8.2,8.2,0,0,1,2.3,0S128.44,229.34,120.87,226.21Z" transform="translate(38 4)" fill="#d0d0d0"/>
      <path id="Path_538" data-name="Path 538" d="M91,274.32c-.2,9.1-6.16,19.79-11.37,22.67-.75-.1-1.15-.17-1.15-.17a3.84,3.84,0,0,1-2.94-3.73,4,4,0,0,1,.06-.68l4.7-26.08-1.58-13.09.12-.35S91.32,258.25,91,274.32Z" transform="translate(38 4)" fill="#6b6b6b" opacity="0.3"/>
      <path id="Path_539" data-name="Path 539" d="M127.93,254.7c-1.33.15-4.27.63-4.27.63l-1.5-13.57S127.15,251.33,127.93,254.7Z" transform="translate(38 4)" fill="#6b6b6b" opacity="0.3"/>
      <path id="Path_540" data-name="Path 540" d="M76.41,287.75,77.63,281c20.65-29.89,22.22-35.25,12.93-48.66a19.73,19.73,0,0,0-9.47-6.79,45.931,45.931,0,0,1,6-1.69,22.219,22.219,0,0,1,5.16,3C120.56,251.42,76.41,287.75,76.41,287.75Z" transform="translate(38 4)" fill="#3d3d3d"/>
      <path id="Path_541" data-name="Path 541" d="M88.58,259.4a17.659,17.659,0,0,0,2.74-1.15s1.12-8.29,9.21-8.85c0,0,3.37,0,2.68,2.32s-.77,1.3-1.67,4.57-3.25,5.75-5.75,5.9l-2.56.69S87.23,259.5,88.58,259.4Z" transform="translate(38 4)" fill="#ffb27d"/>
      <path id="Path_542" data-name="Path 542" d="M91.32,258.25s-13.57,1.23-15.57,2.12c0,0,1.1-3,3-7.48-1.76-1.74-7.58-4.33-11.43-5.52-2.94,7.49-4.07,14.91-2.42,22.06a1.73,1.73,0,0,0,1.61,1.33c4.35.2,18.76.13,29.22-8.67Z" transform="translate(38 4)" fill="#ffb27d"/>
      <path id="Path_543" data-name="Path 543" d="M108.63,220.27C102,220.09,97,213.59,97,213.59l11.44.47a19.14,19.14,0,0,0,.19,6.21Z" transform="translate(38 4)" fill="#e8945b"/>
      <path id="Path_544" data-name="Path 544" d="M109.26,216.28s-14.58,1.78-14.9-8.49,5.77-16.93,9.83-16.85c8.09.15,9.42,3.42,10.36,6.82S116,215.56,109.26,216.28Z" transform="translate(38 4)" fill="#ffb27d"/>
      <path id="Path_545" data-name="Path 545" d="M105.36,210.36s.31,1.28,3.51,1c0,0,2.68-.2,2.58-1.61A8.66,8.66,0,0,0,105.36,210.36Z" transform="translate(38 4)" fill="#fff"/>
      <path id="Path_546" data-name="Path 546" d="M107.8,191s-12.46,0-9.6,8.55c1.8,5.39-4.2,6.23-4.2,6.23l-2.88-8.64,1.8-6.74Z" transform="translate(38 4)" fill="#f2879b"/>
      <g id="Repeat_Grid_6" data-name="Repeat Grid 6" transform="translate(99 95)" clip-path="url(#clip-path-3)">
        <g id="Group_20-13" data-name="Group 20" transform="translate(-4581 -170)">
          <circle id="Ellipse_24-13" data-name="Ellipse 24" cx="2.5" cy="2.5" r="2.5" transform="translate(4581 170)" fill="#f2879b"/>
          <circle id="Ellipse_25-13" data-name="Ellipse 25" cx="2.5" cy="2.5" r="2.5" transform="translate(4591 180)" fill="#f2879b"/>
        </g>
        <g id="Group_20-14" data-name="Group 20" transform="translate(-4561 -170)">
          <circle id="Ellipse_24-14" data-name="Ellipse 24" cx="2.5" cy="2.5" r="2.5" transform="translate(4581 170)" fill="#f2879b"/>
          <circle id="Ellipse_25-14" data-name="Ellipse 25" cx="2.5" cy="2.5" r="2.5" transform="translate(4591 180)" fill="#f2879b"/>
        </g>
        <g id="Group_20-15" data-name="Group 20" transform="translate(-4581 -150)">
          <circle id="Ellipse_24-15" data-name="Ellipse 24" cx="2.5" cy="2.5" r="2.5" transform="translate(4581 170)" fill="#f2879b"/>
          <circle id="Ellipse_25-15" data-name="Ellipse 25" cx="2.5" cy="2.5" r="2.5" transform="translate(4591 180)" fill="#f2879b"/>
        </g>
        <g id="Group_20-16" data-name="Group 20" transform="translate(-4561 -150)">
          <circle id="Ellipse_24-16" data-name="Ellipse 24" cx="2.5" cy="2.5" r="2.5" transform="translate(4581 170)" fill="#f2879b"/>
          <circle id="Ellipse_25-16" data-name="Ellipse 25" cx="2.5" cy="2.5" r="2.5" transform="translate(4591 180)" fill="#f2879b"/>
        </g>
      </g>
      <g id="Group_21" data-name="Group 21">
        <path id="Path_515" data-name="Path 515" d="M45.8,112.7c0-3.63,2.27-6.71,6.19-5.73,3.52.88,6.95.84,6.95,4.47s-2.94,7.84-6.57,7.84a6.58,6.58,0,0,1-6.57-6.58Z" transform="translate(38 4)" fill="#a48b77"/>
        <path id="Path_516" data-name="Path 516" d="M50,144.61s-20.41-18.36-2-31.35c0,0,5.5-1.47,8.3-1,0,0,10-2.93,15.9,3.88s8.41,11.74,3.38,17.82S50,144.61,50,144.61Z" transform="translate(38 4)" fill="#a48b77"/>
        <path id="Path_521" data-name="Path 521" d="M69.3,153s-18.12.58-18.3-10.71-2.66-18.82,8.9-19.67,13.89,3.42,14.87,7.18S74,152.56,69.3,153Z" transform="translate(38 4)" fill="#ffb27d"/>
        <path id="Path_522" data-name="Path 522" d="M70.89,120.94s-1.14,18.85-23.23,16.83C47.66,137.77,48.13,111.66,70.89,120.94Z" transform="translate(38 4)" fill="#a48b77"/>
        <path id="Path_524" data-name="Path 524" d="M66.66,122.81s5.56,9.4,8.37,11.84C75.03,134.65,82.54,123.04,66.66,122.81Z" transform="translate(38 4)" fill="#a48b77"/>
      </g>
    </g>
  </g>
</svg>
