<svg xmlns="http://www.w3.org/2000/svg" width="32" height="50" viewBox="0 0 32 50">
  <g id="icon" transform="translate(0)">
    <g id="レイヤー_1" data-name="レイヤー 1" transform="translate(0)">
      <path id="Path_94" data-name="Path 94" d="M204.158,111.71c.756,0,1.511.011,2.267,0-.756.015-1.511,0-2.267,0s-1.512.015-2.268,0C202.641,111.725,203.4,111.71,204.158,111.71Z" transform="translate(-180.554 -100.027)" fill="#6b6b6b"/>
      <path id="Path_95" data-name="Path 95" d="M183.282,208.753c0,.561-.007,1.121,0,1.682v-1.682c0-.561-.007-1.122,0-1.683C183.275,207.631,183.282,208.191,183.282,208.753Z" transform="translate(-163.91 -185.414)" fill="#6b6b6b"/>
      <path id="Path_96" data-name="Path 96" d="M183.26,124.515c0,.749-.006,1.5,0,2.245-.008-.749,0-1.5,0-2.245s-.011-1.5,0-2.245C183.251,123.019,183.261,123.768,183.26,124.515Z" transform="translate(-163.889 -109.483)" fill="#6b6b6b"/>
      <path id="Path_97" data-name="Path 97" d="M254.96,204.243v0c0-.748-.011-1.5,0-2.243C254.952,202.748,254.96,203.5,254.96,204.243Z" transform="translate(-228.011 -180.874)" fill="#6b6b6b"/>
      <path id="Path_98" data-name="Path 98" d="M61.2,175.364c-.723,0-1.446-.012-2.169,0,.723-.015,1.446,0,2.169,0,.542,0,1.084-.008,1.626,0C62.283,175.356,61.741,175.364,61.2,175.364Z" transform="translate(-52.792 -157.018)" fill="#6b6b6b"/>
      <path id="Path_99" data-name="Path 99" d="M119.71,283.4c0-.781.005-1.562,0-2.343.006.78,0,1.561,0,2.343,0,.715.008,1.432,0,2.147C119.718,284.834,119.71,284.118,119.71,283.4Z" transform="translate(-107.059 -251.666)" fill="#6b6b6b"/>
      <path id="Path_100" data-name="Path 100" d="M60.527,334.442c.566,0,1.134-.009,1.7-.005-.566,0-1.134.005-1.7.005-.756,0-1.511-.015-2.267,0C59.016,334.428,59.771,334.441,60.527,334.442Z" transform="translate(-52.103 -299.459)" fill="#6b6b6b"/>
      <path id="Path_101" data-name="Path 101" d="M30.331,44.805V10.283c0-.325,0-.652-.014-.977a.884.884,0,0,0-1-.954H26.952V7.193c0-1.92.006-3.84,0-5.76,0-1.25-.187-1.427-1.42-1.433H6.593c-1.364,0-1.52.156-1.52,1.53V8.348H3.686c-1.989,0-2,.006-2,1.935q0,16.7,0,33.39v1.212C.02,45.153.02,45.153.019,46.7A10.132,10.132,0,0,0,.031,48.06c.088.653.256,1.294.39,1.94H31.6c.133-1,.346-2.006.384-3.013C32.05,45.284,32,45.284,30.331,44.805ZM3.463,9.985c.7,0,1.383-.026,2.064.006.894.043,1.233-.364,1.224-1.228-.026-2.306-.01-4.611-.01-7.007H25.28V7.7c0,2.281,0,2.282,2.308,2.288h1V44.934H25.281V43.9c0-2.017-.008-4.034,0-6.051,0-.746-.277-1.168-1.091-1.167q-8.186.009-16.371,0c-.818,0-1.089.432-1.084,1.173.012,2.016,0,4.034,0,6.051v1.019H3.459ZM23.5,38.371v6.55H8.514v-6.55Zm6.764,9.905H1.737V46.749H30.26Z" transform="translate(0)" fill="#6b6b6b"/>
      <path id="Path_102" data-name="Path 102" d="M49.06,197.913c1.544,0,3.088.006,4.632,0a.931.931,0,0,0,1.042-1.029q.012-2.292,0-4.583a.931.931,0,0,0-1.025-1.046q-2.365-.02-4.729,0a.888.888,0,0,0-.975.981v2.34H48c0,.748.006,1.5,0,2.243A.946.946,0,0,0,49.06,197.913Zm.672-4.936h3.251v3.2H49.732Z" transform="translate(-42.925 -171.244)" fill="#6b6b6b"/>
      <path id="Path_103" data-name="Path 103" d="M197.889,192.285c.014-.774-.37-1.136-1.138-1.135h-4.439c-.756,0-1.173.337-1.172,1.115v4.486a.934.934,0,0,0,1,1.069c1.577.016,3.154.01,4.73,0a.914.914,0,0,0,1.008-1.046v-2.242C197.889,193.78,197.88,193.032,197.889,192.285Zm-1.735,3.821H192.94V192.87h3.218Z" transform="translate(-170.94 -171.159)" fill="#6b6b6b"/>
      <path id="Path_104" data-name="Path 104" d="M120.706,197.752c1.544.016,3.088.013,4.632,0a.945.945,0,0,0,1.078-1.085c0-.187-.006-.374-.007-.562v-1.682c0-.561-.007-1.122,0-1.683,0-.187,0-.374.007-.561.015-.672-.292-1.078-.97-1.089q-2.413-.036-4.829,0a.888.888,0,0,0-.928,1.025q.012,2.291,0,4.584A.92.92,0,0,0,120.706,197.752Zm.72-4.935h3.229v3.242h-3.229Z" transform="translate(-107.041 -171.091)" fill="#6b6b6b"/>
      <path id="Path_105" data-name="Path 105" d="M49.162,118.337c.723-.015,1.446,0,2.169,0,.542,0,1.084-.008,1.626,0,.181,0,.361,0,.542.008.811.022,1.239-.326,1.239-1.15V112.8c0-.749-.326-1.15-1.13-1.136-1.511.02-3.024.017-4.535,0-.757-.007-1.074.368-1.074,1.08v4.488C48,118,48.394,118.352,49.162,118.337Zm.558-4.98h3.238v3.222H49.724Z" transform="translate(-42.927 -99.988)" fill="#6b6b6b"/>
      <path id="Path_106" data-name="Path 106" d="M192.242,118.3c1.544.007,3.088,0,4.633,0a.922.922,0,0,0,1.057-1.007q.014-2.341,0-4.682c-.005-.682-.386-.989-1.072-.976-.756.015-1.511,0-2.267,0s-1.512.015-2.268,0c-.74-.02-1.117.314-1.122,1.037q-.016,2.293,0,4.586A.942.942,0,0,0,192.242,118.3Zm.709-4.954h3.258v3.213h-3.258Z" transform="translate(-170.989 -99.957)" fill="#6b6b6b"/>
      <path id="Path_107" data-name="Path 107" d="M51.316,277.507c.566,0,1.134-.009,1.7-.005.189,0,.377,0,.566.009q1.112.031,1.118-1.046c.011-1.528.014-3.057,0-4.584a.935.935,0,0,0-1.042-1.031H49.026a.925.925,0,0,0-1.057,1.008c-.01,1.56-.013,3.121,0,4.681.005.682.39.985,1.076.969C49.8,277.492,50.561,277.506,51.316,277.507Zm-1.62-4.915H52.92V275.8H49.7Z" transform="translate(-42.892 -242.524)" fill="#6b6b6b"/>
      <path id="Path_108" data-name="Path 108" d="M192.244,277.5q2.317-.017,4.632,0c.766.007,1.057-.392,1.057-1.092v-4.487a.951.951,0,0,0-1.082-1.081q-2.267.009-4.534,0a.97.97,0,0,0-1.117,1.06q-.019,2.291,0,4.584A.917.917,0,0,0,192.244,277.5Zm.724-4.915h3.216v3.233h-3.217Z" transform="translate(-170.985 -242.515)" fill="#6b6b6b"/>
      <path id="Path_109" data-name="Path 109" d="M255,285.677v0Z" transform="translate(-228.051 -251.782)" fill="#6b6b6b"/>
      <path id="Path_110" data-name="Path 110" d="M120.758,277.494q2.318-.013,4.635,0c.69,0,1.043-.314,1.043-1,0-1.562.005-3.124,0-4.685a.882.882,0,0,0-.988-.966q-2.366-.016-4.735,0c-.69,0-1,.39-1,1.062.006.78,0,1.561,0,2.343,0,.715.008,1.432,0,2.147S120,277.5,120.758,277.494Zm.7-4.921h3.25v3.2h-3.25Z" transform="translate(-107.066 -242.51)" fill="#6b6b6b"/>
      <path id="Path_111" data-name="Path 111" d="M120.68,118.357q2.367.022,4.735,0a.916.916,0,0,0,1-1.06c-.008-.749,0-1.5,0-2.245s-.009-1.5,0-2.245c.013-.711-.282-1.108-1.041-1.105q-2.319.009-4.636,0c-.684,0-1.046.314-1.047,1v4.685A.894.894,0,0,0,120.68,118.357Zm.74-4.987h3.232V116.6h-3.238Z" transform="translate(-107.041 -100.018)" fill="#6b6b6b"/>
      <path id="Path_112" data-name="Path 112" d="M122.831,38.926h1.657V36.478h2.456V34.852H124.41V32.39h-1.629v2.483H120.33v1.66h2.5Z" transform="translate(-107.613 -29.003)" fill="#6b6b6b"/>
    </g>
  </g>
</svg>
